<?xml version="1.0" encoding="iso-8859-1"?>
<!-- Generator: Adobe Illustrator 19.2.1, SVG Export Plug-In . SVG Version: 6.00 Build 0)  -->
<svg version="1.1" xmlns="http://www.w3.org/2000/svg" xmlns:xlink="http://www.w3.org/1999/xlink" x="0px" y="0px"
	 viewBox="0 0 30 30" style="enable-background:new 0 0 30 30;" xml:space="preserve">
<g id="Pompkin">
</g>
<g id="Layer_10">
</g>
<g id="Bat">
	<g>
		<g>
			<path d="M10.729,24.319c-0.067,0-0.134-0.013-0.198-0.041c-5.551-2.395-8.741-4.051-9.758-10.25
				c-0.03-0.184,0.044-0.369,0.194-0.481c0.149-0.111,0.347-0.131,0.516-0.051c1.695,0.811,3.31,1.498,4.422,1.009
				c0.618-0.271,1.071-0.905,1.387-1.938c0.081-0.261,0.354-0.409,0.617-0.333c0.776,0.224,1.815,0.282,2.407-0.225
				c0.483-0.417,0.652-1.195,0.502-2.314c-0.029-0.221,0.09-0.434,0.294-0.524c0.204-0.089,0.443-0.034,0.585,0.136
				c0.488,0.583,1.3,0.799,2.016,0.539c0.784-0.285,1.234-1.039,1.234-2.069c0-0.276,0.224-0.5,0.5-0.5s0.5,0.224,0.5,0.5
				c0,1.03,0.449,1.785,1.232,2.069c0.713,0.259,1.523,0.043,2.012-0.54c0.144-0.171,0.382-0.227,0.585-0.136
				c0.204,0.09,0.323,0.303,0.294,0.524c-0.15,1.124,0.018,1.903,0.5,2.319c0.583,0.503,1.616,0.443,2.388,0.22
				c0.265-0.075,0.538,0.073,0.617,0.334c0.317,1.037,0.769,1.672,1.381,1.941c1.088,0.48,2.692-0.206,4.378-1.012
				c0.168-0.08,0.367-0.06,0.516,0.051c0.149,0.112,0.224,0.297,0.194,0.481c-1.009,6.156-4.238,7.827-9.858,10.25
				c-0.211,0.091-0.459,0.026-0.598-0.158c-0.139-0.184-0.133-0.439,0.013-0.618c0.758-0.925,0.971-1.771,0.633-2.516
				c-0.396-0.873-1.503-1.454-2.452-1.575c-0.166,0.16-0.394,0.28-0.606,0.392c-0.052,0.027-0.119,0.063-0.175,0.094v1.454
				c0,0.22-0.144,0.414-0.354,0.478c-0.208,0.064-0.438-0.016-0.561-0.198l-0.684-1.014c-0.132-0.001-0.263-0.009-0.392-0.02
				l-1.164,1.115c-0.145,0.139-0.357,0.176-0.542,0.099C13.12,21.732,13,21.551,13,21.351v-1.545
				c-0.027-0.027-0.058-0.055-0.089-0.085c-0.089-0.085-0.193-0.185-0.281-0.303c-0.86,0.124-1.818,0.626-2.195,1.456
				c-0.344,0.757-0.108,1.666,0.68,2.628c0.146,0.178,0.151,0.434,0.013,0.618C11.031,24.249,10.882,24.319,10.729,24.319z
				 M17.521,18.389c0.005,0,0.011,0,0.016,0c1.319,0.042,2.981,0.805,3.606,2.183c0.237,0.523,0.383,1.264,0.055,2.17
				c4.256-1.906,6.69-3.514,7.676-7.932c-1.581,0.703-3.077,1.16-4.321,0.612c-0.791-0.347-1.377-1.043-1.784-2.119
				c-0.732,0.139-1.975,0.223-2.853-0.534c-0.551-0.474-0.85-1.177-0.895-2.097c-0.67,0.323-1.459,0.375-2.186,0.112
				c-0.593-0.216-1.066-0.605-1.391-1.124c-0.325,0.518-0.798,0.907-1.392,1.123c-0.729,0.264-1.519,0.211-2.19-0.111
				c-0.045,0.917-0.345,1.618-0.896,2.092c-0.886,0.762-2.136,0.679-2.872,0.538c-0.406,1.072-0.995,1.767-1.79,2.116
				c-1.267,0.555-2.776,0.097-4.365-0.609c0.983,4.441,3.376,6.046,7.556,7.922c-0.365-0.957-0.218-1.731,0.028-2.273
				c0.622-1.368,2.197-2.033,3.397-2.071c0.141-0.007,0.265,0.046,0.362,0.139c0.097,0.093,0.153,0.221,0.154,0.355
				c0.005-0.038,0.105,0.058,0.164,0.115C13.779,19.168,14,19.379,14,19.691v0.488l0.192-0.184c0.004-0.04,0.014-0.081,0.029-0.12
				c0.084-0.222,0.316-0.355,0.546-0.316c0.307,0.048,0.66,0.072,0.988,0.044l0.255-0.029c0.063-0.323,0.386-0.492,0.699-0.657
				c0.102-0.054,0.261-0.138,0.339-0.195c0.026-0.073,0.069-0.14,0.126-0.194C17.269,18.439,17.392,18.389,17.521,18.389z"/>
		</g>
		<g>
			<path d="M21.012,23.702c-0.109,0-0.22-0.036-0.312-0.109c-0.215-0.173-0.25-0.487-0.078-0.703l2.468-3.085
				c0.174-0.214,0.488-0.25,0.703-0.078c0.215,0.173,0.25,0.487,0.078,0.703l-2.468,3.085
				C21.304,23.638,21.159,23.702,21.012,23.702z"/>
		</g>
		<g>
			<path d="M9.906,23.702c-0.147,0-0.292-0.064-0.391-0.188L7.047,20.43c-0.172-0.216-0.137-0.53,0.078-0.703
				c0.216-0.173,0.531-0.136,0.703,0.078l2.468,3.085c0.172,0.216,0.137,0.53-0.078,0.703C10.126,23.667,10.016,23.702,9.906,23.702
				z"/>
		</g>
		<g>
			<path d="M29.5,7h-29C0.224,7,0,6.776,0,6.5S0.224,6,0.5,6h29C29.776,6,30,6.224,30,6.5S29.776,7,29.5,7z"/>
		</g>
		<g>
			<path d="M16.693,10.745c-0.052,0-0.105-0.008-0.158-0.026c-0.262-0.087-0.403-0.37-0.316-0.632l1.234-3.702
				c0.087-0.261,0.368-0.405,0.632-0.316c0.262,0.087,0.403,0.37,0.316,0.632l-1.234,3.702
				C17.098,10.612,16.903,10.745,16.693,10.745z"/>
		</g>
		<g>
			<path d="M14.225,10.127c-0.198,0-0.386-0.119-0.464-0.314l-1.234-3.085c-0.103-0.256,0.022-0.547,0.279-0.65
				c0.253-0.102,0.548,0.021,0.65,0.279l1.234,3.085c0.103,0.256-0.022,0.547-0.279,0.65C14.35,10.116,14.287,10.127,14.225,10.127z
				"/>
		</g>
	</g>
</g>
<g id="Ghost">
</g>
<g id="Bone_Hand">
</g>
<g id="Tree_Ghost">
</g>
<g id="Gate">
</g>
<g id="Cemetery_1">
</g>
<g id="Cemetery_2">
</g>
<g id="Devil_x27_s_Fork">
</g>
<g id="Night_Candle">
</g>
<g id="Canlestick">
</g>
<g id="Black_Cat">
</g>
<g id="Witch_Cauldron">
</g>
<g id="Corn_Candy">
</g>
<g id="Layer_29">
</g>
<g id="Bones">
</g>
<g id="Witch_Broom">
</g>
<g id="Owl">
</g>
<g id="Scythe">
</g>
<g id="Grim_Reaper">
</g>
<g id="Coffin">
</g>
<g id="Dracula">
</g>
<g id="Frankenstein">
</g>
<g id="Layer_40">
</g>
<g id="Toilet_Paper">
</g>
<g id="Skull">
</g>
<g id="Skull_Cake">
</g>
<g id="Eyeball">
</g>
<g id="Castle">
</g>
<g id="Witch_x27_s_Hat">
</g>
<g id="Cobweb_1">
</g>
<g id="Cobweb_2">
</g>
<g id="Spider">
</g>
<g id="Full_Moon">
</g>
<g id="Crescent">
</g>
<g id="Crow">
</g>
<g id="Candy_Holder">
</g>
<g id="Bloody_Knife">
</g>
<g id="Bloody_Axe">
</g>
</svg>
