<?xml version="1.0" encoding="iso-8859-1"?>
<!-- Generator: Adobe Illustrator 19.2.1, SVG Export Plug-In . SVG Version: 6.00 Build 0)  -->
<svg version="1.1" xmlns="http://www.w3.org/2000/svg" xmlns:xlink="http://www.w3.org/1999/xlink" x="0px" y="0px"
	 viewBox="0 0 30 30" style="enable-background:new 0 0 30 30;" xml:space="preserve">
<g id="Pompkin">
</g>
<g id="Layer_10">
</g>
<g id="Bat">
</g>
<g id="Ghost">
</g>
<g id="Bone_Hand">
</g>
<g id="Tree_Ghost">
</g>
<g id="Gate">
</g>
<g id="Cemetery_1">
</g>
<g id="Cemetery_2">
</g>
<g id="Devil_x27_s_Fork">
</g>
<g id="Night_Candle">
</g>
<g id="Canlestick">
</g>
<g id="Black_Cat">
	<g>
		<g>
			<path d="M23.751,29.992c-1.68,0-3.252-0.768-4.126-2.11c-0.151-0.231-0.085-0.541,0.146-0.692
				c0.231-0.15,0.541-0.085,0.692,0.146c0.909,1.397,2.801,1.999,4.603,1.464C27.529,28.068,29,25.502,29,21.935
				c0-3.129-2.055-4.933-4.23-6.843c-2.26-1.984-4.596-4.035-4.596-7.657c0-3.622,2.538-4.913,4.913-4.913
				C28.481,2.522,30,4.673,30,6.804c0,2.361-1.921,4.283-4.283,4.283c-0.276,0-0.5-0.224-0.5-0.5s0.224-0.5,0.5-0.5
				c1.81,0,3.283-1.473,3.283-3.283c0-1.994-1.536-3.282-3.913-3.282c-0.918,0-3.913,0.282-3.913,3.913
				c0,3.169,2.067,4.984,4.256,6.905c2.247,1.973,4.57,4.013,4.57,7.595c0,4.035-1.738,6.959-4.65,7.824
				C24.818,29.916,24.279,29.992,23.751,29.992z"/>
		</g>
		<g>
			<path d="M11.848,6.043c-0.276,0-0.5-0.224-0.5-0.5V1.5L9.626,2.791c-0.221,0.166-0.535,0.121-0.7-0.1
				c-0.166-0.221-0.121-0.534,0.1-0.7L11.548,0.1c0.152-0.113,0.354-0.13,0.523-0.047c0.169,0.085,0.276,0.258,0.276,0.447v5.043
				C12.348,5.82,12.124,6.043,11.848,6.043z"/>
		</g>
		<g>
			<path d="M0.5,6.043c-0.276,0-0.5-0.224-0.5-0.5V0.5c0-0.189,0.107-0.362,0.276-0.447C0.445-0.031,0.649-0.014,0.8,0.1
				l2.522,1.891c0.221,0.166,0.266,0.479,0.1,0.7c-0.166,0.222-0.479,0.267-0.7,0.1L1,1.5v4.043C1,5.82,0.776,6.043,0.5,6.043z"/>
		</g>
		<g>
			<path d="M14.37,30H8.065c-0.235,0-0.439-0.164-0.489-0.394c-0.014-0.064-0.123-0.642,0.328-1.162
				c0.336-0.389,0.882-0.622,1.627-0.696c-0.644-1.095-0.894-2.669-0.494-3.756c0.112-0.305,0.273-0.557,0.473-0.751
				c-0.134-0.065-0.263-0.128-0.385-0.189c-0.197-0.098-0.417-0.105-0.623-0.021c-0.204,0.084-0.361,0.254-0.431,0.464l-2.055,6.164
				C5.95,29.862,5.759,30,5.543,30H3.022c-0.276,0-0.5-0.224-0.5-0.5c0-0.72,0.555-1.065,1-1.343c0.148-0.093,0.303-0.187,0.438-0.3
				c0.694-0.639,0.736-7.347-0.154-10.186c-0.553-1.763-0.764-3.741-0.968-5.654c-0.067-0.626-0.132-1.239-0.208-1.826
				C0.978,9.271,0,7.786,0,6.174c0-2.709,2.77-4.913,6.174-4.913s6.174,2.204,6.174,4.913c0,1.154-0.504,2.253-1.429,3.136
				c0.605,0.805,1.751,1.519,2.957,2.27c1.154,0.719,2.348,1.463,3.361,2.428h0c3.179,3.029,4.721,7.663,3.929,11.803
				C20.656,28.473,18.179,30,14.37,30z M8.772,29h5.597c1.93,0,5.251-0.438,5.813-3.376c0.73-3.816-0.698-8.091-3.636-10.892
				c0,0,0,0,0,0c-0.938-0.895-2.087-1.61-3.199-2.303c-1.482-0.923-2.882-1.795-3.52-2.972C9.712,9.245,9.765,8.982,9.951,8.83
				c0.9-0.732,1.396-1.675,1.396-2.656c0-2.158-2.321-3.913-5.174-3.913S1,4.016,1,6.174c0,1.302,0.866,2.518,2.317,3.251
				c0.146,0.074,0.248,0.215,0.27,0.378c0.093,0.671,0.168,1.382,0.246,2.108c0.199,1.864,0.404,3.792,0.928,5.46
				c0.764,2.435,1.156,10.044-0.139,11.235C4.438,28.763,4.248,28.884,4.062,29h1.122l1.941-5.822
				c0.162-0.485,0.524-0.876,0.996-1.072c0.469-0.195,0.997-0.177,1.452,0.049c0.356,0.177,0.771,0.378,1.224,0.586l0.183,0.09
				c0.211,0.105,0.321,0.344,0.261,0.573c-0.059,0.229-0.271,0.392-0.506,0.374c-0.252-0.015-0.566,0.041-0.756,0.558
				c-0.382,1.035,0.098,2.871,0.917,3.508c0.173,0.135,0.238,0.368,0.16,0.573c-0.079,0.205-0.272,0.33-0.501,0.32
				C9.47,28.658,8.985,28.85,8.772,29z"/>
		</g>
		<g>
			<path d="M7.87,6.33c-0.14,0-0.275-0.059-0.371-0.165c-0.117-0.129-0.158-0.31-0.109-0.477C7.425,5.573,7.523,5.284,7.697,5.11
				C7.874,4.933,8.162,4.84,8.278,4.808C8.444,4.762,8.62,4.804,8.747,4.919c0.127,0.115,0.186,0.288,0.157,0.456
				C8.875,5.538,8.8,5.839,8.614,6.025l0,0C8.43,6.211,8.127,6.291,7.963,6.321C7.932,6.327,7.901,6.33,7.87,6.33z"/>
		</g>
		<g>
			<path d="M4.375,6.314c-0.031,0-0.062-0.003-0.093-0.009c-0.164-0.031-0.465-0.11-0.65-0.295C3.445,5.823,3.37,5.521,3.342,5.357
				C3.313,5.189,3.373,5.017,3.5,4.902c0.127-0.114,0.304-0.157,0.469-0.11C4.085,4.824,4.373,4.917,4.55,5.095
				c0.173,0.172,0.271,0.462,0.306,0.578C4.904,5.84,4.863,6.021,4.746,6.15C4.65,6.255,4.515,6.314,4.375,6.314z"/>
		</g>
	</g>
</g>
<g id="Witch_Cauldron">
</g>
<g id="Corn_Candy">
</g>
<g id="Layer_29">
</g>
<g id="Bones">
</g>
<g id="Witch_Broom">
</g>
<g id="Owl">
</g>
<g id="Scythe">
</g>
<g id="Grim_Reaper">
</g>
<g id="Coffin">
</g>
<g id="Dracula">
</g>
<g id="Frankenstein">
</g>
<g id="Layer_40">
</g>
<g id="Toilet_Paper">
</g>
<g id="Skull">
</g>
<g id="Skull_Cake">
</g>
<g id="Eyeball">
</g>
<g id="Castle">
</g>
<g id="Witch_x27_s_Hat">
</g>
<g id="Cobweb_1">
</g>
<g id="Cobweb_2">
</g>
<g id="Spider">
</g>
<g id="Full_Moon">
</g>
<g id="Crescent">
</g>
<g id="Crow">
</g>
<g id="Candy_Holder">
</g>
<g id="Bloody_Knife">
</g>
<g id="Bloody_Axe">
</g>
</svg>
