<?xml version="1.0" encoding="iso-8859-1"?>
<!-- Generator: Adobe Illustrator 19.2.1, SVG Export Plug-In . SVG Version: 6.00 Build 0)  -->
<svg version="1.1" xmlns="http://www.w3.org/2000/svg" xmlns:xlink="http://www.w3.org/1999/xlink" x="0px" y="0px"
	 viewBox="0 0 30 30" style="enable-background:new 0 0 30 30;" xml:space="preserve">
<g id="Pompkin">
</g>
<g id="Layer_10">
</g>
<g id="Bat">
</g>
<g id="Ghost">
</g>
<g id="Bone_Hand">
</g>
<g id="Tree_Ghost">
</g>
<g id="Gate">
</g>
<g id="Cemetery_1">
</g>
<g id="Cemetery_2">
</g>
<g id="Devil_x27_s_Fork">
</g>
<g id="Night_Candle">
</g>
<g id="Canlestick">
</g>
<g id="Black_Cat">
</g>
<g id="Witch_Cauldron">
</g>
<g id="Corn_Candy">
</g>
<g id="Layer_29">
</g>
<g id="Bones">
</g>
<g id="Witch_Broom">
</g>
<g id="Owl">
</g>
<g id="Scythe">
</g>
<g id="Grim_Reaper">
</g>
<g id="Coffin">
</g>
<g id="Dracula">
</g>
<g id="Frankenstein">
</g>
<g id="Layer_40">
</g>
<g id="Toilet_Paper">
</g>
<g id="Skull">
</g>
<g id="Skull_Cake">
</g>
<g id="Eyeball">
</g>
<g id="Castle">
</g>
<g id="Witch_x27_s_Hat">
</g>
<g id="Cobweb_1">
</g>
<g id="Cobweb_2">
</g>
<g id="Spider">
</g>
<g id="Full_Moon">
</g>
<g id="Crescent">
</g>
<g id="Crow">
</g>
<g id="Candy_Holder">
</g>
<g id="Bloody_Knife">
</g>
<g id="Bloody_Axe">
	<g>
		<g>
			<g>
				<path d="M27.141,17.861c-0.086,0-0.171-0.022-0.247-0.065l-1.183-0.677c-0.214-0.123-0.307-0.384-0.217-0.614
					c0.631-1.626,1.487-3.552,2.095-4.881c0.114-0.25,0.407-0.36,0.658-0.249l1.456,0.646c0.123,0.055,0.22,0.158,0.267,0.285
					c0.046,0.127,0.039,0.268-0.02,0.39l-2.359,4.883c-0.061,0.124-0.169,0.219-0.302,0.26C27.24,17.854,27.19,17.861,27.141,17.861
					z M26.584,16.467l0.34,0.194l1.901-3.936l-0.531-0.235C27.768,13.651,27.114,15.134,26.584,16.467z"/>
			</g>
			<g>
				<path d="M20.253,13.826c-0.091,0-0.181-0.024-0.26-0.072c-0.617-0.375-1.123-0.724-1.577-1.035
					c-0.647-0.445-1.159-0.797-1.724-1.042c-1.771-0.77-5.241-0.892-8.028-0.99c-1.788-0.063-3.199-0.112-3.929-0.313l-0.302-0.082
					c-1.659-0.45-3.375-0.915-4.394-3.29c-0.059-0.137-0.053-0.293,0.015-0.425l2.874-5.611c0.076-0.149,0.223-0.25,0.39-0.269
					C3.483,0.672,3.65,0.744,3.758,0.872C3.771,0.888,5.068,2.41,7.587,3.569c2.381,1.095,3.679,1.34,5.054,1.6
					c1.511,0.286,3.071,0.581,6.1,1.917l3.725,1.722c0.122,0.057,0.217,0.16,0.262,0.287s0.036,0.267-0.022,0.388
					c-0.539,1.096-1.306,2.657-2.003,4.065c-0.063,0.126-0.174,0.22-0.309,0.259C20.347,13.819,20.3,13.826,20.253,13.826z
					 M1.055,6.818c0.829,1.746,2.077,2.084,3.641,2.508l0.306,0.083c0.616,0.17,2.113,0.223,3.698,0.278
					c2.872,0.102,6.446,0.227,8.392,1.071c0.653,0.284,1.228,0.679,1.892,1.136c0.321,0.221,0.67,0.461,1.067,0.715
					c0.532-1.077,1.085-2.201,1.53-3.108l-3.252-1.504c-2.914-1.286-4.418-1.57-5.873-1.845c-1.437-0.271-2.794-0.528-5.286-1.675
					C5.354,3.643,4.134,2.642,3.501,2.042L1.055,6.818z"/>
			</g>
		</g>
		<g>
			<path d="M26.238,26.277c-0.53,0-1.474-0.063-2.768-0.392c-0.143-0.036-0.261-0.133-0.326-0.264
				c-0.064-0.132-0.067-0.285-0.01-0.419c0.212-0.49,0.494-0.848,0.841-1.065c-0.059-0.185-0.35-0.358-1.264-0.772
				c-0.302-0.137-0.638-0.289-1.001-0.471c-1.175-0.588-1.549-0.968-2.065-1.494c-0.256-0.261-0.558-0.567-1.037-0.976
				c-1.239-1.052-3.353-0.884-4.989-0.598c-0.034,0.146-0.127,0.278-0.261,0.345c-0.188,0.094-0.414,0.083-0.567-0.065
				c-0.298-0.289-0.628-0.669-0.531-1.038c0.046-0.177,0.186-0.314,0.362-0.358c1.39-0.346,5.19-1.631,6.083-3.399
				c1.191-2.362,3.793-7.683,3.793-7.684c0.059-0.12,0.164-0.212,0.291-0.255c0.129-0.041,0.267-0.03,0.386,0.029l5.611,2.874
				c0.24,0.123,0.34,0.415,0.225,0.659c-0.024,0.05-2.398,5.087-3.149,7.516c-0.709,2.29,1.246,7.069,1.266,7.117
				c0.06,0.145,0.049,0.307-0.029,0.441c-0.077,0.135-0.213,0.226-0.367,0.246C26.712,26.257,26.544,26.277,26.238,26.277z
				 M24.395,25.071c0.655,0.132,1.176,0.183,1.547,0.199c-0.543-1.484-1.682-5.028-1.035-7.115c0.647-2.095,2.393-5.912,2.995-7.209
				l-4.729-2.423c-0.657,1.342-2.594,5.292-3.575,7.238c-0.629,1.244-2.206,2.197-3.677,2.853c1.216,0.017,2.425,0.275,3.334,1.049
				c0.513,0.435,0.841,0.769,1.104,1.036c0.482,0.491,0.773,0.788,1.8,1.301c0.351,0.176,0.676,0.322,0.967,0.454
				c1.128,0.512,2.102,0.953,1.816,2.12c-0.039,0.163-0.158,0.295-0.315,0.352C24.544,24.956,24.467,25.004,24.395,25.071z
				 M24.456,24.456h0.01H24.456z"/>
		</g>
		<g>
			<path d="M21.935,30c-0.971,0-1.761-0.79-1.761-1.761c0-0.323,0.162-0.751,0.409-1.367c0.104-0.257,0.202-0.491,0.234-0.634
				c0.112-0.503,0.066-0.831-0.137-0.977c-0.523-0.374-1.985,0.079-2.268,0.252c-0.913,0.557-1.313,1.072-1.189,1.532
				c0.124,0.467,0.168,0.935,0.168,1.193c0,0.971-0.79,1.761-1.761,1.761c-0.972,0-1.762-0.79-1.762-1.761
				c0-0.323,0.162-0.751,0.409-1.367c0.104-0.257,0.202-0.491,0.234-0.634c0.577-2.567-0.07-3.334-0.756-4.146
				c-0.52-0.616-1.108-1.313-1.148-2.664c-0.007-0.245,0.164-0.459,0.405-0.506c1.876-0.361,4.567-0.683,6.241,0.741
				c0.513,0.435,0.841,0.769,1.104,1.036c0.482,0.491,0.773,0.788,1.8,1.301c0.351,0.176,0.676,0.322,0.967,0.454
				c1.128,0.512,2.102,0.953,1.816,2.12c-0.039,0.163-0.158,0.295-0.315,0.352c-0.624,0.226-0.972,1.433-0.932,3.229
				C23.695,29.21,22.905,30,21.935,30z M20.051,24.121c0.444,0,0.876,0.087,1.212,0.328c0.386,0.275,0.79,0.847,0.53,2.008
				c-0.045,0.199-0.154,0.472-0.281,0.788c-0.118,0.292-0.336,0.836-0.338,0.994c0,0.42,0.341,0.761,0.761,0.761
				s0.761-0.341,0.761-0.761c-0.048-2.168,0.394-3.559,1.279-4.104c-0.061-0.184-0.353-0.358-1.263-0.771
				c-0.302-0.137-0.638-0.289-1.001-0.471c-1.175-0.588-1.549-0.968-2.065-1.494c-0.256-0.261-0.558-0.567-1.037-0.976
				c-1.232-1.046-3.33-0.886-4.961-0.603c0.116,0.728,0.472,1.148,0.874,1.625c0.774,0.918,1.652,1.959,0.967,5.01
				c-0.045,0.199-0.154,0.472-0.281,0.788c-0.118,0.292-0.336,0.836-0.338,0.994c0,0.42,0.342,0.761,0.762,0.761
				s0.761-0.341,0.761-0.761c0-0.207-0.042-0.588-0.135-0.935c-0.252-0.939,0.298-1.829,1.635-2.645
				C18.163,24.494,19.132,24.121,20.051,24.121z"/>
		</g>
	</g>
</g>
</svg>
