<?xml version="1.0" encoding="iso-8859-1"?>
<!-- Generator: Adobe Illustrator 19.2.1, SVG Export Plug-In . SVG Version: 6.00 Build 0)  -->
<svg version="1.1" xmlns="http://www.w3.org/2000/svg" xmlns:xlink="http://www.w3.org/1999/xlink" x="0px" y="0px"
	 viewBox="0 0 30 30" style="enable-background:new 0 0 30 30;" xml:space="preserve">
<g id="Pompkin">
</g>
<g id="Layer_10">
</g>
<g id="Bat">
</g>
<g id="Ghost">
</g>
<g id="Bone_Hand">
</g>
<g id="Tree_Ghost">
</g>
<g id="Gate">
</g>
<g id="Cemetery_1">
</g>
<g id="Cemetery_2">
</g>
<g id="Devil_x27_s_Fork">
</g>
<g id="Night_Candle">
</g>
<g id="Canlestick">
</g>
<g id="Black_Cat">
</g>
<g id="Witch_Cauldron">
</g>
<g id="Corn_Candy">
</g>
<g id="Layer_29">
</g>
<g id="Bones">
</g>
<g id="Witch_Broom">
</g>
<g id="Owl">
</g>
<g id="Scythe">
</g>
<g id="Grim_Reaper">
</g>
<g id="Coffin">
</g>
<g id="Dracula">
</g>
<g id="Frankenstein">
</g>
<g id="Layer_40">
</g>
<g id="Toilet_Paper">
</g>
<g id="Skull">
</g>
<g id="Skull_Cake">
</g>
<g id="Eyeball">
</g>
<g id="Castle">
</g>
<g id="Witch_x27_s_Hat">
</g>
<g id="Cobweb_1">
</g>
<g id="Cobweb_2">
</g>
<g id="Spider">
</g>
<g id="Full_Moon">
</g>
<g id="Crescent">
</g>
<g id="Crow">
</g>
<g id="Candy_Holder">
</g>
<g id="Bloody_Knife">
	<g>
		<g>
			<path d="M11.878,10.748c-0.082,0-0.164-0.021-0.237-0.061L4.932,7.062C3.937,7.438,2.85,7.371,1.916,6.865
				C1.059,6.402,0.433,5.632,0.153,4.697C-0.126,3.762-0.024,2.774,0.44,1.916c0.463-0.857,1.233-1.484,2.168-1.764
				C3.545-0.125,4.53-0.023,5.39,0.44l9.123,4.931c0.243,0.131,0.334,0.435,0.202,0.677l-2.397,4.438
				c-0.063,0.117-0.169,0.204-0.297,0.242C11.974,10.741,11.926,10.748,11.878,10.748z M4.96,6.009c0.082,0,0.164,0.021,0.237,0.061
				l6.479,3.501l1.922-3.558L4.914,1.319c-0.625-0.336-1.341-0.41-2.02-0.208S1.656,1.769,1.32,2.392
				c-0.338,0.623-0.411,1.341-0.209,2.02c0.203,0.679,0.657,1.238,1.28,1.575c0.731,0.395,1.593,0.419,2.36,0.067
				C4.818,6.023,4.89,6.009,4.96,6.009z"/>
		</g>
		<g>
			<path d="M3.651,4.783c-0.186,0-0.369-0.046-0.536-0.137C2.851,4.504,2.656,4.266,2.569,3.976c-0.086-0.29-0.055-0.596,0.09-0.86
				C2.802,2.851,3.04,2.656,3.33,2.569c0.289-0.085,0.597-0.054,0.86,0.09C4.456,2.803,4.649,3.041,4.736,3.33
				c0.086,0.29,0.055,0.596-0.09,0.86C4.504,4.455,4.266,4.649,3.976,4.736C3.869,4.768,3.76,4.783,3.651,4.783z M3.653,3.522
				c-0.015,0-0.027,0.002-0.037,0.006c-0.001,0-0.078,0.063-0.078,0.063c0,0.001,0.054,0.176,0.054,0.176
				c0.001,0,0.176-0.054,0.176-0.054c0-0.001-0.054-0.176-0.054-0.176C3.692,3.526,3.671,3.522,3.653,3.522z"/>
		</g>
		<g>
			<path d="M25.673,17.208c-0.181,0-0.364-0.044-0.534-0.135c-0.548-0.297-0.753-0.983-0.458-1.532
				c0.298-0.55,0.982-0.754,1.532-0.458l0,0c0.266,0.144,0.46,0.382,0.546,0.672c0.086,0.289,0.055,0.595-0.088,0.86
				C26.466,16.993,26.075,17.208,25.673,17.208z M25.676,15.947c-0.046,0-0.091,0.025-0.115,0.069
				c-0.033,0.063-0.01,0.143,0.054,0.177c0.062,0.032,0.143,0.009,0.177-0.054c0.033-0.063,0.011-0.143-0.053-0.176
				c0,0,0-0.001-0.001-0.001C25.718,15.952,25.697,15.947,25.676,15.947z"/>
		</g>
		<g>
			<path d="M24.04,24.84c-0.288,0-0.574-0.071-0.835-0.213l-1.642-0.95c-0.166-0.097-0.263-0.28-0.247-0.472
				c0.015-0.191,0.139-0.358,0.317-0.428c0.002,0,0.13-0.052,0.131-0.053c0.398-0.144,0.629-0.333,0.686-0.564
				c0.098-0.397-0.241-1.079-0.884-1.778c-0.674-0.733-1.274-0.761-2.104-0.798c-0.657-0.029-1.401-0.063-2.277-0.452
				c-1.02-0.453-1.461-0.853-1.887-1.238c-0.385-0.349-0.749-0.678-1.621-1.065c-0.421-0.188-0.755-0.352-1.042-0.493
				c-0.974-0.48-1.301-0.64-2.777-0.525c-0.016,0.006-0.089,0.041-0.113,0.062c-0.121,0.15-0.312,0.208-0.497,0.164
				c-0.188-0.045-0.325-0.203-0.365-0.392c-0.09-0.426-0.035-0.84,0.159-1.197l4.795-8.873c0.063-0.119,0.173-0.207,0.303-0.244
				c0.129-0.038,0.268-0.02,0.387,0.048l14.563,8.394c0.402,0.218,0.704,0.589,0.839,1.04c0.134,0.45,0.085,0.927-0.14,1.341
				l-4.196,7.764c-0.224,0.414-0.595,0.716-1.045,0.851C24.379,24.815,24.209,24.84,24.04,24.84z M22.851,23.267l0.844,0.488
				c0.354,0.191,0.818,0.054,1.018-0.315l4.196-7.764c0.097-0.18,0.118-0.386,0.06-0.58c-0.058-0.194-0.188-0.354-0.367-0.451
				L14.471,6.5l-4.483,8.298c1.584-0.099,2.1,0.153,3.09,0.641c0.277,0.136,0.6,0.295,1.006,0.476
				c1.019,0.453,1.459,0.852,1.886,1.238c0.385,0.349,0.749,0.678,1.622,1.065c0.704,0.313,1.319,0.341,1.915,0.367
				c0.906,0.041,1.844,0.082,2.797,1.121c0.641,0.696,1.354,1.729,1.119,2.692C23.337,22.742,23.146,23.032,22.851,23.267z
				 M21.935,23.195h0.01H21.935z"/>
		</g>
		<g>
			<path d="M14.369,30c-0.971,0-1.761-0.79-1.761-1.761c0-0.303,0.142-0.67,0.376-1.239c0.103-0.251,0.244-0.594,0.259-0.714
				c0.57-4.628-1.219-6.347-2.657-7.728c-0.886-0.851-1.723-1.654-1.76-2.913c-0.014-0.542,0.668-0.812,0.955-0.833
				c1.756-0.134,2.266,0.118,3.296,0.626c0.277,0.136,0.6,0.295,1.006,0.476c1.019,0.453,1.459,0.852,1.886,1.238
				c0.385,0.349,0.749,0.678,1.622,1.065c0.704,0.313,1.319,0.341,1.915,0.367c0.906,0.041,1.844,0.082,2.797,1.121
				c0.641,0.696,1.354,1.729,1.119,2.692c-0.142,0.576-0.585,1.003-1.317,1.268c-1.103,0.398-1.12,0.436-0.935,1.992
				c0.083,0.289,0.047,0.74,0.02,1.07c-0.008,0.101-0.016,0.188-0.016,0.25c0,0.971-0.79,1.761-1.761,1.761s-1.761-0.79-1.761-1.761
				c0-0.322,0.161-0.749,0.408-1.363c0.104-0.258,0.202-0.494,0.233-0.637c0.179-0.798-0.113-0.942-0.209-0.99
				c-0.596-0.296-1.826,0.175-2.005,0.386c-0.434,0.937-0.305,1.974-0.117,2.672c0.124,0.467,0.168,0.935,0.168,1.193
				C16.131,29.21,15.341,30,14.369,30z M9.843,15.817c0.106,0.743,0.674,1.288,1.436,2.021c1.515,1.454,3.589,3.445,2.957,8.571
				c-0.031,0.253-0.168,0.586-0.326,0.971c-0.111,0.271-0.297,0.723-0.301,0.86c0,0.419,0.341,0.76,0.761,0.76
				s0.762-0.341,0.762-0.761c0-0.207-0.042-0.588-0.135-0.935c-0.33-1.231-0.262-2.403,0.198-3.389
				c0.306-0.656,2.06-1.272,3.129-0.909c0.401,0.137,1.298,0.624,0.947,2.189c-0.045,0.199-0.154,0.474-0.282,0.791
				c-0.116,0.291-0.334,0.834-0.336,0.991c0,0.42,0.341,0.761,0.761,0.761s0.761-0.341,0.761-0.761c0-0.082,0.009-0.197,0.02-0.33
				c0.02-0.243,0.049-0.609-0.003-0.802c-0.227-1.865-0.151-2.498,1.574-3.121c0.398-0.145,0.629-0.334,0.686-0.565
				c0.098-0.397-0.241-1.079-0.884-1.778c-0.674-0.733-1.274-0.761-2.104-0.798c-0.657-0.029-1.401-0.063-2.277-0.452
				c-1.02-0.453-1.461-0.853-1.887-1.238c-0.385-0.349-0.749-0.678-1.621-1.065c-0.421-0.188-0.755-0.352-1.042-0.493
				c-0.972-0.479-1.298-0.644-2.766-0.526C9.861,15.811,9.853,15.813,9.843,15.817z M9.818,15.312h0.01H9.818z"/>
		</g>
	</g>
</g>
<g id="Bloody_Axe">
</g>
</svg>
