<?xml version="1.0" encoding="iso-8859-1"?>
<!-- Generator: Adobe Illustrator 19.2.1, SVG Export Plug-In . SVG Version: 6.00 Build 0)  -->
<svg version="1.1" xmlns="http://www.w3.org/2000/svg" xmlns:xlink="http://www.w3.org/1999/xlink" x="0px" y="0px"
	 viewBox="0 0 30 30" style="enable-background:new 0 0 30 30;" xml:space="preserve">
<g id="Pompkin">
</g>
<g id="Layer_10">
</g>
<g id="Bat">
</g>
<g id="Ghost">
</g>
<g id="Bone_Hand">
</g>
<g id="Tree_Ghost">
</g>
<g id="Gate">
</g>
<g id="Cemetery_1">
</g>
<g id="Cemetery_2">
</g>
<g id="Devil_x27_s_Fork">
</g>
<g id="Night_Candle">
</g>
<g id="Canlestick">
</g>
<g id="Black_Cat">
</g>
<g id="Witch_Cauldron">
</g>
<g id="Corn_Candy">
</g>
<g id="Layer_29">
</g>
<g id="Bones">
	<g>
		<g>
			<path d="M28.392,4.783c-0.128,0-0.256-0.049-0.354-0.146c-0.826-0.827-2.042-1.151-3.17-0.851
				c-0.271,0.073-0.541-0.088-0.612-0.354c-0.071-0.267,0.088-0.541,0.354-0.612c1.475-0.395,3.058,0.032,4.135,1.109
				c0.195,0.195,0.195,0.512,0,0.707C28.647,4.734,28.52,4.783,28.392,4.783z"/>
		</g>
		<g>
			<path d="M3.303,5.761c-0.222,0-0.424-0.147-0.483-0.372C2.427,3.916,2.853,2.332,3.929,1.254c0.195-0.195,0.512-0.195,0.707,0
				s0.195,0.512,0,0.707c-0.825,0.826-1.15,2.041-0.85,3.171c0.071,0.267-0.088,0.541-0.354,0.612
				C3.389,5.755,3.345,5.761,3.303,5.761z"/>
		</g>
		<g>
			<g>
				<path d="M18.472,15.5c-0.127,0-0.253-0.048-0.351-0.144c-1.15-1.13-2.347-2.327-3.478-3.477c-0.191-0.194-0.191-0.506,0-0.701
					c2.286-2.326,3.96-4.111,4.608-4.912c-0.872-1.654-0.58-3.67,0.763-5.012C20.823,0.446,21.898,0,23.043,0
					c1.144,0,2.22,0.445,3.028,1.254c0.463,0.463,0.803,1.02,1.015,1.66c0.64,0.211,1.197,0.552,1.66,1.015
					c1.669,1.67,1.669,4.386,0,6.056c-1.343,1.344-3.358,1.635-5.013,0.762c-0.8,0.648-2.585,2.322-4.911,4.609
					C18.725,15.452,18.599,15.5,18.472,15.5z M15.701,11.528c0.908,0.92,1.851,1.863,2.771,2.771
					c1.414-1.384,4.061-3.943,4.933-4.56c0.166-0.117,0.387-0.123,0.557-0.014c1.309,0.831,2.985,0.646,4.077-0.447
					c1.279-1.28,1.279-3.362,0-4.642c-0.401-0.401-0.9-0.683-1.483-0.836c-0.174-0.046-0.31-0.182-0.355-0.355
					c-0.154-0.583-0.436-1.082-0.836-1.483c-1.24-1.24-3.402-1.24-4.643,0c-1.093,1.093-1.276,2.769-0.447,4.076
					c0.109,0.171,0.104,0.391-0.014,0.557C19.643,7.468,17.085,10.114,15.701,11.528z"/>
			</g>
			<g>
				<path d="M6.957,30c-1.144,0-2.22-0.445-3.028-1.254c-0.463-0.463-0.803-1.02-1.015-1.66c-0.64-0.211-1.197-0.552-1.66-1.015
					c-1.669-1.67-1.669-4.386,0-6.056c1.344-1.342,3.359-1.633,5.013-0.762c0.8-0.648,2.585-2.322,4.911-4.609
					c0.195-0.191,0.506-0.191,0.701,0c1.15,1.13,2.347,2.327,3.478,3.477c0.191,0.194,0.191,0.506,0,0.701
					c-2.286,2.325-3.96,4.11-4.608,4.912c0.872,1.654,0.58,3.67-0.763,5.012C9.177,29.554,8.102,30,6.957,30z M4.273,19.758
					c-0.844,0-1.677,0.328-2.313,0.964c-1.279,1.28-1.279,3.362,0,4.642c0.401,0.401,0.9,0.683,1.483,0.836
					c0.174,0.046,0.31,0.182,0.355,0.355c0.154,0.583,0.436,1.082,0.836,1.483c1.24,1.24,3.402,1.24,4.643,0
					c1.093-1.093,1.276-2.769,0.447-4.076c-0.109-0.171-0.104-0.391,0.014-0.557c0.62-0.876,3.176-3.521,4.56-4.934
					c-0.908-0.92-1.851-1.863-2.771-2.771c-1.414,1.384-4.061,3.943-4.933,4.56c-0.166,0.117-0.387,0.123-0.557,0.014
					C5.491,19.928,4.879,19.758,4.273,19.758z"/>
			</g>
		</g>
		<g>
			<path d="M23.043,30c-1.145,0-2.22-0.446-3.028-1.254c-1.343-1.342-1.635-3.358-0.762-5.013
				C17.481,21.544,8.455,12.517,6.267,10.748c-1.651,0.873-3.67,0.582-5.012-0.762C0.446,9.177,0,8.101,0,6.958
				c0-1.144,0.446-2.22,1.255-3.028c0.462-0.463,1.02-0.803,1.659-1.015c0.212-0.64,0.552-1.197,1.015-1.66
				C4.737,0.445,5.813,0,6.957,0c1.145,0,2.22,0.446,3.028,1.254c1.343,1.342,1.635,3.358,0.762,5.013
				c1.771,2.189,10.798,11.216,12.986,12.985c1.652-0.871,3.671-0.58,5.012,0.762C29.554,20.823,30,21.899,30,23.042
				c0,1.144-0.446,2.22-1.255,3.028c-0.462,0.463-1.02,0.803-1.659,1.015c-0.212,0.64-0.552,1.197-1.015,1.66
				C25.263,29.555,24.187,30,23.043,30z M6.306,9.647c0.102,0,0.202,0.031,0.288,0.092c1.795,1.268,12.396,11.869,13.667,13.667
				c0.117,0.166,0.123,0.385,0.014,0.557c-0.829,1.307-0.646,2.983,0.447,4.076c1.24,1.24,3.402,1.24,4.643,0
				c0.4-0.401,0.682-0.9,0.836-1.483c0.046-0.174,0.182-0.31,0.355-0.355c0.583-0.154,1.082-0.435,1.482-0.836
				c0.62-0.62,0.962-1.444,0.962-2.321c0-0.876-0.342-1.701-0.962-2.321c-1.075-1.076-2.789-1.264-4.076-0.447
				c-0.17,0.109-0.391,0.103-0.556-0.014C21.611,18.993,11.01,8.392,9.739,6.594C9.622,6.429,9.616,6.209,9.726,6.038
				c0.829-1.307,0.646-2.983-0.447-4.076c-1.24-1.24-3.402-1.24-4.643,0c-0.4,0.401-0.682,0.9-0.836,1.483
				C3.754,3.618,3.618,3.754,3.444,3.8C2.861,3.954,2.362,4.235,1.962,4.636C1.342,5.256,1,6.081,1,6.958
				c0,0.876,0.342,1.701,0.962,2.321c1.075,1.075,2.789,1.264,4.076,0.447C6.119,9.673,6.213,9.647,6.306,9.647z"/>
		</g>
	</g>
</g>
<g id="Witch_Broom">
</g>
<g id="Owl">
</g>
<g id="Scythe">
</g>
<g id="Grim_Reaper">
</g>
<g id="Coffin">
</g>
<g id="Dracula">
</g>
<g id="Frankenstein">
</g>
<g id="Layer_40">
</g>
<g id="Toilet_Paper">
</g>
<g id="Skull">
</g>
<g id="Skull_Cake">
</g>
<g id="Eyeball">
</g>
<g id="Castle">
</g>
<g id="Witch_x27_s_Hat">
</g>
<g id="Cobweb_1">
</g>
<g id="Cobweb_2">
</g>
<g id="Spider">
</g>
<g id="Full_Moon">
</g>
<g id="Crescent">
</g>
<g id="Crow">
</g>
<g id="Candy_Holder">
</g>
<g id="Bloody_Knife">
</g>
<g id="Bloody_Axe">
</g>
</svg>
