<?xml version="1.0" encoding="iso-8859-1"?>
<!-- Generator: Adobe Illustrator 19.2.1, SVG Export Plug-In . SVG Version: 6.00 Build 0)  -->
<svg version="1.1" xmlns="http://www.w3.org/2000/svg" xmlns:xlink="http://www.w3.org/1999/xlink" x="0px" y="0px"
	 viewBox="0 0 30 30" style="enable-background:new 0 0 30 30;" xml:space="preserve">
<g id="Pompkin">
</g>
<g id="Layer_10">
</g>
<g id="Bat">
</g>
<g id="Ghost">
</g>
<g id="Bone_Hand">
	<g>
		<g>
			<path d="M18.378,10.014c-0.058,0-0.117-0.01-0.174-0.031c-0.259-0.096-0.391-0.384-0.295-0.643
				c0.108-0.292,0.248-0.579,0.383-0.857c0.164-0.336,0.319-0.654,0.383-0.923c0.063-0.269,0.333-0.437,0.602-0.371
				c0.269,0.063,0.435,0.333,0.371,0.602c-0.089,0.378-0.276,0.761-0.458,1.132c-0.122,0.249-0.248,0.505-0.344,0.766
				C18.772,9.89,18.581,10.014,18.378,10.014z"/>
		</g>
		<g>
			<path d="M19.592,6.547c-0.032,0-0.065-0.003-0.098-0.01c-0.271-0.054-0.447-0.317-0.393-0.588
				c0.047-0.239,0.037-0.291,0.022-0.356c-0.015-0.071-0.028-0.142-0.033-0.241c-0.012-0.276,0.202-0.509,0.478-0.521
				c0.277-0.017,0.51,0.202,0.521,0.478c0.001,0.032,0.007,0.054,0.012,0.077c0.037,0.174,0.061,0.352-0.021,0.758
				C20.035,6.382,19.826,6.547,19.592,6.547z"/>
		</g>
		<g>
			<path d="M15.136,14.091c-0.092,0-0.186-0.025-0.27-0.079c-0.232-0.149-0.3-0.458-0.151-0.691
				c0.293-0.458,0.601-1.029,0.842-2.505c0.045-0.273,0.301-0.46,0.575-0.413c0.272,0.045,0.457,0.302,0.413,0.575
				c-0.246,1.497-0.572,2.235-0.988,2.883C15.462,14.01,15.3,14.091,15.136,14.091z"/>
		</g>
		<g>
			<path d="M16.46,9.756c-0.017,0-0.033-0.001-0.05-0.002c-0.274-0.027-0.475-0.272-0.448-0.547
				c0.062-0.621,0.068-1.525,0.074-2.251c0.002-0.329,0.004-0.631,0.011-0.874c0.008-0.276,0.263-0.487,0.513-0.487
				c0.276,0.008,0.494,0.237,0.487,0.513c-0.006,0.238-0.009,0.534-0.011,0.855c-0.006,0.786-0.012,1.677-0.079,2.344
				C16.932,9.563,16.714,9.756,16.46,9.756z"/>
		</g>
		<g>
			<path d="M16.459,4.665c-0.265,0-0.486-0.208-0.499-0.477c-0.008-0.17-0.008-0.289-0.008-0.382c0-0.142,0-0.172-0.025-0.264
				c-0.074-0.266,0.083-0.542,0.349-0.615c0.264-0.071,0.542,0.082,0.615,0.349c0.062,0.223,0.062,0.359,0.062,0.531
				c0,0.082,0,0.185,0.007,0.334c0.013,0.276-0.2,0.51-0.476,0.523C16.476,4.665,16.467,4.665,16.459,4.665z"/>
		</g>
		<g>
			<path d="M13.864,14.091c-0.024,0-0.048-0.001-0.073-0.005c-0.273-0.04-0.462-0.293-0.422-0.567
				c0.13-0.894,0.097-2.04-0.004-3.715c-0.017-0.276,0.193-0.513,0.469-0.529c0.28-0.006,0.513,0.193,0.529,0.469
				c0.105,1.741,0.139,2.941-0.004,3.92C14.322,13.912,14.108,14.091,13.864,14.091z"/>
		</g>
		<g>
			<path d="M13.863,7.847c-0.245,0-0.459-0.18-0.495-0.43c-0.047-0.332-0.185-0.887-0.306-1.376
				c-0.089-0.361-0.171-0.694-0.211-0.908C12.8,4.86,12.979,4.599,13.25,4.548c0.276-0.052,0.533,0.128,0.583,0.399
				c0.038,0.202,0.116,0.514,0.2,0.853c0.127,0.513,0.271,1.094,0.325,1.477c0.039,0.273-0.152,0.526-0.425,0.565
				C13.91,7.845,13.886,7.847,13.863,7.847z"/>
		</g>
		<g>
			<path d="M12.934,3.566c-0.221,0-0.423-0.148-0.483-0.372c-0.149-0.562-0.25-0.741-0.277-0.783
				c-0.152-0.23-0.088-0.541,0.142-0.693c0.231-0.151,0.541-0.088,0.693,0.142c0.141,0.214,0.271,0.557,0.409,1.078
				c0.071,0.267-0.088,0.541-0.355,0.611C13.019,3.561,12.976,3.566,12.934,3.566z"/>
		</g>
		<g>
			<path d="M16.409,14.727c-0.027,0-0.055-0.002-0.082-0.007l-3.818-0.636c-0.094-0.016-0.181-0.057-0.251-0.121
				c-0.165-0.148-0.668-0.598-1.387-3.627c-0.064-0.269,0.102-0.538,0.371-0.602c0.269-0.064,0.538,0.103,0.602,0.371
				c0.498,2.098,0.858,2.801,1.008,3.022l3.368,0.561c0.279-0.305,0.569-0.624,1.047-2.085c0.085-0.263,0.368-0.409,0.63-0.32
				c0.263,0.086,0.406,0.368,0.32,0.63c-0.547,1.672-0.927,2.087-1.263,2.453c-0.053,0.058-0.106,0.115-0.159,0.179
				C16.698,14.662,16.557,14.727,16.409,14.727z"/>
		</g>
		<g>
			<path d="M10.761,9c-0.223,0-0.427-0.151-0.484-0.377c-0.105-0.415-0.179-0.921-0.25-1.41c-0.074-0.51-0.151-1.038-0.251-1.341
				C9.689,5.61,9.832,5.327,10.094,5.241c0.262-0.087,0.544,0.056,0.631,0.319c0.127,0.386,0.206,0.932,0.291,1.509
				c0.067,0.464,0.137,0.944,0.23,1.308c0.068,0.268-0.094,0.54-0.362,0.608C10.843,8.995,10.802,9,10.761,9z"/>
		</g>
		<g>
			<path d="M9.701,4.541c-0.199,0-0.388-0.12-0.465-0.317C9.148,4,9.061,3.808,8.975,3.657c-0.137-0.24-0.053-0.545,0.187-0.682
				C9.4,2.837,9.707,2.922,9.844,3.162c0.106,0.187,0.214,0.421,0.323,0.696c0.101,0.257-0.025,0.547-0.282,0.648
				C9.824,4.53,9.762,4.541,9.701,4.541z"/>
		</g>
		<g>
			<path d="M10.681,15.364c-0.081,0-0.162-0.02-0.238-0.061c-0.091-0.049-0.174-0.089-0.255-0.129
				c-0.35-0.17-0.711-0.346-1.466-1.031c-0.205-0.185-0.22-0.501-0.034-0.706c0.185-0.206,0.501-0.22,0.706-0.034
				c0.649,0.588,0.919,0.719,1.231,0.872c0.094,0.046,0.19,0.092,0.295,0.149c0.243,0.131,0.333,0.435,0.201,0.678
				C11.031,15.269,10.859,15.364,10.681,15.364z"/>
		</g>
		<g>
			<path d="M7.832,13.04c-0.139,0-0.277-0.058-0.376-0.17c-0.505-0.577-0.865-1.102-1.069-1.562
				c-0.112-0.252,0.002-0.548,0.254-0.66c0.252-0.114,0.547,0.002,0.66,0.254c0.163,0.368,0.468,0.808,0.907,1.309
				c0.182,0.208,0.161,0.523-0.046,0.706C8.067,12.999,7.949,13.04,7.832,13.04z"/>
		</g>
		<g>
			<path d="M5.801,9.95c-0.196,0-0.383-0.116-0.462-0.31C5.147,9.177,5.067,8.792,5.092,8.462c0.021-0.276,0.267-0.48,0.537-0.46
				c0.275,0.021,0.481,0.261,0.46,0.537C6.082,8.633,6.095,8.852,6.263,9.259c0.105,0.255-0.017,0.547-0.272,0.653
				C5.929,9.938,5.864,9.95,5.801,9.95z"/>
		</g>
		<g>
			<path d="M13.864,17.909c-1.111,0-2.409-0.297-2.409-1.136s1.298-1.137,2.409-1.137s2.409,0.298,2.409,1.137
				S14.975,17.909,13.864,17.909z M15.322,16.925h0.01H15.322z M12.747,16.773c0.254,0.073,0.635,0.136,1.117,0.136
				s0.862-0.063,1.116-0.136c-0.254-0.073-0.634-0.137-1.116-0.137S13.001,16.7,12.747,16.773z"/>
		</g>
		<g>
			<path d="M28.5,28h-28C0.224,28,0,27.776,0,27.5c0-4.154,7.697-5.214,12.285-5.477c0.276-0.013,0.512,0.195,0.528,0.471
				c0.016,0.275-0.195,0.512-0.47,0.527C5.745,23.399,1.617,24.871,1.064,27h26.863c-0.665-2.242-5.779-3.915-12.65-4.054
				c-0.276-0.006-0.495-0.234-0.49-0.51c0.006-0.276,0.236-0.47,0.51-0.49C22.118,22.085,29,23.855,29,27.5
				C29,27.776,28.776,28,28.5,28z"/>
		</g>
		<g>
			<path d="M12.591,24.909c-0.205,0-0.397-0.126-0.47-0.33c-0.149-0.414-0.222-1.137-0.313-2.052
				c-0.083-0.824-0.177-1.759-0.339-2.459c-0.04-0.169-0.145-0.62,0.178-0.902c0.324-0.285,0.719-0.134,1.137,0.023
				c0.313,0.119,0.702,0.266,1.081,0.266c0.392,0,0.824-0.139,1.17-0.25c0.485-0.156,0.9-0.29,1.192,0.048
				c0.286,0.332,0.075,0.761-0.005,0.923c-0.372,0.755-0.416,1.829-0.455,2.776c-0.023,0.579-0.046,1.126-0.142,1.564
				c-0.059,0.27-0.325,0.441-0.595,0.382c-0.27-0.059-0.441-0.325-0.382-0.595c0.077-0.354,0.098-0.858,0.12-1.393
				c0.036-0.872,0.075-1.84,0.357-2.685c-0.362,0.112-0.807,0.229-1.261,0.229c-0.522,0-0.996-0.165-1.356-0.3
				c0.137,0.704,0.22,1.532,0.294,2.273c0.075,0.745,0.152,1.515,0.259,1.812c0.094,0.26-0.041,0.546-0.3,0.64
				C12.705,24.9,12.647,24.909,12.591,24.909z"/>
		</g>
	</g>
</g>
<g id="Tree_Ghost">
</g>
<g id="Gate">
</g>
<g id="Cemetery_1">
</g>
<g id="Cemetery_2">
</g>
<g id="Devil_x27_s_Fork">
</g>
<g id="Night_Candle">
</g>
<g id="Canlestick">
</g>
<g id="Black_Cat">
</g>
<g id="Witch_Cauldron">
</g>
<g id="Corn_Candy">
</g>
<g id="Layer_29">
</g>
<g id="Bones">
</g>
<g id="Witch_Broom">
</g>
<g id="Owl">
</g>
<g id="Scythe">
</g>
<g id="Grim_Reaper">
</g>
<g id="Coffin">
</g>
<g id="Dracula">
</g>
<g id="Frankenstein">
</g>
<g id="Layer_40">
</g>
<g id="Toilet_Paper">
</g>
<g id="Skull">
</g>
<g id="Skull_Cake">
</g>
<g id="Eyeball">
</g>
<g id="Castle">
</g>
<g id="Witch_x27_s_Hat">
</g>
<g id="Cobweb_1">
</g>
<g id="Cobweb_2">
</g>
<g id="Spider">
</g>
<g id="Full_Moon">
</g>
<g id="Crescent">
</g>
<g id="Crow">
</g>
<g id="Candy_Holder">
</g>
<g id="Bloody_Knife">
</g>
<g id="Bloody_Axe">
</g>
</svg>
