<?xml version="1.0" encoding="iso-8859-1"?>
<!-- Generator: Adobe Illustrator 19.2.1, SVG Export Plug-In . SVG Version: 6.00 Build 0)  -->
<svg version="1.1" xmlns="http://www.w3.org/2000/svg" xmlns:xlink="http://www.w3.org/1999/xlink" x="0px" y="0px"
	 viewBox="0 0 30 30" style="enable-background:new 0 0 30 30;" xml:space="preserve">
<g id="Pompkin">
</g>
<g id="Layer_10">
</g>
<g id="Bat">
</g>
<g id="Ghost">
</g>
<g id="Bone_Hand">
</g>
<g id="Tree_Ghost">
</g>
<g id="Gate">
</g>
<g id="Cemetery_1">
</g>
<g id="Cemetery_2">
</g>
<g id="Devil_x27_s_Fork">
</g>
<g id="Night_Candle">
</g>
<g id="Canlestick">
</g>
<g id="Black_Cat">
</g>
<g id="Witch_Cauldron">
</g>
<g id="Corn_Candy">
</g>
<g id="Layer_29">
</g>
<g id="Bones">
</g>
<g id="Witch_Broom">
</g>
<g id="Owl">
</g>
<g id="Scythe">
</g>
<g id="Grim_Reaper">
</g>
<g id="Coffin">
</g>
<g id="Dracula">
</g>
<g id="Frankenstein">
</g>
<g id="Layer_40">
</g>
<g id="Toilet_Paper">
</g>
<g id="Skull">
</g>
<g id="Skull_Cake">
</g>
<g id="Eyeball">
</g>
<g id="Castle">
</g>
<g id="Witch_x27_s_Hat">
</g>
<g id="Cobweb_1">
</g>
<g id="Cobweb_2">
</g>
<g id="Spider">
</g>
<g id="Full_Moon">
</g>
<g id="Crescent">
</g>
<g id="Crow">
</g>
<g id="Candy_Holder">
	<g>
		<g>
			<path d="M15.067,30h-0.115c-3.956,0-8.846-1.829-10.537-5.326c-1.127-2.328-0.72-5.573,1.145-9.149l-0.001-0.009
				c-0.105-1.499-0.225-3.199,1.541-4.112c1.318-0.682,2.754-2.072,2.944-3.408c0.011-0.076,0.039-0.147,0.082-0.211
				c0.592-0.872,2.451-1.316,3.994-1.441c0.935-0.079,4.108-0.201,5.608,1.379c0.071,0.075,0.117,0.171,0.132,0.273
				c0.19,1.336,1.626,2.727,2.944,3.408c1.766,0.913,1.646,2.613,1.541,4.112l-0.001,0.009c1.959,3.752,2.383,6.829,1.26,9.149
				C23.913,28.171,19.023,30,15.067,30z M11.011,8.275c-0.318,1.696-1.993,3.262-3.452,4.017c-1.124,0.581-1.113,1.577-1.002,3.153
				l0.011,0.151c0.006,0.093-0.014,0.186-0.058,0.269c-1.023,1.933-2.541,5.591-1.194,8.373C6.812,27.331,11.397,29,14.952,29h0.115
				c3.555,0,8.141-1.669,9.637-4.762c0.989-2.044,0.549-4.861-1.311-8.374c-0.043-0.082-0.063-0.175-0.057-0.268l0.011-0.151
				c0.111-1.576,0.122-2.572-1.002-3.153c-1.449-0.75-3.112-2.3-3.446-3.983c-0.993-0.913-3.057-1.102-4.698-0.97
				C12.546,7.474,11.364,7.907,11.011,8.275z"/>
		</g>
		<g>
			<path d="M9.415,19.936c-0.984,0-1.671-0.611-1.888-1.685c-0.202-1.001,0.188-2.352,0.95-3.282c0.58-0.709,1.313-1.1,2.062-1.1
				c1.008,0,1.874,0.36,2.438,1.014c0.488,0.566,0.694,1.306,0.578,2.082l0,0c-0.165,1.109-2.42,2.927-4.077,2.97
				C9.457,19.935,9.436,19.936,9.415,19.936z M10.539,14.869c-0.599,0-1.063,0.459-1.287,0.732
				c-0.576,0.704-0.889,1.735-0.744,2.452c0.161,0.8,0.59,0.907,0.944,0.881c1.248-0.031,3.03-1.555,3.114-2.116
				c0.072-0.491-0.047-0.935-0.347-1.282C11.854,15.112,11.241,14.869,10.539,14.869z M13.061,16.892h0.01H13.061z"/>
		</g>
		<g>
			<path d="M20.488,19.936c-0.021,0-0.041-0.001-0.062-0.001c-1.656-0.042-3.912-1.859-4.078-2.969v-0.001
				c-0.116-0.776,0.09-1.516,0.577-2.081c0.564-0.654,1.431-1.015,2.439-1.015c0.749,0,1.48,0.391,2.062,1.1
				c0.762,0.932,1.152,2.281,0.95,3.282C22.16,19.324,21.474,19.936,20.488,19.936z M17.337,16.817
				c0.085,0.563,1.867,2.086,3.115,2.117c0.359,0.028,0.783-0.081,0.944-0.881c0.145-0.717-0.168-1.748-0.744-2.452
				c-0.224-0.273-0.688-0.732-1.287-0.732c-0.703,0-1.316,0.243-1.682,0.667C17.384,15.884,17.265,16.327,17.337,16.817z"/>
		</g>
		<g>
			<path d="M14.321,12.979c-0.126,0-0.249-0.047-0.344-0.137c-0.333-0.315-1.417-1.409-1.417-2.255c0-1.021,0.476-1.761,1.131-1.761
				c0.654,0,1.13,0.74,1.13,1.761v1.892c0,0.2-0.119,0.381-0.303,0.459C14.455,12.965,14.388,12.979,14.321,12.979z M13.691,9.923
				c-0.063,0.127-0.131,0.352-0.131,0.664c0,0.119,0.103,0.32,0.261,0.551v-0.551C13.821,10.274,13.753,10.05,13.691,9.923z"/>
		</g>
		<g>
			<path d="M15.582,12.979c-0.066,0-0.134-0.014-0.197-0.041c-0.184-0.078-0.303-0.259-0.303-0.459v-1.892
				c0-1.021,0.476-1.761,1.131-1.761c0.654,0,1.13,0.74,1.13,1.761c0,0.846-1.084,1.939-1.417,2.255
				C15.831,12.932,15.708,12.979,15.582,12.979z M16.213,9.923c-0.063,0.127-0.131,0.352-0.131,0.664v0.55
				c0.158-0.23,0.261-0.432,0.261-0.55C16.343,10.274,16.274,10.05,16.213,9.923z"/>
		</g>
		<g>
			<path d="M21.944,28.108c-0.04,0-0.08-0.005-0.121-0.015l-2.521-0.63c-0.129-0.032-0.239-0.114-0.308-0.229
				c-0.068-0.113-0.089-0.249-0.057-0.378l0.525-2.1l-2.747-1.099c-0.257-0.103-0.381-0.394-0.278-0.649s0.394-0.381,0.649-0.278
				l3.152,1.261c0.232,0.093,0.36,0.343,0.3,0.585l-0.51,2.037l2.036,0.509c0.268,0.067,0.431,0.339,0.364,0.606
				C22.373,27.957,22.169,28.108,21.944,28.108z"/>
		</g>
		<g>
			<path d="M16.843,7.305c-0.072,0-0.146-0.016-0.215-0.048c-0.249-0.119-0.355-0.417-0.237-0.667l2.706-5.699
				c0.53-0.874,1.615-1.137,2.444-0.635c0.829,0.506,1.094,1.591,0.59,2.421l-0.657,1.077c-0.144,0.237-0.452,0.312-0.687,0.167
				c-0.236-0.144-0.311-0.451-0.167-0.687l0.656-1.077c0.218-0.358,0.104-0.828-0.255-1.047c-0.36-0.217-0.827-0.102-1.046,0.255
				L17.295,7.02C17.209,7.199,17.029,7.305,16.843,7.305z"/>
		</g>
		<g>
			<path d="M13.061,7.305c-0.226,0-0.431-0.153-0.486-0.382L11.282,1.6c-0.094-0.417-0.5-0.673-0.912-0.581
				C9.962,1.112,9.704,1.521,9.797,1.93l0.28,1.229c0.062,0.27-0.107,0.537-0.376,0.599C9.421,3.82,9.163,3.649,9.103,3.382
				l-0.28-1.229c-0.216-0.946,0.38-1.893,1.326-2.108c0.46-0.107,0.931-0.023,1.329,0.227c0.397,0.251,0.675,0.642,0.778,1.1
				l1.291,5.316c0.064,0.269-0.1,0.539-0.368,0.604C13.139,7.3,13.1,7.305,13.061,7.305z"/>
		</g>
		<g>
			<path d="M14.952,7.305c-0.048,0-0.096-0.007-0.144-0.021c-0.265-0.079-0.415-0.357-0.335-0.622l1.891-6.305
				c0.079-0.265,0.359-0.415,0.622-0.335c0.265,0.079,0.415,0.357,0.335,0.622l-1.891,6.305C15.366,7.165,15.167,7.305,14.952,7.305
				z"/>
		</g>
		<g>
			<path d="M12.43,7.305c-0.085,0-0.17-0.021-0.248-0.066L7.77,4.716c-0.24-0.137-0.323-0.442-0.186-0.682
				c0.137-0.241,0.443-0.322,0.682-0.186l4.412,2.522c0.24,0.137,0.323,0.442,0.186,0.682C12.771,7.214,12.603,7.305,12.43,7.305z"
				/>
		</g>
		<g>
			<path d="M15.581,7.305c-0.233,0-0.441-0.164-0.489-0.402l-1.261-6.305c-0.055-0.271,0.121-0.534,0.393-0.588
				c0.257-0.056,0.533,0.12,0.588,0.393l1.261,6.305c0.055,0.271-0.121,0.534-0.393,0.588C15.647,7.302,15.614,7.305,15.581,7.305z"
				/>
		</g>
	</g>
</g>
<g id="Bloody_Knife">
</g>
<g id="Bloody_Axe">
</g>
</svg>
