<?xml version="1.0" encoding="iso-8859-1"?>
<!-- Generator: Adobe Illustrator 19.2.1, SVG Export Plug-In . SVG Version: 6.00 Build 0)  -->
<svg version="1.1" xmlns="http://www.w3.org/2000/svg" xmlns:xlink="http://www.w3.org/1999/xlink" x="0px" y="0px"
	 viewBox="0 0 30 30" style="enable-background:new 0 0 30 30;" xml:space="preserve">
<g id="Pompkin">
</g>
<g id="Layer_10">
</g>
<g id="Bat">
</g>
<g id="Ghost">
</g>
<g id="Bone_Hand">
</g>
<g id="Tree_Ghost">
</g>
<g id="Gate">
</g>
<g id="Cemetery_1">
</g>
<g id="Cemetery_2">
</g>
<g id="Devil_x27_s_Fork">
</g>
<g id="Night_Candle">
</g>
<g id="Canlestick">
	<g>
		<g>
			<path d="M19.5,30h-8c-0.276,0-0.5-0.224-0.5-0.5v-2.38c-1.061-1.242-2.388-3.085-2.388-5.203c0-3.753,3.114-6.807,6.942-6.807
				c3.783,0,6.861,3.054,6.861,6.807c0,2.074-1.265,3.858-2.415,5.203v2.38C20,29.776,19.776,30,19.5,30z M12,29h7v-2.066
				c0-0.121,0.043-0.237,0.123-0.328c1.067-1.229,2.292-2.873,2.292-4.69c0-3.202-2.629-5.807-5.861-5.807
				c-3.221,0-5.942,2.659-5.942,5.807c0,1.865,1.293,3.57,2.266,4.69C11.957,26.697,12,26.813,12,26.934V29z"/>
		</g>
		<g>
			<path d="M16.5,30c-0.276,0-0.5-0.224-0.5-0.5V28c0-0.276,0.224-0.5,0.5-0.5S17,27.724,17,28v1.5C17,29.776,16.776,30,16.5,30z"/>
		</g>
		<g>
			<path d="M14.5,30c-0.276,0-0.5-0.224-0.5-0.5V28c0-0.276,0.224-0.5,0.5-0.5S15,27.724,15,28v1.5C15,29.776,14.776,30,14.5,30z"/>
		</g>
		<g>
			<path d="M18.012,24.986c-0.569,0-1.063-0.209-1.392-0.589c-0.297-0.343-0.422-0.792-0.354-1.262
				c0.107-0.732,1.378-1.695,2.267-1.718c0.62,0.001,1.087,0.378,1.22,1.054c0.117,0.593-0.1,1.351-0.539,1.886
				C18.881,24.762,18.454,24.986,18.012,24.986z M17.254,23.29c-0.023,0.177,0.019,0.333,0.123,0.452
				c0.134,0.155,0.365,0.244,0.635,0.244c0.185,0,0.349-0.166,0.43-0.264c0.272-0.331,0.381-0.798,0.33-1.058
				c-0.047-0.239-0.12-0.243-0.179-0.247C18.13,22.38,17.349,23.027,17.254,23.29z M17.252,23.296L17.252,23.296L17.252,23.296
				L17.252,23.296z M16.761,23.207h0.01H16.761z"/>
		</g>
		<g>
			<path d="M12.977,24.986c-0.447,0-0.879-0.226-1.216-0.637c-0.438-0.534-0.654-1.29-0.536-1.879
				c0.134-0.675,0.605-1.049,1.226-1.053c0.895,0.022,2.174,0.985,2.282,1.717l0,0c0.069,0.469-0.057,0.916-0.353,1.258
				C14.05,24.775,13.552,24.986,12.977,24.986z M12.421,22.417c-0.011,0-0.021,0-0.031,0.001c-0.061,0.004-0.136,0.008-0.184,0.248
				c-0.051,0.257,0.058,0.72,0.329,1.05c0.083,0.101,0.251,0.271,0.442,0.271c0.275,0,0.511-0.09,0.647-0.247
				c0.104-0.121,0.145-0.271,0.122-0.447C13.651,23.033,12.884,22.417,12.421,22.417z"/>
		</g>
		<g>
			<path d="M16.5,16h-2c-0.276,0-0.5-0.224-0.5-0.5v-10C14,5.224,14.224,5,14.5,5h2C16.776,5,17,5.224,17,5.5v10
				C17,15.776,16.776,16,16.5,16z M15,15h1V6h-1V15z"/>
		</g>
		<g>
			<path d="M15.5,6C15.224,6,15,5.776,15,5.5v-2C15,3.224,15.224,3,15.5,3S16,3.224,16,3.5v2C16,5.776,15.776,6,15.5,6z"/>
		</g>
		<g>
			<path d="M15.5,4.785c-0.971,0-1.761-0.791-1.761-1.762c0-0.791,1.033-2.349,1.35-2.807c0.188-0.271,0.636-0.271,0.823,0
				c0.317,0.458,1.351,2.016,1.351,2.807C17.262,3.994,16.471,4.785,15.5,4.785z M15.5,1.417c-0.414,0.675-0.761,1.362-0.761,1.606
				c0,0.42,0.341,0.762,0.761,0.762s0.762-0.342,0.762-0.762C16.262,2.778,15.915,2.092,15.5,1.417z"/>
		</g>
	</g>
</g>
<g id="Black_Cat">
</g>
<g id="Witch_Cauldron">
</g>
<g id="Corn_Candy">
</g>
<g id="Layer_29">
</g>
<g id="Bones">
</g>
<g id="Witch_Broom">
</g>
<g id="Owl">
</g>
<g id="Scythe">
</g>
<g id="Grim_Reaper">
</g>
<g id="Coffin">
</g>
<g id="Dracula">
</g>
<g id="Frankenstein">
</g>
<g id="Layer_40">
</g>
<g id="Toilet_Paper">
</g>
<g id="Skull">
</g>
<g id="Skull_Cake">
</g>
<g id="Eyeball">
</g>
<g id="Castle">
</g>
<g id="Witch_x27_s_Hat">
</g>
<g id="Cobweb_1">
</g>
<g id="Cobweb_2">
</g>
<g id="Spider">
</g>
<g id="Full_Moon">
</g>
<g id="Crescent">
</g>
<g id="Crow">
</g>
<g id="Candy_Holder">
</g>
<g id="Bloody_Knife">
</g>
<g id="Bloody_Axe">
</g>
</svg>
