<?xml version="1.0" encoding="iso-8859-1"?>
<!-- Generator: Adobe Illustrator 19.2.1, SVG Export Plug-In . SVG Version: 6.00 Build 0)  -->
<svg version="1.1" xmlns="http://www.w3.org/2000/svg" xmlns:xlink="http://www.w3.org/1999/xlink" x="0px" y="0px"
	 viewBox="0 0 30 30" style="enable-background:new 0 0 30 30;" xml:space="preserve">
<g id="Pompkin">
</g>
<g id="Layer_10">
</g>
<g id="Bat">
</g>
<g id="Ghost">
</g>
<g id="Bone_Hand">
</g>
<g id="Tree_Ghost">
</g>
<g id="Gate">
</g>
<g id="Cemetery_1">
</g>
<g id="Cemetery_2">
</g>
<g id="Devil_x27_s_Fork">
</g>
<g id="Night_Candle">
</g>
<g id="Canlestick">
</g>
<g id="Black_Cat">
</g>
<g id="Witch_Cauldron">
</g>
<g id="Corn_Candy">
</g>
<g id="Layer_29">
</g>
<g id="Bones">
</g>
<g id="Witch_Broom">
</g>
<g id="Owl">
</g>
<g id="Scythe">
</g>
<g id="Grim_Reaper">
</g>
<g id="Coffin">
</g>
<g id="Dracula">
</g>
<g id="Frankenstein">
</g>
<g id="Layer_40">
</g>
<g id="Toilet_Paper">
</g>
<g id="Skull">
</g>
<g id="Skull_Cake">
</g>
<g id="Eyeball">
</g>
<g id="Castle">
	<g>
		<g>
			<path d="M25.087,30H4.913c-0.226,0-0.423-0.151-0.482-0.368L0.648,15.763c-0.048-0.176,0.003-0.363,0.134-0.49l5.185-5.044
				c0.193-0.189,0.504-0.189,0.697,0L11,14.447V3.021c0-0.161,0.077-0.312,0.208-0.405l3.5-2.521c0.174-0.127,0.41-0.127,0.584,0
				l3.5,2.521C18.923,2.71,19,2.86,19,3.021v11.426l4.336-4.219c0.193-0.19,0.505-0.189,0.7,0.002l5.114,5.044
				c0.128,0.127,0.178,0.312,0.132,0.485L25.57,29.629C25.512,29.848,25.313,30,25.087,30z M5.295,29h19.408l3.537-13.218
				l-4.558-4.495l-4.834,4.702c-0.144,0.14-0.357,0.181-0.543,0.103S18,15.832,18,15.631V3.277l-3-2.161l-3,2.161v12.354
				c0,0.201-0.12,0.383-0.306,0.461c-0.184,0.079-0.399,0.037-0.543-0.103l-4.836-4.705l-4.625,4.5L5.295,29z"/>
		</g>
		<g>
			<path d="M18.5,30c-0.276,0-0.5-0.224-0.5-0.5v-6.805c0-1.833-1.267-3.225-2.964-3.28C13.325,19.471,12,20.892,12,22.695V29.5
				c0,0.276-0.224,0.5-0.5,0.5S11,29.776,11,29.5v-6.805c0-2.289,1.653-4.105,3.819-4.271c0.035-0.008,0.072-0.012,0.11-0.012h0.212
				c0.037,0,0.074,0.004,0.108,0.012c2.159,0.161,3.75,1.943,3.75,4.271V29.5C19,29.776,18.776,30,18.5,30z"/>
		</g>
		<g>
			<path d="M16.5,11h-3c-0.276,0-0.5-0.224-0.5-0.5V6.805c0-0.938,0.879-1.761,1.881-1.761h0.179c0.918,0,1.94,0.723,1.94,1.761
				V10.5C17,10.776,16.776,11,16.5,11z M14,10h2V6.805c0-0.377-0.475-0.761-0.94-0.761h-0.179C14.428,6.044,14,6.414,14,6.805V10z"
				/>
		</g>
		<g>
			<path d="M7.5,21H5.544c-0.244,0-0.452-0.176-0.493-0.416L4.42,16.889c-0.007-1.047,0.767-1.802,1.754-1.802
				c0.055,0,0.108,0.009,0.159,0.026C7.249,15.181,8,15.968,8,16.892V20.5C8,20.776,7.776,21,7.5,21z M5.965,20H7v-3.108
				c0-0.417-0.371-0.783-0.794-0.783c-0.043,0-0.086-0.006-0.127-0.017c-0.386,0.042-0.666,0.334-0.666,0.713L5.965,20z"/>
		</g>
		<g>
			<path d="M24.456,21H22.5c-0.276,0-0.5-0.224-0.5-0.5v-3.608c0-0.931,0.762-1.723,1.688-1.78c0.048-0.015,0.096-0.024,0.139-0.024
				c0.987,0,1.761,0.755,1.761,1.718l-0.638,3.779C24.908,20.824,24.7,21,24.456,21z M23,20h1.034l0.56-3.279
				c-0.007-0.304-0.293-0.594-0.685-0.63c-0.04,0.011-0.079,0.018-0.115,0.018c-0.423,0-0.794,0.366-0.794,0.783V20z"/>
		</g>
		<g>
			<path d="M4.282,7.305c-2.014,0-3.651-1.639-3.651-3.652S2.269,0,4.282,0c0.189,0,0.37,0.107,0.454,0.277
				C4.821,0.447,4.81,0.65,4.695,0.802C4.34,1.272,4.152,1.822,4.152,2.392c0,1.456,1.185,2.645,2.641,2.65
				C6.982,5.043,7.155,5.15,7.239,5.32C7.323,5.489,7.304,5.692,7.19,5.843C6.489,6.771,5.43,7.305,4.282,7.305z M3.369,1.165
				C2.353,1.539,1.631,2.513,1.631,3.652c0,1.463,1.189,2.652,2.651,2.652c0.519,0,1.012-0.15,1.435-0.429
				C4.233,5.412,3.152,4.023,3.152,2.392C3.152,1.97,3.226,1.557,3.369,1.165z"/>
		</g>
		<g>
			<path d="M15,30c-0.275,0-0.499-0.223-0.5-0.499l-0.03-10.58l1-0.011l0.03,10.589C15.501,29.774,15.277,29.999,15,30L15,30z"/>
		</g>
	</g>
</g>
<g id="Witch_x27_s_Hat">
</g>
<g id="Cobweb_1">
</g>
<g id="Cobweb_2">
</g>
<g id="Spider">
</g>
<g id="Full_Moon">
</g>
<g id="Crescent">
</g>
<g id="Crow">
</g>
<g id="Candy_Holder">
</g>
<g id="Bloody_Knife">
</g>
<g id="Bloody_Axe">
</g>
</svg>
