<?xml version="1.0" encoding="iso-8859-1"?>
<!-- Generator: Adobe Illustrator 19.2.1, SVG Export Plug-In . SVG Version: 6.00 Build 0)  -->
<svg version="1.1" xmlns="http://www.w3.org/2000/svg" xmlns:xlink="http://www.w3.org/1999/xlink" x="0px" y="0px"
	 viewBox="0 0 30 30" style="enable-background:new 0 0 30 30;" xml:space="preserve">
<g id="Pompkin">
</g>
<g id="Layer_10">
</g>
<g id="Bat">
</g>
<g id="Ghost">
</g>
<g id="Bone_Hand">
</g>
<g id="Tree_Ghost">
</g>
<g id="Gate">
</g>
<g id="Cemetery_1">
</g>
<g id="Cemetery_2">
</g>
<g id="Devil_x27_s_Fork">
</g>
<g id="Night_Candle">
</g>
<g id="Canlestick">
</g>
<g id="Black_Cat">
</g>
<g id="Witch_Cauldron">
</g>
<g id="Corn_Candy">
</g>
<g id="Layer_29">
</g>
<g id="Bones">
</g>
<g id="Witch_Broom">
</g>
<g id="Owl">
</g>
<g id="Scythe">
</g>
<g id="Grim_Reaper">
</g>
<g id="Coffin">
</g>
<g id="Dracula">
</g>
<g id="Frankenstein">
</g>
<g id="Layer_40">
</g>
<g id="Toilet_Paper">
</g>
<g id="Skull">
</g>
<g id="Skull_Cake">
</g>
<g id="Eyeball">
</g>
<g id="Castle">
</g>
<g id="Witch_x27_s_Hat">
</g>
<g id="Cobweb_1">
	<g>
		<g>
			<path d="M4.283,30c-0.119,0-0.239-0.042-0.334-0.128c-0.205-0.186-0.222-0.501-0.037-0.707L15.13,16.7V0.5
				c0-0.276,0.224-0.5,0.5-0.5s0.5,0.224,0.5,0.5v16.392c0,0.123-0.046,0.242-0.128,0.335L4.654,29.835
				C4.556,29.944,4.419,30,4.283,30z"/>
		</g>
		<g>
			<path d="M14.37,30c-0.017,0-0.033-0.001-0.05-0.003c-0.275-0.027-0.475-0.272-0.448-0.547l1.261-12.608
				c0.015-0.145,0.091-0.276,0.211-0.359l12.609-8.826c0.226-0.159,0.538-0.104,0.696,0.122s0.104,0.538-0.123,0.696L16.105,17.17
				l-1.238,12.38C14.841,29.808,14.624,30,14.37,30z"/>
		</g>
		<g>
			<path d="M29.5,26.218c-0.092,0-0.185-0.025-0.268-0.078l-13.87-8.826L1.444,5.931C1.23,5.756,1.199,5.441,1.374,5.228
				c0.176-0.215,0.49-0.245,0.704-0.07l13.87,11.348l13.822,8.791c0.233,0.148,0.302,0.457,0.153,0.69
				C29.827,26.136,29.665,26.218,29.5,26.218z"/>
		</g>
		<g>
			<path d="M15.63,17.392H0.5c-0.276,0-0.5-0.224-0.5-0.5s0.224-0.5,0.5-0.5h15.13c0.276,0,0.5,0.224,0.5,0.5
				S15.907,17.392,15.63,17.392z"/>
		</g>
		<g>
			<path d="M8.696,30c-0.027,0-0.055-0.002-0.083-0.007l-3.783-0.631c-0.186-0.031-0.338-0.163-0.395-0.343L0.654,17.042
				c-0.021-0.067-0.028-0.139-0.02-0.209L1.895,6.115c0.022-0.192,0.155-0.354,0.338-0.416l13.239-4.413
				c0.146-0.048,0.307-0.027,0.436,0.059L27.255,8.91c0.139,0.093,0.223,0.249,0.223,0.416v15.13c0,0.213-0.134,0.401-0.335,0.472
				l-12.608,4.413c-0.128,0.043-0.268,0.035-0.389-0.024l-6.304-3.151c-0.125-0.063-0.219-0.175-0.257-0.31l-2.522-8.826
				c-0.026-0.092-0.025-0.189,0.002-0.281l1.891-6.305c0.048-0.16,0.172-0.285,0.332-0.334l8.196-2.521
				c0.148-0.048,0.308-0.02,0.434,0.068l6.304,4.413c0.124,0.086,0.201,0.224,0.212,0.373l0.631,8.826
				c0.015,0.208-0.1,0.403-0.289,0.49l-8.196,3.782c-0.158,0.07-0.342,0.058-0.487-0.038l-3.783-2.521
				c-0.107-0.071-0.183-0.182-0.211-0.308L8.838,17c-0.028-0.125-0.006-0.256,0.06-0.365l1.891-3.152
				c0.054-0.091,0.135-0.161,0.232-0.203l4.413-1.892c0.154-0.064,0.333-0.051,0.474,0.044l3.783,2.521
				c0.16,0.106,0.245,0.296,0.218,0.486l-0.63,4.413c-0.018,0.123-0.08,0.234-0.175,0.313l-3.783,3.152
				c-0.17,0.142-0.413,0.156-0.598,0.032l-1.891-1.261c-0.23-0.153-0.292-0.464-0.139-0.693c0.152-0.23,0.462-0.292,0.693-0.139
				l1.581,1.054l3.348-2.79l0.559-3.911l-3.295-2.196l-4.016,1.721l-1.706,2.843l1.174,5.283l3.383,2.255l7.628-3.521l-0.589-8.243
				l-5.909-4.137l-7.707,2.371l-1.772,5.908l2.421,8.475l5.918,2.958l12.074-4.226V9.594L15.557,2.313L2.851,6.548L1.64,16.844
				l3.658,11.583l3.48,0.58c0.272,0.045,0.457,0.303,0.411,0.575C9.148,29.827,8.937,30,8.696,30z"/>
		</g>
	</g>
</g>
<g id="Cobweb_2">
</g>
<g id="Spider">
</g>
<g id="Full_Moon">
</g>
<g id="Crescent">
</g>
<g id="Crow">
</g>
<g id="Candy_Holder">
</g>
<g id="Bloody_Knife">
</g>
<g id="Bloody_Axe">
</g>
</svg>
