<?xml version="1.0" encoding="iso-8859-1"?>
<!-- Generator: Adobe Illustrator 19.2.1, SVG Export Plug-In . SVG Version: 6.00 Build 0)  -->
<svg version="1.1" xmlns="http://www.w3.org/2000/svg" xmlns:xlink="http://www.w3.org/1999/xlink" x="0px" y="0px"
	 viewBox="0 0 30 30" style="enable-background:new 0 0 30 30;" xml:space="preserve">
<g id="Pompkin">
</g>
<g id="Layer_10">
</g>
<g id="Bat">
</g>
<g id="Ghost">
</g>
<g id="Bone_Hand">
</g>
<g id="Tree_Ghost">
</g>
<g id="Gate">
</g>
<g id="Cemetery_1">
</g>
<g id="Cemetery_2">
</g>
<g id="Devil_x27_s_Fork">
</g>
<g id="Night_Candle">
</g>
<g id="Canlestick">
</g>
<g id="Black_Cat">
</g>
<g id="Witch_Cauldron">
</g>
<g id="Corn_Candy">
</g>
<g id="Layer_29">
</g>
<g id="Bones">
</g>
<g id="Witch_Broom">
</g>
<g id="Owl">
</g>
<g id="Scythe">
</g>
<g id="Grim_Reaper">
</g>
<g id="Coffin">
</g>
<g id="Dracula">
</g>
<g id="Frankenstein">
</g>
<g id="Layer_40">
</g>
<g id="Toilet_Paper">
</g>
<g id="Skull">
</g>
<g id="Skull_Cake">
</g>
<g id="Eyeball">
</g>
<g id="Castle">
</g>
<g id="Witch_x27_s_Hat">
</g>
<g id="Cobweb_1">
</g>
<g id="Cobweb_2">
	<g>
		<g>
			<path d="M0.5,30C0.224,30,0,29.776,0,29.5v-29C0,0.224,0.224,0,0.5,0h29C29.776,0,30,0.224,30,0.5S29.776,1,29.5,1H1v28.5
				C1,29.776,0.777,30,0.5,30z"/>
		</g>
		<g>
			<path d="M16.892,17.392c-0.128,0-0.256-0.049-0.354-0.146L0.147,0.854c-0.195-0.195-0.195-0.512,0-0.707s0.512-0.195,0.707,0
				l16.391,16.392c0.195,0.195,0.195,0.512,0,0.707C17.147,17.343,17.02,17.392,16.892,17.392z"/>
		</g>
		<g>
			<path d="M8.332,8.82c-0.135,0-0.271-0.053-0.372-0.153C7.341,8.049,7.777,6.425,7.926,5.942c0.245-0.797,0.863-2.34,2.246-3.723
				c1.17-1.17,2.646-1.733,3.833-2.187c0.256-0.098,0.547,0.029,0.646,0.288c0.098,0.259-0.031,0.547-0.289,0.646
				c-1.154,0.441-2.463,0.94-3.482,1.96C8.836,4.97,8.47,7.591,8.688,7.986c0.195,0.195,0.185,0.498-0.01,0.693
				C8.583,8.774,8.458,8.82,8.332,8.82z"/>
		</g>
		<g>
			<path d="M11.926,12.397c-0.145,0-0.293-0.058-0.399-0.164c-0.627-0.626,0.06-2.443,0.385-3.195
				c0.416-0.962,1.381-2.845,3.181-4.645C18.096,1.391,21.111,0.017,22.293,0c0.273,0.015,0.503,0.218,0.507,0.493
				C22.804,0.77,22.583,0.996,22.307,1c-0.851,0.012-3.633,1.227-6.507,4.101c-2.719,2.72-3.704,5.961-3.519,6.492
				c0.195,0.195,0.172,0.479-0.023,0.674C12.168,12.356,12.048,12.397,11.926,12.397z"/>
		</g>
		<g>
			<path d="M21.326,19.29c-0.136,0-0.274-0.053-0.375-0.154c-0.738-0.737-1.834-7.832,1.848-12.636
				c0.967-1.262,5.536-6.38,6.648-6.497c0.278-0.029,0.521,0.17,0.55,0.444c0.028,0.266-0.157,0.504-0.417,0.546
				c-0.681,0.25-4.41,4.057-5.987,6.115c-3.417,4.458-2.271,10.796-1.909,11.351c0.195,0.195,0.183,0.497-0.013,0.692
				C21.577,19.245,21.452,19.29,21.326,19.29z"/>
		</g>
		<g>
			<path d="M4.301,4.802c-0.128,0-0.256-0.049-0.354-0.146C3.227,3.935,4.643,2.361,5.285,1.719C5.578,1.425,7.037-0.013,7.917,0
				c0.276,0.012,0.49,0.245,0.479,0.521C8.384,0.798,8.161,1.002,7.875,1C7.704,1.025,6.947,1.472,5.992,2.426
				c-0.787,0.787-1.17,1.432-1.236,1.667c0.084,0.185,0.051,0.41-0.101,0.563C4.557,4.753,4.429,4.802,4.301,4.802z"/>
		</g>
		<g>
			<path d="M0.5,14.683c-0.059,0-0.12-0.011-0.178-0.033c-0.258-0.098-0.387-0.387-0.289-0.645c0.452-1.186,1.015-2.661,2.187-3.833
				C4.525,7.866,7.869,7.163,8.667,7.96c0.195,0.195,0.195,0.512,0,0.707c-0.19,0.189-0.492,0.194-0.689,0.018
				c-0.422-0.213-3.023,0.166-5.051,2.194c-1.021,1.021-1.541,2.386-1.959,3.481C0.892,14.561,0.702,14.683,0.5,14.683z
				 M7.986,8.688L7.986,8.688L7.986,8.688z M7.96,8.667C7.96,8.667,7.96,8.668,7.96,8.667C7.96,8.668,7.96,8.667,7.96,8.667z"/>
		</g>
		<g>
			<path d="M0.5,22.8c-0.002,0-0.004,0-0.006,0C0.218,22.796-0.003,22.569,0,22.293c0.015-1.181,1.388-4.195,4.393-7.2
				c2.829-2.829,6.945-4.459,7.84-3.566c0.195,0.195,0.195,0.512,0,0.707c-0.18,0.181-0.463,0.195-0.661,0.041
				c-0.586-0.144-3.785,0.837-6.472,3.525c-2.875,2.875-4.089,5.656-4.1,6.507C0.997,22.58,0.774,22.8,0.5,22.8z M11.526,12.233
				C11.527,12.233,11.527,12.234,11.526,12.233C11.527,12.234,11.527,12.233,11.526,12.233z"/>
		</g>
		<g>
			<path d="M0.5,29.994c-0.03,0-0.061-0.003-0.091-0.009c-0.269-0.051-0.448-0.303-0.4-0.572c0.145-0.82,2.799-5.602,6.614-9.417
				c3.745-3.745,7.216-4.973,9.034-4.864c0.276,0.015,0.487,0.25,0.473,0.525c-0.015,0.275-0.257,0.502-0.526,0.473
				c-1.312-0.067-4.52,0.818-8.274,4.573c-3.781,3.781-6.228,8.346-6.337,8.885C0.945,29.826,0.734,29.994,0.5,29.994z"/>
		</g>
		<g>
			<path d="M0.501,8.406c-0.267,0-0.488-0.22-0.5-0.489c-0.036-0.832,1.424-2.338,1.718-2.632c0.643-0.643,2.217-2.06,2.936-1.337
				c0.195,0.195,0.195,0.512,0,0.707C4.503,4.808,4.277,4.841,4.093,4.756c-0.235,0.066-0.88,0.45-1.667,1.236
				C1.472,6.947,1.026,7.703,1,7.896c0.012,0.275-0.202,0.498-0.478,0.51C0.515,8.406,0.508,8.406,0.501,8.406z"/>
		</g>
		<g>
			<path d="M25.717,24.957c-0.224,0-0.428-0.151-0.484-0.379l-0.536-2.144h-1.5c-0.276,0-0.5-0.224-0.5-0.5s0.224-0.5,0.5-0.5h1.891
				c0.229,0,0.43,0.156,0.485,0.379l0.63,2.522c0.067,0.268-0.096,0.539-0.364,0.606C25.798,24.952,25.757,24.957,25.717,24.957z"/>
		</g>
		<g>
			<path d="M24.457,27.479c-0.276,0-0.5-0.224-0.5-0.5v-0.952l-0.984-0.492c-0.247-0.124-0.347-0.424-0.224-0.671
				c0.124-0.246,0.423-0.349,0.671-0.224l1.261,0.631c0.169,0.085,0.276,0.258,0.276,0.447v1.261
				C24.957,27.255,24.733,27.479,24.457,27.479z"/>
		</g>
		<g>
			<path d="M25.717,21.174c-0.128,0-0.256-0.049-0.354-0.146l-1.006-1.006l-0.938,0.47c-0.248,0.125-0.547,0.022-0.671-0.224
				c-0.124-0.247-0.023-0.547,0.224-0.671l1.261-0.631c0.192-0.094,0.424-0.058,0.577,0.094l1.261,1.261
				c0.195,0.195,0.195,0.512,0,0.707C25.973,21.125,25.845,21.174,25.717,21.174z"/>
		</g>
		<g>
			<path d="M16.892,24.957c-0.04,0-0.081-0.005-0.122-0.015c-0.268-0.067-0.431-0.339-0.364-0.606l0.63-2.522
				c0.055-0.223,0.255-0.379,0.485-0.379h1.891c0.276,0,0.5,0.224,0.5,0.5s-0.224,0.5-0.5,0.5h-1.5l-0.536,2.144
				C17.32,24.806,17.116,24.957,16.892,24.957z"/>
		</g>
		<g>
			<path d="M18.152,27.479c-0.276,0-0.5-0.224-0.5-0.5v-1.261c0-0.189,0.107-0.362,0.276-0.447l1.261-0.631
				c0.247-0.125,0.547-0.022,0.671,0.224c0.124,0.247,0.023,0.547-0.224,0.671l-0.984,0.492v0.952
				C18.652,27.255,18.429,27.479,18.152,27.479z"/>
		</g>
		<g>
			<path d="M16.892,21.174c-0.128,0-0.256-0.049-0.354-0.146c-0.195-0.195-0.195-0.512,0-0.707l1.261-1.261
				c0.152-0.152,0.385-0.189,0.577-0.094l1.261,0.631c0.247,0.124,0.347,0.424,0.224,0.671c-0.124,0.246-0.424,0.349-0.671,0.224
				l-0.938-0.47l-1.006,1.006C17.147,21.125,17.02,21.174,16.892,21.174z"/>
		</g>
		<g>
			<path d="M20.043,19.282c-0.128,0-0.256-0.049-0.354-0.146l-1.261-1.261c-0.195-0.195-0.195-0.512,0-0.707s0.512-0.195,0.707,0
				l1.261,1.261c0.195,0.195,0.195,0.512,0,0.707C20.299,19.233,20.171,19.282,20.043,19.282z"/>
		</g>
		<g>
			<path d="M22.565,19.282c-0.128,0-0.256-0.049-0.354-0.146c-0.195-0.195-0.195-0.512,0-0.707l1.261-1.261
				c0.195-0.195,0.512-0.195,0.707,0s0.195,0.512,0,0.707l-1.261,1.261C22.821,19.233,22.693,19.282,22.565,19.282z"/>
		</g>
		<g>
			<path d="M21.304,26.848c-1.363,0-2.391-1.841-2.391-4.282s1.028-4.283,2.391-4.283s2.392,1.842,2.392,4.283
				S22.667,26.848,21.304,26.848z M21.304,19.282c-0.657,0-1.391,1.404-1.391,3.283s0.734,3.282,1.391,3.282
				s1.392-1.403,1.392-3.282S21.961,19.282,21.304,19.282z"/>
		</g>
	</g>
</g>
<g id="Spider">
</g>
<g id="Full_Moon">
</g>
<g id="Crescent">
</g>
<g id="Crow">
</g>
<g id="Candy_Holder">
</g>
<g id="Bloody_Knife">
</g>
<g id="Bloody_Axe">
</g>
</svg>
