<?xml version="1.0" encoding="iso-8859-1"?>
<!-- Generator: Adobe Illustrator 19.2.1, SVG Export Plug-In . SVG Version: 6.00 Build 0)  -->
<svg version="1.1" xmlns="http://www.w3.org/2000/svg" xmlns:xlink="http://www.w3.org/1999/xlink" x="0px" y="0px"
	 viewBox="0 0 30 30" style="enable-background:new 0 0 30 30;" xml:space="preserve">
<g id="Pompkin">
</g>
<g id="Layer_10">
</g>
<g id="Bat">
</g>
<g id="Ghost">
</g>
<g id="Bone_Hand">
</g>
<g id="Tree_Ghost">
</g>
<g id="Gate">
</g>
<g id="Cemetery_1">
</g>
<g id="Cemetery_2">
</g>
<g id="Devil_x27_s_Fork">
</g>
<g id="Night_Candle">
</g>
<g id="Canlestick">
</g>
<g id="Black_Cat">
</g>
<g id="Witch_Cauldron">
</g>
<g id="Corn_Candy">
</g>
<g id="Layer_29">
</g>
<g id="Bones">
</g>
<g id="Witch_Broom">
</g>
<g id="Owl">
</g>
<g id="Scythe">
</g>
<g id="Grim_Reaper">
</g>
<g id="Coffin">
	<g>
		<g>
			<path d="M20.043,30H9.957c-0.243,0-0.45-0.174-0.492-0.413L5.682,8.152C5.663,8.047,5.679,7.938,5.727,7.842l3.783-7.565
				C9.594,0.107,9.767,0,9.957,0h10.087c0.189,0,0.362,0.107,0.447,0.276l3.783,7.565c0.048,0.096,0.064,0.205,0.045,0.311
				l-3.783,21.435C20.494,29.826,20.286,30,20.043,30z M10.376,29h9.248l3.681-20.858L19.734,1h-9.469L6.695,8.142L10.376,29z"/>
		</g>
		<g>
			<path d="M17.889,27h-5.777c-0.241,0-0.448-0.172-0.492-0.409L8.339,8.816C8.321,8.716,8.333,8.611,8.376,8.518l2.386-5.226
				C10.844,3.114,11.021,3,11.217,3h7.565c0.196,0,0.374,0.114,0.455,0.292l2.386,5.226c0.043,0.094,0.056,0.198,0.037,0.299
				l-3.28,17.774C18.336,26.828,18.13,27,17.889,27z M12.527,26h4.945l3.176-17.21L18.461,4h-6.923L9.352,8.79L12.527,26z"/>
		</g>
	</g>
</g>
<g id="Dracula">
</g>
<g id="Frankenstein">
</g>
<g id="Layer_40">
</g>
<g id="Toilet_Paper">
</g>
<g id="Skull">
</g>
<g id="Skull_Cake">
</g>
<g id="Eyeball">
</g>
<g id="Castle">
</g>
<g id="Witch_x27_s_Hat">
</g>
<g id="Cobweb_1">
</g>
<g id="Cobweb_2">
</g>
<g id="Spider">
</g>
<g id="Full_Moon">
</g>
<g id="Crescent">
</g>
<g id="Crow">
</g>
<g id="Candy_Holder">
</g>
<g id="Bloody_Knife">
</g>
<g id="Bloody_Axe">
</g>
</svg>
