<?xml version="1.0" encoding="iso-8859-1"?>
<!-- Generator: Adobe Illustrator 19.2.1, SVG Export Plug-In . SVG Version: 6.00 Build 0)  -->
<svg version="1.1" xmlns="http://www.w3.org/2000/svg" xmlns:xlink="http://www.w3.org/1999/xlink" x="0px" y="0px"
	 viewBox="0 0 30 30" style="enable-background:new 0 0 30 30;" xml:space="preserve">
<g id="Pompkin">
</g>
<g id="Layer_10">
</g>
<g id="Bat">
</g>
<g id="Ghost">
</g>
<g id="Bone_Hand">
</g>
<g id="Tree_Ghost">
</g>
<g id="Gate">
</g>
<g id="Cemetery_1">
</g>
<g id="Cemetery_2">
</g>
<g id="Devil_x27_s_Fork">
</g>
<g id="Night_Candle">
</g>
<g id="Canlestick">
</g>
<g id="Black_Cat">
</g>
<g id="Witch_Cauldron">
</g>
<g id="Corn_Candy">
	<g>
		<g>
			<path d="M27.138,11.329c-0.895,0-1.87-0.6-3.231-1.962c-1.52-1.52-2.082-2.569-1.939-3.62c0.037-0.274,0.288-0.462,0.563-0.428
				c0.274,0.038,0.465,0.29,0.428,0.563c-0.067,0.489,0.078,1.201,1.655,2.778c1.269,1.27,2.11,1.781,2.735,1.647
				c0.27-0.057,0.535,0.116,0.592,0.387c0.057,0.27-0.116,0.535-0.387,0.592C27.416,11.314,27.278,11.329,27.138,11.329z"/>
		</g>
		<g>
			<path d="M24.706,17.092c-0.005,0-0.009,0-0.014,0c-0.985-0.027-3.157-1.181-5.244-3.267c-2.037-2.038-3.319-4.11-3.266-5.28
				c0.013-0.276,0.272-0.499,0.522-0.477c0.276,0.013,0.49,0.246,0.477,0.522c-0.026,0.575,0.758,2.312,2.974,4.528
				c2.236,2.236,4.127,2.962,4.564,2.974c0.276,0.008,0.494,0.237,0.486,0.514C25.198,16.877,24.976,17.092,24.706,17.092z"/>
		</g>
		<g>
			<path d="M21.845,23.41c-0.473,0-1.261-0.343-2.734-1.462c-0.22-0.167-0.262-0.48-0.095-0.701
				c0.167-0.219,0.479-0.263,0.701-0.095c1.376,1.046,1.927,1.217,2.07,1.245c0.19-0.105,0.436-0.079,0.598,0.083
				c0.196,0.195,0.196,0.512,0.001,0.707C22.257,23.313,22.096,23.41,21.845,23.41z"/>
		</g>
		<g>
			<path d="M20.765,26.582c-0.039,0-0.078-0.004-0.117-0.014c-0.233-0.056-0.393-0.269-0.383-0.508
				c0.015-0.338-0.05-0.658-0.193-0.952l-5.91-15.797c-0.092-0.247,0.022-0.522,0.262-0.631l11.449-5.191
				c0.014-0.006,0.029-0.012,0.043-0.017c1.115-0.383,2.328-0.098,3.17,0.745c0.843,0.843,1.128,2.057,0.745,3.169L21.22,26.29
				C21.138,26.471,20.958,26.582,20.765,26.582z M15.262,9.398l5.66,15.134l7.981-17.517c0.244-0.714,0.055-1.513-0.524-2.092
				c-0.573-0.573-1.362-0.764-2.116-0.514L15.262,9.398z"/>
		</g>
		<g>
			<path d="M18.204,29H3.073c-1.074,0-2.052-0.538-2.615-1.438c-0.545-0.872-0.605-1.942-0.163-2.868L7.873,4.541
				c0.534-1.101,1.594-1.758,2.786-1.758c1.192,0,2.252,0.657,2.768,1.714l7.563,20.218c0.435,0.887,0.377,1.968-0.172,2.847
				C20.255,28.462,19.278,29,18.204,29z M10.659,3.783c-0.818,0-1.517,0.431-1.868,1.153l-7.568,20.13
				c-0.005,0.015-0.011,0.029-0.019,0.043c-0.306,0.628-0.269,1.329,0.102,1.922C1.685,27.638,2.346,28,3.073,28h15.13
				c0.727,0,1.387-0.362,1.767-0.969c0.371-0.593,0.408-1.294,0.102-1.922L12.509,4.892C12.176,4.213,11.477,3.783,10.659,3.783z
				 M0.755,24.89h0.01H0.755z"/>
		</g>
		<g>
			<path d="M10.638,10.087c-2.15,0-3.29-0.345-3.931-1.189C6.54,8.678,6.583,8.364,6.802,8.197C7.023,8.03,7.336,8.072,7.503,8.292
				c0.298,0.393,0.904,0.794,3.135,0.794c1.795,0,2.751-0.237,3.099-0.77c0.152-0.23,0.461-0.295,0.692-0.145
				c0.231,0.151,0.295,0.461,0.145,0.692C14.006,9.733,12.866,10.087,10.638,10.087z"/>
		</g>
		<g>
			<path d="M10.638,16.391c-2.881,0-5.253-0.559-6.043-1.423c-0.186-0.204-0.172-0.521,0.032-0.707
				c0.205-0.186,0.521-0.172,0.707,0.032c0.388,0.425,2.171,1.098,5.305,1.098c3.162,0,5.013-0.824,5.33-1.124
				c0.201-0.19,0.517-0.181,0.707,0.019c0.19,0.2,0.182,0.517-0.019,0.707C15.94,15.671,13.588,16.391,10.638,16.391z"/>
		</g>
		<g>
			<path d="M10.638,22.696c-2.615,0-8.696-0.171-8.696-1.761c0-0.276,0.224-0.5,0.5-0.5c0.231,0,0.425,0.156,0.483,0.369
				c0.431,0.327,3.008,0.892,7.713,0.892s7.282-0.565,7.713-0.892c0.058-0.213,0.252-0.369,0.483-0.369c0.276,0,0.5,0.224,0.5,0.5
				C19.334,22.524,13.253,22.696,10.638,22.696z"/>
		</g>
	</g>
</g>
<g id="Layer_29">
</g>
<g id="Bones">
</g>
<g id="Witch_Broom">
</g>
<g id="Owl">
</g>
<g id="Scythe">
</g>
<g id="Grim_Reaper">
</g>
<g id="Coffin">
</g>
<g id="Dracula">
</g>
<g id="Frankenstein">
</g>
<g id="Layer_40">
</g>
<g id="Toilet_Paper">
</g>
<g id="Skull">
</g>
<g id="Skull_Cake">
</g>
<g id="Eyeball">
</g>
<g id="Castle">
</g>
<g id="Witch_x27_s_Hat">
</g>
<g id="Cobweb_1">
</g>
<g id="Cobweb_2">
</g>
<g id="Spider">
</g>
<g id="Full_Moon">
</g>
<g id="Crescent">
</g>
<g id="Crow">
</g>
<g id="Candy_Holder">
</g>
<g id="Bloody_Knife">
</g>
<g id="Bloody_Axe">
</g>
</svg>
