<?xml version="1.0" encoding="iso-8859-1"?>
<!-- Generator: Adobe Illustrator 19.2.1, SVG Export Plug-In . SVG Version: 6.00 Build 0)  -->
<svg version="1.1" xmlns="http://www.w3.org/2000/svg" xmlns:xlink="http://www.w3.org/1999/xlink" x="0px" y="0px"
	 viewBox="0 0 30 30" style="enable-background:new 0 0 30 30;" xml:space="preserve">
<g id="Pompkin">
</g>
<g id="Layer_10">
</g>
<g id="Bat">
</g>
<g id="Ghost">
</g>
<g id="Bone_Hand">
</g>
<g id="Tree_Ghost">
</g>
<g id="Gate">
</g>
<g id="Cemetery_1">
</g>
<g id="Cemetery_2">
</g>
<g id="Devil_x27_s_Fork">
</g>
<g id="Night_Candle">
</g>
<g id="Canlestick">
</g>
<g id="Black_Cat">
</g>
<g id="Witch_Cauldron">
</g>
<g id="Corn_Candy">
</g>
<g id="Layer_29">
</g>
<g id="Bones">
</g>
<g id="Witch_Broom">
</g>
<g id="Owl">
</g>
<g id="Scythe">
</g>
<g id="Grim_Reaper">
</g>
<g id="Coffin">
</g>
<g id="Dracula">
</g>
<g id="Frankenstein">
</g>
<g id="Layer_40">
</g>
<g id="Toilet_Paper">
</g>
<g id="Skull">
</g>
<g id="Skull_Cake">
</g>
<g id="Eyeball">
</g>
<g id="Castle">
</g>
<g id="Witch_x27_s_Hat">
</g>
<g id="Cobweb_1">
</g>
<g id="Cobweb_2">
</g>
<g id="Spider">
</g>
<g id="Full_Moon">
</g>
<g id="Crescent">
	<g>
		<g>
			<path d="M14.369,29c-3.838,0-7.446-1.494-10.16-4.209C1.494,22.077,0,18.469,0,14.631C0,10.792,1.494,7.184,4.209,4.47
				c1.437-1.437,3.136-2.533,5.052-3.262C9.444,1.14,9.652,1.183,9.792,1.322c0.14,0.139,0.184,0.347,0.114,0.531
				c-0.482,1.27-0.763,2.654-0.834,4.115C9.06,6.244,8.852,6.479,8.549,6.443C8.273,6.431,8.061,6.196,8.074,5.92
				c0.057-1.166,0.238-2.289,0.542-3.351c-1.379,0.653-2.62,1.527-3.7,2.607C2.391,7.702,1,11.06,1,14.631
				c0,3.57,1.391,6.928,3.916,9.453S10.799,28,14.369,28c3.571,0,6.929-1.391,9.454-3.916c1.079-1.079,1.952-2.318,2.605-3.695
				c-5.008,1.466-10.474,0.101-14.195-3.622c-1.996-1.995-3.348-4.506-3.91-7.262c-0.055-0.271,0.12-0.534,0.391-0.59
				c0.267-0.056,0.534,0.119,0.59,0.391c0.522,2.563,1.78,4.897,3.637,6.754c3.71,3.712,9.286,4.903,14.206,3.034
				c0.184-0.067,0.393-0.025,0.531,0.114c0.14,0.14,0.184,0.347,0.114,0.531c-0.729,1.916-1.825,3.615-3.262,5.052
				C21.816,27.506,18.208,29,14.369,29z M16.892,25.218c-0.971,0-1.761-0.79-1.761-1.761c0-0.972,0.79-1.762,1.761-1.762
				s1.761,0.79,1.761,1.762C18.652,24.428,17.862,25.218,16.892,25.218z M16.892,22.695c-0.42,0-0.761,0.342-0.761,0.762
				s0.341,0.761,0.761,0.761s0.761-0.341,0.761-0.761S17.312,22.695,16.892,22.695z M9.326,23.957c-1.666,0-3.021-1.355-3.021-3.022
				c0-1.666,1.355-3.021,3.021-3.021s3.021,1.355,3.021,3.021C12.348,22.602,10.992,23.957,9.326,23.957z M9.326,18.913
				c-1.114,0-2.021,0.907-2.021,2.021c0,1.115,0.907,2.022,2.021,2.022s2.021-0.907,2.021-2.022
				C11.348,19.82,10.44,18.913,9.326,18.913z"/>
		</g>
		<g>
			<g>
				<path d="M18.289,15.056c-0.276,0-0.5-0.224-0.5-0.5c0-0.594-0.224-0.995-0.666-1.193c-0.557-0.251-1.29-0.098-1.628,0.202
					c-0.158,0.141-0.385,0.164-0.572,0.064c-0.185-0.101-0.286-0.308-0.254-0.516c0.093-0.589-0.044-1.035-0.416-1.365
					c-0.603-0.532-1.728-0.647-2.27-0.493c-0.24,0.066-0.493-0.052-0.593-0.279C10.858,9.771,8.896,9.8,6.855,10.01
					c-0.154,0.017-0.31-0.042-0.415-0.155C6.333,9.741,6.286,9.584,6.312,9.43c0.653-3.892,2.867-4.741,5.932-5.916
					c0.602-0.23,1.246-0.478,1.932-0.767c0.213-0.09,0.459-0.022,0.597,0.164c0.137,0.186,0.129,0.441-0.02,0.618
					c-0.452,0.539-0.57,1.03-0.359,1.501c0.313,0.698,1.239,1.202,2,1.386c0-0.729-0.001-1.872-0.001-1.872
					c0-0.229,0.156-0.43,0.379-0.485c0.222-0.055,0.455,0.048,0.563,0.251l0.481,0.905c0.206-0.004,0.457-0.005,0.667-0.001
					l0.484-0.969c0.104-0.207,0.336-0.32,0.563-0.263c0.226,0.053,0.385,0.255,0.385,0.486c0,0-0.001,1.198-0.001,1.947
					c0.76-0.184,1.687-0.688,1.999-1.386c0.211-0.471,0.093-0.962-0.359-1.501c-0.148-0.177-0.156-0.433-0.02-0.618
					c0.137-0.187,0.382-0.254,0.597-0.164c0.686,0.289,1.331,0.536,1.932,0.767c3.065,1.176,5.279,2.024,5.933,5.916
					c0.026,0.16-0.025,0.323-0.141,0.438c-0.114,0.113-0.279,0.165-0.438,0.139c-1.503-0.258-3.601-0.13-4.568,1.08
					c-0.126,0.156-0.333,0.223-0.526,0.169c-0.4-0.113-1.216,0.087-1.793,0.567c-0.313,0.261-0.673,0.701-0.614,1.321
					c0.02,0.207-0.091,0.404-0.277,0.496c-0.186,0.091-0.41,0.06-0.563-0.084c-0.368-0.345-1.081-0.446-1.588-0.226
					c-0.456,0.197-0.696,0.621-0.696,1.226C18.789,14.832,18.565,15.056,18.289,15.056z M16.492,12.237
					c0.361,0,0.721,0.068,1.041,0.213c0.301,0.135,0.554,0.328,0.751,0.569c0.208-0.26,0.479-0.466,0.803-0.606
					c0.598-0.261,1.308-0.263,1.909-0.045c0.141-0.491,0.443-0.941,0.891-1.314c0.688-0.572,1.635-0.897,2.379-0.82
					c1.119-1.165,2.985-1.448,4.605-1.306c-0.668-2.755-2.325-3.39-5.168-4.48c-0.236-0.09-0.479-0.184-0.729-0.28
					c0.1,0.508-0.004,0.943-0.151,1.271c-0.545,1.22-2.187,2.015-3.395,2.052c-0.157-0.001-0.266-0.047-0.362-0.14
					s-0.152-0.222-0.153-0.356c-0.001-0.077-0.001-0.396-0.001-0.782c-0.066,0.019-0.136,0.022-0.206,0.012
					c-0.15-0.019-0.979-0.015-1.118,0.001c-0.063,0.01-0.132,0.003-0.195-0.015c0,0.385,0,0.706-0.001,0.784
					c-0.001,0.135-0.057,0.264-0.153,0.356c-0.098,0.093-0.199,0.141-0.362,0.14c-1.208-0.037-2.85-0.832-3.396-2.052
					c-0.147-0.328-0.251-0.764-0.151-1.271c-0.249,0.097-0.491,0.19-0.728,0.28C9.751,5.541,8.093,6.177,7.428,8.95
					c1.563-0.134,3.752-0.154,4.686,1.268c0.801-0.093,2.01,0.079,2.803,0.782c0.312,0.276,0.646,0.713,0.749,1.36
					C15.929,12.279,16.211,12.237,16.492,12.237z"/>
			</g>
			<g>
				<path d="M11.848,6.229c-0.128,0-0.256-0.049-0.354-0.146c-0.195-0.195-0.195-0.512,0-0.707l1.892-1.891
					c0.195-0.195,0.512-0.195,0.707,0s0.195,0.512,0,0.707l-1.892,1.891C12.104,6.181,11.976,6.229,11.848,6.229z"/>
			</g>
			<g>
				<path d="M24.456,6.229c-0.161,0-0.319-0.078-0.416-0.223l-1.261-1.891c-0.153-0.229-0.091-0.54,0.139-0.693
					c0.227-0.152,0.539-0.092,0.693,0.139l1.261,1.891c0.153,0.229,0.091,0.54-0.139,0.693C24.648,6.202,24.552,6.229,24.456,6.229z
					"/>
			</g>
		</g>
	</g>
</g>
<g id="Crow">
</g>
<g id="Candy_Holder">
</g>
<g id="Bloody_Knife">
</g>
<g id="Bloody_Axe">
</g>
</svg>
