<?xml version="1.0" encoding="iso-8859-1"?>
<!-- Generator: Adobe Illustrator 19.2.1, SVG Export Plug-In . SVG Version: 6.00 Build 0)  -->
<svg version="1.1" xmlns="http://www.w3.org/2000/svg" xmlns:xlink="http://www.w3.org/1999/xlink" x="0px" y="0px"
	 viewBox="0 0 30 30" style="enable-background:new 0 0 30 30;" xml:space="preserve">
<g id="Pompkin">
</g>
<g id="Layer_10">
</g>
<g id="Bat">
</g>
<g id="Ghost">
</g>
<g id="Bone_Hand">
</g>
<g id="Tree_Ghost">
</g>
<g id="Gate">
</g>
<g id="Cemetery_1">
</g>
<g id="Cemetery_2">
</g>
<g id="Devil_x27_s_Fork">
</g>
<g id="Night_Candle">
</g>
<g id="Canlestick">
</g>
<g id="Black_Cat">
</g>
<g id="Witch_Cauldron">
</g>
<g id="Corn_Candy">
</g>
<g id="Layer_29">
</g>
<g id="Bones">
</g>
<g id="Witch_Broom">
</g>
<g id="Owl">
</g>
<g id="Scythe">
</g>
<g id="Grim_Reaper">
</g>
<g id="Coffin">
</g>
<g id="Dracula">
</g>
<g id="Frankenstein">
</g>
<g id="Layer_40">
</g>
<g id="Toilet_Paper">
</g>
<g id="Skull">
</g>
<g id="Skull_Cake">
</g>
<g id="Eyeball">
</g>
<g id="Castle">
</g>
<g id="Witch_x27_s_Hat">
</g>
<g id="Cobweb_1">
</g>
<g id="Cobweb_2">
</g>
<g id="Spider">
</g>
<g id="Full_Moon">
</g>
<g id="Crescent">
</g>
<g id="Crow">
	<g>
		<g>
			<path d="M23.272,29.861c-0.797,0-1.341-0.016-1.361-0.017c-1.505-0.07-2.645-1.59-3.746-3.059
				c-0.862-1.149-1.754-2.338-2.688-2.639c-0.353-0.113-0.771-0.237-1.236-0.374c-2.683-0.793-6.738-1.991-8.462-4.208
				c-3.399-4.37-4.127-9.434-2.167-15.058C2.65,4.209,2.108,3.443,1.621,2.753C1.228,2.196,0.855,1.67,0.305,1.436
				C0.117,1.356-0.003,1.172,0,0.969S0.129,0.584,0.317,0.51c1.98-0.774,3.468-0.254,5.327,0.593
				c2.665-0.063,4.639,1.193,5.416,3.496c0.267,0.789,1.503,2.313,2.812,3.928c1.723,2.125,3.675,4.533,4.731,6.732
				c0.61,1.273,1.131,2.423,1.586,3.426c0.915,2.021,1.576,3.479,2.099,4.003c0.244,0.244,1.082,0.757,1.969,1.3
				c2.048,1.254,4.853,2.972,5.682,4.487c0.061,0.11,0.077,0.239,0.047,0.361C29.759,29.74,25.515,29.861,23.272,29.861z
				 M1.642,1.176c0.31,0.312,0.562,0.668,0.796,1C2.962,2.918,3.415,3.559,4.321,3.63C4.479,3.642,4.62,3.728,4.704,3.859
				C4.789,3.992,4.806,4.157,4.75,4.305C2.674,9.804,3.286,14.731,6.568,18.952c1.526,1.962,5.396,3.105,7.957,3.862
				c0.473,0.14,0.899,0.266,1.259,0.382c1.236,0.397,2.226,1.716,3.181,2.99c0.963,1.283,1.959,2.611,2.993,2.66
				c2.035,0.094,5.522-0.102,6.782-0.351c-1.01-1.209-3.376-2.658-5.005-3.655c-1.061-0.649-1.826-1.118-2.154-1.446
				c-0.651-0.651-1.309-2.102-2.303-4.297c-0.452-0.997-0.97-2.141-1.577-3.405c-1.005-2.094-2.918-4.454-4.606-6.536
				c-1.484-1.832-2.657-3.278-2.981-4.237C9.284,2.465,7.19,2.03,5.565,2.106C5.486,2.107,5.408,2.094,5.336,2.061
				C3.909,1.407,2.854,0.989,1.642,1.176z"/>
		</g>
		<g>
			<path d="M16.134,21.049c-0.184,0-0.371-0.011-0.561-0.032c-4.647-0.537-8.234-4.481-9.248-7.921
				c-0.078-0.265,0.073-0.543,0.338-0.621c0.269-0.078,0.542,0.073,0.621,0.338c0.791,2.683,3.921,6.693,8.404,7.21
				c0.867,0.104,1.646-0.086,2.136-0.512c0.209-0.18,0.523-0.158,0.706,0.05c0.181,0.209,0.158,0.524-0.05,0.706
				C17.895,20.774,17.06,21.049,16.134,21.049z"/>
		</g>
		<g>
			<circle cx="7.435" cy="3.498" r="0.63"/>
		</g>
		<g>
			<path d="M8.065,28.585c-0.069,0-0.139-0.014-0.206-0.044c-0.251-0.114-0.363-0.41-0.25-0.662
				c0.899-1.993,1.448-4.691,1.224-6.015c-0.046-0.272,0.138-0.53,0.409-0.577s0.53,0.138,0.577,0.409
				c0.261,1.54-0.297,4.375-1.298,6.595C8.438,28.476,8.256,28.585,8.065,28.585z"/>
		</g>
		<g>
			<path d="M8.065,28.585c-0.04,0-0.081-0.005-0.121-0.015L2.9,27.31c-0.268-0.067-0.431-0.339-0.364-0.606
				c0.067-0.268,0.334-0.432,0.606-0.364l3.294,0.823L5.19,25.916c-0.195-0.195-0.195-0.512,0-0.707s0.512-0.195,0.707,0
				l2.521,2.522c0.159,0.159,0.192,0.404,0.082,0.6C8.41,28.49,8.242,28.585,8.065,28.585z"/>
		</g>
		<g>
			<path d="M4.282,29.846c-0.209,0-0.404-0.133-0.475-0.342c-0.087-0.262,0.055-0.545,0.316-0.633l3.783-1.261
				c0.051-0.017,0.104-0.025,0.158-0.025h2.521c0.276,0,0.5,0.224,0.5,0.5s-0.224,0.5-0.5,0.5h-2.44L4.44,29.82
				C4.388,29.838,4.335,29.846,4.282,29.846z"/>
		</g>
		<g>
			<path d="M15.631,27.324c-0.076,0-0.153-0.018-0.224-0.053l-2.522-1.262c-0.247-0.124-0.347-0.424-0.224-0.671
				c0.124-0.246,0.427-0.347,0.671-0.224l1.799,0.899v-2.343c0-0.276,0.224-0.5,0.5-0.5s0.5,0.224,0.5,0.5v3.152
				c0,0.173-0.09,0.334-0.237,0.426C15.813,27.299,15.723,27.324,15.631,27.324z"/>
		</g>
		<g>
			<path d="M16.892,28.585c-0.128,0-0.256-0.049-0.354-0.146l-1.079-1.079l-3.529,0.588c-0.266,0.046-0.529-0.138-0.575-0.411
				c-0.045-0.272,0.139-0.53,0.411-0.575l3.783-0.63c0.161-0.027,0.321,0.025,0.436,0.14l1.261,1.261
				c0.195,0.195,0.195,0.512,0,0.707C17.147,28.536,17.02,28.585,16.892,28.585z"/>
		</g>
		<g>
			<path d="M15,28.585c-0.075,0-0.152-0.017-0.224-0.053c-0.247-0.124-0.347-0.424-0.224-0.671l0.631-1.261
				c0.124-0.246,0.427-0.346,0.671-0.224c0.247,0.124,0.347,0.424,0.224,0.671l-0.631,1.261C15.359,28.483,15.183,28.585,15,28.585z
				"/>
		</g>
		<g>
			<path d="M25.974,29.668c-0.071,0-0.144-0.016-0.213-0.048c-1.391-0.654-2.937-2.107-4.3-3.389
				c-0.653-0.614-1.27-1.194-1.717-1.529c-0.221-0.166-0.266-0.479-0.101-0.7c0.168-0.221,0.481-0.266,0.7-0.101
				c0.492,0.369,1.099,0.94,1.802,1.601c1.245,1.171,2.794,2.627,4.041,3.214c0.25,0.117,0.357,0.415,0.239,0.665
				C26.341,29.562,26.161,29.668,25.974,29.668z"/>
		</g>
	</g>
</g>
<g id="Candy_Holder">
</g>
<g id="Bloody_Knife">
</g>
<g id="Bloody_Axe">
</g>
</svg>
