<?xml version="1.0" encoding="iso-8859-1"?>
<!-- Generator: Adobe Illustrator 19.2.1, SVG Export Plug-In . SVG Version: 6.00 Build 0)  -->
<svg version="1.1" xmlns="http://www.w3.org/2000/svg" xmlns:xlink="http://www.w3.org/1999/xlink" x="0px" y="0px"
	 viewBox="0 0 30 30" style="enable-background:new 0 0 30 30;" xml:space="preserve">
<g id="Pompkin">
</g>
<g id="Layer_10">
</g>
<g id="Bat">
</g>
<g id="Ghost">
</g>
<g id="Bone_Hand">
</g>
<g id="Tree_Ghost">
</g>
<g id="Gate">
</g>
<g id="Cemetery_1">
</g>
<g id="Cemetery_2">
</g>
<g id="Devil_x27_s_Fork">
	<g>
		<g>
			<path d="M12.09,21.417c-2.49,0-4.833-0.97-6.594-2.731l-4.013-4.012c-0.195-0.195-0.195-0.512,0-0.707s0.512-0.195,0.707,0
				l4.013,4.012c1.572,1.573,3.663,2.438,5.887,2.438c2.225,0,4.315-0.866,5.888-2.438c1.573-1.573,2.439-3.664,2.439-5.887
				c0-2.224-0.866-4.315-2.439-5.888l-4.457-4.458c-0.195-0.195-0.195-0.512,0-0.707s0.512-0.195,0.707,0l4.457,4.458
				c1.762,1.761,2.732,4.104,2.732,6.595c0,2.491-0.971,4.833-2.732,6.594C16.924,20.447,14.581,21.417,12.09,21.417z"/>
		</g>
		<g>
			<path d="M29.5,30c-0.128,0-0.256-0.049-0.354-0.146L7.279,7.986c-0.195-0.195-0.195-0.512,0-0.707s0.512-0.195,0.707,0
				l21.867,21.868c0.195,0.195,0.195,0.512,0,0.707C29.756,29.951,29.628,30,29.5,30z"/>
		</g>
		<g>
			<path d="M1.391,16.156c-0.212,0-0.404-0.135-0.474-0.341L0.025,13.14c-0.06-0.18-0.013-0.378,0.121-0.512
				c0.135-0.133,0.332-0.181,0.512-0.121l2.675,0.892c0.23,0.077,0.371,0.308,0.336,0.548c-0.036,0.24-0.24,0.42-0.482,0.426
				c-0.233,0.006-0.783,0.087-0.996,0.3c-0.212,0.212-0.293,0.762-0.299,0.995c-0.006,0.243-0.187,0.447-0.426,0.482
				C1.44,16.154,1.416,16.156,1.391,16.156z M1.291,13.772L1.39,14.07c0.029-0.036,0.061-0.071,0.094-0.104s0.068-0.064,0.104-0.094
				L1.291,13.772z"/>
		</g>
		<g>
			<path d="M7.632,9.915c-0.212,0-0.404-0.135-0.474-0.341L6.267,6.899c-0.06-0.18-0.013-0.378,0.121-0.512
				c0.135-0.133,0.332-0.18,0.512-0.121l2.675,0.891c0.23,0.077,0.371,0.308,0.336,0.548c-0.036,0.24-0.239,0.42-0.482,0.426
				c-0.233,0.006-0.783,0.087-0.996,0.3C8.22,8.644,8.139,9.194,8.133,9.427C8.127,9.67,7.946,9.874,7.707,9.909
				C7.682,9.913,7.657,9.915,7.632,9.915z M7.532,7.532l0.099,0.297C7.66,7.792,7.691,7.758,7.725,7.725S7.793,7.66,7.829,7.63
				L7.532,7.532z"/>
		</g>
		<g>
			<path d="M13.873,3.674c-0.212,0-0.404-0.135-0.474-0.341l-0.892-2.675c-0.06-0.18-0.013-0.378,0.121-0.512
				c0.134-0.133,0.333-0.181,0.512-0.121l2.674,0.892c0.23,0.077,0.371,0.308,0.336,0.548c-0.036,0.24-0.24,0.42-0.482,0.426
				c-0.233,0.006-0.783,0.087-0.995,0.299s-0.293,0.762-0.299,0.995c-0.006,0.243-0.187,0.447-0.426,0.482
				C13.923,3.672,13.898,3.674,13.873,3.674z M13.773,1.291l0.099,0.297c0.029-0.036,0.061-0.071,0.094-0.104
				s0.068-0.064,0.104-0.094L13.773,1.291z"/>
		</g>
		<g>
			<path d="M16.158,21.583c-0.785,0-1.506-0.118-2.067-0.494c-0.229-0.154-0.291-0.464-0.137-0.694
				c0.153-0.23,0.466-0.29,0.693-0.137c0.73,0.49,2.188,0.316,3.473,0.164c0.811-0.096,1.554-0.184,2.167-0.134
				c-0.044-0.569,0.045-1.226,0.137-1.906c0.15-1.115,0.321-2.379-0.165-3.104c-0.154-0.229-0.093-0.54,0.137-0.694
				c0.227-0.154,0.54-0.093,0.693,0.137c0.698,1.041,0.5,2.504,0.325,3.795c-0.119,0.888-0.244,1.807,0.003,2.213
				c0.119,0.197,0.089,0.45-0.074,0.613s-0.416,0.192-0.612,0.074c-0.41-0.25-1.516-0.119-2.493-0.002
				C17.536,21.499,16.824,21.583,16.158,21.583z"/>
		</g>
	</g>
</g>
<g id="Night_Candle">
</g>
<g id="Canlestick">
</g>
<g id="Black_Cat">
</g>
<g id="Witch_Cauldron">
</g>
<g id="Corn_Candy">
</g>
<g id="Layer_29">
</g>
<g id="Bones">
</g>
<g id="Witch_Broom">
</g>
<g id="Owl">
</g>
<g id="Scythe">
</g>
<g id="Grim_Reaper">
</g>
<g id="Coffin">
</g>
<g id="Dracula">
</g>
<g id="Frankenstein">
</g>
<g id="Layer_40">
</g>
<g id="Toilet_Paper">
</g>
<g id="Skull">
</g>
<g id="Skull_Cake">
</g>
<g id="Eyeball">
</g>
<g id="Castle">
</g>
<g id="Witch_x27_s_Hat">
</g>
<g id="Cobweb_1">
</g>
<g id="Cobweb_2">
</g>
<g id="Spider">
</g>
<g id="Full_Moon">
</g>
<g id="Crescent">
</g>
<g id="Crow">
</g>
<g id="Candy_Holder">
</g>
<g id="Bloody_Knife">
</g>
<g id="Bloody_Axe">
</g>
</svg>
