<?xml version="1.0" encoding="iso-8859-1"?>
<!-- Generator: Adobe Illustrator 19.2.1, SVG Export Plug-In . SVG Version: 6.00 Build 0)  -->
<svg version="1.1" xmlns="http://www.w3.org/2000/svg" xmlns:xlink="http://www.w3.org/1999/xlink" x="0px" y="0px"
	 viewBox="0 0 30 30" style="enable-background:new 0 0 30 30;" xml:space="preserve">
<g id="Pompkin">
</g>
<g id="Layer_10">
</g>
<g id="Bat">
</g>
<g id="Ghost">
</g>
<g id="Bone_Hand">
</g>
<g id="Tree_Ghost">
</g>
<g id="Gate">
</g>
<g id="Cemetery_1">
</g>
<g id="Cemetery_2">
</g>
<g id="Devil_x27_s_Fork">
</g>
<g id="Night_Candle">
</g>
<g id="Canlestick">
</g>
<g id="Black_Cat">
</g>
<g id="Witch_Cauldron">
</g>
<g id="Corn_Candy">
</g>
<g id="Layer_29">
</g>
<g id="Bones">
</g>
<g id="Witch_Broom">
</g>
<g id="Owl">
</g>
<g id="Scythe">
</g>
<g id="Grim_Reaper">
</g>
<g id="Coffin">
</g>
<g id="Dracula">
	<g id="XMLID_1479_">
		<path d="M24.378,13.608c-0.194,0-0.374-0.113-0.456-0.294l-0.28-0.621c-1.532-3.402-2.544-5.65-4.124-6.233
			c-1.011-0.375-2.339-0.129-4.305,0.797c-0.135,0.064-0.291,0.064-0.426,0c-1.966-0.925-3.294-1.173-4.305-0.797
			c-1.58,0.583-2.592,2.831-4.124,6.233l-0.28,0.621c-0.09,0.2-0.3,0.319-0.521,0.29c-0.219-0.029-0.393-0.198-0.428-0.416
			C4.854,11.501,4.021,6.367,6.861,3.027C8.57,1.019,11.309,0,15,0s6.43,1.019,8.139,3.027c2.841,3.34,2.007,8.474,1.733,10.161
			c-0.036,0.218-0.209,0.387-0.428,0.416C24.421,13.607,24.399,13.608,24.378,13.608z M18.532,5.293
			c0.481,0,0.921,0.077,1.332,0.229c1.792,0.662,2.847,2.701,4.251,5.79c0.207-2.152,0.165-5.399-1.738-7.636
			C20.867,1.9,18.385,1,15,1S9.133,1.9,7.623,3.676C5.72,5.912,5.678,9.159,5.885,11.312c1.404-3.089,2.459-5.128,4.251-5.79
			C11.376,5.063,12.885,5.287,15,6.254C16.416,5.607,17.559,5.293,18.532,5.293z"/>
	</g>
	<g id="XMLID_1476_">
		<path d="M13.108,13.608c-0.083,0-0.167-0.021-0.244-0.063c-0.825-0.463-2.344-1.197-2.908-1.197c-0.276,0-0.5-0.224-0.5-0.5
			s0.224-0.5,0.5-0.5c0.987,0,3.003,1.104,3.397,1.325c0.241,0.135,0.327,0.439,0.191,0.681
			C13.453,13.517,13.283,13.608,13.108,13.608z"/>
	</g>
	<g id="XMLID_1480_">
		<path d="M16.892,13.608c-0.175,0-0.345-0.092-0.437-0.255c-0.135-0.241-0.049-0.546,0.191-0.681
			c0.394-0.222,2.41-1.325,3.397-1.325c0.276,0,0.5,0.224,0.5,0.5s-0.224,0.5-0.5,0.5c-0.564,0-2.083,0.734-2.908,1.197
			C17.059,13.588,16.975,13.608,16.892,13.608z"/>
	</g>
	<g id="XMLID_1481_">
		<path d="M18.152,21.805c-0.084,0-0.169-0.021-0.248-0.066c-0.008-0.004-1.035-0.564-2.904-0.564s-2.896,0.561-2.907,0.566
			c-0.239,0.134-0.544,0.049-0.68-0.19c-0.135-0.239-0.053-0.543,0.186-0.679c0.05-0.029,1.244-0.697,3.4-0.697
			s3.351,0.668,3.4,0.697c0.24,0.137,0.323,0.442,0.186,0.682C18.494,21.714,18.325,21.805,18.152,21.805z"/>
	</g>
	<g id="XMLID_1482_">
		<path d="M13.109,22.435c-0.276,0-0.5-0.224-0.5-0.5v-0.63c0-0.276,0.224-0.5,0.5-0.5s0.5,0.224,0.5,0.5v0.63
			C13.609,22.211,13.385,22.435,13.109,22.435z"/>
	</g>
	<g id="XMLID_1483_">
		<path d="M16.891,22.435c-0.276,0-0.5-0.224-0.5-0.5v-0.63c0-0.276,0.224-0.5,0.5-0.5s0.5,0.224,0.5,0.5v0.63
			C17.391,22.211,17.167,22.435,16.891,22.435z"/>
	</g>
	<g id="XMLID_1484_">
		<path d="M11.848,13.608h-0.63c-0.276,0-0.5-0.224-0.5-0.5s0.224-0.5,0.5-0.5h0.63c0.276,0,0.5,0.224,0.5,0.5
			S12.124,13.608,11.848,13.608z"/>
	</g>
	<g id="XMLID_1485_">
		<path d="M18.783,13.608h-0.63c-0.276,0-0.5-0.224-0.5-0.5s0.224-0.5,0.5-0.5h0.63c0.276,0,0.5,0.224,0.5,0.5
			S19.059,13.608,18.783,13.608z"/>
	</g>
	<g>
		<path d="M15,28.739c-0.08,0-0.16-0.02-0.233-0.058L2.789,22.377c-0.166-0.087-0.269-0.26-0.267-0.447s0.109-0.358,0.276-0.442
			l3.782-1.891c0.163-0.082,0.357-0.067,0.508,0.036l0.786,0.544c0.061,0.042,0.111,0.097,0.148,0.161
			c1.287,2.226,3.542,4.88,6.977,4.88s5.69-2.654,6.977-4.88c0.037-0.064,0.088-0.119,0.148-0.161l0.786-0.544
			c0.15-0.104,0.344-0.118,0.508-0.036l3.782,1.891c0.167,0.084,0.274,0.255,0.276,0.442s-0.101,0.36-0.267,0.447l-11.978,6.305
			C15.16,28.72,15.08,28.739,15,28.739z M4.117,21.946L15,27.674l10.883-5.728l-2.646-1.323l-0.451,0.313
			c-1.428,2.434-3.925,5.282-7.786,5.282s-6.357-2.849-7.786-5.282l-0.451-0.313L4.117,21.946z"/>
	</g>
	<g id="XMLID_1475_">
		<g id="XMLID_1477_">
			<path d="M15,26.218c-2.334,0-5.672-1.104-8.361-6.337c-1.642-0.33-2.856-3.084-2.856-4.25c0-0.974,0.17-2.342,1.64-2.981
				c0.254-0.107,0.547,0.007,0.658,0.26c0.11,0.253-0.006,0.548-0.259,0.658c-0.738,0.32-1.039,0.918-1.039,2.063
				c0,0.952,1.163,3.282,2.179,3.282c0.188,0,0.359,0.105,0.445,0.272l0.064,0.126c1.983,3.919,4.516,5.906,7.529,5.906
				s5.546-1.987,7.529-5.906l0.064-0.126c0.086-0.167,0.258-0.272,0.445-0.272c1.016,0,2.179-2.33,2.179-3.282
				c0-1.146-0.301-1.743-1.039-2.063c-0.253-0.11-0.37-0.405-0.259-0.658c0.109-0.254,0.402-0.368,0.658-0.26
				c1.47,0.64,1.64,2.008,1.64,2.981c0,1.166-1.214,3.92-2.856,4.25C20.672,25.114,17.334,26.218,15,26.218z"/>
		</g>
	</g>
	<g>
		<path d="M6.801,29.972c-0.08,0-0.16-0.02-0.233-0.062c-0.239-0.137-0.335-0.42-0.198-0.659c0.549-0.957,1.522-2.651,1.083-4.01
			c-0.085-0.263,0.059-0.545,0.322-0.63c0.266-0.085,0.544,0.06,0.629,0.321c0.576,1.78-0.541,3.726-1.141,4.771
			C7.168,29.869,6.985,29.972,6.801,29.972z"/>
	</g>
	<g>
		<path d="M22.928,29.771c-0.705-1.095-1.964-3.051-1.311-4.854c0.094-0.261,0.382-0.395,0.641-0.3c0.26,0.094,0.394,0.381,0.3,0.64
			c-0.485,1.338,0.6,3.023,1.183,3.929L23.348,29.5L22.928,29.771z"/>
	</g>
</g>
<g id="Frankenstein">
</g>
<g id="Layer_40">
</g>
<g id="Toilet_Paper">
</g>
<g id="Skull">
</g>
<g id="Skull_Cake">
</g>
<g id="Eyeball">
</g>
<g id="Castle">
</g>
<g id="Witch_x27_s_Hat">
</g>
<g id="Cobweb_1">
</g>
<g id="Cobweb_2">
</g>
<g id="Spider">
</g>
<g id="Full_Moon">
</g>
<g id="Crescent">
</g>
<g id="Crow">
</g>
<g id="Candy_Holder">
</g>
<g id="Bloody_Knife">
</g>
<g id="Bloody_Axe">
</g>
</svg>
