<?xml version="1.0" encoding="iso-8859-1"?>
<!-- Generator: Adobe Illustrator 19.2.1, SVG Export Plug-In . SVG Version: 6.00 Build 0)  -->
<svg version="1.1" xmlns="http://www.w3.org/2000/svg" xmlns:xlink="http://www.w3.org/1999/xlink" x="0px" y="0px"
	 viewBox="0 0 30 30" style="enable-background:new 0 0 30 30;" xml:space="preserve">
<g id="Pompkin">
</g>
<g id="Layer_10">
</g>
<g id="Bat">
</g>
<g id="Ghost">
</g>
<g id="Bone_Hand">
</g>
<g id="Tree_Ghost">
</g>
<g id="Gate">
</g>
<g id="Cemetery_1">
</g>
<g id="Cemetery_2">
</g>
<g id="Devil_x27_s_Fork">
</g>
<g id="Night_Candle">
</g>
<g id="Canlestick">
</g>
<g id="Black_Cat">
</g>
<g id="Witch_Cauldron">
</g>
<g id="Corn_Candy">
</g>
<g id="Layer_29">
</g>
<g id="Bones">
</g>
<g id="Witch_Broom">
</g>
<g id="Owl">
</g>
<g id="Scythe">
</g>
<g id="Grim_Reaper">
</g>
<g id="Coffin">
</g>
<g id="Dracula">
</g>
<g id="Frankenstein">
</g>
<g id="Layer_40">
</g>
<g id="Toilet_Paper">
</g>
<g id="Skull">
</g>
<g id="Skull_Cake">
</g>
<g id="Eyeball">
	<g>
		<path d="M15,16.131c-0.624,0-1.131-0.507-1.131-1.131s0.507-1.131,1.131-1.131s1.131,0.507,1.131,1.131S15.624,16.131,15,16.131z
			 M15,14.869c-0.072,0-0.131,0.059-0.131,0.131c0,0.145,0.262,0.145,0.262,0C15.131,14.928,15.072,14.869,15,14.869z"/>
	</g>
	<g>
		<g>
			<path d="M23.826,17.37c-0.624,0-1.131-0.507-1.131-1.131c0-0.623,0.507-1.13,1.131-1.13c0.623,0,1.13,0.507,1.13,1.13
				C24.956,16.863,24.449,17.37,23.826,17.37z M23.826,16.109c-0.072,0-0.131,0.059-0.131,0.13c0.001,0.144,0.262,0.146,0.261,0
				C23.956,16.168,23.897,16.109,23.826,16.109z"/>
		</g>
		<g>
			<g>
				<path d="M9.326,17.37c-2.361,0-4.282-1.921-4.282-4.282s1.921-4.283,4.282-4.283s4.282,1.922,4.282,4.283
					S11.688,17.37,9.326,17.37z M9.326,9.805c-1.81,0-3.282,1.473-3.282,3.283c0,1.81,1.473,3.282,3.282,3.282
					s3.282-1.473,3.282-3.282C12.608,11.277,11.136,9.805,9.326,9.805z"/>
			</g>
			<g>
				<path d="M9.326,14.218c-0.624,0-1.131-0.507-1.131-1.13c0-0.624,0.507-1.131,1.131-1.131c0.623,0,1.13,0.507,1.13,1.131
					C10.456,13.711,9.949,14.218,9.326,14.218z M9.326,12.957c-0.072,0-0.131,0.059-0.131,0.131c0.001,0.142,0.262,0.144,0.261,0
					C9.456,13.016,9.397,12.957,9.326,12.957z"/>
			</g>
			<g>
				<path d="M22.565,19.892c-2.014,0-3.652-1.639-3.652-3.652s1.639-3.651,3.652-3.651s3.652,1.638,3.652,3.651
					S24.579,19.892,22.565,19.892z M22.565,13.588c-1.463,0-2.652,1.189-2.652,2.651c0,1.463,1.189,2.652,2.652,2.652
					s2.652-1.189,2.652-2.652C25.218,14.777,24.028,13.588,22.565,13.588z"/>
			</g>
			<g>
				<path d="M15.559,24.974c-0.455,0-0.867-0.013-1.227-0.039C13.747,24.891,0,23.828,0,20.022c0-0.794,0.24-1.421,0.715-1.863
					c0.856-0.798,2.195-0.703,2.7-0.67l0.127,0.008c0.174-0.033,0.294,0.035,0.413,0.174c1.348,1.577,3.305,2.481,5.371,2.481
					c2.145,0,4.148-0.96,5.5-2.634c0.103-0.127,0.248-0.197,0.425-0.186l0.699,0.054c0.205,0.016,0.379,0.156,0.438,0.353
					c0.667,2.197,2.643,3.674,4.916,3.674c1.776,0,3.409-0.906,4.367-2.424c0.112-0.178,0.32-0.267,0.529-0.222
					C29.354,19.451,30,20.016,30,20.652c0,0.06-0.011,0.119-0.031,0.175C28.923,23.63,20.121,24.974,15.559,24.974z M2.87,18.468
					c-0.469,0-1.093,0.068-1.473,0.423C1.13,19.14,1,19.51,1,20.022c0,1.747,6.932,3.435,13.406,3.914
					c4.387,0.332,13.234-1.207,14.522-3.254c-0.211-0.144-0.838-0.46-2.609-0.864c-1.162,1.631-3.011,2.595-5.015,2.595
					c-2.602,0-4.877-1.615-5.764-4.055l-0.107-0.009c-1.537,1.785-3.748,2.803-6.107,2.803c-2.285,0-4.454-0.969-5.984-2.665
					C3.229,18.479,3.063,18.468,2.87,18.468z"/>
			</g>
			<g>
				<path d="M21.305,22.413c-3.049,0-5.605-2.193-6.08-5.216c-0.019-0.119,0.007-0.242,0.071-0.345
					c0.717-1.132,1.096-2.434,1.096-3.765c0-0.065-0.005-0.131-0.01-0.195l-0.008-0.132c-0.007-0.122,0.032-0.241,0.107-0.336
					c1.188-1.499,2.947-2.359,4.823-2.359c3.404,0,6.174,2.77,6.174,6.174S24.709,22.413,21.305,22.413z M16.244,17.221
					c0.468,2.44,2.568,4.192,5.061,4.192c2.853,0,5.174-2.321,5.174-5.174s-2.321-5.174-5.174-5.174
					c-1.508,0-2.926,0.666-3.92,1.835c0.004,0.062,0.007,0.124,0.007,0.188C17.392,14.544,16.995,15.968,16.244,17.221z"/>
			</g>
			<g>
				<path d="M9.326,21.152c-4.447,0-8.065-3.618-8.065-8.064c0-4.447,3.618-8.065,8.065-8.065s8.065,3.618,8.065,8.065
					C17.392,17.534,13.773,21.152,9.326,21.152z M9.326,6.022c-3.896,0-7.065,3.17-7.065,7.065s3.17,7.064,7.065,7.064
					s7.065-3.169,7.065-7.064S13.222,6.022,9.326,6.022z"/>
			</g>
			<g>
				<path d="M6.805,8.544c-0.276,0-0.5-0.224-0.5-0.5V6.152c0-0.276,0.224-0.5,0.5-0.5s0.5,0.224,0.5,0.5v1.892
					C7.305,8.32,7.081,8.544,6.805,8.544z"/>
			</g>
			<g>
				<path d="M4.282,11.065c-0.128,0-0.256-0.049-0.354-0.146L2.668,9.658c-0.195-0.195-0.195-0.512,0-0.707s0.512-0.195,0.707,0
					l1.261,1.261c0.195,0.195,0.195,0.512,0,0.707C4.538,11.017,4.41,11.065,4.282,11.065z"/>
			</g>
			<g>
				<path d="M9.956,7.913c-0.128,0-0.256-0.049-0.354-0.146c-0.195-0.195-0.195-0.512,0-0.707l1.262-1.261
					c0.195-0.195,0.512-0.195,0.707,0s0.195,0.512,0,0.707L10.31,7.767C10.212,7.864,10.084,7.913,9.956,7.913z"/>
			</g>
			<g>
				<path d="M11.848,8.544c-0.075,0-0.152-0.017-0.224-0.053L10.363,7.86c-0.247-0.124-0.347-0.424-0.224-0.671
					c0.124-0.247,0.427-0.346,0.671-0.224l1.261,0.631c0.247,0.124,0.347,0.424,0.224,0.671C12.207,8.442,12.03,8.544,11.848,8.544z
					"/>
			</g>
			<g>
				<path d="M14.369,11.065c-0.128,0-0.256-0.049-0.354-0.146c-0.195-0.195-0.195-0.512,0-0.707l1.262-1.261
					c0.195-0.195,0.512-0.195,0.707,0s0.195,0.512,0,0.707l-1.262,1.261C14.625,11.017,14.497,11.065,14.369,11.065z"/>
			</g>
			<g>
				<path d="M16.261,15.479c-0.128,0-0.256-0.049-0.354-0.146l-0.63-0.63c-0.195-0.195-0.195-0.512,0-0.707s0.512-0.195,0.707,0
					l0.63,0.63c0.195,0.195,0.195,0.512,0,0.707C16.517,15.43,16.389,15.479,16.261,15.479z"/>
			</g>
			<g>
				<path d="M12.479,19.892c-0.053,0-0.105-0.008-0.158-0.025c-0.262-0.088-0.403-0.371-0.316-0.633l0.63-1.891
					c0.089-0.261,0.372-0.403,0.633-0.316c0.262,0.088,0.403,0.371,0.316,0.633l-0.63,1.891
					C12.883,19.759,12.688,19.892,12.479,19.892z"/>
			</g>
			<g>
				<path d="M9.326,21.152c-0.128,0-0.256-0.049-0.354-0.146l-2.521-2.521c-0.195-0.195-0.195-0.512,0-0.707s0.512-0.195,0.707,0
					l2.521,2.521c0.195,0.195,0.195,0.512,0,0.707C9.582,21.104,9.454,21.152,9.326,21.152z"/>
			</g>
			<g>
				<path d="M8.065,19.892c-0.209,0-0.404-0.133-0.475-0.342c-0.087-0.262,0.055-0.545,0.316-0.633l1.891-0.63
					c0.264-0.088,0.545,0.055,0.633,0.316c0.087,0.262-0.055,0.545-0.316,0.633l-1.891,0.63C8.171,19.884,8.118,19.892,8.065,19.892
					z"/>
			</g>
			<g>
				<path d="M2.392,14.218c-0.075,0-0.151-0.017-0.224-0.053c-0.247-0.123-0.347-0.424-0.224-0.671l0.63-1.261
					c0.124-0.246,0.424-0.346,0.671-0.224c0.247,0.123,0.347,0.424,0.224,0.671l-0.63,1.261C2.751,14.116,2.574,14.218,2.392,14.218
					z"/>
			</g>
			<g>
				<path d="M3.652,15.479c-0.128,0-0.256-0.049-0.354-0.146l-1.261-1.261c-0.195-0.195-0.195-0.512,0-0.707s0.512-0.195,0.707,0
					l1.261,1.261c0.195,0.195,0.195,0.512,0,0.707C3.908,15.43,3.78,15.479,3.652,15.479z"/>
			</g>
		</g>
	</g>
</g>
<g id="Castle">
</g>
<g id="Witch_x27_s_Hat">
</g>
<g id="Cobweb_1">
</g>
<g id="Cobweb_2">
</g>
<g id="Spider">
</g>
<g id="Full_Moon">
</g>
<g id="Crescent">
</g>
<g id="Crow">
</g>
<g id="Candy_Holder">
</g>
<g id="Bloody_Knife">
</g>
<g id="Bloody_Axe">
</g>
</svg>
