<?xml version="1.0" encoding="iso-8859-1"?>
<!-- Generator: Adobe Illustrator 19.2.1, SVG Export Plug-In . SVG Version: 6.00 Build 0)  -->
<svg version="1.1" xmlns="http://www.w3.org/2000/svg" xmlns:xlink="http://www.w3.org/1999/xlink" x="0px" y="0px"
	 viewBox="0 0 30 30" style="enable-background:new 0 0 30 30;" xml:space="preserve">
<g id="Pompkin">
</g>
<g id="Layer_10">
</g>
<g id="Bat">
</g>
<g id="Ghost">
</g>
<g id="Bone_Hand">
</g>
<g id="Tree_Ghost">
</g>
<g id="Gate">
</g>
<g id="Cemetery_1">
</g>
<g id="Cemetery_2">
</g>
<g id="Devil_x27_s_Fork">
</g>
<g id="Night_Candle">
</g>
<g id="Canlestick">
</g>
<g id="Black_Cat">
</g>
<g id="Witch_Cauldron">
</g>
<g id="Corn_Candy">
</g>
<g id="Layer_29">
</g>
<g id="Bones">
</g>
<g id="Witch_Broom">
</g>
<g id="Owl">
</g>
<g id="Scythe">
</g>
<g id="Grim_Reaper">
</g>
<g id="Coffin">
</g>
<g id="Dracula">
</g>
<g id="Frankenstein">
	<g id="XMLID_1488_">
		<g id="XMLID_1501_">
			<path d="M15,26.218c-6.335,0-7.682-4.168-8.257-5.947c-0.048-0.149-0.09-0.282-0.13-0.396c-1.629-0.353-2.83-3.084-2.83-4.244
				c0-0.974,0.17-2.342,1.64-2.981c0.254-0.107,0.548,0.007,0.658,0.26c0.11,0.253-0.006,0.548-0.259,0.658
				c-0.738,0.32-1.039,0.918-1.039,2.063c0,0.952,1.163,3.282,2.179,3.282c0.188,0,0.359,0.105,0.445,0.272
				c0.088,0.173,0.179,0.441,0.287,0.777c0.551,1.705,1.699,5.255,7.306,5.255c5.84,0,6.792-3.369,7.304-5.18
				c0.102-0.359,0.182-0.643,0.289-0.853c0.086-0.167,0.258-0.272,0.445-0.272c1.016,0,2.179-2.33,2.179-3.282
				c0-1.146-0.301-1.743-1.039-2.063c-0.253-0.11-0.37-0.405-0.259-0.658c0.11-0.254,0.402-0.368,0.658-0.26
				c1.47,0.64,1.64,2.008,1.64,2.981c0,1.158-1.198,3.883-2.823,4.243c-0.041,0.125-0.084,0.278-0.128,0.437
				C22.767,22.078,21.596,26.218,15,26.218z"/>
		</g>
		<g id="XMLID_1491_">
			<path d="M24.457,13.608c-0.276,0-0.5-0.224-0.5-0.5C23.957,2.849,23.957,1,15,1S6.043,2.849,6.043,13.108
				c0,0.276-0.224,0.5-0.5,0.5s-0.5-0.224-0.5-0.5C5.043,2.776,5.043,0,15,0s9.957,2.776,9.957,13.108
				C24.957,13.385,24.733,13.608,24.457,13.608z"/>
		</g>
		<g id="XMLID_1498_">
			<path d="M13,12h-3c-0.276,0-0.5-0.224-0.5-0.5S9.724,11,10,11h3c0.276,0,0.5,0.224,0.5,0.5S13.276,12,13,12z"/>
		</g>
		<g id="XMLID_1497_">
			<path d="M20,12h-3c-0.276,0-0.5-0.224-0.5-0.5S16.724,11,17,11h3c0.276,0,0.5,0.224,0.5,0.5S20.276,12,20,12z"/>
		</g>
		<g id="XMLID_1496_">
			<path d="M18.5,21.5c-0.276,0-0.5-0.224-0.5-0.5h-6c0,0.276-0.224,0.5-0.5,0.5S11,21.276,11,21v-0.5c0-0.276,0.224-0.5,0.5-0.5h7
				c0.276,0,0.5,0.224,0.5,0.5V21C19,21.276,18.776,21.5,18.5,21.5z"/>
		</g>
		<g id="XMLID_1493_">
			<path d="M12,14h-1c-0.276,0-0.5-0.224-0.5-0.5S10.724,13,11,13h1c0.276,0,0.5,0.224,0.5,0.5S12.276,14,12,14z"/>
		</g>
		<g id="XMLID_1492_">
			<path d="M19,14h-1c-0.276,0-0.5-0.224-0.5-0.5S17.724,13,18,13h1c0.276,0,0.5,0.224,0.5,0.5S19.276,14,19,14z"/>
		</g>
		<g id="XMLID_1499_">
			<path d="M23.826,6.044c-0.091,0-0.183-0.024-0.266-0.077c-1.323-0.834-4.431-1.955-5.054-1.331
				c-0.148,0.148-0.375,0.187-0.565,0.1c-1.649-0.77-4.232-0.77-5.882,0c-0.19,0.088-0.417,0.05-0.565-0.1
				c-0.624-0.624-3.73,0.497-5.054,1.331c-0.234,0.15-0.542,0.077-0.69-0.156C5.604,5.577,5.674,5.268,5.907,5.121
				c0.669-0.422,4.398-2.326,6.004-1.411c1.816-0.736,4.36-0.736,6.177,0c1.607-0.908,5.335,0.99,6.004,1.411
				c0.233,0.146,0.304,0.456,0.157,0.689C24.154,5.961,23.992,6.044,23.826,6.044z"/>
		</g>
		<g id="XMLID_1495_">
			<path d="M9.5,30C9.224,30,9,29.776,9,29.5V24c0-0.276,0.224-0.5,0.5-0.5S10,23.724,10,24v5.5C10,29.776,9.776,30,9.5,30z"/>
		</g>
		<g id="XMLID_1502_">
			<path d="M20.5,30c-0.276,0-0.5-0.224-0.5-0.5V24c0-0.276,0.224-0.5,0.5-0.5S21,23.724,21,24v5.5C21,29.776,20.776,30,20.5,30z"/>
		</g>
		<g id="XMLID_1503_">
			<path d="M23,27h-2c-0.276,0-0.5-0.224-0.5-0.5S20.724,26,21,26h2c0.276,0,0.5,0.224,0.5,0.5S23.276,27,23,27z"/>
		</g>
		<g id="XMLID_1504_">
			<path d="M23.5,28.5c-0.276,0-0.5-0.224-0.5-0.5v-2c0-0.276,0.224-0.5,0.5-0.5S24,25.724,24,26v2C24,28.276,23.776,28.5,23.5,28.5
				z"/>
		</g>
		<g id="XMLID_1505_">
			<path d="M9,27H7c-0.276,0-0.5-0.224-0.5-0.5S6.724,26,7,26h2c0.276,0,0.5,0.224,0.5,0.5S9.276,27,9,27z"/>
		</g>
		<g id="XMLID_1511_">
			<path d="M6.5,28.5C6.224,28.5,6,28.276,6,28v-2c0-0.276,0.224-0.5,0.5-0.5S7,25.724,7,26v2C7,28.276,6.776,28.5,6.5,28.5z"/>
		</g>
		<g>
			<path d="M13.74,9.195c-0.04,0-0.081-0.005-0.122-0.015L6.053,7.29C5.785,7.223,5.622,6.951,5.689,6.684
				c0.066-0.269,0.338-0.432,0.606-0.364L13.86,8.21c0.268,0.067,0.431,0.339,0.364,0.606C14.167,9.044,13.964,9.195,13.74,9.195z"
				/>
		</g>
		<g>
			<path d="M7.434,8.565c-0.075,0-0.151-0.017-0.223-0.053C6.964,8.389,6.864,8.089,6.987,7.842l0.631-1.261
				c0.124-0.246,0.423-0.349,0.671-0.224c0.247,0.124,0.347,0.424,0.224,0.671L7.882,8.289C7.794,8.464,7.618,8.565,7.434,8.565z"/>
		</g>
		<g>
			<path d="M9.956,9.195c-0.075,0-0.151-0.017-0.223-0.053C9.486,9.019,9.386,8.719,9.509,8.472l0.63-1.261
				c0.124-0.246,0.424-0.349,0.671-0.224c0.247,0.124,0.347,0.424,0.224,0.671l-0.63,1.261C10.316,9.094,10.14,9.195,9.956,9.195z"
				/>
		</g>
		<g>
			<path d="M12.478,9.826c-0.075,0-0.151-0.017-0.223-0.053c-0.247-0.124-0.347-0.424-0.224-0.671l0.631-1.261
				c0.124-0.246,0.425-0.348,0.671-0.224c0.247,0.124,0.347,0.424,0.224,0.671L12.925,9.55C12.837,9.725,12.661,9.826,12.478,9.826z
				"/>
		</g>
	</g>
</g>
<g id="Layer_40">
</g>
<g id="Toilet_Paper">
</g>
<g id="Skull">
</g>
<g id="Skull_Cake">
</g>
<g id="Eyeball">
</g>
<g id="Castle">
</g>
<g id="Witch_x27_s_Hat">
</g>
<g id="Cobweb_1">
</g>
<g id="Cobweb_2">
</g>
<g id="Spider">
</g>
<g id="Full_Moon">
</g>
<g id="Crescent">
</g>
<g id="Crow">
</g>
<g id="Candy_Holder">
</g>
<g id="Bloody_Knife">
</g>
<g id="Bloody_Axe">
</g>
</svg>
