<?xml version="1.0" encoding="iso-8859-1"?>
<!-- Generator: Adobe Illustrator 19.2.1, SVG Export Plug-In . SVG Version: 6.00 Build 0)  -->
<svg version="1.1" xmlns="http://www.w3.org/2000/svg" xmlns:xlink="http://www.w3.org/1999/xlink" x="0px" y="0px"
	 viewBox="0 0 30 30" style="enable-background:new 0 0 30 30;" xml:space="preserve">
<g id="Pompkin">
</g>
<g id="Layer_10">
</g>
<g id="Bat">
</g>
<g id="Ghost">
</g>
<g id="Bone_Hand">
</g>
<g id="Tree_Ghost">
</g>
<g id="Gate">
</g>
<g id="Cemetery_1">
</g>
<g id="Cemetery_2">
</g>
<g id="Devil_x27_s_Fork">
</g>
<g id="Night_Candle">
</g>
<g id="Canlestick">
</g>
<g id="Black_Cat">
</g>
<g id="Witch_Cauldron">
</g>
<g id="Corn_Candy">
</g>
<g id="Layer_29">
</g>
<g id="Bones">
</g>
<g id="Witch_Broom">
</g>
<g id="Owl">
</g>
<g id="Scythe">
</g>
<g id="Grim_Reaper">
</g>
<g id="Coffin">
</g>
<g id="Dracula">
</g>
<g id="Frankenstein">
</g>
<g id="Layer_40">
</g>
<g id="Toilet_Paper">
</g>
<g id="Skull">
</g>
<g id="Skull_Cake">
</g>
<g id="Eyeball">
</g>
<g id="Castle">
</g>
<g id="Witch_x27_s_Hat">
</g>
<g id="Cobweb_1">
</g>
<g id="Cobweb_2">
</g>
<g id="Spider">
</g>
<g id="Full_Moon">
	<g>
		<g>
			<path d="M8.065,13.608c-1.667,0-3.022-1.355-3.022-3.021s1.355-3.021,3.022-3.021c1.666,0,3.021,1.355,3.021,3.021
				S9.731,13.608,8.065,13.608z M8.065,8.565c-1.115,0-2.022,0.907-2.022,2.021s0.907,2.021,2.022,2.021s2.021-0.907,2.021-2.021
				S9.18,8.565,8.065,8.565z"/>
		</g>
		<g>
			<path d="M14.37,7.305c-0.971,0-1.761-0.79-1.761-1.761c0-0.972,0.79-1.762,1.761-1.762s1.761,0.79,1.761,1.762
				C16.13,6.515,15.34,7.305,14.37,7.305z M14.37,4.782c-0.419,0-0.761,0.342-0.761,0.762s0.341,0.761,0.761,0.761
				s0.761-0.341,0.761-0.761S14.789,4.782,14.37,4.782z"/>
		</g>
		<g>
			<path d="M14.37,30C6.446,30,0,23.554,0,15.631c0-7.924,6.446-14.37,14.37-14.37s14.37,6.446,14.37,14.37
				c0,0.999-0.109,2.014-0.324,3.018c-0.058,0.27-0.326,0.436-0.593,0.385c-0.27-0.058-0.442-0.324-0.384-0.594
				c0.2-0.936,0.301-1.88,0.301-2.809c0-7.372-5.998-13.37-13.37-13.37S1,8.259,1,15.631S6.998,29,14.37,29
				c5.029,0,9.585-2.788,11.891-7.277c0.127-0.246,0.427-0.343,0.673-0.216c0.246,0.126,0.342,0.427,0.216,0.673
				C24.673,27.003,19.776,30,14.37,30z"/>
		</g>
		<g>
			<g>
				<path d="M18.289,27.479c-0.276,0-0.5-0.224-0.5-0.5c0-0.594-0.224-0.996-0.667-1.194c-0.555-0.249-1.29-0.097-1.627,0.203
					c-0.158,0.14-0.386,0.166-0.572,0.064c-0.185-0.101-0.287-0.308-0.254-0.516c0.092-0.589-0.044-1.035-0.417-1.365
					c-0.602-0.534-1.729-0.649-2.269-0.494c-0.241,0.069-0.493-0.052-0.594-0.279c-0.531-1.204-2.493-1.173-4.535-0.966
					c-0.147,0.018-0.308-0.041-0.416-0.155c-0.107-0.113-0.154-0.271-0.128-0.425c0.653-3.892,2.869-4.74,5.935-5.916
					c0.601-0.23,1.245-0.477,1.93-0.766c0.211-0.087,0.458-0.021,0.596,0.164c0.137,0.186,0.129,0.441-0.02,0.618
					c-0.452,0.539-0.57,1.03-0.36,1.5c0.313,0.698,1.239,1.203,2,1.386c0-0.728-0.001-1.871-0.001-1.871
					c0-0.23,0.156-0.431,0.379-0.486c0.222-0.054,0.455,0.048,0.563,0.251l0.482,0.906c0.206-0.006,0.457-0.007,0.667-0.002
					l0.484-0.968c0.103-0.207,0.333-0.323,0.563-0.263c0.226,0.053,0.385,0.255,0.385,0.487c0,0-0.001,1.197-0.001,1.945
					c0.761-0.183,1.687-0.687,2-1.386c0.21-0.47,0.093-0.961-0.36-1.5c-0.148-0.177-0.157-0.433-0.02-0.618
					c0.138-0.186,0.386-0.251,0.596-0.164c0.686,0.289,1.33,0.535,1.93,0.766c3.066,1.176,5.281,2.024,5.935,5.916
					c0.027,0.16-0.025,0.323-0.14,0.438c-0.115,0.114-0.277,0.166-0.438,0.139c-1.503-0.257-3.6-0.129-4.568,1.08
					c-0.125,0.156-0.334,0.223-0.527,0.169c-0.4-0.113-1.216,0.087-1.793,0.568c-0.313,0.26-0.673,0.7-0.614,1.321
					c0.019,0.207-0.091,0.404-0.278,0.496c-0.187,0.091-0.41,0.059-0.562-0.084c-0.368-0.346-1.08-0.444-1.588-0.227
					c-0.456,0.198-0.696,0.622-0.696,1.227C18.789,27.255,18.565,27.479,18.289,27.479z M16.493,24.659
					c0.36,0,0.72,0.069,1.04,0.213c0.301,0.135,0.554,0.329,0.752,0.569c0.208-0.26,0.479-0.466,0.803-0.606
					c0.599-0.259,1.309-0.264,1.909-0.044c0.14-0.491,0.442-0.941,0.891-1.314c0.688-0.573,1.627-0.896,2.379-0.821
					c1.117-1.165,2.978-1.45,4.605-1.306c-0.668-2.755-2.326-3.39-5.17-4.48c-0.235-0.09-0.478-0.183-0.726-0.279
					c0.1,0.508-0.003,0.942-0.15,1.271c-0.545,1.219-2.187,2.015-3.396,2.053c-0.133,0-0.264-0.046-0.362-0.139
					c-0.097-0.094-0.152-0.222-0.154-0.356c-0.001-0.077-0.001-0.396-0.001-0.782c-0.066,0.018-0.136,0.022-0.208,0.011
					c-0.147-0.02-0.974-0.016-1.115,0.001c-0.064,0.011-0.133,0.002-0.197-0.015c0,0.385,0,0.706-0.001,0.785
					c-0.001,0.135-0.057,0.263-0.154,0.356c-0.097,0.093-0.226,0.138-0.362,0.139c-1.208-0.038-2.851-0.834-3.396-2.053
					c-0.147-0.328-0.25-0.763-0.15-1.271c-0.249,0.097-0.491,0.189-0.726,0.279c-2.853,1.094-4.511,1.729-5.176,4.503
					c1.56-0.135,3.751-0.154,4.685,1.268c0.8-0.093,2.009,0.079,2.803,0.782c0.312,0.276,0.646,0.714,0.749,1.361
					C15.929,24.701,16.211,24.659,16.493,24.659z"/>
			</g>
			<g>
				<path d="M11.848,18.652c-0.128,0-0.256-0.049-0.354-0.146c-0.195-0.195-0.195-0.512,0-0.707l1.892-1.892
					c0.195-0.195,0.512-0.195,0.707,0s0.195,0.512,0,0.707l-1.892,1.892C12.104,18.604,11.976,18.652,11.848,18.652z"/>
			</g>
			<g>
				<path d="M24.457,18.652c-0.162,0-0.32-0.078-0.417-0.223l-1.261-1.892c-0.153-0.229-0.091-0.54,0.139-0.693
					c0.23-0.153,0.541-0.092,0.693,0.139l1.261,1.892c0.153,0.229,0.091,0.54-0.139,0.693
					C24.648,18.625,24.552,18.652,24.457,18.652z"/>
			</g>
		</g>
	</g>
</g>
<g id="Crescent">
</g>
<g id="Crow">
</g>
<g id="Candy_Holder">
</g>
<g id="Bloody_Knife">
</g>
<g id="Bloody_Axe">
</g>
</svg>
