<?xml version="1.0" encoding="iso-8859-1"?>
<!-- Generator: Adobe Illustrator 19.2.1, SVG Export Plug-In . SVG Version: 6.00 Build 0)  -->
<svg version="1.1" xmlns="http://www.w3.org/2000/svg" xmlns:xlink="http://www.w3.org/1999/xlink" x="0px" y="0px"
	 viewBox="0 0 30 30" style="enable-background:new 0 0 30 30;" xml:space="preserve">
<g id="Pompkin">
</g>
<g id="Layer_10">
</g>
<g id="Bat">
</g>
<g id="Ghost">
</g>
<g id="Bone_Hand">
</g>
<g id="Tree_Ghost">
</g>
<g id="Gate">
	<g>
		<g>
			<path d="M2.5,30C2.224,30,2,29.776,2,29.5V6.804c0-0.276,0.224-0.5,0.5-0.5S3,6.528,3,6.804V29.5C3,29.776,2.776,30,2.5,30z"/>
		</g>
		<g>
			<path d="M3.761,7.304H1.239c-0.202,0-0.385-0.122-0.462-0.309S0.743,6.594,0.886,6.451L2.146,5.19
				c0.195-0.195,0.512-0.195,0.707,0l1.261,1.261C4.257,6.594,4.3,6.809,4.223,6.996S3.963,7.304,3.761,7.304z M2.446,6.304h0.107
				L2.5,6.25L2.446,6.304z"/>
		</g>
		<g>
			<path d="M8.5,30C8.224,30,8,29.776,8,29.5V4.283c0-0.276,0.224-0.5,0.5-0.5S9,4.006,9,4.283V29.5C9,29.776,8.776,30,8.5,30z"/>
		</g>
		<g>
			<path d="M9.761,4.783H7.239c-0.202,0-0.385-0.122-0.462-0.309S6.743,4.072,6.886,3.929l1.261-1.261
				c0.195-0.195,0.512-0.195,0.707,0l1.261,1.261c0.143,0.143,0.186,0.358,0.108,0.545S9.963,4.783,9.761,4.783z M8.446,3.783h0.107
				L8.5,3.729L8.446,3.783z"/>
		</g>
		<g>
			<path d="M27.5,30c-0.276,0-0.5-0.224-0.5-0.5V6.804c0-0.276,0.224-0.5,0.5-0.5s0.5,0.224,0.5,0.5V29.5
				C28,29.776,27.776,30,27.5,30z"/>
		</g>
		<g>
			<path d="M28.761,7.304h-2.521c-0.202,0-0.385-0.122-0.462-0.309s-0.034-0.402,0.108-0.545l1.261-1.261
				c0.195-0.195,0.512-0.195,0.707,0l1.261,1.261c0.143,0.143,0.186,0.358,0.108,0.545S28.963,7.304,28.761,7.304z M27.446,6.304
				h0.107L27.5,6.25L27.446,6.304z"/>
		</g>
		<g>
			<path d="M21.5,30c-0.276,0-0.5-0.224-0.5-0.5V4.283c0-0.276,0.224-0.5,0.5-0.5s0.5,0.224,0.5,0.5V29.5
				C22,29.776,21.776,30,21.5,30z"/>
		</g>
		<g>
			<path d="M22.761,4.783h-2.521c-0.202,0-0.385-0.122-0.462-0.309s-0.034-0.402,0.108-0.545l1.261-1.261
				c0.195-0.195,0.512-0.195,0.707,0l1.261,1.261c0.143,0.143,0.186,0.358,0.108,0.545S22.963,4.783,22.761,4.783z M21.446,3.783
				h0.107L21.5,3.729L21.446,3.783z"/>
		</g>
		<g>
			<path d="M14.5,30c-0.276,0-0.5-0.224-0.5-0.5V1.761c0-0.276,0.224-0.5,0.5-0.5s0.5,0.224,0.5,0.5V29.5
				C15,29.776,14.776,30,14.5,30z"/>
		</g>
		<g>
			<path d="M15.761,2.261h-2.521c-0.202,0-0.385-0.122-0.462-0.309s-0.034-0.402,0.108-0.545l1.261-1.261
				c0.195-0.195,0.512-0.195,0.707,0l1.261,1.261c0.143,0.143,0.186,0.358,0.108,0.545S15.963,2.261,15.761,2.261z M14.446,1.261
				h0.107L14.5,1.207L14.446,1.261z"/>
		</g>
		<g>
			<path d="M29.5,24h-29C0.224,24,0,23.776,0,23.5S0.224,23,0.5,23h29c0.276,0,0.5,0.224,0.5,0.5S29.776,24,29.5,24z"/>
		</g>
		<g>
			<path d="M29.5,17h-29C0.224,17,0,16.776,0,16.5S0.224,16,0.5,16h29c0.276,0,0.5,0.224,0.5,0.5S29.776,17,29.5,17z"/>
		</g>
		<g>
			<path d="M29.501,9.826c-0.015,0-0.029,0-0.044-0.002l-14.5-1.261L0.543,9.824C0.268,9.848,0.025,9.645,0.002,9.37
				c-0.024-0.275,0.18-0.518,0.455-0.542l14.5-1.261l14.586,1.261c0.275,0.024,0.479,0.266,0.455,0.542
				C29.976,9.63,29.757,9.826,29.501,9.826z"/>
		</g>
	</g>
</g>
<g id="Cemetery_1">
</g>
<g id="Cemetery_2">
</g>
<g id="Devil_x27_s_Fork">
</g>
<g id="Night_Candle">
</g>
<g id="Canlestick">
</g>
<g id="Black_Cat">
</g>
<g id="Witch_Cauldron">
</g>
<g id="Corn_Candy">
</g>
<g id="Layer_29">
</g>
<g id="Bones">
</g>
<g id="Witch_Broom">
</g>
<g id="Owl">
</g>
<g id="Scythe">
</g>
<g id="Grim_Reaper">
</g>
<g id="Coffin">
</g>
<g id="Dracula">
</g>
<g id="Frankenstein">
</g>
<g id="Layer_40">
</g>
<g id="Toilet_Paper">
</g>
<g id="Skull">
</g>
<g id="Skull_Cake">
</g>
<g id="Eyeball">
</g>
<g id="Castle">
</g>
<g id="Witch_x27_s_Hat">
</g>
<g id="Cobweb_1">
</g>
<g id="Cobweb_2">
</g>
<g id="Spider">
</g>
<g id="Full_Moon">
</g>
<g id="Crescent">
</g>
<g id="Crow">
</g>
<g id="Candy_Holder">
</g>
<g id="Bloody_Knife">
</g>
<g id="Bloody_Axe">
</g>
</svg>
