<?xml version="1.0" encoding="iso-8859-1"?>
<!-- Generator: Adobe Illustrator 19.2.1, SVG Export Plug-In . SVG Version: 6.00 Build 0)  -->
<svg version="1.1" xmlns="http://www.w3.org/2000/svg" xmlns:xlink="http://www.w3.org/1999/xlink" x="0px" y="0px"
	 viewBox="0 0 30 30" style="enable-background:new 0 0 30 30;" xml:space="preserve">
<g id="Pompkin">
</g>
<g id="Layer_10">
</g>
<g id="Bat">
</g>
<g id="Ghost">
	<g>
		<g>
			<path d="M16.891,30c-1.39,0-2.102-0.672-2.729-1.266c-0.684-0.646-1.331-1.256-2.944-1.256c-1.441,0-2.156,0.495-2.787,0.932
				c-0.766,0.531-1.557,1.078-3.116,0.274C2.801,27.386,0,22.224,0,16.891C0,12.578,1.711,4.705,3.134,3.868
				c0.247-0.146,0.525-0.154,0.761-0.022C4.434,4.145,4.679,4.96,5.02,6.088c0.659,2.188,1.344,3.999,3.046,3.999
				c0.861,0,1.453-0.167,1.76-0.498c0.407-0.439,0.351-1.208,0.296-1.951c-0.022-0.3-0.042-0.589-0.035-0.848V4.913
				C10.087,2.204,12.291,0,15,0s4.913,2.204,4.913,4.913v1.891c0.104,3.156,0.66,3.283,2.021,3.283c1.861,0,2.524-1.98,3.057-3.571
				c0.327-0.976,0.585-1.746,1.113-2.04c0.214-0.12,0.458-0.125,0.688-0.016c1.327,0.627,2.402,6.189,2.604,7.297
				C29.786,13.892,30,15.939,30,17.522c0,1.487-0.216,3.017-0.641,4.547c-0.938,3.375-2.815,6.286-4.673,7.245
				c-0.523,0.269-0.954,0.312-1.32,0.127c-0.618-0.31-0.749-1.09-0.9-1.994c-0.252-1.504-0.513-2.491-1.792-2.491
				c-0.972,0-1.518,1.448-1.999,2.726C18.207,28.926,17.802,30,16.891,30z M11.217,26.478c2.012,0,2.909,0.848,3.631,1.529
				C15.435,28.562,15.899,29,16.891,29c0.233-0.04,0.633-1.101,0.848-1.67c0.566-1.503,1.271-3.373,2.935-3.373
				c2.221,0,2.556,2.001,2.778,3.325c0.074,0.443,0.198,1.184,0.362,1.266c0.022,0.011,0.15,0.014,0.414-0.122
				c1.601-0.826,3.315-3.55,4.168-6.624C28.797,20.358,29,18.919,29,17.522c0-1.525-0.208-3.508-0.587-5.585
				c-0.646-3.545-1.486-5.879-1.937-6.459c-0.175,0.277-0.387,0.909-0.537,1.355c-0.567,1.694-1.425,4.253-4.005,4.253
				c-2.235,0-2.913-0.957-3.021-4.266l0-1.908C18.913,2.755,17.158,1,15,1s-3.913,1.755-3.913,3.913v1.891
				C11.081,7.046,11.1,7.3,11.12,7.564c0.063,0.868,0.143,1.947-0.562,2.705c-0.511,0.55-1.327,0.817-2.493,0.817
				c-2.584,0-3.438-2.834-4.003-4.71c-0.16-0.53-0.369-1.222-0.545-1.523C2.689,5.909,1,12.259,1,16.891
				c0,4.831,2.52,9.741,4.773,10.904c1.023,0.528,1.379,0.282,2.088-0.208C8.538,27.119,9.464,26.478,11.217,26.478z"/>
		</g>
		<g>
			<path d="M16.891,6.043c-0.472,0-0.815-0.476-0.815-1.13c0-0.373,0.125-0.718,0.336-0.922c0.145-0.14,0.336-0.2,0.514-0.208
				c0.467,0.015,0.78,0.469,0.78,1.13C17.707,5.568,17.364,6.043,16.891,6.043z"/>
		</g>
		<g>
			<path d="M13.109,6.043c-0.473,0-0.815-0.476-0.815-1.13c0-0.373,0.126-0.717,0.336-0.922c0.145-0.14,0.324-0.204,0.514-0.208
				c0.467,0.015,0.78,0.469,0.78,1.13C13.924,5.568,13.581,6.043,13.109,6.043z"/>
		</g>
		<g>
			<path d="M15,10.457c-0.655,0-1.13-0.741-1.13-1.761c0-1.021,0.476-1.761,1.13-1.761s1.13,0.741,1.13,1.761
				C16.13,9.716,15.655,10.457,15,10.457z M15.079,9.477h0.01H15.079z M15,8.032c-0.062,0.127-0.13,0.351-0.13,0.664
				S14.938,9.233,15,9.36c0.062-0.127,0.13-0.351,0.13-0.664S15.062,8.159,15,8.032z"/>
		</g>
	</g>
</g>
<g id="Bone_Hand">
</g>
<g id="Tree_Ghost">
</g>
<g id="Gate">
</g>
<g id="Cemetery_1">
</g>
<g id="Cemetery_2">
</g>
<g id="Devil_x27_s_Fork">
</g>
<g id="Night_Candle">
</g>
<g id="Canlestick">
</g>
<g id="Black_Cat">
</g>
<g id="Witch_Cauldron">
</g>
<g id="Corn_Candy">
</g>
<g id="Layer_29">
</g>
<g id="Bones">
</g>
<g id="Witch_Broom">
</g>
<g id="Owl">
</g>
<g id="Scythe">
</g>
<g id="Grim_Reaper">
</g>
<g id="Coffin">
</g>
<g id="Dracula">
</g>
<g id="Frankenstein">
</g>
<g id="Layer_40">
</g>
<g id="Toilet_Paper">
</g>
<g id="Skull">
</g>
<g id="Skull_Cake">
</g>
<g id="Eyeball">
</g>
<g id="Castle">
</g>
<g id="Witch_x27_s_Hat">
</g>
<g id="Cobweb_1">
</g>
<g id="Cobweb_2">
</g>
<g id="Spider">
</g>
<g id="Full_Moon">
</g>
<g id="Crescent">
</g>
<g id="Crow">
</g>
<g id="Candy_Holder">
</g>
<g id="Bloody_Knife">
</g>
<g id="Bloody_Axe">
</g>
</svg>
