<?xml version="1.0" encoding="iso-8859-1"?>
<!-- Generator: Adobe Illustrator 19.2.1, SVG Export Plug-In . SVG Version: 6.00 Build 0)  -->
<svg version="1.1" xmlns="http://www.w3.org/2000/svg" xmlns:xlink="http://www.w3.org/1999/xlink" x="0px" y="0px"
	 viewBox="0 0 30 30" style="enable-background:new 0 0 30 30;" xml:space="preserve">
<g id="Pompkin">
</g>
<g id="Layer_10">
</g>
<g id="Bat">
</g>
<g id="Ghost">
</g>
<g id="Bone_Hand">
</g>
<g id="Tree_Ghost">
</g>
<g id="Gate">
</g>
<g id="Cemetery_1">
</g>
<g id="Cemetery_2">
</g>
<g id="Devil_x27_s_Fork">
</g>
<g id="Night_Candle">
</g>
<g id="Canlestick">
</g>
<g id="Black_Cat">
</g>
<g id="Witch_Cauldron">
</g>
<g id="Corn_Candy">
</g>
<g id="Layer_29">
</g>
<g id="Bones">
</g>
<g id="Witch_Broom">
</g>
<g id="Owl">
</g>
<g id="Scythe">
</g>
<g id="Grim_Reaper">
	<g>
		<g>
			<path d="M5.541,13.617c-0.174,0-0.342-0.091-0.435-0.252L0.066,4.544c-0.12-0.209-0.073-0.474,0.11-0.629
				c0.307-0.261,7.737-6.334,28.137-2.632c0.257,0.047,0.435,0.283,0.408,0.543c-0.027,0.26-0.211,0.444-0.51,0.449
				C20.183,2.067,5.924,3.11,3.473,8.291C3.456,8.326,3.436,8.357,3.414,8.387l2.561,4.482c0.137,0.239,0.054,0.545-0.186,0.683
				C5.71,13.596,5.625,13.617,5.541,13.617z M1.157,4.438l1.678,2.936c2.689-4.356,12.328-5.636,18.982-5.99
				C8.685,0.136,2.584,3.492,1.157,4.438z"/>
		</g>
		<g>
			<path d="M29.484,30H4.281c-0.229,0-0.429-0.156-0.485-0.379c-0.129-0.517,0.173-1.279,0.673-2.542
				c0.673-1.698,1.69-4.265,1.832-7.056C6.54,15.335,9.535,5.057,16.882,5.057c8.016,0,10.383,11.084,10.581,14.967
				c0.142,2.791,1.159,5.357,1.833,7.056c0.5,1.263,0.803,2.025,0.673,2.542C29.914,29.844,29.714,30,29.484,30z M4.829,29h24.108
				c-0.112-0.396-0.352-0.999-0.571-1.552c-0.697-1.76-1.751-4.418-1.902-7.374c-0.232-4.573-2.881-14.018-9.582-14.018
				c-6.636,0-9.359,9.626-9.582,14.018c-0.15,2.956-1.204,5.614-1.901,7.373C5.18,28,4.941,28.604,4.829,29z"/>
		</g>
		<g>
			<path d="M20.663,24h-7.561c-0.276,0-0.5-0.224-0.5-0.5v-2.306c-1.605-1.305-2.521-3.206-2.521-5.256
				c0-3.75,3.051-6.801,6.801-6.801s6.801,3.051,6.801,6.801c0,2.05-0.916,3.951-2.521,5.256V23.5
				C21.163,23.776,20.939,24,20.663,24z M13.602,23h6.561v-2.049c0-0.156,0.074-0.305,0.199-0.398
				c1.476-1.116,2.322-2.798,2.322-4.614c0-3.198-2.603-5.801-5.801-5.801s-5.801,2.603-5.801,5.801
				c0,1.816,0.846,3.498,2.322,4.614c0.125,0.094,0.199,0.242,0.199,0.398V23z"/>
		</g>
		<g>
			<path d="M18.143,24c-0.276,0-0.5-0.224-0.5-0.5v-1.26c0-0.276,0.224-0.5,0.5-0.5s0.5,0.224,0.5,0.5v1.26
				C18.643,23.776,18.419,24,18.143,24z"/>
		</g>
		<g>
			<path d="M15.622,24c-0.276,0-0.5-0.224-0.5-0.5v-1.26c0-0.276,0.224-0.5,0.5-0.5s0.5,0.224,0.5,0.5v1.26
				C16.122,23.776,15.898,24,15.622,24z"/>
		</g>
		<g>
			<path d="M19.392,18.704c-0.568,0-1.062-0.209-1.391-0.589c-0.296-0.344-0.422-0.791-0.353-1.261l0,0l0,0
				c0.106-0.731,1.376-1.694,2.264-1.717c0.616-0.001,1.086,0.379,1.22,1.054c0.117,0.593-0.1,1.35-0.539,1.884
				C20.26,18.48,19.833,18.704,19.392,18.704z M18.636,17.01c-0.023,0.176,0.019,0.332,0.122,0.451
				c0.133,0.154,0.365,0.243,0.634,0.243c0.185,0,0.348-0.165,0.429-0.264c0.271-0.331,0.381-0.796,0.33-1.056
				c-0.047-0.238-0.12-0.243-0.179-0.246C19.506,16.093,18.73,16.748,18.636,17.01z M18.634,17.016L18.634,17.016L18.634,17.016
				L18.634,17.016z M18.143,16.927h0.01H18.143z"/>
		</g>
		<g>
			<path d="M14.362,18.704c-0.446,0-0.878-0.226-1.214-0.636c-0.438-0.533-0.653-1.288-0.536-1.878
				c0.134-0.675,0.586-1.036,1.227-1.053c0.894,0.023,2.172,0.985,2.279,1.717l0,0c0.069,0.468-0.056,0.914-0.352,1.257
				C15.435,18.493,14.936,18.704,14.362,18.704z M13.807,16.138c-0.01,0-0.021,0-0.031,0.001c-0.061,0.004-0.136,0.009-0.184,0.247
				c-0.051,0.256,0.058,0.719,0.329,1.048c0.083,0.102,0.25,0.271,0.441,0.271c0.275,0,0.511-0.09,0.646-0.247
				c0.104-0.12,0.145-0.27,0.121-0.446C15.035,16.753,14.27,16.138,13.807,16.138z"/>
		</g>
	</g>
</g>
<g id="Coffin">
</g>
<g id="Dracula">
</g>
<g id="Frankenstein">
</g>
<g id="Layer_40">
</g>
<g id="Toilet_Paper">
</g>
<g id="Skull">
</g>
<g id="Skull_Cake">
</g>
<g id="Eyeball">
</g>
<g id="Castle">
</g>
<g id="Witch_x27_s_Hat">
</g>
<g id="Cobweb_1">
</g>
<g id="Cobweb_2">
</g>
<g id="Spider">
</g>
<g id="Full_Moon">
</g>
<g id="Crescent">
</g>
<g id="Crow">
</g>
<g id="Candy_Holder">
</g>
<g id="Bloody_Knife">
</g>
<g id="Bloody_Axe">
</g>
</svg>
