<?xml version="1.0" encoding="iso-8859-1"?>
<!-- Generator: Adobe Illustrator 19.2.1, SVG Export Plug-In . SVG Version: 6.00 Build 0)  -->
<svg version="1.1" xmlns="http://www.w3.org/2000/svg" xmlns:xlink="http://www.w3.org/1999/xlink" x="0px" y="0px"
	 viewBox="0 0 30 30" style="enable-background:new 0 0 30 30;" xml:space="preserve">
<g id="Pompkin">
</g>
<g id="Layer_10">
</g>
<g id="Bat">
</g>
<g id="Ghost">
</g>
<g id="Bone_Hand">
</g>
<g id="Tree_Ghost">
</g>
<g id="Gate">
</g>
<g id="Cemetery_1">
</g>
<g id="Cemetery_2">
</g>
<g id="Devil_x27_s_Fork">
</g>
<g id="Night_Candle">
</g>
<g id="Canlestick">
</g>
<g id="Black_Cat">
</g>
<g id="Witch_Cauldron">
</g>
<g id="Corn_Candy">
</g>
<g id="Layer_29">
	<g>
		<g>
			<path d="M9.328,18.651c-2.492,0-4.834-0.97-6.595-2.731c-3.636-3.636-3.636-9.552,0-13.188C4.494,0.97,6.837,0,9.327,0
				c2.491,0,4.834,0.97,6.595,2.731l0,0c3.092,3.093,3.628,7.84,1.303,11.543v0c-0.383,0.609-0.821,1.162-1.303,1.644
				C14.161,17.681,11.818,18.651,9.328,18.651z M9.327,1C7.104,1,5.013,1.866,3.44,3.438c-3.246,3.246-3.246,8.528,0,11.774
				c0.923,0.923,2.025,1.603,3.229,2.007c-2.433-1.203-4.108-3.711-4.108-6.603c0-3.303,2.687-5.99,5.989-5.99
				c2.697,0,4.892,2.194,4.892,4.892c0,2.213-1.801,4.014-4.014,4.014c-1.825,0-3.311-1.485-3.311-3.311
				c0-1.516,1.233-2.749,2.749-2.749c1.268,0,2.299,1.031,2.299,2.299c0,0.276-0.224,0.5-0.5,0.5s-0.5-0.224-0.5-0.5
				c0-0.716-0.583-1.299-1.299-1.299c-0.965,0-1.749,0.784-1.749,1.749c0,1.274,1.036,2.311,2.311,2.311
				c1.662,0,3.014-1.352,3.014-3.014c0-2.146-1.746-3.892-3.892-3.892c-2.751,0-4.989,2.238-4.989,4.99
				c0,3.508,2.854,6.362,6.361,6.362c2.572,0,4.933-1.191,6.478-3.267c2.054-3.274,1.576-7.512-1.185-10.272
				C13.643,1.866,11.552,1,9.327,1z"/>
		</g>
		<g>
			<path d="M28.237,29.999c-0.451,0-0.902-0.171-1.245-0.515L14.318,16.811c-0.094-0.094-0.146-0.221-0.146-0.354
				s0.053-0.26,0.146-0.354l1.783-1.783c0.195-0.195,0.512-0.195,0.707,0l12.674,12.673c0.687,0.686,0.687,1.803,0,2.49c0,0,0,0,0,0
				C29.139,29.828,28.688,29.999,28.237,29.999z M29.129,29.131h0.01H29.129z M15.379,16.458l12.32,12.32
				c0.296,0.295,0.778,0.296,1.076,0l0,0c0.297-0.297,0.297-0.78,0-1.076l-12.32-12.32L15.379,16.458z"/>
		</g>
	</g>
</g>
<g id="Bones">
</g>
<g id="Witch_Broom">
</g>
<g id="Owl">
</g>
<g id="Scythe">
</g>
<g id="Grim_Reaper">
</g>
<g id="Coffin">
</g>
<g id="Dracula">
</g>
<g id="Frankenstein">
</g>
<g id="Layer_40">
</g>
<g id="Toilet_Paper">
</g>
<g id="Skull">
</g>
<g id="Skull_Cake">
</g>
<g id="Eyeball">
</g>
<g id="Castle">
</g>
<g id="Witch_x27_s_Hat">
</g>
<g id="Cobweb_1">
</g>
<g id="Cobweb_2">
</g>
<g id="Spider">
</g>
<g id="Full_Moon">
</g>
<g id="Crescent">
</g>
<g id="Crow">
</g>
<g id="Candy_Holder">
</g>
<g id="Bloody_Knife">
</g>
<g id="Bloody_Axe">
</g>
</svg>
