<?xml version="1.0" encoding="iso-8859-1"?>
<!-- Generator: Adobe Illustrator 19.2.1, SVG Export Plug-In . SVG Version: 6.00 Build 0)  -->
<svg version="1.1" xmlns="http://www.w3.org/2000/svg" xmlns:xlink="http://www.w3.org/1999/xlink" x="0px" y="0px"
	 viewBox="0 0 30 30" style="enable-background:new 0 0 30 30;" xml:space="preserve">
<g id="Pompkin">
</g>
<g id="Layer_10">
	<g>
		<g>
			<path d="M20.67,17.392c-0.463,0-0.923-0.107-1.349-0.32c-0.722-0.361-1.26-0.981-1.515-1.747
				c-0.087-0.262,0.054-0.545,0.316-0.632l4.785-1.595c0.126-0.044,0.262-0.034,0.382,0.027c0.119,0.06,0.209,0.164,0.25,0.289
				c0.255,0.766,0.197,1.585-0.164,2.307s-0.981,1.26-1.747,1.515C21.315,17.34,20.992,17.392,20.67,17.392z M18.972,15.463
				c0.194,0.303,0.467,0.549,0.797,0.714c0.483,0.241,1.031,0.28,1.543,0.11c0.894-0.298,1.442-1.164,1.377-2.063L18.972,15.463z"/>
		</g>
		<g>
			<path d="M10.59,17.392c-0.321,0-0.645-0.052-0.958-0.157c-0.766-0.255-1.386-0.793-1.747-1.515s-0.419-1.542-0.164-2.307
				c0.042-0.125,0.132-0.229,0.25-0.289c0.12-0.06,0.255-0.07,0.382-0.027l4.785,1.595c0.262,0.087,0.403,0.37,0.316,0.632
				c-0.255,0.766-0.793,1.386-1.515,1.747C11.513,17.285,11.053,17.392,10.59,17.392z M8.571,14.224
				c-0.064,0.899,0.483,1.765,1.377,2.063c0.512,0.17,1.061,0.131,1.543-0.11c0.33-0.165,0.603-0.411,0.797-0.714L8.571,14.224z"/>
		</g>
		<g>
			<path d="M18.293,26.008c-0.242,0-0.454-0.175-0.493-0.422l-0.395-2.491c-0.043-0.272,0.143-0.529,0.416-0.572
				c0.271-0.043,0.528,0.143,0.572,0.416l0.395,2.491c0.043,0.272-0.143,0.529-0.416,0.572
				C18.345,26.006,18.319,26.008,18.293,26.008z"/>
		</g>
		<g>
			<path d="M20.891,25.384c-0.211,0-0.407-0.134-0.476-0.346l-0.779-2.398c-0.085-0.262,0.059-0.544,0.321-0.63
				c0.262-0.084,0.544,0.059,0.63,0.321l0.779,2.398c0.085,0.262-0.059,0.544-0.321,0.63C20.994,25.376,20.942,25.384,20.891,25.384
				z"/>
		</g>
		<g>
			<path d="M23.358,24.362c-0.182,0-0.358-0.1-0.446-0.273l-1.145-2.247c-0.125-0.246-0.028-0.547,0.218-0.672
				c0.247-0.127,0.547-0.028,0.672,0.218l1.145,2.247c0.125,0.246,0.028,0.547-0.218,0.672
				C23.512,24.345,23.435,24.362,23.358,24.362z"/>
		</g>
		<g>
			<path d="M25.636,22.966c-0.155,0-0.307-0.071-0.405-0.206l-1.482-2.04c-0.163-0.224-0.113-0.536,0.11-0.698
				c0.223-0.163,0.537-0.113,0.698,0.11l1.482,2.04c0.163,0.224,0.113,0.536-0.11,0.698C25.841,22.935,25.738,22.966,25.636,22.966z
				"/>
		</g>
		<g>
			<path d="M12.968,26.008c-0.026,0-0.052-0.002-0.079-0.006c-0.273-0.043-0.459-0.299-0.416-0.572l0.395-2.491
				c0.043-0.273,0.302-0.458,0.572-0.416c0.273,0.043,0.459,0.299,0.416,0.572l-0.395,2.491
				C13.423,25.832,13.21,26.008,12.968,26.008z"/>
		</g>
		<g>
			<path d="M10.371,25.384c-0.051,0-0.103-0.008-0.154-0.024c-0.263-0.085-0.407-0.368-0.321-0.63l0.779-2.398
				c0.086-0.263,0.368-0.405,0.63-0.321c0.263,0.085,0.407,0.368,0.321,0.63l-0.779,2.398C10.777,25.25,10.582,25.384,10.371,25.384
				z"/>
		</g>
		<g>
			<path d="M7.902,24.362c-0.076,0-0.154-0.018-0.227-0.055c-0.246-0.125-0.344-0.426-0.218-0.672l1.145-2.247
				c0.125-0.247,0.424-0.345,0.672-0.218c0.246,0.125,0.344,0.426,0.218,0.672l-1.145,2.247C8.26,24.263,8.084,24.362,7.902,24.362z
				"/>
		</g>
		<g>
			<path d="M5.625,22.966c-0.102,0-0.205-0.031-0.293-0.096c-0.223-0.162-0.273-0.475-0.11-0.698l1.482-2.04
				c0.162-0.224,0.475-0.275,0.698-0.11c0.223,0.162,0.273,0.475,0.11,0.698L6.03,22.76C5.932,22.895,5.78,22.966,5.625,22.966z"/>
		</g>
		<g>
			<path d="M15.63,24.957c-4.158,0-8.115-1.568-11.142-4.417c-0.201-0.189-0.21-0.506-0.021-0.707
				c0.19-0.201,0.506-0.21,0.707-0.021c2.84,2.673,6.554,4.145,10.456,4.145s7.616-1.472,10.456-4.145
				c0.201-0.188,0.516-0.179,0.707,0.021c0.189,0.201,0.18,0.518-0.021,0.707C23.745,23.388,19.788,24.957,15.63,24.957z"/>
		</g>
		<g>
			<path d="M15.63,26.217c-0.276,0-0.5-0.224-0.5-0.5v-2.521c0-0.276,0.224-0.5,0.5-0.5s0.5,0.224,0.5,0.5v2.521
				C16.13,25.994,15.907,26.217,15.63,26.217z"/>
		</g>
		<g>
			<path d="M19.413,30c-1.673,0-3.331-0.422-4.812-1.224C13.171,29.578,11.572,30,9.957,30C4.466,30,0,25.269,0,19.453
				C0,14.037,3.902,9.034,8.699,8.301c0.259-0.042,0.497,0.122,0.561,0.372c0.063,0.25-0.074,0.506-0.316,0.593
				C8.88,9.289,8.826,9.31,8.779,9.33c0.772,0.318,3.102,0.757,6.851,0.757c3.766,0,6.099-0.442,6.861-0.761
				c-0.545-0.23-1.916-0.537-4.269-0.682c-0.258-0.016-0.461-0.226-0.469-0.484s0.183-0.48,0.439-0.511
				c0.46-0.057,0.848-0.083,1.221-0.083C25.25,7.565,30,12.598,30,18.783S25.25,30,19.413,30z M14.597,27.701
				c0.086,0,0.173,0.022,0.25,0.067C16.24,28.574,17.819,29,19.413,29C24.699,29,29,24.417,29,18.783
				c0-4.022-2.192-7.509-5.37-9.175c-0.669,1.367-6.223,1.479-8,1.479c-1.786,0-7.387-0.113-8.009-1.5
				C3.875,10.834,1,14.987,1,19.453C1,24.717,5.018,29,9.957,29c1.53,0,3.045-0.424,4.383-1.228
				C14.419,27.725,14.508,27.701,14.597,27.701z M22.74,9.473h0.01H22.74z"/>
		</g>
		<g>
			<path d="M15.63,11.087c-1.892,0-8.065-0.127-8.065-1.761s6.173-1.761,8.065-1.761s8.065,0.127,8.065,1.761
				S17.522,11.087,15.63,11.087z M8.771,9.326c0.763,0.319,3.096,0.761,6.86,0.761s6.097-0.442,6.86-0.761
				c-0.763-0.319-3.097-0.761-6.86-0.761S9.534,9.007,8.771,9.326z M22.74,9.472h0.01H22.74z"/>
		</g>
		<g>
			<path d="M23.196,9.826c-0.276,0-0.5-0.224-0.5-0.5V8.065C22.696,4.169,19.526,1,15.63,1c-3.896,0-7.065,3.169-7.065,7.065v1.261
				c0,0.276-0.224,0.5-0.5,0.5s-0.5-0.224-0.5-0.5V8.065C7.565,3.618,11.183,0,15.63,0s8.065,3.618,8.065,8.065v1.261
				C23.696,9.603,23.472,9.826,23.196,9.826z"/>
		</g>
	</g>
</g>
<g id="Bat">
</g>
<g id="Ghost">
</g>
<g id="Bone_Hand">
</g>
<g id="Tree_Ghost">
</g>
<g id="Gate">
</g>
<g id="Cemetery_1">
</g>
<g id="Cemetery_2">
</g>
<g id="Devil_x27_s_Fork">
</g>
<g id="Night_Candle">
</g>
<g id="Canlestick">
</g>
<g id="Black_Cat">
</g>
<g id="Witch_Cauldron">
</g>
<g id="Corn_Candy">
</g>
<g id="Layer_29">
</g>
<g id="Bones">
</g>
<g id="Witch_Broom">
</g>
<g id="Owl">
</g>
<g id="Scythe">
</g>
<g id="Grim_Reaper">
</g>
<g id="Coffin">
</g>
<g id="Dracula">
</g>
<g id="Frankenstein">
</g>
<g id="Layer_40">
</g>
<g id="Toilet_Paper">
</g>
<g id="Skull">
</g>
<g id="Skull_Cake">
</g>
<g id="Eyeball">
</g>
<g id="Castle">
</g>
<g id="Witch_x27_s_Hat">
</g>
<g id="Cobweb_1">
</g>
<g id="Cobweb_2">
</g>
<g id="Spider">
</g>
<g id="Full_Moon">
</g>
<g id="Crescent">
</g>
<g id="Crow">
</g>
<g id="Candy_Holder">
</g>
<g id="Bloody_Knife">
</g>
<g id="Bloody_Axe">
</g>
</svg>
