<?xml version="1.0" encoding="iso-8859-1"?>
<!-- Generator: Adobe Illustrator 19.2.1, SVG Export Plug-In . SVG Version: 6.00 Build 0)  -->
<svg version="1.1" xmlns="http://www.w3.org/2000/svg" xmlns:xlink="http://www.w3.org/1999/xlink" x="0px" y="0px"
	 viewBox="0 0 30 30" style="enable-background:new 0 0 30 30;" xml:space="preserve">
<g id="Pompkin">
</g>
<g id="Layer_10">
</g>
<g id="Bat">
</g>
<g id="Ghost">
</g>
<g id="Bone_Hand">
</g>
<g id="Tree_Ghost">
</g>
<g id="Gate">
</g>
<g id="Cemetery_1">
</g>
<g id="Cemetery_2">
</g>
<g id="Devil_x27_s_Fork">
</g>
<g id="Night_Candle">
</g>
<g id="Canlestick">
</g>
<g id="Black_Cat">
</g>
<g id="Witch_Cauldron">
</g>
<g id="Corn_Candy">
</g>
<g id="Layer_29">
</g>
<g id="Bones">
</g>
<g id="Witch_Broom">
</g>
<g id="Owl">
</g>
<g id="Scythe">
</g>
<g id="Grim_Reaper">
</g>
<g id="Coffin">
</g>
<g id="Dracula">
</g>
<g id="Frankenstein">
</g>
<g id="Layer_40">
	<g>
		<g>
			<path d="M15.5,30c-0.276,0-0.5-0.224-0.5-0.5V13c0-0.276,0.224-0.5,0.5-0.5S16,12.724,16,13v16.5C16,29.776,15.776,30,15.5,30z"
				/>
		</g>
		<g>
			<path d="M29.5,16h-29C0.224,16,0,15.776,0,15.5S0.224,15,0.5,15h29c0.276,0,0.5,0.224,0.5,0.5S29.776,16,29.5,16z"/>
		</g>
		<g>
			<path d="M18.5,14h-5c-0.276,0-0.5-0.224-0.5-0.5v-2.033c-1.828-0.904-2.717-2.397-2.717-4.554c0-1.008,0.083-1.555,0.548-2.614
				C10.911,4.117,11.09,4,11.289,4h8.684c0.198,0,0.378,0.117,0.458,0.299c0.119,0.272,0.239,0.505,0.349,0.719
				c0.305,0.597,0.569,1.111,0.569,1.896c0,1.521-0.811,3.06-2.348,4.459V13.5C19,13.776,18.776,14,18.5,14z M14,13h4v-1.852
				c0-0.145,0.063-0.281,0.171-0.377c0.993-0.867,2.177-2.241,2.177-3.858c0-0.543-0.183-0.899-0.459-1.439
				C19.813,5.326,19.733,5.17,19.652,5H11.62c-0.288,0.716-0.337,1.134-0.337,1.913c0,1.856,0.768,3.057,2.417,3.777
				c0.182,0.079,0.3,0.26,0.3,0.458V13z"/>
		</g>
		<g>
			<path d="M20.5,5h-10C10.224,5,10,4.776,10,4.5V1.761C10,0.807,10.846,0,11.848,0h7.565C20.348,0,21,0.724,21,1.761V4.5
				C21,4.776,20.776,5,20.5,5z M11,4h9V1.761C20,1.582,19.958,1,19.413,1h-7.565C11.404,1,11,1.362,11,1.761V4z"/>
		</g>
		<g>
			<path d="M22,5H9C8.724,5,8.5,4.776,8.5,4.5S8.724,4,9,4h13c0.276,0,0.5,0.224,0.5,0.5S22.276,5,22,5z"/>
		</g>
		<g>
			<path d="M17.522,7.305c-0.128,0-0.256-0.049-0.354-0.146c-0.195-0.195-0.195-0.512,0-0.707l0.63-0.631
				c0.195-0.195,0.512-0.195,0.707,0s0.195,0.512,0,0.707l-0.63,0.631C17.778,7.256,17.65,7.305,17.522,7.305z"/>
		</g>
		<g>
			<path d="M13.739,7.305c-0.128,0-0.256-0.049-0.354-0.146l-0.63-0.631c-0.195-0.195-0.195-0.512,0-0.707s0.512-0.195,0.707,0
				l0.63,0.631c0.195,0.195,0.195,0.512,0,0.707C13.995,7.256,13.867,7.305,13.739,7.305z"/>
		</g>
		<g>
			<path d="M15.63,28.739c-0.045,0-0.092-0.006-0.137-0.02c-0.21-0.06-0.357-0.249-0.363-0.468
				c-0.036-1.399-0.959-2.019-1.506-2.264c-0.931-0.418-2.15-0.365-2.713,0.11c-0.149,0.126-0.358,0.151-0.534,0.073
				c-0.177-0.082-0.29-0.26-0.29-0.454l0.006-0.666c0.019-1.294,0.036-2.516-0.562-3.484c-0.175-0.282-1.084-0.723-1.871-0.586
				c-0.543,0.096-0.87,0.441-0.997,1.055c-0.054,0.261-0.299,0.436-0.565,0.393c-0.263-0.04-0.448-0.278-0.422-0.543
				c0.126-1.301-0.321-2.057-0.839-2.932c-0.504-0.852-1.075-1.816-1.054-3.33c0.004-0.276,0.232-0.503,0.507-0.493
				c0.276,0.004,0.497,0.23,0.493,0.507c-0.017,1.232,0.436,1.997,0.915,2.807c0.344,0.58,0.695,1.173,0.875,1.925
				c0.259-0.185,0.565-0.311,0.913-0.372c1.164-0.202,2.486,0.383,2.896,1.045c0.718,1.162,0.731,2.517,0.714,3.838
				c0.866-0.29,1.975-0.235,2.937,0.195c0.931,0.416,1.587,1.126,1.897,2.019c1.233-1.223,3.082-2.018,4.798-1.953
				c0.756,0.025,1.418,0.223,1.949,0.571c-0.004-0.198-0.01-0.399-0.015-0.601c-0.082-3.146-0.084-4.942,0.82-5.309
				c0.272-0.11,0.563-0.07,0.867,0.122c0.188-0.261,0.387-0.496,0.58-0.727c0.705-0.836,1.371-1.627,1.551-3.612
				c0.025-0.275,0.262-0.467,0.543-0.453c0.275,0.025,0.478,0.269,0.453,0.543c-0.209,2.299-1.044,3.292-1.782,4.167
				c-0.294,0.35-0.573,0.68-0.805,1.082c-0.08,0.138-0.22,0.229-0.378,0.246c-0.156,0.02-0.314-0.042-0.422-0.159
				c-0.109-0.118-0.189-0.186-0.243-0.224c-0.281,0.57-0.221,2.883-0.184,4.297c0.017,0.655,0.034,1.304,0.034,1.894
				c0,0.228-0.153,0.426-0.373,0.483c-0.222,0.06-0.451-0.04-0.563-0.237c-0.482-0.855-1.39-1.062-2.066-1.084
				c-1.721-0.065-3.72,0.962-4.646,2.373C15.954,28.657,15.796,28.739,15.63,28.739z"/>
		</g>
		<g>
			<path d="M20.5,22h-2c-0.276,0-0.5-0.224-0.5-0.5v-2c0-0.276,0.224-0.5,0.5-0.5h2c0.276,0,0.5,0.224,0.5,0.5v2
				C21,21.776,20.776,22,20.5,22z M19,21h1v-1h-1V21z"/>
		</g>
		<g>
			<path d="M11.848,19.913h-1.261c-0.276,0-0.5-0.224-0.5-0.5v-1.261c0-0.276,0.224-0.5,0.5-0.5h1.261c0.276,0,0.5,0.224,0.5,0.5
				v1.261C12.348,19.689,12.124,19.913,11.848,19.913z M11.087,18.913h0.261v-0.261h-0.261V18.913z"/>
		</g>
		<g>
			<path d="M26.978,16.131c-0.128,0-0.256-0.049-0.354-0.146c-0.195-0.195-0.195-0.512,0-0.707l1.261-1.262
				c0.195-0.195,0.512-0.195,0.707,0s0.195,0.512,0,0.707l-1.261,1.262C27.234,16.082,27.106,16.131,26.978,16.131z"/>
		</g>
		<g>
			<path d="M28.239,17.392c-0.128,0-0.256-0.049-0.354-0.146l-1.261-1.261c-0.195-0.195-0.195-0.512,0-0.707s0.512-0.195,0.707,0
				l1.261,1.261c0.195,0.195,0.195,0.512,0,0.707C28.495,17.343,28.367,17.392,28.239,17.392z"/>
		</g>
		<g>
			<path d="M1.761,17.392c-0.128,0-0.256-0.049-0.354-0.146c-0.195-0.195-0.195-0.512,0-0.707l1.261-1.261
				c0.195-0.195,0.512-0.195,0.707,0s0.195,0.512,0,0.707l-1.261,1.261C2.017,17.343,1.889,17.392,1.761,17.392z"/>
		</g>
		<g>
			<path d="M3.022,16.131c-0.128,0-0.256-0.049-0.354-0.146l-1.261-1.262c-0.195-0.195-0.195-0.512,0-0.707s0.512-0.195,0.707,0
				l1.261,1.262c0.195,0.195,0.195,0.512,0,0.707C3.278,16.082,3.15,16.131,3.022,16.131z"/>
		</g>
	</g>
</g>
<g id="Toilet_Paper">
</g>
<g id="Skull">
</g>
<g id="Skull_Cake">
</g>
<g id="Eyeball">
</g>
<g id="Castle">
</g>
<g id="Witch_x27_s_Hat">
</g>
<g id="Cobweb_1">
</g>
<g id="Cobweb_2">
</g>
<g id="Spider">
</g>
<g id="Full_Moon">
</g>
<g id="Crescent">
</g>
<g id="Crow">
</g>
<g id="Candy_Holder">
</g>
<g id="Bloody_Knife">
</g>
<g id="Bloody_Axe">
</g>
</svg>
