<?xml version="1.0" encoding="iso-8859-1"?>
<!-- Generator: Adobe Illustrator 19.2.1, SVG Export Plug-In . SVG Version: 6.00 Build 0)  -->
<svg version="1.1" xmlns="http://www.w3.org/2000/svg" xmlns:xlink="http://www.w3.org/1999/xlink" x="0px" y="0px"
	 viewBox="0 0 30 30" style="enable-background:new 0 0 30 30;" xml:space="preserve">
<g id="Pompkin">
</g>
<g id="Layer_10">
</g>
<g id="Bat">
</g>
<g id="Ghost">
</g>
<g id="Bone_Hand">
</g>
<g id="Tree_Ghost">
</g>
<g id="Gate">
</g>
<g id="Cemetery_1">
</g>
<g id="Cemetery_2">
</g>
<g id="Devil_x27_s_Fork">
</g>
<g id="Night_Candle">
	<g>
		<g>
			<path d="M20.152,30H7.543C4.383,30,2,27.636,2,24.5C2,24.224,2.224,24,2.5,24h22.696c0.276,0,0.5,0.224,0.5,0.5
				C25.696,27.636,23.313,30,20.152,30z M3.024,25c0.228,2.346,2.058,4,4.52,4h12.609c2.461,0,4.292-1.654,4.52-4H3.024z"/>
		</g>
		<g>
			<path d="M25.196,24.457c-1.667,0-3.022-1.355-3.022-3.022c0-1.666,1.355-3.021,3.022-3.021c1.666,0,3.021,1.355,3.021,3.021
				C28.217,23.101,26.862,24.457,25.196,24.457z M25.196,19.413c-1.115,0-2.022,0.907-2.022,2.021s0.907,2.022,2.022,2.022
				s2.021-0.907,2.021-2.022S26.311,19.413,25.196,19.413z"/>
		</g>
		<g>
			<path d="M13.848,8.565c-1.146,0-2.096-0.508-2.606-1.393c-0.604-1.048-0.5-2.423,0.283-3.771c1.41-2.428,1.888-3.149,1.907-3.179
				c0.14-0.21,0.416-0.281,0.642-0.169c0.226,0.114,0.33,0.379,0.244,0.617v0c0.008,0-0.044,0.81,1.775,2.629
				c0.882,0.882,1.116,2.042,0.643,3.185C16.228,7.709,15.041,8.565,13.848,8.565z M13.646,1.774
				c-0.293,0.484-0.703,1.174-1.257,2.129c-0.59,1.016-0.695,2.051-0.281,2.771c0.331,0.575,0.949,0.892,1.739,0.892
				c0.774,0,1.618-0.63,1.964-1.465c0.183-0.441,0.37-1.299-0.426-2.095C14.455,3.075,13.932,2.339,13.646,1.774z"/>
		</g>
		<g>
			<path d="M19.5,25h-11C8.224,25,8,24.776,8,24.5v-15C8,9.224,8.224,9,8.5,9h11C19.776,9,20,9.224,20,9.5v15
				C20,24.776,19.776,25,19.5,25z M9,24h10V10H9V24z"/>
		</g>
		<g>
			<path d="M14,10c-0.276,0-0.5-0.224-0.5-0.5v-3C13.5,6.224,13.724,6,14,6s0.5,0.224,0.5,0.5v3C14.5,9.776,14.276,10,14,10z"/>
		</g>
		<g>
			<path d="M12.625,15.63c-1.085,0-1.45-1.371-1.771-2.581c-0.104-0.393-0.256-0.964-0.383-1.182
				c-0.102,0.045-0.216,0.166-0.393,0.368c-0.323,0.368-0.766,0.873-1.578,0.873c-0.276,0-0.5-0.224-0.5-0.5s0.224-0.5,0.5-0.5
				c0.342,0,0.528-0.192,0.826-0.532c0.285-0.325,0.64-0.729,1.237-0.729c0.741,0,0.98,0.901,1.257,1.945
				c0.146,0.55,0.489,1.837,0.805,1.837c0.299,0,0.704-1.008,0.946-1.61c0.428-1.068,0.872-2.172,1.804-2.172
				c0.899,0,1.687,0.542,2.262,0.938c0.152,0.104,0.35,0.241,0.465,0.3c0.116-0.098,0.302-0.341,0.409-0.48
				c0.313-0.407,0.583-0.758,0.989-0.758c0.276,0,0.5,0.224,0.5,0.5c0,0.234-0.161,0.431-0.378,0.485
				c-0.079,0.072-0.22,0.256-0.317,0.382c-0.338,0.439-0.687,0.894-1.179,0.894c-0.331,0-0.635-0.209-1.055-0.499
				c-0.493-0.34-1.106-0.762-1.695-0.762c-0.256,0-0.675,1.043-0.876,1.544C14.057,14.493,13.601,15.63,12.625,15.63z
				 M19.501,11.848C19.501,11.848,19.5,11.848,19.501,11.848C19.5,11.848,19.501,11.848,19.501,11.848z"/>
		</g>
	</g>
</g>
<g id="Canlestick">
</g>
<g id="Black_Cat">
</g>
<g id="Witch_Cauldron">
</g>
<g id="Corn_Candy">
</g>
<g id="Layer_29">
</g>
<g id="Bones">
</g>
<g id="Witch_Broom">
</g>
<g id="Owl">
</g>
<g id="Scythe">
</g>
<g id="Grim_Reaper">
</g>
<g id="Coffin">
</g>
<g id="Dracula">
</g>
<g id="Frankenstein">
</g>
<g id="Layer_40">
</g>
<g id="Toilet_Paper">
</g>
<g id="Skull">
</g>
<g id="Skull_Cake">
</g>
<g id="Eyeball">
</g>
<g id="Castle">
</g>
<g id="Witch_x27_s_Hat">
</g>
<g id="Cobweb_1">
</g>
<g id="Cobweb_2">
</g>
<g id="Spider">
</g>
<g id="Full_Moon">
</g>
<g id="Crescent">
</g>
<g id="Crow">
</g>
<g id="Candy_Holder">
</g>
<g id="Bloody_Knife">
</g>
<g id="Bloody_Axe">
</g>
</svg>
