<?xml version="1.0" encoding="iso-8859-1"?>
<!-- Generator: Adobe Illustrator 19.2.1, SVG Export Plug-In . SVG Version: 6.00 Build 0)  -->
<svg version="1.1" xmlns="http://www.w3.org/2000/svg" xmlns:xlink="http://www.w3.org/1999/xlink" x="0px" y="0px"
	 viewBox="0 0 30 30" style="enable-background:new 0 0 30 30;" xml:space="preserve">
<g id="Pompkin">
</g>
<g id="Layer_10">
</g>
<g id="Bat">
</g>
<g id="Ghost">
</g>
<g id="Bone_Hand">
</g>
<g id="Tree_Ghost">
</g>
<g id="Gate">
</g>
<g id="Cemetery_1">
</g>
<g id="Cemetery_2">
</g>
<g id="Devil_x27_s_Fork">
</g>
<g id="Night_Candle">
</g>
<g id="Canlestick">
</g>
<g id="Black_Cat">
</g>
<g id="Witch_Cauldron">
</g>
<g id="Corn_Candy">
</g>
<g id="Layer_29">
</g>
<g id="Bones">
</g>
<g id="Witch_Broom">
</g>
<g id="Owl">
	<g>
		<g>
			<path d="M11.848,6.043c-0.623,0-1.13-0.507-1.13-1.13s0.507-1.13,1.13-1.13c0.624,0,1.131,0.507,1.131,1.13
				S12.472,6.043,11.848,6.043z M11.848,4.783c-0.071,0-0.13,0.059-0.13,0.13c0.001,0.145,0.261,0.144,0.261,0
				C11.979,4.841,11.92,4.783,11.848,4.783z"/>
		</g>
		<g>
			<path d="M9.956,2.891c-0.276,0-0.5-0.224-0.5-0.5V0.5c0-0.185,0.102-0.354,0.264-0.441c0.163-0.087,0.358-0.078,0.514,0.025
				l1.892,1.261c0.229,0.153,0.292,0.463,0.139,0.693c-0.153,0.23-0.465,0.291-0.693,0.139l-1.114-0.743v0.957
				C10.456,2.667,10.232,2.891,9.956,2.891z"/>
		</g>
		<g>
			<path d="M20.044,2.891c-0.276,0-0.5-0.224-0.5-0.5V1.434L18.43,2.177c-0.229,0.151-0.54,0.091-0.693-0.139
				s-0.091-0.54,0.139-0.693l1.892-1.261c0.153-0.103,0.351-0.112,0.514-0.025c0.162,0.087,0.264,0.256,0.264,0.441v1.891
				C20.544,2.667,20.32,2.891,20.044,2.891z"/>
		</g>
		<g>
			<path d="M18.153,2.261c-0.033,0-0.065-0.003-0.099-0.01c-1.998-0.399-4.111-0.399-6.109,0c-0.267,0.053-0.533-0.12-0.588-0.392
				c-0.054-0.271,0.121-0.534,0.393-0.588c2.125-0.425,4.375-0.425,6.5,0c0.271,0.054,0.446,0.317,0.393,0.588
				C18.595,2.096,18.387,2.261,18.153,2.261z"/>
		</g>
		<g>
			<path d="M15,9.826c-0.128,0-0.256-0.049-0.354-0.146l-1.261-1.261c-0.195-0.195-0.195-0.512,0-0.707s0.512-0.195,0.707,0
				L15,8.619l0.907-0.907c0.195-0.195,0.512-0.195,0.707,0s0.195,0.512,0,0.707L15.354,9.68C15.256,9.777,15.128,9.826,15,9.826z"/>
		</g>
		<g>
			<path d="M18.152,6.043c-0.624,0-1.131-0.507-1.131-1.13s0.507-1.13,1.131-1.13c0.623,0,1.13,0.507,1.13,1.13
				S18.775,6.043,18.152,6.043z M18.152,4.783c-0.072,0-0.131,0.059-0.131,0.13c0,0.144,0.261,0.145,0.261,0
				C18.282,4.841,18.224,4.783,18.152,4.783z"/>
		</g>
		<g>
			<path d="M11.218,24.326c-0.093,0-0.187-0.026-0.271-0.08c-0.232-0.149-0.3-0.459-0.149-0.691
				c1.323-2.056,1.217-5.544,1.153-7.629l-0.009-0.282c-0.008-0.276,0.21-0.506,0.485-0.515c0.289-0.001,0.507,0.209,0.515,0.485
				l0.008,0.281c0.067,2.2,0.18,5.883-1.313,8.2C11.543,24.245,11.382,24.326,11.218,24.326z"/>
		</g>
		<g>
			<path d="M18.782,24.326c-0.164,0-0.325-0.081-0.42-0.229c-1.492-2.317-1.38-6-1.313-8.2l0.008-0.281
				c0.008-0.276,0.216-0.485,0.515-0.485c0.275,0.008,0.493,0.238,0.485,0.515l-0.009,0.282c-0.063,2.084-0.17,5.573,1.153,7.629
				c0.15,0.232,0.083,0.542-0.149,0.691C18.969,24.3,18.875,24.326,18.782,24.326z"/>
		</g>
		<g>
			<path d="M15,26.217c-4.447,0-8.065-4.749-8.065-10.587c0-3.253,1.117-6.279,3.064-8.301c0.193-0.2,0.51-0.204,0.707-0.014
				c0.199,0.192,0.205,0.508,0.014,0.707C8.949,9.86,7.935,12.633,7.935,15.63c0,5.286,3.17,9.587,7.065,9.587
				s7.065-4.301,7.065-9.587c0-2.997-1.015-5.77-2.785-7.608c-0.191-0.199-0.186-0.515,0.014-0.707
				c0.198-0.19,0.515-0.186,0.707,0.014c1.947,2.022,3.064,5.048,3.064,8.301C23.065,21.468,19.447,26.217,15,26.217z"/>
		</g>
		<g>
			<path d="M11.848,8.565c-2.014,0-3.652-1.639-3.652-3.652s1.639-3.652,3.652-3.652S15.5,2.899,15.5,4.913
				S13.861,8.565,11.848,8.565z M11.848,2.261c-1.463,0-2.652,1.19-2.652,2.652s1.189,2.652,2.652,2.652S14.5,6.375,14.5,4.913
				S13.311,2.261,11.848,2.261z"/>
		</g>
		<g>
			<path d="M18.152,8.565c-2.014,0-3.652-1.639-3.652-3.652s1.639-3.652,3.652-3.652s3.652,1.639,3.652,3.652
				S20.166,8.565,18.152,8.565z M18.152,2.261c-1.463,0-2.652,1.19-2.652,2.652s1.189,2.652,2.652,2.652s2.652-1.19,2.652-2.652
				S19.615,2.261,18.152,2.261z"/>
		</g>
		<g>
			<path d="M20.044,30H9.956c-0.168,0-0.325-0.084-0.417-0.225c-0.093-0.141-0.108-0.318-0.043-0.472l1.892-4.413
				c0.11-0.255,0.405-0.374,0.657-0.263c0.254,0.109,0.371,0.403,0.263,0.656L10.715,29h8.57l-1.593-3.716
				c-0.108-0.253,0.009-0.547,0.263-0.656c0.253-0.11,0.547,0.007,0.657,0.263l1.892,4.413c0.065,0.154,0.05,0.332-0.043,0.472
				C20.369,29.916,20.212,30,20.044,30z"/>
		</g>
	</g>
</g>
<g id="Scythe">
</g>
<g id="Grim_Reaper">
</g>
<g id="Coffin">
</g>
<g id="Dracula">
</g>
<g id="Frankenstein">
</g>
<g id="Layer_40">
</g>
<g id="Toilet_Paper">
</g>
<g id="Skull">
</g>
<g id="Skull_Cake">
</g>
<g id="Eyeball">
</g>
<g id="Castle">
</g>
<g id="Witch_x27_s_Hat">
</g>
<g id="Cobweb_1">
</g>
<g id="Cobweb_2">
</g>
<g id="Spider">
</g>
<g id="Full_Moon">
</g>
<g id="Crescent">
</g>
<g id="Crow">
</g>
<g id="Candy_Holder">
</g>
<g id="Bloody_Knife">
</g>
<g id="Bloody_Axe">
</g>
</svg>
