<?xml version="1.0" encoding="iso-8859-1"?>
<!-- Generator: Adobe Illustrator 19.2.1, SVG Export Plug-In . SVG Version: 6.00 Build 0)  -->
<svg version="1.1" xmlns="http://www.w3.org/2000/svg" xmlns:xlink="http://www.w3.org/1999/xlink" x="0px" y="0px"
	 viewBox="0 0 30 30" style="enable-background:new 0 0 30 30;" xml:space="preserve">
<g id="Pompkin">
</g>
<g id="Layer_10">
</g>
<g id="Bat">
</g>
<g id="Ghost">
</g>
<g id="Bone_Hand">
</g>
<g id="Tree_Ghost">
</g>
<g id="Gate">
</g>
<g id="Cemetery_1">
</g>
<g id="Cemetery_2">
</g>
<g id="Devil_x27_s_Fork">
</g>
<g id="Night_Candle">
</g>
<g id="Canlestick">
</g>
<g id="Black_Cat">
</g>
<g id="Witch_Cauldron">
</g>
<g id="Corn_Candy">
</g>
<g id="Layer_29">
</g>
<g id="Bones">
</g>
<g id="Witch_Broom">
</g>
<g id="Owl">
</g>
<g id="Scythe">
	<g>
		<g id="XMLID_1470_">
			<g id="XMLID_1478_">
				<path d="M27.608,30c-0.792,0-1.531-0.392-1.978-1.048L10.397,3.565c-0.02-0.032-0.035-0.066-0.047-0.1
					c-0.175-0.342-0.264-0.703-0.264-1.074C10.087,1.073,11.16,0,12.479,0c0.688,0,1.338,0.3,1.796,0.825
					c0.037,0.033,0.07,0.071,0.097,0.115c0.131,0.169,0.238,0.35,0.315,0.537l14.896,24.784c0.004,0.006,0.007,0.012,0.011,0.018
					C29.859,26.676,30,27.134,30,27.609C30,28.927,28.927,30,27.608,30z M11.297,3.12l0.036,0.061l15.131,25.218
					C26.718,28.772,27.147,29,27.608,29C28.376,29,29,28.376,29,27.609c0-0.286-0.089-0.563-0.257-0.8
					c-0.018-0.025-0.032-0.051-0.045-0.077L13.796,1.925c-0.075-0.168-0.139-0.271-0.226-0.383
					c-0.001-0.002-0.003-0.004-0.005-0.007c-0.005-0.006-0.011-0.012-0.016-0.018C13.281,1.189,12.891,1,12.479,1
					c-0.768,0-1.392,0.624-1.392,1.391c0,0.228,0.061,0.453,0.181,0.668C11.279,3.079,11.288,3.1,11.297,3.12z"/>
			</g>
			<g id="XMLID_1473_">
				<path d="M14.162,9.368c-0.166,0-0.328-0.083-0.423-0.233c-0.147-0.234-0.077-0.542,0.156-0.689l3.184-2.005
					c0.233-0.146,0.543-0.078,0.689,0.156c0.147,0.234,0.077,0.542-0.156,0.689l-3.184,2.005
					C14.346,9.343,14.254,9.368,14.162,9.368z"/>
			</g>
			<g id="XMLID_1472_">
				<path d="M0.5,17.391c-0.064,0-0.13-0.012-0.191-0.038C0.122,17.276,0,17.093,0,16.891c0-5.137,2.96-9.065,10.559-14.007
					C10.788,2.732,11.1,2.798,11.25,3.03c0.15,0.231,0.085,0.541-0.146,0.691C3.61,8.597,1.45,12.004,1.067,15.568
					c0.107-0.117,0.218-0.237,0.33-0.359c2.358-2.569,5.922-6.45,12.053-7.832c0.272-0.061,0.538,0.109,0.598,0.378
					c0.062,0.27-0.108,0.537-0.377,0.598C7.844,9.666,4.544,13.26,2.135,15.885c-0.46,0.501-0.884,0.962-1.281,1.359
					C0.758,17.34,0.63,17.391,0.5,17.391z"/>
			</g>
		</g>
		<g>
			<path d="M14.5,30h-10C4.224,30,4,29.776,4,29.5v-9.457C4,16.935,6.387,14.5,9.435,14.5c3.073,0,5.565,2.487,5.565,5.543V29.5
				C15,29.776,14.776,30,14.5,30z M5,29h9v-8.957c0-2.505-2.043-4.543-4.555-4.543C6.948,15.5,5,17.496,5,20.043V29z"/>
		</g>
		<g>
			<path d="M12,21H7c-0.276,0-0.5-0.224-0.5-0.5S6.724,20,7,20h5c0.276,0,0.5,0.224,0.5,0.5S12.276,21,12,21z"/>
		</g>
		<g>
			<path d="M11,24H8c-0.276,0-0.5-0.224-0.5-0.5S7.724,23,8,23h3c0.276,0,0.5,0.224,0.5,0.5S11.276,24,11,24z"/>
		</g>
		<g>
			<path d="M16,30H3c-0.276,0-0.5-0.224-0.5-0.5S2.724,29,3,29h13c0.276,0,0.5,0.224,0.5,0.5S16.276,30,16,30z"/>
		</g>
	</g>
</g>
<g id="Grim_Reaper">
</g>
<g id="Coffin">
</g>
<g id="Dracula">
</g>
<g id="Frankenstein">
</g>
<g id="Layer_40">
</g>
<g id="Toilet_Paper">
</g>
<g id="Skull">
</g>
<g id="Skull_Cake">
</g>
<g id="Eyeball">
</g>
<g id="Castle">
</g>
<g id="Witch_x27_s_Hat">
</g>
<g id="Cobweb_1">
</g>
<g id="Cobweb_2">
</g>
<g id="Spider">
</g>
<g id="Full_Moon">
</g>
<g id="Crescent">
</g>
<g id="Crow">
</g>
<g id="Candy_Holder">
</g>
<g id="Bloody_Knife">
</g>
<g id="Bloody_Axe">
</g>
</svg>
