<?xml version="1.0" encoding="iso-8859-1"?>
<!-- Generator: Adobe Illustrator 19.2.1, SVG Export Plug-In . SVG Version: 6.00 Build 0)  -->
<svg version="1.1" xmlns="http://www.w3.org/2000/svg" xmlns:xlink="http://www.w3.org/1999/xlink" x="0px" y="0px"
	 viewBox="0 0 30 30" style="enable-background:new 0 0 30 30;" xml:space="preserve">
<g id="Pompkin">
</g>
<g id="Layer_10">
</g>
<g id="Bat">
</g>
<g id="Ghost">
</g>
<g id="Bone_Hand">
</g>
<g id="Tree_Ghost">
</g>
<g id="Gate">
</g>
<g id="Cemetery_1">
</g>
<g id="Cemetery_2">
</g>
<g id="Devil_x27_s_Fork">
</g>
<g id="Night_Candle">
</g>
<g id="Canlestick">
</g>
<g id="Black_Cat">
</g>
<g id="Witch_Cauldron">
</g>
<g id="Corn_Candy">
</g>
<g id="Layer_29">
</g>
<g id="Bones">
</g>
<g id="Witch_Broom">
</g>
<g id="Owl">
</g>
<g id="Scythe">
</g>
<g id="Grim_Reaper">
</g>
<g id="Coffin">
</g>
<g id="Dracula">
</g>
<g id="Frankenstein">
</g>
<g id="Layer_40">
</g>
<g id="Toilet_Paper">
</g>
<g id="Skull">
</g>
<g id="Skull_Cake">
	<g>
		<g>
			<path d="M19.979,30h-9.957C8.355,30,7,28.645,7,26.979v-7.957C7,17.355,8.355,16,10.021,16h9.957C21.645,16,23,17.355,23,19.021
				v7.957C23,28.645,21.645,30,19.979,30z M10.021,17C8.907,17,8,17.907,8,19.021v7.957C8,28.093,8.907,29,10.021,29h9.957
				C21.093,29,22,28.093,22,26.979v-7.957C22,17.907,21.093,17,19.979,17H10.021z"/>
		</g>
		<g>
			<path d="M18.5,15h-7c-0.276,0-0.5-0.224-0.5-0.5v-2.398c-1.791-1.137-2.698-2.917-2.698-5.297C8.302,2.989,11.213,0,14.93,0
				c3.713,0,6.733,3.053,6.733,6.805c0,2.427-0.872,4.162-2.663,5.297V14.5C19,14.776,18.776,15,18.5,15z M12,14h6v-2.181
				c0-0.179,0.096-0.344,0.251-0.434c1.646-0.947,2.412-2.403,2.412-4.581C20.663,3.604,18.091,1,14.93,1
				c-3.156,0-5.628,2.55-5.628,5.805c0,2.135,0.801,3.633,2.447,4.581C11.904,11.476,12,11.641,12,11.819V14z"/>
		</g>
		<g>
			<path d="M16.5,15c-0.276,0-0.5-0.224-0.5-0.5v-1c0-0.276,0.224-0.5,0.5-0.5s0.5,0.224,0.5,0.5v1C17,14.776,16.776,15,16.5,15z"/>
		</g>
		<g>
			<path d="M13.5,15c-0.276,0-0.5-0.224-0.5-0.5v-1c0-0.276,0.224-0.5,0.5-0.5s0.5,0.224,0.5,0.5v1C14,14.776,13.776,15,13.5,15z"/>
		</g>
		<g>
			<path d="M17.511,9.872c-0.568,0-1.063-0.209-1.391-0.589c-0.297-0.343-0.423-0.791-0.354-1.262l0,0
				c0.106-0.731,1.377-1.694,2.266-1.717c0.618,0,1.086,0.378,1.22,1.054c0.117,0.592-0.099,1.35-0.537,1.884
				C18.38,9.648,17.953,9.872,17.511,9.872z M16.754,8.177c-0.023,0.177,0.02,0.333,0.122,0.452
				c0.134,0.154,0.365,0.243,0.635,0.243c0.185,0,0.349-0.166,0.43-0.265c0.271-0.331,0.381-0.796,0.33-1.055
				c-0.048-0.239-0.121-0.244-0.18-0.248C17.628,7.307,16.849,7.914,16.754,8.177z M16.752,8.183L16.752,8.183L16.752,8.183
				L16.752,8.183z M16.261,8.094h0.01H16.261z"/>
		</g>
		<g>
			<path d="M12.479,9.872c-0.447,0-0.879-0.227-1.216-0.637c-0.438-0.534-0.653-1.289-0.536-1.878
				c0.135-0.676,0.616-1.044,1.228-1.053c0.894,0.022,2.173,0.985,2.28,1.717l0,0c0.068,0.468-0.057,0.915-0.353,1.258
				C13.551,9.661,13.053,9.872,12.479,9.872z M11.923,7.304c-0.011,0-0.021,0.001-0.031,0.001c-0.061,0.004-0.137,0.009-0.185,0.248
				c-0.051,0.256,0.058,0.718,0.329,1.048c0.083,0.102,0.251,0.271,0.442,0.271c0.275,0,0.511-0.09,0.646-0.247
				c0.104-0.12,0.145-0.271,0.121-0.447C13.151,7.92,12.386,7.304,11.923,7.304z"/>
		</g>
		<g>
			<path d="M25,30H5c-0.276,0-0.5-0.224-0.5-0.5S4.724,29,5,29h20c0.276,0,0.5,0.224,0.5,0.5S25.276,30,25,30z"/>
		</g>
		<g>
			<path d="M20.669,21.174c-0.724,0-1.085-0.479-1.348-0.83c-0.24-0.319-0.343-0.431-0.548-0.431c-0.206,0-0.308,0.111-0.548,0.431
				c-0.263,0.351-0.623,0.83-1.346,0.83s-1.082-0.48-1.345-0.831c-0.238-0.318-0.34-0.43-0.544-0.43s-0.307,0.111-0.545,0.431
				c-0.263,0.351-0.623,0.83-1.346,0.83s-1.083-0.48-1.346-0.831c-0.238-0.318-0.34-0.43-0.544-0.43
				c-0.203,0-0.305,0.111-0.543,0.43c-0.263,0.351-0.622,0.831-1.344,0.831s-1.082-0.479-1.345-0.83
				c-0.238-0.319-0.341-0.431-0.545-0.431c-0.276,0-0.5-0.224-0.5-0.5s0.224-0.5,0.5-0.5c0.723,0,1.083,0.48,1.346,0.831
				c0.238,0.318,0.34,0.43,0.544,0.43c0.203,0,0.305-0.111,0.543-0.43c0.263-0.351,0.622-0.831,1.344-0.831s1.082,0.479,1.345,0.83
				c0.238,0.319,0.341,0.431,0.545,0.431s0.307-0.111,0.545-0.431c0.263-0.351,0.623-0.83,1.346-0.83s1.082,0.48,1.345,0.831
				c0.238,0.318,0.34,0.43,0.544,0.43c0.205,0,0.307-0.111,0.547-0.431c0.263-0.351,0.623-0.83,1.347-0.83s1.084,0.479,1.347,0.83
				c0.24,0.319,0.343,0.431,0.549,0.431s0.309-0.111,0.549-0.431c0.264-0.351,0.624-0.83,1.348-0.83c0.276,0,0.5,0.224,0.5,0.5
				s-0.224,0.5-0.5,0.5c-0.206,0-0.309,0.111-0.549,0.431C21.753,20.694,21.393,21.174,20.669,21.174z"/>
		</g>
	</g>
</g>
<g id="Eyeball">
</g>
<g id="Castle">
</g>
<g id="Witch_x27_s_Hat">
</g>
<g id="Cobweb_1">
</g>
<g id="Cobweb_2">
</g>
<g id="Spider">
</g>
<g id="Full_Moon">
</g>
<g id="Crescent">
</g>
<g id="Crow">
</g>
<g id="Candy_Holder">
</g>
<g id="Bloody_Knife">
</g>
<g id="Bloody_Axe">
</g>
</svg>
