<?xml version="1.0" encoding="iso-8859-1"?>
<!-- Generator: Adobe Illustrator 19.2.1, SVG Export Plug-In . SVG Version: 6.00 Build 0)  -->
<svg version="1.1" xmlns="http://www.w3.org/2000/svg" xmlns:xlink="http://www.w3.org/1999/xlink" x="0px" y="0px"
	 viewBox="0 0 30 30" style="enable-background:new 0 0 30 30;" xml:space="preserve">
<g id="Pompkin">
</g>
<g id="Layer_10">
</g>
<g id="Bat">
</g>
<g id="Ghost">
</g>
<g id="Bone_Hand">
</g>
<g id="Tree_Ghost">
</g>
<g id="Gate">
</g>
<g id="Cemetery_1">
</g>
<g id="Cemetery_2">
</g>
<g id="Devil_x27_s_Fork">
</g>
<g id="Night_Candle">
</g>
<g id="Canlestick">
</g>
<g id="Black_Cat">
</g>
<g id="Witch_Cauldron">
</g>
<g id="Corn_Candy">
</g>
<g id="Layer_29">
</g>
<g id="Bones">
</g>
<g id="Witch_Broom">
</g>
<g id="Owl">
</g>
<g id="Scythe">
</g>
<g id="Grim_Reaper">
</g>
<g id="Coffin">
</g>
<g id="Dracula">
</g>
<g id="Frankenstein">
</g>
<g id="Layer_40">
</g>
<g id="Toilet_Paper">
</g>
<g id="Skull">
	<g>
		<g>
			<path d="M14.836,24.958c-1.354,0-3.47-0.214-4.612-1.419c-0.071-0.075-0.117-0.171-0.132-0.273
				c-0.19-1.336-1.626-2.727-2.944-3.408c-1.766-0.913-1.646-2.612-1.54-4.111v-0.011C4.84,14.201,2.747,8.753,4.405,5.326
				C6.097,1.829,10.986,0,14.942,0h0.115c3.956,0,8.846,1.829,10.537,5.326c1.658,3.427-0.435,8.875-1.202,10.409v0.011
				c0.106,1.499,0.226,3.198-1.54,4.111c-1.318,0.682-2.754,2.072-2.944,3.408c-0.011,0.076-0.039,0.147-0.082,0.211
				c-0.594,0.873-2.456,1.317-4,1.442C15.604,24.938,15.257,24.958,14.836,24.958z M11.053,22.952
				c0.992,0.912,3.056,1.104,4.692,0.971c1.657-0.135,2.842-0.568,3.196-0.938c0.318-1.696,1.993-3.262,3.452-4.017
				c1.124-0.581,1.113-1.577,1.002-3.152l-0.011-0.151c-0.006-0.093,0.014-0.186,0.058-0.269c0.612-1.158,2.763-6.513,1.252-9.635
				C23.198,2.669,18.612,1,15.058,1h-0.115c-3.555,0-8.141,1.669-9.637,4.762c-1.511,3.122,0.64,8.477,1.252,9.635
				c0.044,0.083,0.063,0.176,0.058,0.269l-0.011,0.151c-0.111,1.575-0.122,2.571,1.002,3.152
				C9.056,19.719,10.719,21.269,11.053,22.952z"/>
		</g>
		<g>
			<path d="M15,30c-5.759,0-6.174-2.095-6.174-5.544c0-0.231,0.159-0.433,0.385-0.486c0.224-0.059,0.458,0.055,0.563,0.262
				c1.011,2.015,3.467,2.247,5.227,2.247s4.216-0.232,5.227-2.247c0.104-0.207,0.339-0.319,0.563-0.262
				c0.226,0.054,0.385,0.255,0.385,0.486C21.174,27.139,20.696,30,15,30z M9.862,25.987C10.015,27.943,10.813,29,15,29
				c3.873,0,4.847-1.412,5.092-2.971c-1.434,1.272-3.511,1.449-5.092,1.449C13.401,27.479,11.297,27.298,9.862,25.987z"/>
		</g>
		<g>
			<path d="M19.413,17.392c-0.994,0-1.884-0.37-2.439-1.015c-0.487-0.566-0.692-1.306-0.576-2.081l0,0
				c0.165-1.109,2.42-2.927,4.077-2.97c1.01,0.008,1.729,0.588,1.95,1.684c0.202,1.001-0.188,2.352-0.95,3.282
				C20.895,17.001,20.162,17.392,19.413,17.392z M20.544,12.325c-0.015,0-0.029,0-0.044,0.001c-1.248,0.031-3.03,1.555-3.114,2.116
				v0.001c-0.073,0.49,0.047,0.934,0.346,1.281c0.365,0.424,0.979,0.667,1.682,0.667c0.599,0,1.063-0.459,1.287-0.732
				c0.576-0.704,0.889-1.735,0.744-2.452C21.29,12.44,20.89,12.325,20.544,12.325z M16.892,14.369h0.01H16.892z"/>
		</g>
		<g>
			<path d="M10.587,17.392c-0.749,0-1.481-0.391-2.062-1.1c-0.762-0.931-1.152-2.281-0.95-3.282
				c0.217-1.073,0.903-1.685,1.888-1.685c0.021,0,0.041,0.001,0.063,0.001c1.657,0.043,3.912,1.86,4.077,2.97
				c0.116,0.775-0.089,1.515-0.576,2.081C12.471,17.021,11.581,17.392,10.587,17.392z M9.456,12.325c-0.346,0-0.746,0.115-0.9,0.882
				c-0.145,0.717,0.168,1.748,0.744,2.452c0.224,0.273,0.688,0.732,1.287,0.732c0.703,0,1.316-0.243,1.682-0.667
				c0.299-0.348,0.419-0.791,0.346-1.281v-0.001c-0.084-0.562-1.866-2.085-3.114-2.116C9.485,12.325,9.471,12.325,9.456,12.325z"/>
		</g>
		<g>
			<path d="M16.261,22.435c-0.654,0-1.13-0.74-1.13-1.761v-1.892c0-0.2,0.119-0.381,0.303-0.459c0.184-0.08,0.396-0.042,0.541,0.096
				c0.333,0.315,1.417,1.409,1.417,2.255C17.392,21.694,16.916,22.435,16.261,22.435z M16.34,21.455h0.01H16.34z M16.131,20.123
				v0.551c0,0.313,0.068,0.537,0.13,0.664c0.063-0.127,0.131-0.352,0.131-0.664C16.392,20.555,16.289,20.354,16.131,20.123z"/>
		</g>
		<g>
			<path d="M13.739,22.435c-0.655,0-1.131-0.74-1.131-1.761c0-0.846,1.084-1.939,1.417-2.255c0.145-0.138,0.357-0.175,0.541-0.096
				c0.184,0.078,0.303,0.259,0.303,0.459v1.892C14.869,21.694,14.394,22.435,13.739,22.435z M13.869,20.124
				c-0.158,0.23-0.261,0.432-0.261,0.55c0,0.313,0.068,0.537,0.131,0.664c0.062-0.127,0.13-0.352,0.13-0.664V20.124z"/>
		</g>
		<g>
			<path d="M13.108,7.305c-0.062,0-0.125-0.012-0.186-0.036L9.771,6.008c-0.232-0.093-0.36-0.343-0.3-0.585l0.51-2.037L7.944,2.877
				C7.677,2.81,7.514,2.538,7.58,2.271C7.646,2.002,7.914,1.84,8.187,1.906l2.521,0.63c0.129,0.032,0.239,0.114,0.308,0.229
				c0.068,0.113,0.089,0.249,0.057,0.378l-0.525,2.1l2.747,1.099c0.257,0.103,0.381,0.394,0.278,0.649
				C13.494,7.186,13.307,7.305,13.108,7.305z"/>
		</g>
	</g>
</g>
<g id="Skull_Cake">
</g>
<g id="Eyeball">
</g>
<g id="Castle">
</g>
<g id="Witch_x27_s_Hat">
</g>
<g id="Cobweb_1">
</g>
<g id="Cobweb_2">
</g>
<g id="Spider">
</g>
<g id="Full_Moon">
</g>
<g id="Crescent">
</g>
<g id="Crow">
</g>
<g id="Candy_Holder">
</g>
<g id="Bloody_Knife">
</g>
<g id="Bloody_Axe">
</g>
</svg>
