<?xml version="1.0" encoding="iso-8859-1"?>
<!-- Generator: Adobe Illustrator 19.2.1, SVG Export Plug-In . SVG Version: 6.00 Build 0)  -->
<svg version="1.1" xmlns="http://www.w3.org/2000/svg" xmlns:xlink="http://www.w3.org/1999/xlink" x="0px" y="0px"
	 viewBox="0 0 30 30" style="enable-background:new 0 0 30 30;" xml:space="preserve">
<g id="Pompkin">
</g>
<g id="Layer_10">
</g>
<g id="Bat">
</g>
<g id="Ghost">
</g>
<g id="Bone_Hand">
</g>
<g id="Tree_Ghost">
</g>
<g id="Gate">
</g>
<g id="Cemetery_1">
</g>
<g id="Cemetery_2">
</g>
<g id="Devil_x27_s_Fork">
</g>
<g id="Night_Candle">
</g>
<g id="Canlestick">
</g>
<g id="Black_Cat">
</g>
<g id="Witch_Cauldron">
</g>
<g id="Corn_Candy">
</g>
<g id="Layer_29">
</g>
<g id="Bones">
</g>
<g id="Witch_Broom">
</g>
<g id="Owl">
</g>
<g id="Scythe">
</g>
<g id="Grim_Reaper">
</g>
<g id="Coffin">
</g>
<g id="Dracula">
</g>
<g id="Frankenstein">
</g>
<g id="Layer_40">
</g>
<g id="Toilet_Paper">
</g>
<g id="Skull">
</g>
<g id="Skull_Cake">
</g>
<g id="Eyeball">
</g>
<g id="Castle">
</g>
<g id="Witch_x27_s_Hat">
</g>
<g id="Cobweb_1">
</g>
<g id="Cobweb_2">
</g>
<g id="Spider">
	<g>
		<g>
			<path d="M13.446,15.083c-0.066,0-0.133-0.013-0.195-0.039c-0.125-0.053-0.222-0.153-0.271-0.279l-0.665-1.705
				c-0.273-0.684-0.187-1.466,0.234-2.087C12.962,10.363,13.64,10,14.362,10c0.738,0,1.416,0.363,1.828,0.973
				c0.421,0.621,0.507,1.403,0.232,2.091l-0.663,1.701c-0.049,0.126-0.146,0.227-0.271,0.278c-0.123,0.053-0.264,0.055-0.389,0.001
				c-0.568-0.238-0.894-0.238-1.459,0C13.578,15.07,13.512,15.083,13.446,15.083z M14.37,13.869c0.206,0,0.413,0.027,0.632,0.085
				l0.49-1.258c0.153-0.384,0.104-0.816-0.13-1.163c-0.467-0.691-1.533-0.666-1.983,0c-0.234,0.346-0.284,0.779-0.132,1.159
				l0.492,1.262C13.957,13.896,14.164,13.869,14.37,13.869z"/>
		</g>
		<g>
			<path d="M14.37,23.695c-2.361,0-4.283-1.921-4.283-4.282c0-2.232,1.798-5.544,4.283-5.544s4.283,3.312,4.283,5.544
				C18.652,21.774,16.731,23.695,14.37,23.695z M14.37,14.869c-1.691,0-3.283,2.56-3.283,4.544c0,1.81,1.473,3.282,3.283,3.282
				s3.283-1.473,3.283-3.282C17.652,17.429,16.061,14.869,14.37,14.869z"/>
		</g>
		<g>
			<path d="M13.109,11.087c-0.154,0-0.306-0.071-0.404-0.205c-0.359-0.49-0.811-1.65,0.044-2.534
				c0.192-0.199,0.508-0.204,0.707-0.012c0.198,0.192,0.204,0.509,0.012,0.707c-0.489,0.506,0.039,1.241,0.044,1.249
				c0.163,0.223,0.115,0.535-0.108,0.698C13.315,11.056,13.212,11.087,13.109,11.087z"/>
		</g>
		<g>
			<path d="M15.28,11.087c-0.103,0-0.206-0.031-0.295-0.097c-0.222-0.162-0.271-0.474-0.11-0.696
				c0.056-0.078,0.519-0.762,0.046-1.251c-0.192-0.198-0.187-0.515,0.012-0.707c0.199-0.191,0.516-0.188,0.707,0.012
				c0.855,0.884,0.403,2.044,0.044,2.534C15.586,11.016,15.434,11.087,15.28,11.087z"/>
		</g>
		<g>
			<path d="M16.195,12.598c-0.11,0-0.222-0.036-0.314-0.111c-0.215-0.174-0.248-0.488-0.074-0.703L21,5.367V0.5
				C21,0.224,21.224,0,21.5,0S22,0.224,22,0.5v5.044c0,0.114-0.039,0.226-0.111,0.314l-5.304,6.554
				C16.486,12.534,16.341,12.598,16.195,12.598z"/>
		</g>
		<g>
			<path d="M16.261,13.608c-0.189,0-0.37-0.107-0.455-0.29c-0.116-0.251-0.006-0.548,0.245-0.664l8.115-3.745l3.72-3.719
				c0.195-0.195,0.512-0.195,0.707,0s0.195,0.512,0,0.707L24.81,9.68c-0.042,0.042-0.09,0.076-0.144,0.101l-8.196,3.782
				C16.402,13.594,16.331,13.608,16.261,13.608z"/>
		</g>
		<g>
			<path d="M28.239,17.392c-0.128,0-0.256-0.049-0.354-0.146l-3.606-3.606l-8.579,1.226c-0.279,0.031-0.527-0.15-0.566-0.425
				c-0.039-0.273,0.151-0.526,0.424-0.565l8.826-1.261c0.157-0.02,0.313,0.03,0.424,0.142l3.783,3.783
				c0.195,0.195,0.195,0.512,0,0.707C28.495,17.343,28.367,17.392,28.239,17.392z"/>
		</g>
		<g>
			<path d="M24.456,30c-0.233,0-0.442-0.164-0.49-0.402l-1.235-6.178l-6.852-8.097c-0.178-0.211-0.152-0.526,0.059-0.705
				c0.21-0.178,0.526-0.15,0.705,0.059l6.935,8.195c0.055,0.064,0.092,0.143,0.108,0.226l1.261,6.305
				c0.054,0.271-0.122,0.534-0.392,0.588C24.521,29.997,24.488,30,24.456,30z"/>
		</g>
		<g>
			<path d="M12.543,12.598c-0.135,0-0.269-0.054-0.368-0.161L6.132,5.883C6.047,5.791,6,5.67,6,5.544V0.5C6,0.224,6.224,0,6.5,0
				S7,0.224,7,0.5v4.849l5.911,6.41c0.187,0.203,0.174,0.52-0.029,0.706C12.786,12.554,12.665,12.598,12.543,12.598z"/>
		</g>
		<g>
			<path d="M12.478,13.608c-0.07,0-0.141-0.015-0.209-0.046L4.073,9.78C4.02,9.756,3.971,9.722,3.929,9.68L0.146,5.897
				c-0.195-0.195-0.195-0.512,0-0.707s0.512-0.195,0.707,0l3.72,3.719l8.114,3.745c0.251,0.116,0.36,0.413,0.245,0.664
				C12.848,13.501,12.667,13.608,12.478,13.608z"/>
		</g>
		<g>
			<path d="M0.5,17.392c-0.128,0-0.256-0.049-0.354-0.146c-0.195-0.195-0.195-0.512,0-0.707l3.783-3.783
				c0.111-0.111,0.267-0.16,0.424-0.142l8.826,1.261c0.273,0.039,0.463,0.292,0.424,0.565c-0.039,0.274-0.292,0.46-0.566,0.425
				l-8.579-1.226l-3.606,3.606C0.756,17.343,0.628,17.392,0.5,17.392z"/>
		</g>
		<g>
			<path d="M4.283,30c-0.032,0-0.065-0.003-0.099-0.01c-0.271-0.054-0.446-0.317-0.392-0.588l1.261-6.305
				c0.017-0.083,0.054-0.161,0.108-0.226l6.935-8.195c0.178-0.209,0.494-0.236,0.705-0.059c0.211,0.179,0.237,0.494,0.059,0.705
				L6.008,23.42l-1.235,6.178C4.726,29.836,4.517,30,4.283,30z"/>
		</g>
		<g>
			<path d="M14.5,21.5c-0.276,0-0.5-0.224-0.5-0.5v-4c0-0.276,0.224-0.5,0.5-0.5S15,16.724,15,17v4C15,21.276,14.776,21.5,14.5,21.5
				z"/>
		</g>
		<g>
			<path d="M16,19h-3c-0.276,0-0.5-0.224-0.5-0.5S12.724,18,13,18h3c0.276,0,0.5,0.224,0.5,0.5S16.276,19,16,19z"/>
		</g>
	</g>
</g>
<g id="Full_Moon">
</g>
<g id="Crescent">
</g>
<g id="Crow">
</g>
<g id="Candy_Holder">
</g>
<g id="Bloody_Knife">
</g>
<g id="Bloody_Axe">
</g>
</svg>
