<?xml version="1.0" encoding="iso-8859-1"?>
<!-- Generator: Adobe Illustrator 19.2.1, SVG Export Plug-In . SVG Version: 6.00 Build 0)  -->
<svg version="1.1" xmlns="http://www.w3.org/2000/svg" xmlns:xlink="http://www.w3.org/1999/xlink" x="0px" y="0px"
	 viewBox="0 0 30 30" style="enable-background:new 0 0 30 30;" xml:space="preserve">
<g id="Pompkin">
</g>
<g id="Layer_10">
</g>
<g id="Bat">
</g>
<g id="Ghost">
</g>
<g id="Bone_Hand">
</g>
<g id="Tree_Ghost">
</g>
<g id="Gate">
</g>
<g id="Cemetery_1">
</g>
<g id="Cemetery_2">
</g>
<g id="Devil_x27_s_Fork">
</g>
<g id="Night_Candle">
</g>
<g id="Canlestick">
</g>
<g id="Black_Cat">
</g>
<g id="Witch_Cauldron">
</g>
<g id="Corn_Candy">
</g>
<g id="Layer_29">
</g>
<g id="Bones">
</g>
<g id="Witch_Broom">
</g>
<g id="Owl">
</g>
<g id="Scythe">
</g>
<g id="Grim_Reaper">
</g>
<g id="Coffin">
</g>
<g id="Dracula">
</g>
<g id="Frankenstein">
</g>
<g id="Layer_40">
</g>
<g id="Toilet_Paper">
	<g>
		<g>
			<path d="M24.456,16.761c-1.21,0-1.761-2.22-1.761-4.282s0.551-4.283,1.761-4.283s1.762,2.221,1.762,4.283
				S25.666,16.761,24.456,16.761z M24.438,9.193c-0.187,0.082-0.743,1.182-0.743,3.285s0.557,3.202,0.778,3.284
				c0.187-0.082,0.744-1.18,0.744-3.284C25.218,10.373,24.66,9.275,24.438,9.193z"/>
		</g>
		<g>
			<path d="M24.456,24.956c-3.108,0-5.543-5.48-5.543-12.478S21.348,0,24.456,0S30,5.481,30,12.479S27.564,24.956,24.456,24.956z
				 M24.456,1c-2.194,0-4.543,4.612-4.543,11.479c0,6.865,2.349,11.478,4.543,11.478S29,19.344,29,12.479C29,5.612,26.65,1,24.456,1
				z"/>
		</g>
		<g>
			<path d="M24.5,25h-5c-0.276,0-0.5-0.224-0.5-0.5s0.224-0.5,0.5-0.5h5c0.276,0,0.5,0.224,0.5,0.5S24.776,25,24.5,25z"/>
		</g>
		<g>
			<path d="M19.5,30c-0.211,0-0.404-0.134-0.474-0.34l-2.135-6.294l-2.06,5.062c-0.069,0.172-0.229,0.29-0.413,0.309
				c-0.186,0.021-0.364-0.066-0.466-0.22l-2.105-3.159l-2.105,3.159c-0.107,0.161-0.294,0.245-0.49,0.217
				c-0.191-0.028-0.349-0.165-0.404-0.351l-1.369-4.562l-1.449,5.8C5.975,29.841,5.778,29.996,5.553,30
				c-0.225-0.008-0.427-0.145-0.489-0.362l-2.121-7.42l-1.979,4.946c-0.088,0.223-0.318,0.348-0.559,0.306
				C0.17,27.424,0,27.218,0,26.979v-14.5C0,5.481,2.436,0,5.544,0H24c0.276,0,0.5,0.224,0.5,0.5S24.276,1,24,1H5.544
				C3.35,1,1,5.612,1,12.479v11.903l1.558-3.894c0.079-0.198,0.277-0.338,0.489-0.313c0.214,0.011,0.396,0.156,0.455,0.361
				l2.01,7.031l1.438-5.754c0.055-0.219,0.249-0.373,0.474-0.379c0.233,0.007,0.426,0.142,0.49,0.356L9.5,27.077l1.932-2.898
				c0.186-0.277,0.646-0.277,0.832,0l1.998,2.998l2.21-5.431c0.078-0.193,0.263-0.311,0.478-0.312
				c0.209,0.007,0.392,0.142,0.459,0.34L19,26.469V12c0-0.276,0.224-0.5,0.5-0.5S20,11.724,20,12v17.5
				c0,0.245-0.177,0.453-0.419,0.493C19.554,29.998,19.526,30,19.5,30z"/>
		</g>
	</g>
</g>
<g id="Skull">
</g>
<g id="Skull_Cake">
</g>
<g id="Eyeball">
</g>
<g id="Castle">
</g>
<g id="Witch_x27_s_Hat">
</g>
<g id="Cobweb_1">
</g>
<g id="Cobweb_2">
</g>
<g id="Spider">
</g>
<g id="Full_Moon">
</g>
<g id="Crescent">
</g>
<g id="Crow">
</g>
<g id="Candy_Holder">
</g>
<g id="Bloody_Knife">
</g>
<g id="Bloody_Axe">
</g>
</svg>
