<?xml version="1.0" encoding="iso-8859-1"?>
<!-- Generator: Adobe Illustrator 19.2.1, SVG Export Plug-In . SVG Version: 6.00 Build 0)  -->
<svg version="1.1" xmlns="http://www.w3.org/2000/svg" xmlns:xlink="http://www.w3.org/1999/xlink" x="0px" y="0px"
	 viewBox="0 0 30 30" style="enable-background:new 0 0 30 30;" xml:space="preserve">
<g id="Pompkin">
</g>
<g id="Layer_10">
</g>
<g id="Bat">
</g>
<g id="Ghost">
</g>
<g id="Bone_Hand">
</g>
<g id="Tree_Ghost">
	<g>
		<g>
			<path d="M24.624,30c-0.046,0-0.093-0.006-0.139-0.02c-6.21-1.799-7.561-0.469-7.77-0.185c-0.129,0.176-0.359,0.249-0.563,0.178
				c-0.03-0.01-2.972-0.999-4.402-1.254c-0.574-0.105-1.197,0.095-2.059,0.372c-1.021,0.329-2.294,0.737-4.182,0.907
				c-0.229,0.02-0.42-0.104-0.505-0.302c-0.085-0.199-0.031-0.431,0.132-0.573l0.241-0.209c1.187-1.035,2.795-2.438,4.679-3.537
				c0.199-2.375,0.069-12.245-0.01-18.232C10.021,5.09,10,3.484,10,2.776V1.5c0-0.21,0.131-0.397,0.328-0.47
				c0.198-0.072,0.419-0.013,0.554,0.147l0.695,0.824l0.685-0.822c0.189-0.229,0.578-0.229,0.768,0l0.683,0.818l0.68-0.818
				c0.092-0.109,0.225-0.175,0.367-0.18c0.145-0.005,0.28,0.051,0.379,0.154l0.968,1.011l2.167-1.107
				c0.154-0.08,0.34-0.074,0.488,0.019C18.909,1.168,19,1.33,19,1.504v1.272c0,3.112,0.634,19.464,1.108,22.836
				c0.235,1.67,0.67,1.778,1.72,2.038c0.781,0.193,1.851,0.458,3.107,1.458c0.187,0.148,0.242,0.409,0.133,0.621
				C24.98,29.899,24.808,30,24.624,30z M11.422,27.69c0.169,0,0.337,0.014,0.508,0.046c1.232,0.22,3.421,0.921,4.232,1.188
				c0.563-0.52,1.711-1.022,4.078-0.82c-0.562-0.383-0.937-1.036-1.122-2.351C18.64,22.35,18,5.903,18,2.776V2.321l-1.771,0.905
				c-0.198,0.099-0.436,0.06-0.589-0.1L14.803,2.25L14.097,3.1c-0.096,0.114-0.236,0.18-0.385,0.18l0,0
				c-0.148,0-0.289-0.066-0.384-0.18l-0.683-0.819L11.963,3.1c-0.095,0.114-0.234,0.18-0.383,0.18h-0.001
				c-0.147,0-0.287-0.065-0.382-0.178L11,2.869c0.002,0.748,0.022,2.299,0.048,4.262c0.082,6.247,0.22,16.704-0.023,18.614
				c-0.021,0.157-0.113,0.295-0.25,0.373c-1.391,0.784-2.647,1.767-3.693,2.648c0.931-0.184,1.669-0.421,2.306-0.626
				C10.149,27.895,10.785,27.69,11.422,27.69z M10.528,25.682h0.01H10.528z"/>
		</g>
		<g>
			<path d="M4.184,13.457c-0.128,0-0.256-0.049-0.354-0.146c-0.194-0.194-0.195-0.509-0.003-0.705
				c0.206-0.256,0.399-2.077-1.32-4.445c-0.162-0.224-0.113-0.536,0.11-0.699C2.84,7.3,3.152,7.349,3.315,7.573
				c1.886,2.596,1.919,5.041,1.222,5.738C4.439,13.408,4.312,13.457,4.184,13.457z"/>
		</g>
		<g>
			<path d="M10.641,16.62c-0.015,0-0.029,0-0.045-0.002c-2.3-0.201-6.355-2.333-9.339-5.887c-0.178-0.211-0.15-0.527,0.062-0.704
				c0.211-0.178,0.526-0.151,0.704,0.062c2.709,3.226,6.531,5.347,8.661,5.533c0.274,0.024,0.479,0.267,0.454,0.542
				C11.115,16.424,10.896,16.62,10.641,16.62z"/>
		</g>
		<g>
			<path d="M18.88,14.71c-0.222,0-0.424-0.147-0.483-0.372c-0.07-0.267,0.088-0.541,0.354-0.612
				c4.723-1.256,8.726-4.974,9.112-8.462c0.03-0.275,0.28-0.476,0.552-0.442c0.274,0.031,0.473,0.278,0.442,0.552
				c-0.437,3.934-4.671,7.94-9.849,9.318C18.966,14.705,18.922,14.71,18.88,14.71z"/>
		</g>
		<g>
			<path d="M13.728,20.456c-0.076,0-0.152-0.018-0.224-0.053l-1.272-0.636c-0.247-0.124-0.347-0.424-0.224-0.671l0.636-1.273
				c0.09-0.181,0.284-0.292,0.482-0.275c0.202,0.014,0.375,0.148,0.439,0.34l0.637,1.909c0.063,0.192,0.006,0.403-0.147,0.536
				C13.962,20.415,13.846,20.456,13.728,20.456z"/>
		</g>
		<g>
			<path d="M16.272,20.456c-0.118,0-0.234-0.042-0.327-0.122c-0.153-0.133-0.211-0.344-0.147-0.536l0.637-1.909
				c0.064-0.192,0.237-0.326,0.439-0.34c0.198-0.018,0.393,0.094,0.482,0.275l0.636,1.273c0.123,0.247,0.023,0.547-0.224,0.671
				l-1.272,0.636C16.425,20.438,16.349,20.456,16.272,20.456z"/>
		</g>
		<g>
			<path d="M26.452,9.639c-0.239,0-0.451-0.173-0.492-0.418l-0.637-3.817c-0.046-0.272,0.139-0.53,0.411-0.575
				c0.265-0.047,0.529,0.139,0.575,0.411l0.637,3.817c0.046,0.272-0.139,0.53-0.411,0.575C26.508,9.637,26.479,9.639,26.452,9.639z"
				/>
		</g>
	</g>
</g>
<g id="Gate">
</g>
<g id="Cemetery_1">
</g>
<g id="Cemetery_2">
</g>
<g id="Devil_x27_s_Fork">
</g>
<g id="Night_Candle">
</g>
<g id="Canlestick">
</g>
<g id="Black_Cat">
</g>
<g id="Witch_Cauldron">
</g>
<g id="Corn_Candy">
</g>
<g id="Layer_29">
</g>
<g id="Bones">
</g>
<g id="Witch_Broom">
</g>
<g id="Owl">
</g>
<g id="Scythe">
</g>
<g id="Grim_Reaper">
</g>
<g id="Coffin">
</g>
<g id="Dracula">
</g>
<g id="Frankenstein">
</g>
<g id="Layer_40">
</g>
<g id="Toilet_Paper">
</g>
<g id="Skull">
</g>
<g id="Skull_Cake">
</g>
<g id="Eyeball">
</g>
<g id="Castle">
</g>
<g id="Witch_x27_s_Hat">
</g>
<g id="Cobweb_1">
</g>
<g id="Cobweb_2">
</g>
<g id="Spider">
</g>
<g id="Full_Moon">
</g>
<g id="Crescent">
</g>
<g id="Crow">
</g>
<g id="Candy_Holder">
</g>
<g id="Bloody_Knife">
</g>
<g id="Bloody_Axe">
</g>
</svg>
