<?xml version="1.0" encoding="iso-8859-1"?>
<!-- Generator: Adobe Illustrator 19.2.1, SVG Export Plug-In . SVG Version: 6.00 Build 0)  -->
<svg version="1.1" xmlns="http://www.w3.org/2000/svg" xmlns:xlink="http://www.w3.org/1999/xlink" x="0px" y="0px"
	 viewBox="0 0 30 30" style="enable-background:new 0 0 30 30;" xml:space="preserve">
<g id="Pompkin">
</g>
<g id="Layer_10">
</g>
<g id="Bat">
</g>
<g id="Ghost">
</g>
<g id="Bone_Hand">
</g>
<g id="Tree_Ghost">
</g>
<g id="Gate">
</g>
<g id="Cemetery_1">
</g>
<g id="Cemetery_2">
</g>
<g id="Devil_x27_s_Fork">
</g>
<g id="Night_Candle">
</g>
<g id="Canlestick">
</g>
<g id="Black_Cat">
</g>
<g id="Witch_Cauldron">
</g>
<g id="Corn_Candy">
</g>
<g id="Layer_29">
</g>
<g id="Bones">
</g>
<g id="Witch_Broom">
</g>
<g id="Owl">
</g>
<g id="Scythe">
</g>
<g id="Grim_Reaper">
</g>
<g id="Coffin">
</g>
<g id="Dracula">
</g>
<g id="Frankenstein">
</g>
<g id="Layer_40">
</g>
<g id="Toilet_Paper">
</g>
<g id="Skull">
</g>
<g id="Skull_Cake">
</g>
<g id="Eyeball">
</g>
<g id="Castle">
</g>
<g id="Witch_x27_s_Hat">
	<g>
		<g>
			<path d="M13.745,19.909c-3.069,0-6.176-0.822-6.176-2.393c0-0.276,0.224-0.5,0.5-0.5s0.5,0.224,0.5,0.5
				c0,0.491,1.965,1.393,5.176,1.393c2.546,0,4.36-0.564,4.969-1.089c0.208-0.18,0.524-0.158,0.705,0.053
				c0.18,0.209,0.157,0.524-0.053,0.705C18.428,19.387,16.221,19.909,13.745,19.909z"/>
		</g>
		<g>
			<path d="M13.745,17.41c-2.395,0-5.165-0.524-5.954-1.697c-0.154-0.229-0.093-0.54,0.136-0.694
				c0.229-0.153,0.54-0.094,0.694,0.136c0.415,0.617,2.445,1.256,5.124,1.256c1.821,0,3.501-0.294,4.494-0.787
				c0.247-0.123,0.547-0.021,0.67,0.226c0.123,0.248,0.022,0.548-0.226,0.671C17.559,17.077,15.713,17.41,13.745,17.41z"/>
		</g>
		<g>
			<path d="M11.853,19.278c-0.276,0-0.5-0.224-0.5-0.5v-1.893c0-0.276,0.224-0.5,0.5-0.5s0.5,0.224,0.5,0.5v1.893
				C12.353,19.055,12.129,19.278,11.853,19.278z"/>
		</g>
		<g>
			<path d="M15.637,19.278c-0.276,0-0.5-0.224-0.5-0.5v-1.893c0-0.276,0.224-0.5,0.5-0.5s0.5,0.224,0.5,0.5v1.893
				C16.137,19.055,15.913,19.278,15.637,19.278z"/>
		</g>
		<g>
			<path d="M14.375,30C7.406,30,0,28.498,0,25.716c0-2.477,5.586-3.525,7.987-3.861c0.142-0.018,0.286,0.022,0.395,0.115
				c0.109,0.094,0.172,0.229,0.174,0.373l0.01,0.711c0.478,0.332,2.757,0.9,5.809,0.9c2.952,0,5.182-0.532,5.757-0.867l-0.181-0.633
				c-0.047-0.162-0.008-0.337,0.102-0.465c0.11-0.129,0.277-0.191,0.445-0.17c2.481,0.329,8.253,1.368,8.253,3.896
				C28.75,28.498,21.344,30,14.375,30z M7.565,22.928C3.252,23.604,1,24.822,1,25.716C1,27.087,6.088,29,14.375,29
				c8.287,0,13.375-1.913,13.375-3.284c0-0.905-2.272-2.123-6.626-2.796l0.039,0.138c0.013,0.044,0.019,0.09,0.019,0.136
				c0,1.33-4.586,1.761-6.807,1.761c-2.221,0-6.807-0.431-6.807-1.761L7.565,22.928z M8.568,23.179v0.01
				C8.568,23.186,8.568,23.182,8.568,23.179z"/>
		</g>
		<g>
			<path d="M14.375,24.954c-2.221,0-6.807-0.431-6.807-1.761l-0.007-0.528C7.493,17.997,7.284,3.79,13.521,0.672
				c3.61-1.806,8.05,0.317,10.097,3.319c0.129,0.189,0.113,0.442-0.039,0.613c-0.153,0.171-0.402,0.217-0.605,0.111
				c-2.348-1.224-3.961-1.554-4.797-0.979c-0.777,0.533-1.04,1.968-0.782,4.265c0.366,3.265,2.29,9.925,3.323,13.503l0.446,1.554
				c0.012,0.044,0.019,0.09,0.019,0.136C21.182,24.523,16.596,24.954,14.375,24.954z M8.566,23.054c0.478,0.332,2.757,0.9,5.809,0.9
				c2.952,0,5.182-0.531,5.756-0.867l-0.375-1.306c-1.042-3.606-2.979-10.319-3.356-13.669c-0.306-2.73,0.09-4.432,1.211-5.201
				c0.837-0.572,1.993-0.604,3.56-0.076c-1.885-1.519-4.653-2.546-7.204-1.269c-3.766,1.883-5.585,8.976-5.407,21.084L8.566,23.054z
				 M8.568,23.179v0.009C8.568,23.185,8.568,23.182,8.568,23.179z"/>
		</g>
	</g>
</g>
<g id="Cobweb_1">
</g>
<g id="Cobweb_2">
</g>
<g id="Spider">
</g>
<g id="Full_Moon">
</g>
<g id="Crescent">
</g>
<g id="Crow">
</g>
<g id="Candy_Holder">
</g>
<g id="Bloody_Knife">
</g>
<g id="Bloody_Axe">
</g>
</svg>
