<?xml version="1.0" encoding="iso-8859-1"?>
<!-- Generator: Adobe Illustrator 19.2.1, SVG Export Plug-In . SVG Version: 6.00 Build 0)  -->
<svg version="1.1" xmlns="http://www.w3.org/2000/svg" xmlns:xlink="http://www.w3.org/1999/xlink" x="0px" y="0px"
	 viewBox="0 0 30 30" style="enable-background:new 0 0 30 30;" xml:space="preserve">
<g id="Pompkin">
</g>
<g id="Layer_10">
</g>
<g id="Bat">
</g>
<g id="Ghost">
</g>
<g id="Bone_Hand">
</g>
<g id="Tree_Ghost">
</g>
<g id="Gate">
</g>
<g id="Cemetery_1">
</g>
<g id="Cemetery_2">
</g>
<g id="Devil_x27_s_Fork">
</g>
<g id="Night_Candle">
</g>
<g id="Canlestick">
</g>
<g id="Black_Cat">
</g>
<g id="Witch_Cauldron">
</g>
<g id="Corn_Candy">
</g>
<g id="Layer_29">
</g>
<g id="Bones">
</g>
<g id="Witch_Broom">
	<g>
		<g>
			<path d="M25.277,30c-0.005,0-0.011,0-0.017,0c-2.989-0.097-6.154-2.636-7.965-5.108c-1.474-2.012-3.13-5.749-3.238-8.275
				c-0.011-0.269,0.192-0.499,0.46-0.52c0.137-0.011,0.331-0.055,0.481-0.205l0.892-0.892c0.15-0.151,0.195-0.344,0.206-0.479
				c0.021-0.268,0.206-0.477,0.52-0.461c2.527,0.107,6.264,1.764,8.275,3.237h0.001c2.472,1.811,5.01,4.976,5.107,7.965
				c0.002,0.06-0.007,0.121-0.026,0.178c-0.066,0.193-0.213,0.34-0.4,0.402c-0.422,0.142-0.869-0.168-1.491-0.595
				c-0.142-0.098-0.347-0.239-0.535-0.354c0.131,0.286,0.32,0.638,0.467,0.908c0.643,1.192,1.197,2.222,0.631,2.823
				c-0.553,0.587-1.313,0.019-2.051-0.535c-0.855-0.643-1.597-1.147-1.982-0.781c-0.214,0.201-0.226,0.357-0.216,0.457
				c0.049,0.485,0.792,1.093,1.145,1.311c0.192,0.119,0.281,0.353,0.216,0.57C25.691,29.856,25.497,30,25.277,30z M15.089,16.988
				c0.248,2.266,1.703,5.522,3.014,7.313c1.341,1.831,3.46,3.701,5.619,4.408c-0.166-0.255-0.29-0.54-0.32-0.843
				c-0.034-0.331,0.03-0.822,0.524-1.287c1.031-0.972,2.378,0.041,3.269,0.71c0.204,0.153,0.48,0.361,0.682,0.481
				c-0.126-0.351-0.516-1.073-0.743-1.496c-0.596-1.107-0.99-1.838-0.57-2.331c0.517-0.602,1.349-0.027,2.086,0.479
				c0.085,0.058,0.184,0.126,0.282,0.191c-0.413-2.452-2.546-4.985-4.63-6.511h0.001c-1.79-1.311-5.047-2.765-7.313-3.013
				c-0.084,0.233-0.216,0.441-0.391,0.616l-0.892,0.892C15.532,16.772,15.323,16.904,15.089,16.988z"/>
		</g>
		<g>
			<path d="M14.461,17.113c-0.451,0-0.902-0.172-1.245-0.515c-0.687-0.686-0.687-1.803,0-2.49l0.892-0.892
				c0.686-0.687,1.805-0.687,2.49,0c0.687,0.687,0.687,1.804,0,2.49l-0.892,0.892C15.363,16.941,14.912,17.113,14.461,17.113z
				 M15.353,13.7c-0.194,0-0.39,0.074-0.538,0.223l-0.892,0.892c-0.297,0.297-0.297,0.78,0,1.076c0.297,0.297,0.779,0.297,1.076,0
				l0.892-0.892c0.297-0.296,0.297-0.779,0-1.076C15.742,13.774,15.548,13.7,15.353,13.7z"/>
		</g>
		<g>
			<path d="M13.125,15.406c-0.178,0-0.349-0.094-0.44-0.26c-0.009-0.016-0.914-1.633-3.415-3.397
				c-1.047-0.738-2.025-1.254-2.89-1.708C5.079,9.355,3.956,8.764,3.239,7.717c-0.03-0.044-3.045-4.464-3.235-5.89
				c-0.031-0.238,0.11-0.464,0.338-0.54l3.782-1.261c0.137-0.046,0.285-0.03,0.407,0.041c0.124,0.071,0.212,0.192,0.24,0.332
				C4.907,1.051,6.68,4.61,7.803,5.836c0.713,0.776,1.47,1.377,2.271,2.014c0.526,0.418,1.07,0.851,1.604,1.339
				c1.342,1.227,3.127,3.993,3.203,4.11c0.149,0.232,0.082,0.542-0.15,0.691c-0.233,0.148-0.542,0.083-0.691-0.15
				c-0.018-0.027-1.79-2.773-3.037-3.913c-0.508-0.465-1.038-0.886-1.551-1.293C8.655,8,7.832,7.347,7.066,6.512
				c-1.032-1.126-2.567-4.032-3.099-5.38L1.108,2.085c0.398,1.049,1.742,3.293,2.957,5.067c0.576,0.842,1.549,1.354,2.78,2.003
				c0.891,0.469,1.9,1,3,1.776c2.711,1.913,3.678,3.664,3.718,3.737c0.132,0.242,0.041,0.544-0.2,0.676
				C13.287,15.386,13.205,15.406,13.125,15.406z"/>
		</g>
	</g>
</g>
<g id="Owl">
</g>
<g id="Scythe">
</g>
<g id="Grim_Reaper">
</g>
<g id="Coffin">
</g>
<g id="Dracula">
</g>
<g id="Frankenstein">
</g>
<g id="Layer_40">
</g>
<g id="Toilet_Paper">
</g>
<g id="Skull">
</g>
<g id="Skull_Cake">
</g>
<g id="Eyeball">
</g>
<g id="Castle">
</g>
<g id="Witch_x27_s_Hat">
</g>
<g id="Cobweb_1">
</g>
<g id="Cobweb_2">
</g>
<g id="Spider">
</g>
<g id="Full_Moon">
</g>
<g id="Crescent">
</g>
<g id="Crow">
</g>
<g id="Candy_Holder">
</g>
<g id="Bloody_Knife">
</g>
<g id="Bloody_Axe">
</g>
</svg>
