<?xml version="1.0" encoding="iso-8859-1"?>
<!-- Generator: Adobe Illustrator 19.2.1, SVG Export Plug-In . SVG Version: 6.00 Build 0)  -->
<svg version="1.1" xmlns="http://www.w3.org/2000/svg" xmlns:xlink="http://www.w3.org/1999/xlink" x="0px" y="0px"
	 viewBox="0 0 30 30" style="enable-background:new 0 0 30 30;" xml:space="preserve">
<g id="Pompkin">
</g>
<g id="Layer_10">
</g>
<g id="Bat">
</g>
<g id="Ghost">
</g>
<g id="Bone_Hand">
</g>
<g id="Tree_Ghost">
</g>
<g id="Gate">
</g>
<g id="Cemetery_1">
</g>
<g id="Cemetery_2">
</g>
<g id="Devil_x27_s_Fork">
</g>
<g id="Night_Candle">
</g>
<g id="Canlestick">
</g>
<g id="Black_Cat">
</g>
<g id="Witch_Cauldron">
	<g>
		<g>
			<path d="M22.57,30h-2.53c-0.19,0-0.363-0.107-0.448-0.277l-0.833-1.675c-2.419,0.92-5.099,0.92-7.518,0l-0.833,1.675
				C10.323,29.893,10.15,30,9.96,30H7.43c-0.971,0-1.76-0.79-1.76-1.76c0-0.971,0.79-1.76,1.76-1.76H8.2v-0.223
				c-2.412-2.021-3.79-4.962-3.79-8.107c0-2.193,0.675-4.299,1.953-6.09c0.161-0.225,0.473-0.275,0.698-0.117
				c0.225,0.161,0.277,0.473,0.117,0.698c-1.156,1.62-1.767,3.525-1.767,5.509c0,2.92,1.313,5.646,3.603,7.48
				C9.131,25.725,9.2,25.868,9.2,26.02v0.96c0,0.276-0.224,0.5-0.5,0.5H7.43c-0.419,0-0.76,0.341-0.76,0.76
				c0,0.419,0.341,0.76,0.76,0.76h2.22l0.902-1.813c0.119-0.237,0.403-0.34,0.646-0.236c2.432,1.047,5.173,1.047,7.604,0
				c0.243-0.104,0.527-0.001,0.646,0.236L20.35,29h2.22c0.419,0,0.76-0.341,0.76-0.76c0-0.419-0.341-0.76-0.76-0.76H21.3
				c-0.276,0-0.5-0.224-0.5-0.5v-0.96c0-0.152,0.069-0.295,0.188-0.39c2.29-1.834,3.603-4.56,3.603-7.48
				c0-1.984-0.611-3.889-1.767-5.509c-0.16-0.225-0.108-0.537,0.117-0.698c0.226-0.159,0.537-0.108,0.698,0.117
				c1.277,1.791,1.953,3.897,1.953,6.09c0,3.145-1.378,6.085-3.79,8.107v0.223h0.77c0.971,0,1.76,0.79,1.76,1.76
				C24.33,29.21,23.541,30,22.57,30z"/>
		</g>
		<g>
			<path d="M22.625,13H7.375C6.341,13,5.5,12.159,5.5,11.125v-0.249C5.5,9.841,6.341,9,7.375,9h15.249
				c1.034,0,1.875,0.841,1.875,1.875v0.249C24.5,12.159,23.659,13,22.625,13z M7.375,10C6.893,10,6.5,10.393,6.5,10.875v0.249
				C6.5,11.607,6.893,12,7.375,12h15.249c0.483,0,0.875-0.393,0.875-0.875v-0.249c0-0.483-0.393-0.875-0.875-0.875H7.375z"/>
		</g>
		<g>
			<path d="M8.123,21.807c-0.189,0-0.371-0.108-0.455-0.291c-0.487-1.058-0.733-2.19-0.733-3.364c0-0.276,0.224-0.5,0.5-0.5
				s0.5,0.224,0.5,0.5c0,1.029,0.216,2.02,0.642,2.946c0.116,0.251,0.006,0.548-0.245,0.663C8.263,21.792,8.192,21.807,8.123,21.807
				z"/>
		</g>
		<g>
			<path d="M16.891,7.304c-0.624,0-1.13-0.507-1.13-1.13s0.507-1.13,1.13-1.13s1.131,0.507,1.131,1.13S17.515,7.304,16.891,7.304z
				 M16.891,6.043c-0.072,0-0.13,0.059-0.13,0.13c0,0.144,0.261,0.143,0.261,0C17.022,6.102,16.963,6.043,16.891,6.043z"/>
		</g>
		<g>
			<path d="M12.478,7.304c-0.971,0-1.761-0.79-1.761-1.761s0.79-1.761,1.761-1.761c0.971,0,1.761,0.79,1.761,1.761
				S13.449,7.304,12.478,7.304z M12.478,4.783c-0.419,0-0.761,0.341-0.761,0.761s0.341,0.761,0.761,0.761
				c0.42,0,0.761-0.341,0.761-0.761S12.898,4.783,12.478,4.783z"/>
		</g>
		<g>
			<path d="M16.261,3.522c-0.971,0-1.761-0.79-1.761-1.761C14.5,0.79,15.29,0,16.261,0c0.971,0,1.761,0.79,1.761,1.761
				C18.022,2.732,17.232,3.522,16.261,3.522z M16.261,1C15.841,1,15.5,1.341,15.5,1.761c0,0.42,0.341,0.761,0.761,0.761
				c0.42,0,0.761-0.341,0.761-0.761C17.022,1.341,16.681,1,16.261,1z"/>
		</g>
	</g>
</g>
<g id="Corn_Candy">
</g>
<g id="Layer_29">
</g>
<g id="Bones">
</g>
<g id="Witch_Broom">
</g>
<g id="Owl">
</g>
<g id="Scythe">
</g>
<g id="Grim_Reaper">
</g>
<g id="Coffin">
</g>
<g id="Dracula">
</g>
<g id="Frankenstein">
</g>
<g id="Layer_40">
</g>
<g id="Toilet_Paper">
</g>
<g id="Skull">
</g>
<g id="Skull_Cake">
</g>
<g id="Eyeball">
</g>
<g id="Castle">
</g>
<g id="Witch_x27_s_Hat">
</g>
<g id="Cobweb_1">
</g>
<g id="Cobweb_2">
</g>
<g id="Spider">
</g>
<g id="Full_Moon">
</g>
<g id="Crescent">
</g>
<g id="Crow">
</g>
<g id="Candy_Holder">
</g>
<g id="Bloody_Knife">
</g>
<g id="Bloody_Axe">
</g>
</svg>
