<?xml version="1.0" encoding="iso-8859-1"?>
<!-- Generator: Adobe Illustrator 19.2.1, SVG Export Plug-In . SVG Version: 6.00 Build 0)  -->
<svg version="1.1" xmlns="http://www.w3.org/2000/svg" xmlns:xlink="http://www.w3.org/1999/xlink" x="0px" y="0px"
	 viewBox="0 0 30 30" style="enable-background:new 0 0 30 30;" xml:space="preserve">
<g id="Pompkin">
</g>
<g id="Layer_10">
</g>
<g id="Bat">
	<path d="M29.85,13.547c-0.148-0.112-0.348-0.132-0.516-0.051c-1.688,0.807-3.29,1.49-4.379,1.012
		c-0.612-0.269-1.064-0.904-1.381-1.941c-0.08-0.261-0.351-0.408-0.618-0.334c-0.771,0.223-1.805,0.283-2.388-0.22
		c-0.481-0.415-0.65-1.195-0.5-2.319c0.03-0.221-0.09-0.434-0.293-0.524c-0.204-0.091-0.443-0.035-0.585,0.136
		c-0.452,0.539-1.174,0.747-1.848,0.572L18.302,7H29.5C29.776,7,30,6.776,30,6.5S29.776,6,29.5,6h-29C0.224,6,0,6.224,0,6.5
		S0.224,7,0.5,7h12.136l1.125,2.813c0.001,0.001,0.002,0.002,0.003,0.003c-0.019,0.008-0.032,0.022-0.051,0.029
		c-0.716,0.26-1.527,0.043-2.016-0.539c-0.143-0.17-0.381-0.226-0.585-0.136c-0.204,0.09-0.323,0.303-0.294,0.524
		c0.15,1.119-0.019,1.898-0.502,2.314c-0.592,0.508-1.632,0.449-2.407,0.225c-0.263-0.078-0.537,0.073-0.617,0.333
		c-0.316,1.033-0.77,1.667-1.387,1.938c-1.112,0.488-2.727-0.198-4.422-1.009c-0.168-0.081-0.367-0.061-0.516,0.051
		c-0.149,0.112-0.224,0.297-0.194,0.481c1.017,6.199,4.207,7.856,9.758,10.25c0.212,0.09,0.459,0.027,0.598-0.158
		c0.139-0.185,0.133-0.439-0.013-0.618c-0.789-0.962-1.024-1.871-0.68-2.629c0.377-0.829,1.334-1.332,2.195-1.456
		c0.087,0.119,0.191,0.219,0.281,0.304c0.031,0.03,0.063,0.058,0.089,0.085v1.545c0,0.2,0.12,0.381,0.304,0.46
		c0.185,0.079,0.397,0.04,0.542-0.099l1.164-1.115c0.128,0.012,0.26,0.019,0.392,0.021l0.685,1.013
		c0.123,0.183,0.349,0.264,0.561,0.199C16.856,21.765,17,21.57,17,21.351v-1.454c0.057-0.031,0.123-0.066,0.175-0.094
		c0.213-0.112,0.44-0.232,0.606-0.392c0.948,0.121,2.055,0.702,2.451,1.575c0.339,0.745,0.126,1.592-0.632,2.516
		c-0.146,0.179-0.151,0.435-0.013,0.618c0.097,0.129,0.246,0.199,0.399,0.199c0.066,0,0.134-0.014,0.198-0.041
		c5.62-2.425,8.849-4.097,9.857-10.25C30.073,13.844,29.999,13.659,29.85,13.547z M8.458,21.392
		c-0.092,0.073-0.203,0.109-0.312,0.109c-0.147,0-0.292-0.064-0.391-0.188L7.047,20.43c-0.172-0.216-0.137-0.53,0.078-0.703
		c0.216-0.172,0.531-0.137,0.703,0.078l0.707,0.884C8.708,20.904,8.673,21.219,8.458,21.392z M16.471,9.329
		c-0.328-0.382-0.525-0.903-0.525-1.553c0-0.276-0.224-0.5-0.5-0.5s-0.5,0.224-0.5,0.5c0,0.549-0.136,1.011-0.374,1.373L13.713,7
		h3.534L16.471,9.329z M23.871,20.43l-0.706,0.883c-0.099,0.123-0.244,0.188-0.391,0.188c-0.109,0-0.22-0.036-0.313-0.109
		c-0.216-0.173-0.25-0.487-0.078-0.703l0.706-0.883c0.173-0.214,0.487-0.248,0.703-0.078C24.009,19.899,24.043,20.214,23.871,20.43z
		"/>
</g>
<g id="Ghost">
</g>
<g id="Bone_Hand">
</g>
<g id="Tree_Ghost">
</g>
<g id="Gate">
</g>
<g id="Cemetery_1">
</g>
<g id="Cemetery_2">
</g>
<g id="Devil_x27_s_Fork">
</g>
<g id="Night_Candle">
</g>
<g id="Canlestick">
</g>
<g id="Black_Cat">
</g>
<g id="Witch_Cauldron">
</g>
<g id="Corn_Candy">
</g>
<g id="Layer_29">
</g>
<g id="Bones">
</g>
<g id="Witch_Broom">
</g>
<g id="Owl">
</g>
<g id="Scythe">
</g>
<g id="Grim_Reaper">
</g>
<g id="Coffin">
</g>
<g id="Dracula">
</g>
<g id="Frankenstein">
</g>
<g id="Layer_40">
</g>
<g id="Toilet_Paper">
</g>
<g id="Skull">
</g>
<g id="Skull_Cake">
</g>
<g id="Eyeball">
</g>
<g id="Castle">
</g>
<g id="Witch_x27_s_Hat">
</g>
<g id="Cobweb_1">
</g>
<g id="Cobweb_2">
</g>
<g id="Spider">
</g>
<g id="Full_Moon">
</g>
<g id="Crescent">
</g>
<g id="Crow">
</g>
<g id="Candy_Holder">
</g>
<g id="Bloody_Knife">
</g>
<g id="Bloody_Axe">
</g>
</svg>
