<?xml version="1.0" encoding="iso-8859-1"?>
<!-- Generator: Adobe Illustrator 19.2.1, SVG Export Plug-In . SVG Version: 6.00 Build 0)  -->
<svg version="1.1" xmlns="http://www.w3.org/2000/svg" xmlns:xlink="http://www.w3.org/1999/xlink" x="0px" y="0px"
	 viewBox="0 0 30 30" style="enable-background:new 0 0 30 30;" xml:space="preserve">
<g id="Pompkin">
</g>
<g id="Layer_10">
</g>
<g id="Bat">
</g>
<g id="Ghost">
</g>
<g id="Bone_Hand">
</g>
<g id="Tree_Ghost">
</g>
<g id="Gate">
</g>
<g id="Cemetery_1">
</g>
<g id="Cemetery_2">
</g>
<g id="Devil_x27_s_Fork">
</g>
<g id="Night_Candle">
</g>
<g id="Canlestick">
</g>
<g id="Black_Cat">
	<path d="M25.43,14.34c-2.188-1.921-4.256-3.736-4.256-6.905c0-3.63,2.995-3.913,3.913-3.913C27.464,3.522,29,4.811,29,6.804
		c0,1.81-1.473,3.283-3.282,3.283c-0.276,0-0.5,0.224-0.5,0.5s0.224,0.5,0.5,0.5c2.361,0,4.282-1.921,4.282-4.283
		c0-2.131-1.52-4.282-4.913-4.282c-2.375,0-4.913,1.291-4.913,4.913c0,3.622,2.337,5.673,4.596,7.657
		c2.176,1.91,4.23,3.714,4.23,6.843c0,3.567-1.471,6.134-3.935,6.865c-1.771,0.52-3.616-0.052-4.543-1.389
		c0.303-0.477,0.529-1.005,0.643-1.599c0.791-4.142-0.751-8.775-3.929-11.804c-1.013-0.965-2.206-1.709-3.361-2.428
		c-1.205-0.75-2.352-1.465-2.956-2.27c0.924-0.882,1.428-1.981,1.428-3.136c0-0.162-0.011-0.321-0.031-0.479
		c0.016-0.048,0.031-0.098,0.031-0.151V0.5c0-0.189-0.107-0.362-0.276-0.447C11.903-0.03,11.699-0.013,11.548,0.1L9.172,1.882
		c-0.889-0.395-1.91-0.622-2.998-0.622c-1.088,0-2.109,0.227-2.997,0.621L0.8,0.1C0.648-0.014,0.445-0.031,0.276,0.053
		C0.107,0.138,0,0.311,0,0.5v5.043c0,0.054,0.015,0.103,0.031,0.151C0.011,5.852,0,6.012,0,6.174c0,1.612,0.978,3.098,2.63,4.018
		c0.076,0.586,0.141,1.2,0.208,1.826c0.204,1.913,0.415,3.891,0.968,5.653c0.89,2.839,0.848,9.548,0.154,10.187
		c-0.135,0.114-0.289,0.208-0.438,0.301c-0.445,0.277-1,0.622-1,1.342c0,0.276,0.224,0.5,0.5,0.5h2.521
		c0.215,0,0.406-0.138,0.474-0.342l2.055-6.164c0.07-0.211,0.227-0.38,0.432-0.465s0.425-0.076,0.623,0.021
		c0.122,0.061,0.25,0.124,0.384,0.189c-0.2,0.194-0.36,0.446-0.472,0.751c-0.401,1.087-0.151,2.661,0.493,3.757
		c-0.745,0.074-1.291,0.307-1.627,0.696c-0.451,0.521-0.342,1.098-0.328,1.161C7.626,29.836,7.83,30,8.065,30h6.304
		c2.442,0,4.328-0.634,5.507-1.786c0.905,1.132,2.341,1.778,3.874,1.778c0.528,0,1.067-0.076,1.599-0.234
		c2.912-0.864,4.65-3.789,4.65-7.823C30,18.353,27.677,16.313,25.43,14.34z M4.746,6.15C4.65,6.255,4.515,6.314,4.375,6.314
		c-0.031,0-0.062-0.003-0.093-0.009c-0.164-0.031-0.465-0.11-0.65-0.295C3.445,5.823,3.37,5.521,3.342,5.357
		C3.313,5.189,3.373,5.017,3.5,4.902c0.127-0.114,0.305-0.157,0.469-0.11C4.085,4.824,4.373,4.917,4.55,5.095
		c0.173,0.172,0.271,0.462,0.306,0.578C4.904,5.84,4.863,6.021,4.746,6.15z M8.614,6.025C8.43,6.211,8.127,6.291,7.963,6.321
		C7.932,6.327,7.901,6.33,7.87,6.33c-0.14,0-0.275-0.059-0.371-0.165c-0.117-0.129-0.158-0.31-0.109-0.477
		C7.425,5.573,7.523,5.284,7.697,5.11C7.874,4.933,8.162,4.84,8.278,4.808C8.443,4.762,8.62,4.804,8.747,4.919
		c0.127,0.115,0.186,0.288,0.157,0.456C8.875,5.538,8.8,5.839,8.614,6.025z"/>
</g>
<g id="Witch_Cauldron">
</g>
<g id="Corn_Candy">
</g>
<g id="Layer_29">
</g>
<g id="Bones">
</g>
<g id="Witch_Broom">
</g>
<g id="Owl">
</g>
<g id="Scythe">
</g>
<g id="Grim_Reaper">
</g>
<g id="Coffin">
</g>
<g id="Dracula">
</g>
<g id="Frankenstein">
</g>
<g id="Layer_40">
</g>
<g id="Toilet_Paper">
</g>
<g id="Skull">
</g>
<g id="Skull_Cake">
</g>
<g id="Eyeball">
</g>
<g id="Castle">
</g>
<g id="Witch_x27_s_Hat">
</g>
<g id="Cobweb_1">
</g>
<g id="Cobweb_2">
</g>
<g id="Spider">
</g>
<g id="Full_Moon">
</g>
<g id="Crescent">
</g>
<g id="Crow">
</g>
<g id="Candy_Holder">
</g>
<g id="Bloody_Knife">
</g>
<g id="Bloody_Axe">
</g>
</svg>
