<?xml version="1.0" encoding="iso-8859-1"?>
<!-- Generator: Adobe Illustrator 19.2.1, SVG Export Plug-In . SVG Version: 6.00 Build 0)  -->
<svg version="1.1" xmlns="http://www.w3.org/2000/svg" xmlns:xlink="http://www.w3.org/1999/xlink" x="0px" y="0px"
	 viewBox="0 0 30 30" style="enable-background:new 0 0 30 30;" xml:space="preserve">
<g id="Pompkin">
</g>
<g id="Layer_10">
</g>
<g id="Bat">
</g>
<g id="Ghost">
</g>
<g id="Bone_Hand">
</g>
<g id="Tree_Ghost">
</g>
<g id="Gate">
</g>
<g id="Cemetery_1">
</g>
<g id="Cemetery_2">
</g>
<g id="Devil_x27_s_Fork">
</g>
<g id="Night_Candle">
</g>
<g id="Canlestick">
</g>
<g id="Black_Cat">
</g>
<g id="Witch_Cauldron">
</g>
<g id="Corn_Candy">
</g>
<g id="Layer_29">
</g>
<g id="Bones">
</g>
<g id="Witch_Broom">
</g>
<g id="Owl">
</g>
<g id="Scythe">
</g>
<g id="Grim_Reaper">
</g>
<g id="Coffin">
</g>
<g id="Dracula">
</g>
<g id="Frankenstein">
</g>
<g id="Layer_40">
</g>
<g id="Toilet_Paper">
</g>
<g id="Skull">
</g>
<g id="Skull_Cake">
</g>
<g id="Eyeball">
</g>
<g id="Castle">
</g>
<g id="Witch_x27_s_Hat">
</g>
<g id="Cobweb_1">
</g>
<g id="Cobweb_2">
</g>
<g id="Spider">
</g>
<g id="Full_Moon">
</g>
<g id="Crescent">
</g>
<g id="Crow">
</g>
<g id="Candy_Holder">
</g>
<g id="Bloody_Knife">
</g>
<g id="Bloody_Axe">
	<path d="M29.97,12.306c-0.047-0.127-0.144-0.23-0.267-0.285L28.71,11.58c0.18-0.389,0.295-0.635,0.301-0.646
		c0.115-0.244,0.016-0.535-0.225-0.658l-5.611-2.874c-0.119-0.061-0.257-0.071-0.386-0.03c-0.127,0.042-0.232,0.134-0.291,0.255
		c0,0-0.186,0.381-0.477,0.975L18.74,7.085c-3.028-1.336-4.589-1.631-6.1-1.917c-1.375-0.26-2.673-0.505-5.053-1.6
		C5.069,2.41,3.77,0.888,3.757,0.872C3.65,0.744,3.49,0.681,3.318,0.697c-0.167,0.019-0.313,0.12-0.389,0.269L0.055,6.576
		c-0.068,0.132-0.073,0.288-0.015,0.425c1.019,2.377,2.735,2.842,4.396,3.291l0.3,0.082c0.729,0.201,2.141,0.25,3.928,0.313
		c2.788,0.099,6.257,0.221,8.028,0.989c0.563,0.245,1.074,0.596,1.721,1.041c0.351,0.241,0.752,0.51,1.192,0.79
		c-0.337,0.68-0.65,1.308-0.9,1.804c-0.893,1.769-4.693,3.054-6.083,3.399c-0.178,0.045-0.317,0.183-0.363,0.36
		c-0.082,0.314,0.148,0.633,0.402,0.901c0.159,1.004,0.651,1.594,1.096,2.121c0.685,0.813,1.332,1.579,0.755,4.146
		c-0.032,0.143-0.13,0.377-0.233,0.634c-0.247,0.616-0.409,1.044-0.409,1.367C13.87,29.21,14.66,30,15.63,30
		c0.971,0,1.761-0.79,1.761-1.761c0-0.259-0.044-0.727-0.168-1.193c-0.124-0.46,0.276-0.976,1.189-1.532
		c0.282-0.173,1.744-0.626,2.268-0.252c0.203,0.146,0.249,0.474,0.137,0.977c-0.032,0.143-0.131,0.377-0.234,0.634
		c-0.247,0.616-0.409,1.044-0.409,1.367c0,0.971,0.79,1.761,1.761,1.761s1.761-0.79,1.76-1.846c-0.02-0.883,0.055-1.621,0.21-2.173
		c1.064,0.236,1.867,0.296,2.334,0.296c0.306,0,0.474-0.021,0.492-0.022c0.154-0.021,0.29-0.111,0.367-0.246
		c0.078-0.135,0.089-0.297,0.029-0.441c-0.02-0.048-1.975-4.827-1.266-7.117c0.096-0.309,0.218-0.662,0.358-1.04l0.674,0.386
		c0.076,0.043,0.161,0.065,0.247,0.065c0.05,0,0.1-0.008,0.148-0.022c0.133-0.041,0.241-0.136,0.302-0.26l2.359-4.884
		C30.009,12.574,30.016,12.433,29.97,12.306z M25.941,25.271c-0.371-0.017-0.892-0.067-1.547-0.199
		c0.072-0.067,0.149-0.115,0.231-0.146c0.157-0.057,0.276-0.188,0.315-0.352c0.285-1.167-0.688-1.608-1.816-2.12
		c-0.291-0.132-0.616-0.278-0.967-0.454c-1.026-0.513-1.317-0.81-1.8-1.301c-0.263-0.268-0.591-0.602-1.104-1.036
		c-0.219-0.186-0.457-0.339-0.706-0.47c-0.09-0.047-0.187-0.077-0.28-0.117c-0.166-0.072-0.331-0.145-0.506-0.198
		c-0.116-0.035-0.237-0.057-0.356-0.084c-0.16-0.037-0.318-0.075-0.482-0.098c-0.133-0.019-0.267-0.029-0.401-0.041
		c-0.155-0.013-0.308-0.028-0.464-0.032c-0.046-0.001-0.092-0.009-0.138-0.01c1.471-0.654,3.048-1.607,3.677-2.853
		c0.3-0.594,0.689-1.376,1.103-2.212c0,0,0,0,0,0c0.084-0.171,0.171-0.347,0.257-0.52c0.014-0.029,0.028-0.058,0.043-0.087
		c0.611-1.236,1.24-2.516,1.702-3.458c0,0,0-0.001,0-0.002c0.189-0.385,0.351-0.715,0.469-0.957l4.729,2.422
		c-0.083,0.18-0.191,0.412-0.312,0.677c0,0,0,0,0,0c-0.005,0.012-0.012,0.026-0.017,0.038c-0.555,1.214-1.428,3.168-2.074,4.834
		c-0.001,0.003-0.002,0.006-0.003,0.009c0,0,0,0.001,0,0.001c-0.235,0.605-0.44,1.173-0.588,1.65
		C24.26,20.242,25.398,23.786,25.941,25.271z"/>
</g>
</svg>
