<?xml version="1.0" encoding="iso-8859-1"?>
<!-- Generator: Adobe Illustrator 19.2.1, SVG Export Plug-In . SVG Version: 6.00 Build 0)  -->
<svg version="1.1" xmlns="http://www.w3.org/2000/svg" xmlns:xlink="http://www.w3.org/1999/xlink" x="0px" y="0px"
	 viewBox="0 0 30 30" style="enable-background:new 0 0 30 30;" xml:space="preserve">
<g id="Pompkin">
</g>
<g id="Layer_10">
</g>
<g id="Bat">
</g>
<g id="Ghost">
</g>
<g id="Bone_Hand">
</g>
<g id="Tree_Ghost">
</g>
<g id="Gate">
</g>
<g id="Cemetery_1">
</g>
<g id="Cemetery_2">
</g>
<g id="Devil_x27_s_Fork">
</g>
<g id="Night_Candle">
</g>
<g id="Canlestick">
</g>
<g id="Black_Cat">
</g>
<g id="Witch_Cauldron">
</g>
<g id="Corn_Candy">
</g>
<g id="Layer_29">
</g>
<g id="Bones">
</g>
<g id="Witch_Broom">
</g>
<g id="Owl">
</g>
<g id="Scythe">
</g>
<g id="Grim_Reaper">
</g>
<g id="Coffin">
</g>
<g id="Dracula">
</g>
<g id="Frankenstein">
</g>
<g id="Layer_40">
</g>
<g id="Toilet_Paper">
</g>
<g id="Skull">
</g>
<g id="Skull_Cake">
</g>
<g id="Eyeball">
</g>
<g id="Castle">
</g>
<g id="Witch_x27_s_Hat">
</g>
<g id="Cobweb_1">
</g>
<g id="Cobweb_2">
</g>
<g id="Spider">
</g>
<g id="Full_Moon">
</g>
<g id="Crescent">
</g>
<g id="Crow">
</g>
<g id="Candy_Holder">
</g>
<g id="Bloody_Knife">
	<g>
		<path d="M29.927,14.811c-0.135-0.451-0.437-0.823-0.839-1.04L14.525,5.378c-0.002-0.001-0.004-0.001-0.006-0.002
			c-0.002-0.001-0.004-0.004-0.006-0.005L5.389,0.44c-0.858-0.464-1.846-0.566-2.78-0.287C1.674,0.432,0.904,1.058,0.44,1.917
			c-0.464,0.858-0.566,1.846-0.287,2.78c0.279,0.935,0.905,1.705,1.764,2.169C2.85,7.369,3.936,7.438,4.931,7.062L11.2,10.45
			l-2.16,3.997c-0.157,0.291-0.198,0.623-0.169,0.964c-0.028,0.072-0.048,0.148-0.045,0.233c0.037,1.259,0.874,2.063,1.76,2.914
			c1.438,1.381,3.228,3.1,2.657,7.728c-0.015,0.12-0.156,0.463-0.259,0.714c-0.234,0.569-0.375,0.937-0.375,1.239
			c0,0.971,0.79,1.761,1.761,1.761s1.76-0.79,1.76-1.761c0-0.26-0.044-0.729-0.168-1.192c-0.187-0.699-0.315-1.735,0.117-2.672
			c0.179-0.212,1.41-0.681,2.006-0.387c0.096,0.048,0.388,0.192,0.209,0.99c-0.031,0.143-0.13,0.379-0.233,0.637
			c-0.247,0.614-0.408,1.041-0.408,1.363c0,0.971,0.79,1.761,1.761,1.761s1.761-0.79,1.761-1.761c0-0.063,0.008-0.149,0.016-0.25
			c0.027-0.33,0.063-0.781-0.02-1.07c-0.164-1.375-0.166-1.565,0.595-1.865l1.441,0.834c0.266,0.144,0.552,0.212,0.834,0.212
			c0.627,0,1.234-0.335,1.552-0.924l4.196-7.764C30.012,15.737,30.061,15.261,29.927,14.811z M4.647,4.19
			C4.443,4.568,4.053,4.783,3.651,4.783c-0.182,0-0.365-0.043-0.536-0.136C2.567,4.351,2.362,3.664,2.658,3.115
			C2.955,2.567,3.643,2.363,4.19,2.658h0C4.738,2.955,4.943,3.642,4.647,4.19z M28.908,15.675l-4.196,7.764
			c-0.097,0.18-0.258,0.31-0.452,0.368c-0.194,0.057-0.401,0.036-0.565-0.053l-0.844-0.488c0.021-0.017,0.032-0.039,0.052-0.056
			c0.088-0.076,0.161-0.159,0.228-0.246c0.033-0.042,0.072-0.081,0.1-0.126c0.085-0.136,0.152-0.281,0.191-0.44
			c0.235-0.963-0.479-1.996-1.119-2.692c-0.953-1.039-1.891-1.08-2.797-1.121c-0.596-0.026-1.211-0.054-1.915-0.367
			c-0.873-0.388-1.236-0.717-1.622-1.065c-0.426-0.386-0.867-0.785-1.887-1.238c-0.406-0.18-0.728-0.339-1.004-0.476
			c-0.133-0.066-0.257-0.126-0.376-0.182c-0.053-0.025-0.103-0.046-0.154-0.069c-0.065-0.029-0.131-0.06-0.193-0.086
			c-0.054-0.022-0.107-0.041-0.161-0.061c-0.058-0.022-0.117-0.045-0.174-0.065c-0.055-0.018-0.112-0.032-0.167-0.048
			c-0.057-0.016-0.113-0.033-0.172-0.047c-0.06-0.014-0.124-0.024-0.186-0.035c-0.058-0.01-0.116-0.022-0.177-0.03
			c-0.067-0.009-0.141-0.014-0.212-0.02c-0.064-0.005-0.127-0.011-0.195-0.014c-0.076-0.003-0.161-0.004-0.243-0.004
			c-0.075,0-0.15-0.001-0.23,0.001c-0.084,0.002-0.176,0.007-0.268,0.011c-0.062,0.003-0.116,0.003-0.182,0.008l2.33-4.31
			l0.001-0.001l2.154-3.985l14.129,8.143c0.179,0.097,0.31,0.257,0.367,0.452C29.026,15.291,29.005,15.496,28.908,15.675z"/>
		<path d="M26.213,15.083c-0.548-0.297-1.235-0.09-1.532,0.458c-0.295,0.548-0.09,1.235,0.458,1.532
			c0.17,0.091,0.354,0.135,0.534,0.135c0.402,0,0.793-0.215,0.998-0.593C26.966,16.066,26.761,15.379,26.213,15.083z"/>
	</g>
</g>
<g id="Bloody_Axe">
</g>
</svg>
