<?xml version="1.0" encoding="iso-8859-1"?>
<!-- Generator: Adobe Illustrator 19.2.1, SVG Export Plug-In . SVG Version: 6.00 Build 0)  -->
<svg version="1.1" xmlns="http://www.w3.org/2000/svg" xmlns:xlink="http://www.w3.org/1999/xlink" x="0px" y="0px"
	 viewBox="0 0 30 30" style="enable-background:new 0 0 30 30;" xml:space="preserve">
<g id="Pompkin">
</g>
<g id="Layer_10">
</g>
<g id="Bat">
</g>
<g id="Ghost">
</g>
<g id="Bone_Hand">
</g>
<g id="Tree_Ghost">
</g>
<g id="Gate">
</g>
<g id="Cemetery_1">
</g>
<g id="Cemetery_2">
</g>
<g id="Devil_x27_s_Fork">
</g>
<g id="Night_Candle">
</g>
<g id="Canlestick">
</g>
<g id="Black_Cat">
</g>
<g id="Witch_Cauldron">
</g>
<g id="Corn_Candy">
</g>
<g id="Layer_29">
</g>
<g id="Bones">
	<g>
		<path d="M19.621,13.856C19.719,13.952,19.845,14,19.972,14s0.253-0.048,0.351-0.144c2.086-2.051,2.818-2.681,3.401-3.114
			c1.658,0.879,3.677,0.588,5.022-0.757c1.669-1.67,1.669-4.386,0-6.056c-0.003-0.003-0.007-0.005-0.01-0.008
			c-0.218-0.217-0.46-0.4-0.714-0.562c-0.022-0.014-0.042-0.029-0.064-0.043c-0.276-0.17-0.57-0.304-0.875-0.407
			c-0.212-0.638-0.551-1.193-1.012-1.655C25.263,0.445,24.187,0,23.043,0c-1.145,0-2.22,0.446-3.028,1.254
			c-1.345,1.345-1.636,3.366-0.758,5.021c-0.434,0.585-1.064,1.318-3.113,3.402c-0.191,0.195-0.191,0.507,0,0.701
			C17.274,11.529,18.471,12.726,19.621,13.856z"/>
		<path d="M10.379,16.144c-0.195-0.191-0.507-0.191-0.701,0c-2.084,2.049-2.816,2.68-3.402,3.113
			C4.621,18.38,2.6,18.67,1.254,20.015C0.446,20.823,0,21.898,0,23.043c0,1.144,0.445,2.22,1.254,3.028
			c0.463,0.463,1.02,0.803,1.66,1.015c0.211,0.64,0.552,1.197,1.015,1.659C4.738,29.554,5.813,30,6.958,30
			c1.144,0,2.219-0.446,3.028-1.255c1.345-1.344,1.636-3.365,0.757-5.021c0.433-0.583,1.063-1.315,3.114-3.401
			c0.191-0.194,0.191-0.507,0-0.701C12.573,18.315,11.717,17.457,10.379,16.144z"/>
		<path d="M28.745,20.015c-1.341-1.343-3.359-1.633-5.012-0.762C21.545,17.482,12.517,8.455,10.748,6.267
			c0.872-1.654,0.58-3.67-0.762-5.013C9.177,0.445,8.101,0,6.958,0c-1.144,0-2.22,0.445-3.028,1.254
			C3.709,1.475,3.523,1.721,3.358,1.979C3.345,2,3.33,2.02,3.317,2.042c-0.17,0.276-0.304,0.57-0.407,0.875
			C2.272,3.128,1.716,3.467,1.254,3.929C0.445,4.738,0,5.813,0,6.958c0,1.144,0.445,2.219,1.254,3.028
			c1.342,1.342,3.358,1.634,5.013,0.762c2.188,1.77,11.215,10.797,12.986,12.986c-0.873,1.654-0.581,3.67,0.762,5.012
			C20.823,29.554,21.898,30,23.043,30c1.144,0,2.22-0.445,3.028-1.255c0.463-0.463,0.803-1.02,1.015-1.659
			c0.64-0.212,1.196-0.552,1.659-1.015C29.555,25.263,30,24.187,30,23.043C30,21.898,29.554,20.823,28.745,20.015z"/>
	</g>
</g>
<g id="Witch_Broom">
</g>
<g id="Owl">
</g>
<g id="Scythe">
</g>
<g id="Grim_Reaper">
</g>
<g id="Coffin">
</g>
<g id="Dracula">
</g>
<g id="Frankenstein">
</g>
<g id="Layer_40">
</g>
<g id="Toilet_Paper">
</g>
<g id="Skull">
</g>
<g id="Skull_Cake">
</g>
<g id="Eyeball">
</g>
<g id="Castle">
</g>
<g id="Witch_x27_s_Hat">
</g>
<g id="Cobweb_1">
</g>
<g id="Cobweb_2">
</g>
<g id="Spider">
</g>
<g id="Full_Moon">
</g>
<g id="Crescent">
</g>
<g id="Crow">
</g>
<g id="Candy_Holder">
</g>
<g id="Bloody_Knife">
</g>
<g id="Bloody_Axe">
</g>
</svg>
