<?xml version="1.0" encoding="iso-8859-1"?>
<!-- Generator: Adobe Illustrator 19.2.1, SVG Export Plug-In . SVG Version: 6.00 Build 0)  -->
<svg version="1.1" xmlns="http://www.w3.org/2000/svg" xmlns:xlink="http://www.w3.org/1999/xlink" x="0px" y="0px"
	 viewBox="0 0 30 30" style="enable-background:new 0 0 30 30;" xml:space="preserve">
<g id="Pompkin">
</g>
<g id="Layer_10">
</g>
<g id="Bat">
</g>
<g id="Ghost">
</g>
<g id="Bone_Hand">
	<g>
		<path d="M18.204,9.983c0.058,0.021,0.116,0.031,0.174,0.031c0.203,0,0.394-0.125,0.469-0.326c0.097-0.261,0.223-0.518,0.345-0.767
			c0.181-0.37,0.367-0.753,0.457-1.13c0.064-0.269-0.102-0.538-0.37-0.602c-0.273-0.065-0.539,0.102-0.603,0.371
			c-0.064,0.27-0.22,0.587-0.383,0.924c-0.137,0.278-0.275,0.565-0.384,0.857C17.813,9.599,17.945,9.887,18.204,9.983z"/>
		<path d="M19.102,5.949c-0.054,0.271,0.121,0.534,0.393,0.588c0.033,0.007,0.065,0.01,0.099,0.01c0.233,0,0.442-0.165,0.489-0.402
			c0.081-0.407,0.058-0.584,0.021-0.759c-0.005-0.023-0.011-0.045-0.013-0.077c-0.013-0.275-0.211-0.508-0.521-0.477
			c-0.276,0.012-0.489,0.246-0.477,0.522c0.004,0.098,0.018,0.168,0.032,0.239C19.139,5.658,19.149,5.71,19.102,5.949z"/>
		<path d="M16.561,5.594c-0.005,0-0.01,0-0.014,0c-0.271,0-0.492,0.215-0.5,0.487c-0.007,0.243-0.009,0.545-0.011,0.874
			c-0.005,0.727-0.012,1.631-0.074,2.251c-0.027,0.275,0.173,0.52,0.448,0.547c0.017,0.001,0.034,0.002,0.051,0.002
			c0.254,0,0.471-0.192,0.496-0.45c0.067-0.667,0.073-1.558,0.079-2.344c0.002-0.321,0.004-0.617,0.011-0.855
			C17.054,5.831,16.836,5.602,16.561,5.594z"/>
		<path d="M15.953,3.809c0,0.093,0,0.21,0.008,0.379c0.012,0.268,0.234,0.477,0.5,0.477c0.008,0,0.016,0,0.023,0
			c0.275-0.013,0.488-0.247,0.476-0.522c-0.007-0.148-0.006-0.251-0.006-0.333c-0.001-0.172-0.001-0.309-0.062-0.532
			c-0.073-0.267-0.349-0.418-0.614-0.35C16.011,3,15.854,3.275,15.927,3.542C15.953,3.635,15.953,3.665,15.953,3.809z"/>
		<path d="M12.852,5.132c0.04,0.214,0.122,0.547,0.211,0.908c0.121,0.49,0.259,1.045,0.306,1.376c0.035,0.25,0.25,0.43,0.495,0.43
			c0.023,0,0.047-0.001,0.07-0.005c0.273-0.039,0.464-0.292,0.425-0.565c-0.054-0.383-0.198-0.964-0.325-1.477
			c-0.084-0.339-0.162-0.651-0.2-0.853c-0.05-0.271-0.31-0.449-0.583-0.399C12.979,4.599,12.8,4.86,12.852,5.132z"/>
		<path d="M12.451,3.194c0.06,0.224,0.262,0.372,0.483,0.372c0.042,0,0.085-0.005,0.128-0.017c0.267-0.071,0.426-0.344,0.355-0.611
			c-0.138-0.521-0.268-0.864-0.409-1.078c-0.153-0.23-0.462-0.293-0.693-0.142c-0.23,0.152-0.294,0.462-0.142,0.693
			C12.201,2.453,12.302,2.632,12.451,3.194z"/>
		<path d="M10.87,10.336c0.719,3.029,1.222,3.479,1.387,3.627c0.071,0.063,0.158,0.105,0.251,0.121l3.818,0.636
			c0.027,0.004,0.055,0.007,0.082,0.007c0.147,0,0.289-0.065,0.385-0.181c0.054-0.064,0.106-0.122,0.16-0.18
			c0.335-0.366,0.716-0.781,1.263-2.452c0.086-0.262-0.058-0.544-0.32-0.63c-0.264-0.086-0.545,0.057-0.631,0.32
			c-0.478,1.461-0.768,1.78-1.047,2.085l-0.506-0.084c0.342-0.594,0.617-1.322,0.832-2.626c0.045-0.272-0.14-0.53-0.412-0.574
			c-0.267-0.047-0.53,0.139-0.574,0.412c-0.243,1.476-0.55,2.047-0.843,2.505c-0.022,0.035-0.03,0.073-0.043,0.11l-0.287-0.048
			c0.102-0.93,0.073-2.055-0.023-3.64c-0.016-0.275-0.252-0.472-0.529-0.469c-0.275,0.017-0.485,0.253-0.469,0.529
			c0.091,1.502,0.12,2.565,0.033,3.415l-0.547-0.091c-0.15-0.221-0.51-0.924-1.008-3.022c-0.063-0.269-0.336-0.438-0.602-0.371
			C10.972,9.798,10.806,10.067,10.87,10.336z"/>
		<path d="M9.775,5.872c0.1,0.303,0.177,0.831,0.251,1.341c0.071,0.489,0.145,0.996,0.25,1.41C10.334,8.849,10.538,9,10.761,9
			c0.041,0,0.082-0.005,0.124-0.015c0.268-0.068,0.43-0.34,0.362-0.608c-0.093-0.364-0.163-0.844-0.23-1.308
			c-0.084-0.578-0.164-1.124-0.291-1.509c-0.086-0.263-0.371-0.407-0.631-0.319C9.832,5.327,9.689,5.61,9.775,5.872z"/>
		<path d="M9.236,4.224c0.078,0.197,0.266,0.317,0.465,0.317c0.061,0,0.123-0.011,0.183-0.035c0.257-0.101,0.383-0.392,0.282-0.648
			c-0.108-0.275-0.217-0.51-0.323-0.696c-0.138-0.24-0.443-0.324-0.682-0.187c-0.24,0.137-0.324,0.442-0.187,0.682
			C9.061,3.808,9.148,4,9.236,4.224z"/>
		<path d="M10.188,15.174c0.082,0.04,0.165,0.08,0.255,0.129c0.076,0.041,0.157,0.061,0.238,0.061c0.178,0,0.35-0.095,0.44-0.262
			c0.132-0.243,0.042-0.546-0.201-0.678c-0.105-0.057-0.201-0.104-0.295-0.149c-0.313-0.152-0.583-0.283-1.231-0.872
			c-0.205-0.186-0.521-0.171-0.706,0.034c-0.186,0.205-0.17,0.521,0.034,0.706C9.477,14.828,9.838,15.004,10.188,15.174z"/>
		<path d="M7.456,12.87c0.099,0.113,0.237,0.17,0.376,0.17c0.117,0,0.235-0.041,0.33-0.124c0.208-0.182,0.229-0.498,0.046-0.706
			c-0.439-0.5-0.744-0.941-0.907-1.309c-0.112-0.251-0.408-0.368-0.66-0.254c-0.252,0.112-0.366,0.408-0.254,0.66
			C6.591,11.768,6.951,12.293,7.456,12.87z"/>
		<path d="M5.801,9.95c0.063,0,0.128-0.012,0.19-0.038c0.255-0.105,0.377-0.398,0.272-0.653C6.095,8.852,6.082,8.633,6.089,8.538
			c0.021-0.275-0.185-0.516-0.46-0.537c-0.271-0.022-0.516,0.185-0.537,0.46C5.067,8.792,5.147,9.177,5.338,9.64
			C5.418,9.833,5.604,9.95,5.801,9.95z"/>
		<path d="M11.455,16.772c0,0.839,1.298,1.137,2.409,1.137s2.41-0.298,2.41-1.137c0-0.838-1.298-1.136-2.41-1.136
			S11.455,15.934,11.455,16.772z"/>
		<path d="M16.825,22.009c-0.027,0.323-0.045,0.653-0.058,0.97c-0.025,0.633-0.05,1.222-0.165,1.75
			c-0.059,0.271-0.328,0.439-0.595,0.382c-0.27-0.059-0.441-0.325-0.382-0.595h-0.001c0,0,0-0.001,0-0.001
			c0.096-0.438,0.119-0.985,0.142-1.564c0.039-0.947,0.083-2.021,0.455-2.776c0.079-0.161,0.291-0.591,0.005-0.922
			c-0.292-0.339-0.708-0.203-1.192-0.049c-0.347,0.111-0.779,0.25-1.171,0.25c-0.379,0-0.769-0.147-1.081-0.266
			c-0.418-0.157-0.813-0.308-1.138-0.022c-0.322,0.281-0.217,0.731-0.177,0.901c0.163,0.7,0.256,1.635,0.339,2.459
			c0.092,0.915,0.164,1.638,0.313,2.052h0c0.094,0.26-0.041,0.547-0.3,0.641c-0.056,0.02-0.114,0.029-0.17,0.029
			c-0.205,0-0.397-0.127-0.47-0.33c-0.191-0.53-0.269-1.307-0.367-2.288c-0.016-0.161-0.033-0.327-0.051-0.494
			C6.176,22.542,0,23.778,0,27.5C0,27.776,0.224,28,0.5,28h28c0.276,0,0.5-0.224,0.5-0.5C29,24.131,23.119,22.367,16.825,22.009z"/>
	</g>
</g>
<g id="Tree_Ghost">
</g>
<g id="Gate">
</g>
<g id="Cemetery_1">
</g>
<g id="Cemetery_2">
</g>
<g id="Devil_x27_s_Fork">
</g>
<g id="Night_Candle">
</g>
<g id="Canlestick">
</g>
<g id="Black_Cat">
</g>
<g id="Witch_Cauldron">
</g>
<g id="Corn_Candy">
</g>
<g id="Layer_29">
</g>
<g id="Bones">
</g>
<g id="Witch_Broom">
</g>
<g id="Owl">
</g>
<g id="Scythe">
</g>
<g id="Grim_Reaper">
</g>
<g id="Coffin">
</g>
<g id="Dracula">
</g>
<g id="Frankenstein">
</g>
<g id="Layer_40">
</g>
<g id="Toilet_Paper">
</g>
<g id="Skull">
</g>
<g id="Skull_Cake">
</g>
<g id="Eyeball">
</g>
<g id="Castle">
</g>
<g id="Witch_x27_s_Hat">
</g>
<g id="Cobweb_1">
</g>
<g id="Cobweb_2">
</g>
<g id="Spider">
</g>
<g id="Full_Moon">
</g>
<g id="Crescent">
</g>
<g id="Crow">
</g>
<g id="Candy_Holder">
</g>
<g id="Bloody_Knife">
</g>
<g id="Bloody_Axe">
</g>
</svg>
