<?xml version="1.0" encoding="iso-8859-1"?>
<!-- Generator: Adobe Illustrator 19.2.1, SVG Export Plug-In . SVG Version: 6.00 Build 0)  -->
<svg version="1.1" xmlns="http://www.w3.org/2000/svg" xmlns:xlink="http://www.w3.org/1999/xlink" x="0px" y="0px"
	 viewBox="0 0 30 30" style="enable-background:new 0 0 30 30;" xml:space="preserve">
<g id="Pompkin">
</g>
<g id="Layer_10">
</g>
<g id="Bat">
</g>
<g id="Ghost">
</g>
<g id="Bone_Hand">
</g>
<g id="Tree_Ghost">
</g>
<g id="Gate">
</g>
<g id="Cemetery_1">
</g>
<g id="Cemetery_2">
</g>
<g id="Devil_x27_s_Fork">
</g>
<g id="Night_Candle">
</g>
<g id="Canlestick">
</g>
<g id="Black_Cat">
</g>
<g id="Witch_Cauldron">
</g>
<g id="Corn_Candy">
</g>
<g id="Layer_29">
</g>
<g id="Bones">
</g>
<g id="Witch_Broom">
</g>
<g id="Owl">
</g>
<g id="Scythe">
</g>
<g id="Grim_Reaper">
</g>
<g id="Coffin">
</g>
<g id="Dracula">
</g>
<g id="Frankenstein">
</g>
<g id="Layer_40">
</g>
<g id="Toilet_Paper">
</g>
<g id="Skull">
</g>
<g id="Skull_Cake">
</g>
<g id="Eyeball">
</g>
<g id="Castle">
</g>
<g id="Witch_x27_s_Hat">
</g>
<g id="Cobweb_1">
</g>
<g id="Cobweb_2">
</g>
<g id="Spider">
</g>
<g id="Full_Moon">
</g>
<g id="Crescent">
</g>
<g id="Crow">
</g>
<g id="Candy_Holder">
	<path d="M24.345,15.523v-0.008c0.106-1.5,0.226-3.199-1.54-4.112c-1.318-0.682-2.754-2.072-2.944-3.409
		c-0.015-0.103-0.061-0.198-0.132-0.273c-0.57-0.6-1.38-0.953-2.218-1.157l2.465-5.199c0.219-0.359,0.688-0.474,1.046-0.254
		c0.358,0.218,0.473,0.687,0.255,1.045L20.62,3.233c-0.144,0.236-0.069,0.543,0.167,0.687c0.234,0.144,0.544,0.069,0.687-0.167
		l0.657-1.078c0.504-0.83,0.239-1.915-0.59-2.419c-0.825-0.502-1.914-0.241-2.444,0.634l-2.61,5.496
		c-0.165-0.02-0.329-0.039-0.487-0.05l-0.154-0.771l1.476-4.922c0.08-0.264-0.07-0.543-0.335-0.623
		c-0.262-0.077-0.543,0.07-0.622,0.335l-0.937,3.122l-0.616-3.077c-0.054-0.271-0.317-0.449-0.588-0.392
		c-0.271,0.054-0.446,0.317-0.392,0.588l0.984,4.92l-0.239,0.796c-0.181,0.008-0.335,0.018-0.453,0.027
		c-0.21,0.017-0.426,0.041-0.643,0.07l-1.224-5.041c-0.215-0.947-1.16-1.54-2.108-1.327C9.202,0.259,8.607,1.205,8.822,2.152
		l0.28,1.229C9.163,3.65,9.432,3.821,9.7,3.758c0.27-0.061,0.438-0.329,0.376-0.598L9.797,1.93C9.704,1.521,9.961,1.112,10.37,1.02
		c0.198-0.047,0.402-0.011,0.574,0.098c0.172,0.108,0.292,0.277,0.338,0.482l1.12,4.613L8.265,3.849
		C8.025,3.709,7.72,3.794,7.583,4.035C7.446,4.274,7.529,4.58,7.769,4.717l3.767,2.152c-0.625,0.228-1.146,0.527-1.41,0.915
		c-0.042,0.063-0.071,0.135-0.082,0.21c-0.191,1.337-1.626,2.727-2.945,3.409c-1.764,0.913-1.646,2.611-1.54,4.11l0,0.01
		c-1.863,3.578-2.27,6.823-1.145,9.15C6.106,28.171,10.996,30,14.952,30h0.116c2.168,0,4.613-0.553,6.661-1.625l-2.481-0.928
		c-0.238-0.09-0.372-0.344-0.311-0.59l0.525-2.1l-2.747-1.099c-0.257-0.103-0.381-0.394-0.278-0.649
		c0.103-0.256,0.394-0.382,0.649-0.278l3.152,1.261c0.232,0.093,0.36,0.343,0.3,0.585l-0.522,2.09l2.603,0.973
		c0.065,0.024,0.122,0.061,0.17,0.106c1.215-0.812,2.218-1.836,2.816-3.072C26.727,22.354,26.303,19.276,24.345,15.523z
		 M13.555,16.965c-0.165,1.109-2.421,2.927-4.078,2.97c-0.021,0-0.042,0.001-0.063,0.001c-0.985,0-1.671-0.611-1.888-1.685
		c-0.202-1.002,0.189-2.352,0.951-3.282c0.58-0.709,1.313-1.099,2.062-1.099c0.994,0,1.883,0.37,2.438,1.015
		C13.466,15.45,13.671,16.189,13.555,16.965z M14.821,12.478c0,0.2-0.119,0.38-0.302,0.459c-0.064,0.027-0.131,0.041-0.198,0.041
		c-0.125,0-0.249-0.047-0.344-0.137c-0.333-0.315-1.417-1.408-1.417-2.254c0-1.02,0.476-1.761,1.13-1.761s1.13,0.741,1.13,1.761
		V12.478z M15.927,12.841c-0.095,0.09-0.219,0.137-0.344,0.137c-0.067,0-0.134-0.013-0.197-0.041
		c-0.184-0.079-0.303-0.26-0.303-0.459v-1.891c0-1.02,0.476-1.761,1.13-1.761c0.654,0,1.13,0.741,1.13,1.761
		C17.343,11.433,16.259,12.526,15.927,12.841z M22.377,18.251c-0.217,1.073-0.903,1.685-1.889,1.685
		c-0.021,0-0.041-0.001-0.062-0.001c-1.656-0.042-3.912-1.859-4.078-2.969v-0.001c-0.116-0.775,0.09-1.515,0.577-2.081
		c0.564-0.654,1.431-1.014,2.439-1.014c0.749,0,1.481,0.391,2.062,1.1C22.188,15.9,22.579,17.25,22.377,18.251z"/>
</g>
<g id="Bloody_Knife">
</g>
<g id="Bloody_Axe">
</g>
</svg>
