<?xml version="1.0" encoding="iso-8859-1"?>
<!-- Generator: Adobe Illustrator 19.2.1, SVG Export Plug-In . SVG Version: 6.00 Build 0)  -->
<svg version="1.1" xmlns="http://www.w3.org/2000/svg" xmlns:xlink="http://www.w3.org/1999/xlink" x="0px" y="0px"
	 viewBox="0 0 30 30" style="enable-background:new 0 0 30 30;" xml:space="preserve">
<g id="Pompkin">
</g>
<g id="Layer_10">
</g>
<g id="Bat">
</g>
<g id="Ghost">
</g>
<g id="Bone_Hand">
</g>
<g id="Tree_Ghost">
</g>
<g id="Gate">
</g>
<g id="Cemetery_1">
</g>
<g id="Cemetery_2">
</g>
<g id="Devil_x27_s_Fork">
</g>
<g id="Night_Candle">
</g>
<g id="Canlestick">
	<path d="M17,15.265V5.5C17,5.224,16.776,5,16.5,5H16V4.704c0.727-0.217,1.262-0.884,1.262-1.681c0-0.791-1.033-2.349-1.351-2.807
		c-0.187-0.271-0.635-0.271-0.823,0c-0.316,0.458-1.35,2.016-1.35,2.807c0,0.796,0.535,1.463,1.261,1.681V5h-0.5
		C14.224,5,14,5.224,14,5.5v9.787c-3.081,0.695-5.388,3.4-5.388,6.63c0,2.118,1.328,3.962,2.388,5.203v2.38
		c0,0.276,0.224,0.5,0.5,0.5H14v-2c0-0.276,0.224-0.5,0.5-0.5S15,27.724,15,28v2h1v-2c0-0.276,0.224-0.5,0.5-0.5S17,27.724,17,28v2
		h2.5c0.276,0,0.5-0.224,0.5-0.5v-2.38c1.15-1.345,2.415-3.129,2.415-5.203C22.415,18.656,20.091,15.926,17,15.265z M14.381,24.393
		c-0.331,0.382-0.829,0.593-1.404,0.593c-0.447,0-0.879-0.227-1.216-0.637c-0.438-0.534-0.654-1.289-0.536-1.879
		c0.134-0.675,0.576-1.046,1.226-1.053c0.895,0.022,2.174,0.985,2.282,1.717v0.001C14.802,23.603,14.677,24.05,14.381,24.393z
		 M19.215,24.355c-0.334,0.406-0.761,0.63-1.203,0.63c-0.568,0-1.063-0.209-1.392-0.589c-0.297-0.344-0.423-0.791-0.354-1.262
		c0.107-0.732,1.38-1.695,2.269-1.718c0.598,0.02,1.085,0.378,1.219,1.054C19.87,23.063,19.654,23.82,19.215,24.355z"/>
</g>
<g id="Black_Cat">
</g>
<g id="Witch_Cauldron">
</g>
<g id="Corn_Candy">
</g>
<g id="Layer_29">
</g>
<g id="Bones">
</g>
<g id="Witch_Broom">
</g>
<g id="Owl">
</g>
<g id="Scythe">
</g>
<g id="Grim_Reaper">
</g>
<g id="Coffin">
</g>
<g id="Dracula">
</g>
<g id="Frankenstein">
</g>
<g id="Layer_40">
</g>
<g id="Toilet_Paper">
</g>
<g id="Skull">
</g>
<g id="Skull_Cake">
</g>
<g id="Eyeball">
</g>
<g id="Castle">
</g>
<g id="Witch_x27_s_Hat">
</g>
<g id="Cobweb_1">
</g>
<g id="Cobweb_2">
</g>
<g id="Spider">
</g>
<g id="Full_Moon">
</g>
<g id="Crescent">
</g>
<g id="Crow">
</g>
<g id="Candy_Holder">
</g>
<g id="Bloody_Knife">
</g>
<g id="Bloody_Axe">
</g>
</svg>
