<?xml version="1.0" encoding="iso-8859-1"?>
<!-- Generator: Adobe Illustrator 19.2.1, SVG Export Plug-In . SVG Version: 6.00 Build 0)  -->
<svg version="1.1" xmlns="http://www.w3.org/2000/svg" xmlns:xlink="http://www.w3.org/1999/xlink" x="0px" y="0px"
	 viewBox="0 0 30 30" style="enable-background:new 0 0 30 30;" xml:space="preserve">
<g id="Pompkin">
</g>
<g id="Layer_10">
</g>
<g id="Bat">
</g>
<g id="Ghost">
</g>
<g id="Bone_Hand">
</g>
<g id="Tree_Ghost">
</g>
<g id="Gate">
</g>
<g id="Cemetery_1">
</g>
<g id="Cemetery_2">
</g>
<g id="Devil_x27_s_Fork">
</g>
<g id="Night_Candle">
</g>
<g id="Canlestick">
</g>
<g id="Black_Cat">
</g>
<g id="Witch_Cauldron">
</g>
<g id="Corn_Candy">
</g>
<g id="Layer_29">
</g>
<g id="Bones">
</g>
<g id="Witch_Broom">
</g>
<g id="Owl">
</g>
<g id="Scythe">
</g>
<g id="Grim_Reaper">
</g>
<g id="Coffin">
</g>
<g id="Dracula">
</g>
<g id="Frankenstein">
</g>
<g id="Layer_40">
</g>
<g id="Toilet_Paper">
</g>
<g id="Skull">
</g>
<g id="Skull_Cake">
</g>
<g id="Eyeball">
</g>
<g id="Castle">
	<g>
		<path d="M29.15,15.274l-5.114-5.043c-0.194-0.192-0.507-0.192-0.7-0.002L19,14.446V3.022c0-0.161-0.077-0.312-0.208-0.406
			l-3.5-2.522c-0.175-0.126-0.41-0.126-0.585,0l-3.5,2.522C11.077,2.71,11,2.861,11,3.022v11.424l-4.336-4.218
			c-0.194-0.188-0.503-0.188-0.697,0l-5.185,5.043c-0.13,0.127-0.182,0.314-0.134,0.49l3.783,13.87C4.49,29.849,4.687,30,4.913,30
			H11v-7.305c0-2.289,1.653-4.105,3.819-4.271c0.036-0.008,0.072-0.012,0.11-0.012h0.212c0.038,0,0.074,0.004,0.109,0.012
			c2.159,0.161,3.75,1.943,3.75,4.271V30h6.087c0.227,0,0.425-0.152,0.483-0.371l3.712-13.869
			C29.328,15.586,29.278,15.4,29.15,15.274z M8,20.5C8,20.776,7.776,21,7.5,21H5.543c-0.244,0-0.452-0.176-0.493-0.416l-0.63-3.695
			c-0.007-1.047,0.766-1.802,1.753-1.802c0.055,0,0.11,0.009,0.161,0.027C7.25,15.182,8,15.968,8,16.892V20.5z M17,10.5
			c0,0.276-0.224,0.5-0.5,0.5h-3c-0.276,0-0.5-0.224-0.5-0.5V6.804c0-0.938,0.879-1.761,1.88-1.761h0.179
			c0.918,0,1.94,0.723,1.94,1.761V10.5z M24.949,20.584C24.908,20.824,24.7,21,24.456,21H22.5c-0.276,0-0.5-0.224-0.5-0.5v-3.608
			c0-0.93,0.762-1.721,1.686-1.779c0.048-0.016,0.098-0.025,0.141-0.025c0.987,0,1.761,0.754,1.761,1.718L24.949,20.584z"/>
		<path d="M4.283,7.304c1.147,0,2.207-0.533,2.907-1.461C7.304,5.692,7.323,5.49,7.239,5.32C7.155,5.15,6.982,5.043,6.793,5.042
			C5.337,5.036,4.152,3.847,4.152,2.391c0-0.569,0.188-1.118,0.542-1.588c0.114-0.151,0.126-0.355,0.042-0.525S4.472,0,4.283,0
			C2.269,0,0.63,1.639,0.63,3.652S2.269,7.304,4.283,7.304z"/>
		<path d="M15.035,19.415C13.325,19.471,12,20.892,12,22.695V30h6v-7.305C18,20.862,16.733,19.471,15.035,19.415z M15.5,28
			c0,0.276-0.224,0.5-0.5,0.5s-0.5-0.224-0.5-0.5v-6c0-0.276,0.224-0.5,0.5-0.5s0.5,0.224,0.5,0.5V28z"/>
	</g>
</g>
<g id="Witch_x27_s_Hat">
</g>
<g id="Cobweb_1">
</g>
<g id="Cobweb_2">
</g>
<g id="Spider">
</g>
<g id="Full_Moon">
</g>
<g id="Crescent">
</g>
<g id="Crow">
</g>
<g id="Candy_Holder">
</g>
<g id="Bloody_Knife">
</g>
<g id="Bloody_Axe">
</g>
</svg>
