<?xml version="1.0" encoding="iso-8859-1"?>
<!-- Generator: Adobe Illustrator 19.2.1, SVG Export Plug-In . SVG Version: 6.00 Build 0)  -->
<svg version="1.1" xmlns="http://www.w3.org/2000/svg" xmlns:xlink="http://www.w3.org/1999/xlink" x="0px" y="0px"
	 viewBox="0 0 30 30" style="enable-background:new 0 0 30 30;" xml:space="preserve">
<g id="Pompkin">
</g>
<g id="Layer_10">
</g>
<g id="Bat">
</g>
<g id="Ghost">
</g>
<g id="Bone_Hand">
</g>
<g id="Tree_Ghost">
</g>
<g id="Gate">
</g>
<g id="Cemetery_1">
</g>
<g id="Cemetery_2">
</g>
<g id="Devil_x27_s_Fork">
</g>
<g id="Night_Candle">
</g>
<g id="Canlestick">
</g>
<g id="Black_Cat">
</g>
<g id="Witch_Cauldron">
</g>
<g id="Corn_Candy">
</g>
<g id="Layer_29">
</g>
<g id="Bones">
</g>
<g id="Witch_Broom">
</g>
<g id="Owl">
</g>
<g id="Scythe">
</g>
<g id="Grim_Reaper">
</g>
<g id="Coffin">
</g>
<g id="Dracula">
</g>
<g id="Frankenstein">
</g>
<g id="Layer_40">
</g>
<g id="Toilet_Paper">
</g>
<g id="Skull">
</g>
<g id="Skull_Cake">
</g>
<g id="Eyeball">
</g>
<g id="Castle">
</g>
<g id="Witch_x27_s_Hat">
</g>
<g id="Cobweb_1">
	<path d="M29.769,25.296l-2.291-1.457V9.326c0-0.036-0.018-0.066-0.025-0.1l1.073-0.751c0.227-0.158,0.281-0.47,0.123-0.696
		s-0.471-0.281-0.696-0.122l-1.258,0.88L16.13,1.493V0.5c0-0.276-0.224-0.5-0.5-0.5s-0.5,0.224-0.5,0.5v0.9L2.593,5.579L2.077,5.157
		c-0.213-0.176-0.528-0.145-0.704,0.07C1.199,5.441,1.23,5.756,1.444,5.931l0.43,0.352L0.686,16.392H0.5c-0.276,0-0.5,0.224-0.5,0.5
		s0.224,0.5,0.5,0.5h0.264l3.57,11.304l-0.423,0.47c-0.185,0.206-0.168,0.521,0.037,0.707C4.044,29.958,4.164,30,4.283,30
		c0.137,0,0.273-0.056,0.372-0.165l0.393-0.437l3.567,0.595C8.642,29.998,8.669,30,8.696,30c0.24,0,0.452-0.173,0.493-0.418
		c0.045-0.272-0.139-0.53-0.411-0.575l-2.938-0.49l2.081-2.312l5.976,2.988l-0.026,0.258c-0.027,0.274,0.173,0.52,0.448,0.547
		C14.337,29.999,14.354,30,14.37,30c0.254,0,0.471-0.192,0.497-0.45l0.034-0.337l12.242-4.285c0.035-0.012,0.054-0.044,0.084-0.063
		l2.004,1.275c0.083,0.053,0.176,0.078,0.268,0.078c0.165,0,0.327-0.082,0.422-0.231C30.07,25.753,30.001,25.444,29.769,25.296z
		 M26.478,23.203l-3.432-2.183l-0.593-8.295l4.025-2.818V23.203z M8.207,24.392l-2-7.001h2.718l1.105,4.975L8.207,24.392z
		 M16.13,12.782l2.305,1.536l-2.305,1.613V12.782z M15.13,15.837l-2.592-2.12l2.592-1.11V15.837z M14.235,16.392h-4.026l1.325-2.209
		L14.235,16.392z M14.703,21.136l-1.317-0.878c-0.026-0.017-0.055-0.022-0.082-0.034l1.677-1.863L14.703,21.136z M16.047,17.75
		l1.811,1.153l-2.102,1.751L16.047,17.75z M16.527,16.874l2.247-1.573l-0.393,2.753L16.527,16.874z M19.315,13.703L16.13,11.58
		V9.026l4.932,3.453L19.315,13.703z M15.13,11.518l-3.464,1.485l-2.837-2.321l6.302-1.939V11.518z M10.752,13.543l-1.709,2.848
		H6.215l1.58-5.267L10.752,13.543z M9.949,17.392h4.559l-3.656,4.062L9.949,17.392z M12.679,20.919
		c0.037,0.066,0.085,0.126,0.153,0.171l1.759,1.173l-0.222,2.223l-3.062-2.041L12.679,20.919z M15.615,22.073l3.129-2.607
		l2.78,1.769l-6.107,2.818L15.615,22.073z M19.308,18.643l0.59-4.128l1.601-1.121l0.497,6.958L19.308,18.643z M25.816,9.152
		l-3.881,2.717L16.13,7.806V2.695L25.816,9.152z M15.13,2.455v5.242L7.9,9.921L3.509,6.328L15.13,2.455z M2.793,7.034l4.164,3.406
		c0,0.001-0.002,0.002-0.002,0.003l-1.784,5.948H1.693L2.793,7.034z M1.813,17.392h3.353l2.251,7.878L5.11,27.833L1.813,17.392z
		 M8.615,25.434l2.015-2.239l3.462,2.308c0.051,0.034,0.111,0.045,0.169,0.058l-0.257,2.566L8.615,25.434z M15.011,28.115
		l0.291-2.907l7.226-3.335l3.661,2.33L15.011,28.115z"/>
</g>
<g id="Cobweb_2">
</g>
<g id="Spider">
</g>
<g id="Full_Moon">
</g>
<g id="Crescent">
</g>
<g id="Crow">
</g>
<g id="Candy_Holder">
</g>
<g id="Bloody_Knife">
</g>
<g id="Bloody_Axe">
</g>
</svg>
