<?xml version="1.0" encoding="iso-8859-1"?>
<!-- Generator: Adobe Illustrator 19.2.1, SVG Export Plug-In . SVG Version: 6.00 Build 0)  -->
<svg version="1.1" xmlns="http://www.w3.org/2000/svg" xmlns:xlink="http://www.w3.org/1999/xlink" x="0px" y="0px"
	 viewBox="0 0 30 30" style="enable-background:new 0 0 30 30;" xml:space="preserve">
<g id="Pompkin">
</g>
<g id="Layer_10">
</g>
<g id="Bat">
</g>
<g id="Ghost">
</g>
<g id="Bone_Hand">
</g>
<g id="Tree_Ghost">
</g>
<g id="Gate">
</g>
<g id="Cemetery_1">
</g>
<g id="Cemetery_2">
</g>
<g id="Devil_x27_s_Fork">
</g>
<g id="Night_Candle">
</g>
<g id="Canlestick">
</g>
<g id="Black_Cat">
</g>
<g id="Witch_Cauldron">
</g>
<g id="Corn_Candy">
</g>
<g id="Layer_29">
</g>
<g id="Bones">
</g>
<g id="Witch_Broom">
</g>
<g id="Owl">
</g>
<g id="Scythe">
</g>
<g id="Grim_Reaper">
</g>
<g id="Coffin">
</g>
<g id="Dracula">
</g>
<g id="Frankenstein">
</g>
<g id="Layer_40">
</g>
<g id="Toilet_Paper">
</g>
<g id="Skull">
</g>
<g id="Skull_Cake">
</g>
<g id="Eyeball">
</g>
<g id="Castle">
</g>
<g id="Witch_x27_s_Hat">
</g>
<g id="Cobweb_1">
</g>
<g id="Cobweb_2">
	<path d="M29.927,0.746c0.015-0.026,0.03-0.05,0.04-0.078c0.012-0.033,0.016-0.067,0.02-0.102C29.99,0.543,30,0.524,30,0.5
		c0-0.009-0.005-0.017-0.005-0.026c0-0.009,0.003-0.017,0.002-0.026c-0.002-0.024-0.015-0.043-0.021-0.066
		c-0.009-0.035-0.016-0.07-0.032-0.101c-0.013-0.027-0.031-0.048-0.049-0.072c-0.021-0.028-0.04-0.055-0.066-0.079
		c-0.025-0.022-0.052-0.037-0.081-0.054c-0.025-0.015-0.049-0.031-0.077-0.041c-0.036-0.014-0.073-0.018-0.111-0.022
		C29.54,0.01,29.521,0,29.5,0h-7.2h-0.007h-8.092c-0.001,0-0.001,0-0.002,0H0.5C0.435,0,0.371,0.014,0.31,0.039
		C0.187,0.09,0.09,0.187,0.039,0.31C0.014,0.371,0,0.435,0,0.5v29c0,0.02,0.009,0.036,0.011,0.055
		c0.004,0.032,0.009,0.063,0.019,0.094c0.011,0.034,0.025,0.065,0.043,0.096c0.012,0.021,0.025,0.041,0.04,0.06
		c0.027,0.035,0.058,0.063,0.093,0.09c0.013,0.009,0.025,0.018,0.039,0.026c0.044,0.027,0.091,0.045,0.143,0.057
		c0.007,0.002,0.012,0.006,0.02,0.008c0.012,0.002,0.024,0.002,0.037,0.004C0.464,29.991,0.481,30,0.5,30
		c0.117,0,0.219-0.046,0.304-0.113c0.005-0.004,0.01-0.006,0.014-0.01c0.033-0.028,0.059-0.061,0.084-0.097
		c0.012-0.016,0.023-0.032,0.033-0.049c0.016-0.029,0.026-0.059,0.036-0.091c0.006-0.018,0.017-0.033,0.02-0.052
		c0.109-0.539,2.556-5.104,6.337-8.885c3.592-3.593,6.69-4.578,8.09-4.577l1.119,1.119c0.098,0.098,0.226,0.146,0.354,0.146
		s0.256-0.049,0.354-0.146c0.195-0.195,0.195-0.512,0-0.707l-4.968-4.968c-0.158-0.585,0.833-3.779,3.522-6.469
		c2.875-2.875,5.657-4.089,6.507-4.1h5.646c-1.8,1.58-4.444,4.574-5.154,5.5c-3.165,4.127-2.798,9.936-2.165,11.96
		c-0.054,0.026-0.107,0.052-0.159,0.085c-0.022-0.04-0.043-0.082-0.077-0.116l-1.262-1.261c-0.195-0.195-0.512-0.195-0.707,0
		s-0.195,0.512,0,0.707l1.262,1.261c0.033,0.033,0.073,0.052,0.111,0.074c-0.08,0.113-0.159,0.224-0.229,0.355l-1.196-0.599
		c-0.192-0.096-0.426-0.058-0.577,0.094l-1.261,1.261c-0.195,0.195-0.195,0.512,0,0.707c0.098,0.098,0.226,0.146,0.354,0.146
		s0.256-0.049,0.354-0.146l1.006-1.006l0.938,0.47c0.005,0.003,0.01,0.002,0.015,0.004c-0.087,0.293-0.156,0.605-0.204,0.939h-1.479
		c-0.229,0-0.43,0.156-0.485,0.379l-0.63,2.522c-0.066,0.268,0.097,0.539,0.364,0.606c0.041,0.01,0.081,0.015,0.121,0.015
		c0.225,0,0.429-0.151,0.485-0.379l0.535-2.144h1.008c-0.001,0.045-0.007,0.086-0.007,0.131c0,0.766,0.111,1.461,0.292,2.07
		c-0.005,0.002-0.01,0.002-0.015,0.004l-1.261,0.631c-0.169,0.085-0.276,0.258-0.276,0.447v1.261c0,0.276,0.224,0.5,0.5,0.5
		s0.5-0.224,0.5-0.5v-0.952l0.92-0.46c0.429,0.796,1.036,1.281,1.732,1.281c0.697,0,1.303-0.485,1.732-1.281l0.92,0.46v0.952
		c0,0.276,0.224,0.5,0.5,0.5s0.5-0.224,0.5-0.5v-1.261c0-0.189-0.107-0.362-0.276-0.447l-1.262-0.631
		c-0.005-0.002-0.01-0.002-0.015-0.004c0.181-0.609,0.291-1.304,0.291-2.07c0-0.045-0.006-0.086-0.007-0.131h1.008l0.536,2.144
		c0.057,0.228,0.261,0.379,0.485,0.379c0.04,0,0.081-0.005,0.121-0.015c0.269-0.067,0.431-0.339,0.364-0.606l-0.631-2.522
		c-0.056-0.223-0.256-0.379-0.485-0.379h-1.479c-0.048-0.334-0.117-0.646-0.204-0.939c0.005-0.002,0.01-0.002,0.015-0.004
		l0.939-0.47l1.006,1.006c0.098,0.098,0.226,0.146,0.354,0.146s0.256-0.049,0.354-0.146c0.195-0.195,0.195-0.512,0-0.707
		l-1.261-1.261c-0.151-0.151-0.385-0.189-0.577-0.094l-1.197,0.598c-0.07-0.13-0.15-0.242-0.229-0.354
		c0.039-0.022,0.078-0.041,0.111-0.074l1.261-1.261c0.195-0.195,0.195-0.512,0-0.707s-0.512-0.195-0.707,0l-1.261,1.261
		c-0.034,0.034-0.055,0.076-0.077,0.116c-0.16-0.1-0.328-0.168-0.504-0.207c-0.403-1.009-1.303-6.971,1.961-11.229
		c1.579-2.06,5.308-5.865,5.988-6.115c0.021-0.003,0.039-0.016,0.059-0.022c0.03-0.009,0.058-0.018,0.086-0.031
		c0.03-0.015,0.055-0.034,0.081-0.055c0.024-0.019,0.046-0.036,0.066-0.059C29.894,0.802,29.91,0.775,29.927,0.746z M3.315,4.022
		C2.699,4.36,2.07,4.934,1.719,5.285C1.604,5.4,1.312,5.701,1,6.072V1.708L3.315,4.022z M1,7.894
		c0.028-0.195,0.474-0.949,1.425-1.901C3.188,5.23,3.81,4.852,4.062,4.769L6.983,7.69C5.596,7.879,3.697,8.695,2.22,10.172
		C1.71,10.681,1.32,11.249,1,11.824V7.894z M4.769,4.062C4.852,3.81,5.23,3.188,5.992,2.426C6.946,1.473,7.701,1.027,7.872,1h3.951
		c-0.575,0.32-1.142,0.71-1.652,1.219C8.695,3.697,7.879,5.596,7.69,6.983L4.769,4.062z M5.285,1.719
		C4.934,2.07,4.36,2.699,4.022,3.315L1.708,1h4.365C5.701,1.312,5.4,1.604,5.285,1.719z M1,14.278
		c0.413-1.082,0.929-2.402,1.926-3.399c2.028-2.027,4.625-2.402,5.05-2.195l2.69,2.69c-1.695,0.355-4.298,1.743-6.274,3.718
		C2.831,16.655,1.719,18.214,1,19.523V14.278z M6.623,19.996C4.12,22.498,2.124,25.409,1,27.353v-5.046
		c0.011-0.851,1.225-3.632,4.1-6.507c2.681-2.68,5.87-3.67,6.466-3.526l2.944,2.944C12.566,15.563,9.689,16.929,6.623,19.996z
		 M15.092,4.394c-1.976,1.976-3.364,4.578-3.719,6.273L8.687,7.98c-0.214-0.408,0.156-3.016,2.192-5.053
		C11.876,1.93,13.195,1.413,14.278,1h5.245C18.214,1.719,16.655,2.831,15.092,4.394z"/>
</g>
<g id="Spider">
</g>
<g id="Full_Moon">
</g>
<g id="Crescent">
</g>
<g id="Crow">
</g>
<g id="Candy_Holder">
</g>
<g id="Bloody_Knife">
</g>
<g id="Bloody_Axe">
</g>
</svg>
