<?xml version="1.0" encoding="iso-8859-1"?>
<!-- Generator: Adobe Illustrator 19.2.1, SVG Export Plug-In . SVG Version: 6.00 Build 0)  -->
<svg version="1.1" xmlns="http://www.w3.org/2000/svg" xmlns:xlink="http://www.w3.org/1999/xlink" x="0px" y="0px"
	 viewBox="0 0 30 30" style="enable-background:new 0 0 30 30;" xml:space="preserve">
<g id="Pompkin">
</g>
<g id="Layer_10">
</g>
<g id="Bat">
</g>
<g id="Ghost">
</g>
<g id="Bone_Hand">
</g>
<g id="Tree_Ghost">
</g>
<g id="Gate">
</g>
<g id="Cemetery_1">
</g>
<g id="Cemetery_2">
</g>
<g id="Devil_x27_s_Fork">
</g>
<g id="Night_Candle">
</g>
<g id="Canlestick">
</g>
<g id="Black_Cat">
</g>
<g id="Witch_Cauldron">
</g>
<g id="Corn_Candy">
</g>
<g id="Layer_29">
</g>
<g id="Bones">
</g>
<g id="Witch_Broom">
</g>
<g id="Owl">
</g>
<g id="Scythe">
</g>
<g id="Grim_Reaper">
</g>
<g id="Coffin">
	<g>
		<polygon points="11.539,4 9.352,8.79 12.527,26 17.473,26 20.648,8.79 18.461,4 		"/>
		<path d="M24.273,7.842l-3.782-7.565C20.406,0.107,20.233,0,20.044,0H9.957C9.767,0,9.594,0.107,9.509,0.276L5.727,7.842
			C5.679,7.938,5.663,8.047,5.682,8.152l3.783,21.435C9.506,29.826,9.714,30,9.957,30h10.087c0.242,0,0.45-0.174,0.492-0.413
			l3.782-21.435C24.337,8.047,24.321,7.938,24.273,7.842z M18.38,26.591C18.337,26.828,18.13,27,17.889,27h-5.777
			c-0.241,0-0.448-0.172-0.492-0.409L8.339,8.816C8.321,8.715,8.333,8.611,8.376,8.518l2.386-5.225C10.844,3.114,11.021,3,11.217,3
			h7.565c0.195,0,0.373,0.114,0.455,0.292l2.387,5.225c0.042,0.093,0.056,0.197,0.036,0.298L18.38,26.591z"/>
	</g>
</g>
<g id="Dracula">
</g>
<g id="Frankenstein">
</g>
<g id="Layer_40">
</g>
<g id="Toilet_Paper">
</g>
<g id="Skull">
</g>
<g id="Skull_Cake">
</g>
<g id="Eyeball">
</g>
<g id="Castle">
</g>
<g id="Witch_x27_s_Hat">
</g>
<g id="Cobweb_1">
</g>
<g id="Cobweb_2">
</g>
<g id="Spider">
</g>
<g id="Full_Moon">
</g>
<g id="Crescent">
</g>
<g id="Crow">
</g>
<g id="Candy_Holder">
</g>
<g id="Bloody_Knife">
</g>
<g id="Bloody_Axe">
</g>
</svg>
