<?xml version="1.0" encoding="iso-8859-1"?>
<!-- Generator: Adobe Illustrator 19.2.1, SVG Export Plug-In . SVG Version: 6.00 Build 0)  -->
<svg version="1.1" xmlns="http://www.w3.org/2000/svg" xmlns:xlink="http://www.w3.org/1999/xlink" x="0px" y="0px"
	 viewBox="0 0 30 30" style="enable-background:new 0 0 30 30;" xml:space="preserve">
<g id="Pompkin">
</g>
<g id="Layer_10">
</g>
<g id="Bat">
</g>
<g id="Ghost">
</g>
<g id="Bone_Hand">
</g>
<g id="Tree_Ghost">
</g>
<g id="Gate">
</g>
<g id="Cemetery_1">
</g>
<g id="Cemetery_2">
</g>
<g id="Devil_x27_s_Fork">
</g>
<g id="Night_Candle">
</g>
<g id="Canlestick">
</g>
<g id="Black_Cat">
</g>
<g id="Witch_Cauldron">
</g>
<g id="Corn_Candy">
	<g>
		<path d="M16.323,8.869l-0.78,0.354l4.824,12.901c0.902,0.623,1.303,0.75,1.42,0.773c0.192-0.105,0.437-0.079,0.599,0.084
			c0.005,0.005,0.007,0.013,0.012,0.018l2.542-5.58c-1.137-0.365-3.031-1.417-5.1-3.486C17.98,12.073,16.701,10.201,16.323,8.869z"
			/>
		<path d="M20.931,23.632l0.527,1.409c0.002,0.004,0.002,0.008,0.004,0.012l0.535-1.173c-0.05,0.01-0.091,0.03-0.15,0.03
			C21.626,23.909,21.329,23.827,20.931,23.632z"/>
		<path d="M22.039,6.277L17.24,8.453c0.204,0.864,1.153,2.619,3.307,4.773c2.115,2.115,3.953,3.047,4.807,3.284l2.167-4.755
			c-0.903-0.207-1.916-0.916-3.251-2.251C22.968,8.202,22.267,7.198,22.039,6.277z"/>
		<path d="M26.915,4.302c-0.273,0-0.554,0.045-0.835,0.142l-3.111,1.411c0.086,0.597,0.525,1.459,2.008,2.942
			c1.321,1.322,2.24,1.95,2.973,2.016l1.408-3.09C29.954,5.995,28.587,4.302,26.915,4.302z"/>
		<path d="M10.639,9.654c2.09,0,3.159-0.27,3.573-0.903c0.017-0.026,0.042-0.042,0.063-0.064l-1.298-3.47
			c-0.466-0.956-1.392-1.434-2.318-1.434S8.807,4.26,8.341,5.216L7.023,8.721c0.002,0.002,0.004,0.003,0.006,0.005
			C7.377,9.185,8.079,9.654,10.639,9.654z"/>
		<path d="M10.638,15.928c3.286,0,5.261-0.822,5.657-1.197c0.058-0.055,0.127-0.089,0.199-0.111l-1.829-4.89
			c-0.719,0.646-1.945,0.924-4.026,0.924c-2.02,0-3.237-0.273-4.001-0.91l-1.837,4.885c0.076,0.026,0.148,0.065,0.206,0.128
			C5.421,15.209,7.315,15.928,10.638,15.928z"/>
		<path d="M2.623,21.286c0.434,0.342,3.105,0.933,8.016,0.933c4.911,0,7.583-0.591,8.016-0.933c0.032-0.126,0.115-0.227,0.223-0.294
			l-2.031-5.432c-0.742,0.568-2.915,1.368-6.207,1.368c-2.867,0-5.236-0.526-6.194-1.349l-2.037,5.417
			C2.511,21.063,2.591,21.163,2.623,21.286z"/>
		<path d="M19.262,22.021c-1.453,1.099-6.805,1.198-8.624,1.198c-1.816,0-7.158-0.099-8.618-1.194L0.755,25.39
			C-0.061,27.064,1.182,29,3.073,29h15.13c1.891,0,3.134-1.936,2.318-3.61L19.262,22.021z"/>
	</g>
</g>
<g id="Layer_29">
</g>
<g id="Bones">
</g>
<g id="Witch_Broom">
</g>
<g id="Owl">
</g>
<g id="Scythe">
</g>
<g id="Grim_Reaper">
</g>
<g id="Coffin">
</g>
<g id="Dracula">
</g>
<g id="Frankenstein">
</g>
<g id="Layer_40">
</g>
<g id="Toilet_Paper">
</g>
<g id="Skull">
</g>
<g id="Skull_Cake">
</g>
<g id="Eyeball">
</g>
<g id="Castle">
</g>
<g id="Witch_x27_s_Hat">
</g>
<g id="Cobweb_1">
</g>
<g id="Cobweb_2">
</g>
<g id="Spider">
</g>
<g id="Full_Moon">
</g>
<g id="Crescent">
</g>
<g id="Crow">
</g>
<g id="Candy_Holder">
</g>
<g id="Bloody_Knife">
</g>
<g id="Bloody_Axe">
</g>
</svg>
