<?xml version="1.0" encoding="iso-8859-1"?>
<!-- Generator: Adobe Illustrator 19.2.1, SVG Export Plug-In . SVG Version: 6.00 Build 0)  -->
<svg version="1.1" xmlns="http://www.w3.org/2000/svg" xmlns:xlink="http://www.w3.org/1999/xlink" x="0px" y="0px"
	 viewBox="0 0 30 30" style="enable-background:new 0 0 30 30;" xml:space="preserve">
<g id="Pompkin">
</g>
<g id="Layer_10">
</g>
<g id="Bat">
</g>
<g id="Ghost">
</g>
<g id="Bone_Hand">
</g>
<g id="Tree_Ghost">
</g>
<g id="Gate">
</g>
<g id="Cemetery_1">
</g>
<g id="Cemetery_2">
</g>
<g id="Devil_x27_s_Fork">
</g>
<g id="Night_Candle">
</g>
<g id="Canlestick">
</g>
<g id="Black_Cat">
</g>
<g id="Witch_Cauldron">
</g>
<g id="Corn_Candy">
</g>
<g id="Layer_29">
</g>
<g id="Bones">
</g>
<g id="Witch_Broom">
</g>
<g id="Owl">
</g>
<g id="Scythe">
</g>
<g id="Grim_Reaper">
</g>
<g id="Coffin">
</g>
<g id="Dracula">
</g>
<g id="Frankenstein">
</g>
<g id="Layer_40">
</g>
<g id="Toilet_Paper">
</g>
<g id="Skull">
</g>
<g id="Skull_Cake">
</g>
<g id="Eyeball">
</g>
<g id="Castle">
</g>
<g id="Witch_x27_s_Hat">
</g>
<g id="Cobweb_1">
</g>
<g id="Cobweb_2">
</g>
<g id="Spider">
</g>
<g id="Full_Moon">
</g>
<g id="Crescent">
	<g>
		<path d="M24.061,3.514c-0.602-0.23-1.246-0.478-1.932-0.767c-0.215-0.09-0.46-0.022-0.597,0.164
			c-0.137,0.186-0.129,0.441,0.02,0.618c0.452,0.54,0.57,1.03,0.359,1.501c-0.313,0.699-1.238,1.203-1.999,1.386
			c0-0.749,0.001-1.947,0.001-1.947c0-0.232-0.159-0.434-0.385-0.487c-0.227-0.055-0.459,0.055-0.563,0.263l-0.484,0.969
			c-0.21-0.006-0.461-0.004-0.667,0.001l-0.481-0.906c-0.107-0.202-0.341-0.304-0.563-0.251c-0.223,0.056-0.379,0.256-0.379,0.486
			c0,0,0.001,1.144,0.001,1.872c-0.761-0.183-1.687-0.687-2-1.386C14.182,4.56,14.3,4.069,14.752,3.529
			c0.148-0.177,0.157-0.432,0.02-0.618s-0.383-0.251-0.597-0.164c-0.686,0.289-1.331,0.536-1.932,0.767
			C9.179,4.689,6.964,5.539,6.311,9.43C6.285,9.583,6.333,9.74,6.439,9.854c0.107,0.114,0.268,0.168,0.416,0.156
			c2.042-0.21,4.005-0.237,4.535,0.965c0.101,0.229,0.355,0.35,0.594,0.279c0.542-0.153,1.666-0.04,2.269,0.494
			c0.373,0.33,0.509,0.777,0.417,1.365c-0.033,0.208,0.069,0.415,0.254,0.517c0.185,0.101,0.413,0.075,0.572-0.065
			c0.338-0.3,1.07-0.454,1.628-0.203c0.441,0.198,0.666,0.6,0.666,1.194c0,0.276,0.224,0.5,0.5,0.5s0.5-0.224,0.5-0.5
			c0-0.604,0.241-1.028,0.696-1.226c0.507-0.221,1.22-0.119,1.588,0.225c0.152,0.143,0.379,0.176,0.562,0.084
			c0.187-0.091,0.298-0.289,0.278-0.496c-0.059-0.621,0.302-1.062,0.614-1.322c0.576-0.48,1.394-0.681,1.792-0.567
			c0.195,0.054,0.4-0.011,0.527-0.168c0.968-1.21,3.064-1.337,4.569-1.081c0.152,0.028,0.322-0.024,0.437-0.139
			c0.115-0.114,0.167-0.277,0.141-0.437C29.34,5.539,27.126,4.689,24.061,3.514z"/>
		<path d="M27.146,19.094c-4.921,1.868-10.496,0.677-14.207-3.034c-1.439-1.439-2.513-3.167-3.169-5.064
			c-0.519-0.108-1.378-0.138-2.814,0.009c-0.473,0.044-0.935-0.134-1.246-0.465C5.392,10.2,5.248,9.723,5.325,9.264
			c0.537-3.198,2.08-4.63,4.06-5.628c0.135-0.614,0.305-1.211,0.522-1.782c0.07-0.184,0.025-0.392-0.114-0.531
			c-0.139-0.14-0.345-0.185-0.531-0.114C7.345,1.937,5.645,3.034,4.208,4.47c-5.603,5.603-5.603,14.719,0,20.321
			C6.922,27.506,10.531,29,14.37,29s7.447-1.494,10.161-4.209c1.437-1.437,2.533-3.136,3.262-5.052
			c0.069-0.185,0.025-0.392-0.114-0.531S27.33,19.025,27.146,19.094z M9.326,23.957c-1.667,0-3.022-1.355-3.022-3.022
			c0-1.666,1.355-3.021,3.022-3.021c1.666,0,3.021,1.355,3.021,3.021C12.348,22.602,10.992,23.957,9.326,23.957z M16.892,25.218
			c-0.971,0-1.761-0.79-1.761-1.761c0-0.972,0.79-1.762,1.761-1.762c0.971,0,1.761,0.79,1.761,1.762
			C18.652,24.428,17.862,25.218,16.892,25.218z"/>
	</g>
</g>
<g id="Crow">
</g>
<g id="Candy_Holder">
</g>
<g id="Bloody_Knife">
</g>
<g id="Bloody_Axe">
</g>
</svg>
