<?xml version="1.0" encoding="iso-8859-1"?>
<!-- Generator: Adobe Illustrator 19.2.1, SVG Export Plug-In . SVG Version: 6.00 Build 0)  -->
<svg version="1.1" xmlns="http://www.w3.org/2000/svg" xmlns:xlink="http://www.w3.org/1999/xlink" x="0px" y="0px"
	 viewBox="0 0 30 30" style="enable-background:new 0 0 30 30;" xml:space="preserve">
<g id="Pompkin">
</g>
<g id="Layer_10">
</g>
<g id="Bat">
</g>
<g id="Ghost">
</g>
<g id="Bone_Hand">
</g>
<g id="Tree_Ghost">
</g>
<g id="Gate">
</g>
<g id="Cemetery_1">
</g>
<g id="Cemetery_2">
</g>
<g id="Devil_x27_s_Fork">
</g>
<g id="Night_Candle">
</g>
<g id="Canlestick">
</g>
<g id="Black_Cat">
</g>
<g id="Witch_Cauldron">
</g>
<g id="Corn_Candy">
</g>
<g id="Layer_29">
</g>
<g id="Bones">
</g>
<g id="Witch_Broom">
</g>
<g id="Owl">
</g>
<g id="Scythe">
</g>
<g id="Grim_Reaper">
</g>
<g id="Coffin">
</g>
<g id="Dracula">
</g>
<g id="Frankenstein">
</g>
<g id="Layer_40">
</g>
<g id="Toilet_Paper">
</g>
<g id="Skull">
</g>
<g id="Skull_Cake">
</g>
<g id="Eyeball">
</g>
<g id="Castle">
</g>
<g id="Witch_x27_s_Hat">
</g>
<g id="Cobweb_1">
</g>
<g id="Cobweb_2">
</g>
<g id="Spider">
</g>
<g id="Full_Moon">
</g>
<g id="Crescent">
</g>
<g id="Crow">
	<path d="M29.938,28.475c-0.829-1.516-3.634-3.233-5.682-4.487c-0.887-0.543-1.725-1.056-1.969-1.3
		c-0.522-0.522-1.184-1.982-2.099-4.002c-0.454-1.003-0.976-2.153-1.586-3.426c-1.057-2.201-3.009-4.609-4.732-6.734
		c-1.308-1.614-2.544-3.138-2.811-3.927c-0.777-2.303-2.734-3.574-5.417-3.496C3.788,0.257,2.301-0.263,0.318,0.51
		C0.128,0.584,0.003,0.766,0,0.969s0.117,0.388,0.304,0.467c0.551,0.234,0.923,0.76,1.317,1.317C2.108,3.443,2.65,4.209,3.613,4.508
		c-1.96,5.624-1.232,10.687,2.167,15.058c0.708,0.911,1.817,1.642,3.055,2.252c0.001,0.016-0.004,0.031-0.002,0.047
		c0.2,1.179-0.216,3.446-0.944,5.337l-1.992-1.992c-0.195-0.195-0.512-0.195-0.707,0s-0.195,0.512,0,0.707l1.246,1.246l-3.293-0.823
		c-0.269-0.067-0.54,0.096-0.606,0.364c-0.067,0.268,0.096,0.539,0.364,0.606l3.376,0.844l-2.153,0.718
		c-0.262,0.088-0.403,0.371-0.316,0.633c0.07,0.209,0.265,0.342,0.474,0.342c0.052,0,0.105-0.008,0.158-0.025l3.706-1.235h2.44
		c0.276,0,0.5-0.224,0.5-0.5s-0.224-0.5-0.5-0.5H8.812c0.706-1.813,1.121-3.874,1.064-5.291c1.5,0.628,3.087,1.102,4.365,1.48
		c0.325,0.096,0.616,0.183,0.89,0.267v1.974l-1.798-0.899c-0.247-0.125-0.547-0.022-0.671,0.224
		c-0.124,0.247-0.023,0.547,0.224,0.671l1.147,0.574l-2.266,0.377c-0.272,0.045-0.457,0.303-0.411,0.575
		c0.045,0.273,0.302,0.457,0.575,0.411l2.815-0.469l-0.191,0.383c-0.124,0.247-0.023,0.547,0.224,0.671
		c0.072,0.036,0.148,0.053,0.223,0.053c0.184,0,0.36-0.102,0.448-0.276l0.32-0.641l0.771,0.771c0.098,0.098,0.226,0.146,0.354,0.146
		s0.256-0.049,0.354-0.146c0.195-0.195,0.195-0.512,0-0.707l-1.115-1.115v-2.118c0.699,0.51,1.376,1.409,2.035,2.288
		c1.103,1.469,2.241,2.987,3.746,3.058c0.021,0.001,0.564,0.017,1.361,0.017c0.562,0,1.25-0.008,1.969-0.033
		c-1.132-0.821-2.383-2.088-3.518-3.241c-0.777-0.789-1.512-1.534-1.979-1.885c-0.221-0.166-0.266-0.479-0.101-0.7
		c0.167-0.221,0.48-0.265,0.7-0.101c0.528,0.396,1.253,1.132,2.093,1.984c1.36,1.381,3.054,3.1,4.25,3.662
		c0.088,0.041,0.151,0.11,0.2,0.186c1.588-0.132,2.972-0.392,3.099-0.898C30.016,28.714,29.999,28.585,29.938,28.475z M7.435,2.867
		c0.348,0,0.63,0.282,0.63,0.63c0,0.348-0.282,0.63-0.63,0.63c-0.348,0-0.63-0.282-0.63-0.63C6.804,3.149,7.087,2.867,7.435,2.867z
		 M18.48,20.267c-0.586,0.508-1.421,0.782-2.348,0.782c-0.183,0-0.37-0.011-0.56-0.032c-4.648-0.537-8.234-4.481-9.249-7.921
		c-0.078-0.265,0.073-0.543,0.338-0.621c0.269-0.079,0.544,0.074,0.621,0.338c0.791,2.683,3.921,6.692,8.404,7.21
		c0.868,0.103,1.646-0.086,2.137-0.512c0.209-0.181,0.523-0.158,0.706,0.05C18.711,19.77,18.688,20.085,18.48,20.267z"/>
</g>
<g id="Candy_Holder">
</g>
<g id="Bloody_Knife">
</g>
<g id="Bloody_Axe">
</g>
</svg>
