<?xml version="1.0" encoding="iso-8859-1"?>
<!-- Generator: Adobe Illustrator 19.2.1, SVG Export Plug-In . SVG Version: 6.00 Build 0)  -->
<svg version="1.1" xmlns="http://www.w3.org/2000/svg" xmlns:xlink="http://www.w3.org/1999/xlink" x="0px" y="0px"
	 viewBox="0 0 30 30" style="enable-background:new 0 0 30 30;" xml:space="preserve">
<g id="Pompkin">
</g>
<g id="Layer_10">
</g>
<g id="Bat">
</g>
<g id="Ghost">
</g>
<g id="Bone_Hand">
</g>
<g id="Tree_Ghost">
</g>
<g id="Gate">
</g>
<g id="Cemetery_1">
</g>
<g id="Cemetery_2">
</g>
<g id="Devil_x27_s_Fork">
	<path d="M29.854,29.146l-8.446-8.446c-0.229-0.418-0.111-1.312,0.006-2.184c0.175-1.291,0.373-2.754-0.325-3.795
		c-0.011-0.016-0.028-0.025-0.04-0.04c0.24-0.832,0.369-1.701,0.369-2.591c0-2.491-0.971-4.833-2.732-6.594l-3.529-3.53
		c0.196-0.049,0.395-0.072,0.513-0.075c0.243-0.006,0.447-0.186,0.482-0.426c0.036-0.24-0.105-0.471-0.335-0.548L13.14,0.026
		c-0.18-0.061-0.378-0.013-0.512,0.121c-0.134,0.134-0.181,0.332-0.121,0.512l0.892,2.675c0.069,0.207,0.262,0.342,0.474,0.342
		c0.025,0,0.05-0.002,0.076-0.006c0.24-0.036,0.42-0.241,0.425-0.484c0.002-0.113,0.025-0.314,0.075-0.511l3.529,3.529
		c1.573,1.573,2.439,3.664,2.439,5.887c0,2.056-0.748,3.993-2.103,5.517l-9.4-9.4C9.11,8.158,9.309,8.135,9.427,8.132
		C9.67,8.126,9.874,7.946,9.909,7.706c0.036-0.24-0.105-0.471-0.335-0.548L6.899,6.267c-0.18-0.062-0.378-0.014-0.512,0.121
		C6.254,6.521,6.207,6.72,6.267,6.899l0.891,2.674C7.227,9.78,7.419,9.915,7.632,9.915c0.024,0,0.049-0.002,0.074-0.006
		c0.24-0.036,0.42-0.239,0.426-0.482C8.135,9.309,8.158,9.11,8.207,8.914l9.4,9.4c-1.524,1.355-3.46,2.102-5.517,2.102
		c-2.224,0-4.314-0.865-5.887-2.438l-3.53-3.529c0.196-0.049,0.395-0.072,0.513-0.075c0.243-0.006,0.447-0.186,0.482-0.426
		c0.036-0.24-0.105-0.471-0.335-0.548l-2.675-0.892c-0.18-0.062-0.378-0.014-0.512,0.121c-0.134,0.134-0.181,0.332-0.121,0.512
		l0.892,2.675c0.069,0.207,0.262,0.342,0.474,0.342c0.025,0,0.05-0.002,0.076-0.006c0.24-0.037,0.42-0.241,0.425-0.484
		c0.002-0.113,0.025-0.314,0.075-0.512l3.53,3.529c1.761,1.762,4.104,2.731,6.594,2.731c0.73,0,1.444-0.093,2.138-0.255
		c0.541,0.312,1.205,0.422,1.93,0.422c0.666,0,1.379-0.085,2.08-0.168c0.952-0.112,2.024-0.239,2.457-0.013l8.451,8.451
		C29.244,29.951,29.372,30,29.5,30s0.256-0.049,0.354-0.146C30.049,29.658,30.049,29.342,29.854,29.146z M1.588,13.872
		c-0.036,0.03-0.071,0.061-0.104,0.094S1.419,14.034,1.39,14.07l-0.099-0.297L1.588,13.872z M20.53,16.045
		c0.112,0.694,0,1.551-0.106,2.338c-0.057,0.42-0.1,0.823-0.123,1.211l-1.279-1.279C19.64,17.627,20.145,16.864,20.53,16.045z
		 M18.12,20.422c-0.723,0.086-1.496,0.174-2.168,0.151c0.854-0.389,1.648-0.91,2.361-1.552l1.276,1.276
		C19.134,20.316,18.65,20.359,18.12,20.422z"/>
</g>
<g id="Night_Candle">
</g>
<g id="Canlestick">
</g>
<g id="Black_Cat">
</g>
<g id="Witch_Cauldron">
</g>
<g id="Corn_Candy">
</g>
<g id="Layer_29">
</g>
<g id="Bones">
</g>
<g id="Witch_Broom">
</g>
<g id="Owl">
</g>
<g id="Scythe">
</g>
<g id="Grim_Reaper">
</g>
<g id="Coffin">
</g>
<g id="Dracula">
</g>
<g id="Frankenstein">
</g>
<g id="Layer_40">
</g>
<g id="Toilet_Paper">
</g>
<g id="Skull">
</g>
<g id="Skull_Cake">
</g>
<g id="Eyeball">
</g>
<g id="Castle">
</g>
<g id="Witch_x27_s_Hat">
</g>
<g id="Cobweb_1">
</g>
<g id="Cobweb_2">
</g>
<g id="Spider">
</g>
<g id="Full_Moon">
</g>
<g id="Crescent">
</g>
<g id="Crow">
</g>
<g id="Candy_Holder">
</g>
<g id="Bloody_Knife">
</g>
<g id="Bloody_Axe">
</g>
</svg>
