<?xml version="1.0" encoding="iso-8859-1"?>
<!-- Generator: Adobe Illustrator 19.2.1, SVG Export Plug-In . SVG Version: 6.00 Build 0)  -->
<svg version="1.1" xmlns="http://www.w3.org/2000/svg" xmlns:xlink="http://www.w3.org/1999/xlink" x="0px" y="0px"
	 viewBox="0 0 30 30" style="enable-background:new 0 0 30 30;" xml:space="preserve">
<g id="Pompkin">
</g>
<g id="Layer_10">
</g>
<g id="Bat">
</g>
<g id="Ghost">
</g>
<g id="Bone_Hand">
</g>
<g id="Tree_Ghost">
</g>
<g id="Gate">
</g>
<g id="Cemetery_1">
</g>
<g id="Cemetery_2">
</g>
<g id="Devil_x27_s_Fork">
</g>
<g id="Night_Candle">
</g>
<g id="Canlestick">
</g>
<g id="Black_Cat">
</g>
<g id="Witch_Cauldron">
</g>
<g id="Corn_Candy">
</g>
<g id="Layer_29">
</g>
<g id="Bones">
</g>
<g id="Witch_Broom">
</g>
<g id="Owl">
</g>
<g id="Scythe">
</g>
<g id="Grim_Reaper">
</g>
<g id="Coffin">
</g>
<g id="Dracula">
	<g>
		<path d="M9.957,12.348c0.231,0,0.624,0.126,1.062,0.303c-0.177,0.077-0.301,0.253-0.301,0.458c0,0.276,0.224,0.5,0.5,0.5h0.63
			c0.225,0,0.408-0.151,0.471-0.355c0.198,0.102,0.387,0.202,0.546,0.291c0.077,0.043,0.161,0.064,0.244,0.064
			c0.175,0,0.345-0.092,0.437-0.255c0.135-0.241,0.049-0.545-0.191-0.681c-0.394-0.221-2.41-1.325-3.397-1.325
			c-0.276,0-0.5,0.224-0.5,0.5S9.68,12.348,9.957,12.348z"/>
		<path d="M16.892,13.609c0.083,0,0.167-0.021,0.245-0.064c0.163-0.092,0.351-0.191,0.545-0.291
			c0.063,0.204,0.246,0.354,0.471,0.354h0.63c0.276,0,0.5-0.224,0.5-0.5c0-0.205-0.123-0.379-0.299-0.456
			c0.443-0.179,0.837-0.305,1.061-0.305c0.276,0,0.5-0.224,0.5-0.5s-0.224-0.5-0.5-0.5c-0.987,0-3.003,1.104-3.397,1.325
			c-0.24,0.135-0.326,0.44-0.19,0.681C16.547,13.517,16.717,13.609,16.892,13.609z"/>
		<path d="M11.414,21.55c0.135,0.239,0.44,0.324,0.68,0.19c0.004-0.002,0.186-0.098,0.516-0.209v0.403c0,0.276,0.224,0.5,0.5,0.5
			s0.5-0.224,0.5-0.5v-0.63c0-0.005-0.003-0.01-0.003-0.016c0.395-0.067,0.855-0.115,1.394-0.115c0.539,0,1,0.049,1.395,0.115
			c0,0.005-0.003,0.01-0.003,0.015v0.63c0,0.276,0.224,0.5,0.5,0.5s0.5-0.224,0.5-0.5v-0.403c0.329,0.111,0.51,0.205,0.513,0.207
			c0.078,0.045,0.163,0.066,0.248,0.066c0.173,0,0.342-0.091,0.434-0.252c0.138-0.239,0.055-0.545-0.186-0.682
			c-0.05-0.029-1.243-0.697-3.4-0.697c-2.157,0-3.351,0.668-3.4,0.697C11.361,21.007,11.278,21.311,11.414,21.55z"/>
		<path d="M27.202,21.487l-3.464-1.731c1.447-0.632,2.48-3.051,2.48-4.126c0-0.887-0.153-2.096-1.291-2.788
			c0.307-1.961,0.88-6.679-1.788-9.815C21.43,1.019,18.691,0,15,0S8.57,1.019,6.861,3.027c-2.668,3.136-2.095,7.855-1.788,9.816
			c-1.138,0.691-1.29,1.9-1.29,2.787c0,1.075,1.033,3.494,2.479,4.126l-3.464,1.731c-0.167,0.084-0.274,0.255-0.276,0.442
			s0.101,0.36,0.267,0.447l4.701,2.475c-0.062,0.116-0.081,0.255-0.037,0.39c0.439,1.358-0.534,3.053-1.083,4.01
			c-0.138,0.239-0.042,0.522,0.198,0.659c0.073,0.042,0.153,0.062,0.233,0.062c0.184,0,0.367-0.103,0.463-0.269
			c0.55-0.958,1.518-2.671,1.235-4.321l6.268,3.299C14.84,28.72,14.92,28.739,15,28.739s0.16-0.02,0.233-0.058l6.275-3.303
			c-0.317,1.665,0.772,3.386,1.419,4.392l0.421-0.271l0.389-0.319c-0.581-0.904-1.664-2.589-1.18-3.923
			c0.052-0.142,0.03-0.289-0.038-0.411l4.692-2.47c0.166-0.087,0.27-0.26,0.268-0.447S27.37,21.571,27.202,21.487z M4.783,15.63
			c0-1.145,0.301-1.743,1.039-2.063c0.016-0.007,0.027-0.021,0.042-0.029c0.02-0.011,0.036-0.024,0.054-0.038
			c0.06-0.045,0.108-0.1,0.142-0.165c0.004-0.009,0.014-0.012,0.018-0.021l0.28-0.62c1.532-3.403,2.545-5.651,4.125-6.235
			c1.011-0.375,2.339-0.129,4.305,0.797c0.135,0.063,0.291,0.063,0.426,0c1.966-0.926,3.293-1.172,4.306-0.797
			c1.58,0.584,2.592,2.833,4.125,6.236l0.278,0.619c0.004,0.008,0.013,0.011,0.017,0.019c0.039,0.076,0.097,0.138,0.171,0.187
			c0.016,0.01,0.027,0.022,0.043,0.03c0.009,0.005,0.015,0.013,0.025,0.018c0.738,0.32,1.039,0.918,1.039,2.063
			c0,0.953-1.163,3.283-2.18,3.283c-0.188,0-0.359,0.105-0.445,0.272l-0.063,0.125c-0.737,1.459-1.552,2.648-2.439,3.569
			c-0.023,0.023-0.047,0.045-0.07,0.068c-0.254,0.259-0.515,0.492-0.78,0.706c-0.074,0.059-0.151,0.116-0.227,0.173
			C18.783,24,18.548,24.159,18.308,24.3c-0.091,0.054-0.185,0.104-0.28,0.154c-0.246,0.13-0.495,0.246-0.749,0.342
			c-0.084,0.032-0.17,0.06-0.256,0.088c-0.281,0.093-0.566,0.172-0.857,0.225c-0.056,0.01-0.114,0.016-0.171,0.025
			c-0.327,0.05-0.657,0.084-0.996,0.084c-0.338,0-0.668-0.034-0.995-0.084c-0.057-0.009-0.116-0.015-0.173-0.025
			c-0.29-0.053-0.574-0.132-0.855-0.224c-0.086-0.029-0.172-0.057-0.256-0.089c-0.254-0.096-0.503-0.212-0.749-0.342
			c-0.094-0.05-0.188-0.1-0.28-0.154c-0.239-0.141-0.474-0.299-0.705-0.472c-0.076-0.057-0.153-0.114-0.227-0.173
			c-0.266-0.215-0.527-0.448-0.781-0.707c-0.023-0.023-0.047-0.044-0.069-0.067c-0.887-0.921-1.702-2.11-2.44-3.568l-0.064-0.126
			c-0.086-0.167-0.258-0.272-0.445-0.272C5.946,18.913,4.783,16.583,4.783,15.63z"/>
	</g>
</g>
<g id="Frankenstein">
</g>
<g id="Layer_40">
</g>
<g id="Toilet_Paper">
</g>
<g id="Skull">
</g>
<g id="Skull_Cake">
</g>
<g id="Eyeball">
</g>
<g id="Castle">
</g>
<g id="Witch_x27_s_Hat">
</g>
<g id="Cobweb_1">
</g>
<g id="Cobweb_2">
</g>
<g id="Spider">
</g>
<g id="Full_Moon">
</g>
<g id="Crescent">
</g>
<g id="Crow">
</g>
<g id="Candy_Holder">
</g>
<g id="Bloody_Knife">
</g>
<g id="Bloody_Axe">
</g>
</svg>
