<?xml version="1.0" encoding="iso-8859-1"?>
<!-- Generator: Adobe Illustrator 19.2.1, SVG Export Plug-In . SVG Version: 6.00 Build 0)  -->
<svg version="1.1" xmlns="http://www.w3.org/2000/svg" xmlns:xlink="http://www.w3.org/1999/xlink" x="0px" y="0px"
	 viewBox="0 0 30 30" style="enable-background:new 0 0 30 30;" xml:space="preserve">
<g id="Pompkin">
</g>
<g id="Layer_10">
</g>
<g id="Bat">
</g>
<g id="Ghost">
</g>
<g id="Bone_Hand">
</g>
<g id="Tree_Ghost">
</g>
<g id="Gate">
</g>
<g id="Cemetery_1">
</g>
<g id="Cemetery_2">
</g>
<g id="Devil_x27_s_Fork">
</g>
<g id="Night_Candle">
</g>
<g id="Canlestick">
</g>
<g id="Black_Cat">
</g>
<g id="Witch_Cauldron">
</g>
<g id="Corn_Candy">
</g>
<g id="Layer_29">
</g>
<g id="Bones">
</g>
<g id="Witch_Broom">
</g>
<g id="Owl">
</g>
<g id="Scythe">
</g>
<g id="Grim_Reaper">
</g>
<g id="Coffin">
</g>
<g id="Dracula">
</g>
<g id="Frankenstein">
</g>
<g id="Layer_40">
</g>
<g id="Toilet_Paper">
</g>
<g id="Skull">
</g>
<g id="Skull_Cake">
</g>
<g id="Eyeball">
	<g>
		<path d="M22.565,19.892c2.014,0,3.652-1.639,3.652-3.652s-1.639-3.652-3.652-3.652s-3.652,1.638-3.652,3.652
			S20.552,19.892,22.565,19.892z M23.826,15.109c0.623,0,1.13,0.507,1.13,1.13c0,0.624-0.507,1.131-1.13,1.131
			c-0.624,0-1.131-0.507-1.131-1.131C22.695,15.616,23.202,15.109,23.826,15.109z"/>
		<path d="M9.326,17.37c2.361,0,4.283-1.921,4.283-4.283s-1.921-4.283-4.283-4.283c-2.361,0-4.283,1.921-4.283,4.283
			S6.965,17.37,9.326,17.37z M9.326,11.957c0.623,0,1.13,0.507,1.13,1.13s-0.507,1.13-1.13,1.13s-1.13-0.507-1.13-1.13
			S8.703,11.957,9.326,11.957z"/>
		<path d="M26.859,18.918c0.393-0.812,0.62-1.718,0.62-2.679c0-3.404-2.77-6.173-6.174-6.173c-1.507,0-2.932,0.562-4.053,1.557
			c-0.692-3.749-3.979-6.601-7.926-6.601c-4.447,0-8.065,3.618-8.065,8.065c0,1.618,0.484,3.124,1.308,4.388
			c-0.592,0.034-1.317,0.183-1.853,0.684C0.241,18.602,0,19.229,0,20.022c0,3.806,13.748,4.868,14.333,4.912
			c0.359,0.026,0.771,0.04,1.226,0.039c4.563,0,13.364-1.344,14.41-4.146C29.989,20.771,30,20.712,30,20.652
			C30,20.063,29.442,19.535,26.859,18.918z M21.305,11.066c2.853,0,5.174,2.321,5.174,5.173s-2.321,5.174-5.174,5.174
			c-2.498,0-4.591-1.765-5.053-4.214c0.719-1.206,1.14-2.609,1.14-4.112c0-0.059-0.008-0.116-0.009-0.175
			C18.377,11.74,19.793,11.066,21.305,11.066z M6.304,6.711v1.333c0,0.276,0.224,0.5,0.5,0.5s0.5-0.224,0.5-0.5V6.321
			c0.641-0.192,1.319-0.298,2.022-0.298c0.411,0,0.812,0.043,1.204,0.11L9.603,7.06c-0.195,0.195-0.195,0.512,0,0.707
			c0.098,0.098,0.226,0.146,0.354,0.146c0.114,0,0.225-0.045,0.317-0.122c0.029,0.024,0.054,0.052,0.089,0.07l1.261,0.63
			c0.072,0.036,0.148,0.053,0.223,0.053c0.184,0,0.36-0.101,0.448-0.276c0.124-0.247,0.023-0.547-0.224-0.671l-1.061-0.53l0.56-0.56
			c0.027-0.027,0.041-0.06,0.06-0.09c1.436,0.497,2.664,1.441,3.512,2.669l-1.126,1.127c-0.195,0.195-0.195,0.512,0,0.707
			c0.098,0.098,0.226,0.146,0.354,0.146s0.256-0.049,0.354-0.146l0.939-0.939c0.421,0.854,0.672,1.804,0.715,2.809
			c0,0.002,0,0.003,0,0.005c0.004,0.098,0.015,0.194,0.015,0.293c0,0.411-0.043,0.812-0.111,1.205l-0.297-0.297
			c-0.195-0.195-0.512-0.195-0.707,0c-0.195,0.195-0.195,0.512,0,0.707l0.63,0.631c0.027,0.027,0.06,0.041,0.09,0.06
			c-0.525,1.513-1.547,2.793-2.874,3.643l0.459-1.376c0.087-0.262-0.054-0.545-0.316-0.633c-0.261-0.087-0.545,0.054-0.632,0.316
			l-0.631,1.891c-0.043,0.13-0.03,0.265,0.026,0.379c-0.776,0.323-1.622,0.505-2.507,0.53l-0.532-0.532l1.123-0.374
			c0.262-0.088,0.403-0.371,0.316-0.633s-0.368-0.404-0.633-0.316L8.2,18.819l-1.042-1.042c-0.195-0.195-0.512-0.195-0.707,0
			s-0.195,0.512,0,0.707l1.537,1.537c-1.554-0.299-2.923-1.11-3.936-2.249c-0.044-0.096-0.11-0.172-0.196-0.221
			c-0.727-0.888-1.239-1.957-1.465-3.127l0.907,0.907c0.098,0.098,0.226,0.146,0.354,0.146s0.256-0.049,0.354-0.146
			c0.195-0.195,0.195-0.512,0-0.707L3,13.619l0.47-0.939c0.124-0.247,0.023-0.547-0.224-0.671s-0.547-0.023-0.671,0.224
			l-0.301,0.602c0.036-1.022,0.29-1.987,0.717-2.855l0.939,0.939c0.098,0.098,0.226,0.146,0.354,0.146s0.256-0.049,0.354-0.146
			c0.195-0.195,0.195-0.512,0-0.707L3.51,9.086C4.213,8.067,5.178,7.247,6.304,6.711z"/>
	</g>
</g>
<g id="Castle">
</g>
<g id="Witch_x27_s_Hat">
</g>
<g id="Cobweb_1">
</g>
<g id="Cobweb_2">
</g>
<g id="Spider">
</g>
<g id="Full_Moon">
</g>
<g id="Crescent">
</g>
<g id="Crow">
</g>
<g id="Candy_Holder">
</g>
<g id="Bloody_Knife">
</g>
<g id="Bloody_Axe">
</g>
</svg>
