<?xml version="1.0" encoding="iso-8859-1"?>
<!-- Generator: Adobe Illustrator 19.2.1, SVG Export Plug-In . SVG Version: 6.00 Build 0)  -->
<svg version="1.1" xmlns="http://www.w3.org/2000/svg" xmlns:xlink="http://www.w3.org/1999/xlink" x="0px" y="0px"
	 viewBox="0 0 30 30" style="enable-background:new 0 0 30 30;" xml:space="preserve">
<g id="Pompkin">
</g>
<g id="Layer_10">
</g>
<g id="Bat">
</g>
<g id="Ghost">
</g>
<g id="Bone_Hand">
</g>
<g id="Tree_Ghost">
</g>
<g id="Gate">
</g>
<g id="Cemetery_1">
</g>
<g id="Cemetery_2">
</g>
<g id="Devil_x27_s_Fork">
</g>
<g id="Night_Candle">
</g>
<g id="Canlestick">
</g>
<g id="Black_Cat">
</g>
<g id="Witch_Cauldron">
</g>
<g id="Corn_Candy">
</g>
<g id="Layer_29">
</g>
<g id="Bones">
</g>
<g id="Witch_Broom">
</g>
<g id="Owl">
</g>
<g id="Scythe">
</g>
<g id="Grim_Reaper">
</g>
<g id="Coffin">
</g>
<g id="Dracula">
</g>
<g id="Frankenstein">
	<g>
		<path d="M23.267,20.31c0.044-0.158,0.088-0.311,0.128-0.436c1.625-0.36,2.823-3.085,2.823-4.244c0-0.88-0.149-2.077-1.262-2.771
			C24.955,2.735,24.874,0,15,0C5.126,0,5.044,2.736,5.044,12.859c-1.112,0.694-1.261,1.891-1.261,2.771
			c0,1.161,1.201,3.892,2.83,4.245c0.04,0.113,0.082,0.246,0.13,0.396C7.052,21.226,7.592,22.868,9,24.186V26H7
			c0-0.276-0.224-0.5-0.5-0.5S6,25.724,6,26v2c0,0.276,0.224,0.5,0.5,0.5S7,28.276,7,28v-1h2v2.5C9,29.776,9.224,30,9.5,30
			s0.5-0.224,0.5-0.5v-4.545c1.177,0.744,2.776,1.262,5,1.262c2.228,0,3.827-0.478,5-1.172V29.5c0,0.276,0.224,0.5,0.5,0.5
			s0.5-0.224,0.5-0.5V27h2v1c0,0.276,0.224,0.5,0.5,0.5S24,28.276,24,28v-2c0-0.276-0.224-0.5-0.5-0.5S23,25.724,23,26h-2v-1.671
			C22.502,23,22.989,21.29,23.267,20.31z M7.694,19.963c-0.108-0.336-0.199-0.604-0.287-0.777c-0.086-0.167-0.258-0.272-0.445-0.272
			c-1.016,0-2.179-2.33-2.179-3.283c0-1.145,0.301-1.743,1.039-2.063c0.253-0.11,0.369-0.404,0.259-0.658
			c-0.009-0.021-0.026-0.034-0.037-0.053c0-2.233,0.009-4.052,0.113-5.542l0.972,0.243L6.987,7.842
			C6.864,8.089,6.964,8.389,7.211,8.513c0.072,0.036,0.148,0.053,0.223,0.053c0.184,0,0.36-0.101,0.448-0.276l0.241-0.482
			l1.528,0.382L9.509,8.472C9.386,8.719,9.486,9.02,9.733,9.143c0.072,0.036,0.148,0.053,0.223,0.053
			c0.184,0,0.36-0.101,0.448-0.276l0.241-0.482l1.528,0.382l-0.142,0.283c-0.124,0.247-0.023,0.547,0.224,0.671
			c0.072,0.036,0.148,0.053,0.223,0.053c0.184,0,0.36-0.101,0.448-0.276l0.241-0.482l0.452,0.113
			c0.041,0.01,0.082,0.015,0.122,0.015c0.224,0,0.428-0.151,0.484-0.379c0.067-0.268-0.096-0.539-0.364-0.606l-0.265-0.066
			c0.034-0.21-0.062-0.426-0.263-0.526c-0.247-0.123-0.547-0.023-0.671,0.224l-0.031,0.062l-1.557-0.389
			c0.034-0.21-0.062-0.426-0.263-0.527c-0.247-0.122-0.547-0.023-0.671,0.224l-0.031,0.062L8.552,6.884
			c0.034-0.21-0.062-0.426-0.263-0.527C8.042,6.235,7.742,6.333,7.618,6.581L7.587,6.642L6.295,6.319
			c-0.015-0.004-0.029,0-0.044-0.002c0.012-0.102,0.023-0.208,0.036-0.306C6.339,5.999,6.392,5.997,6.44,5.967
			c1.324-0.834,4.433-1.952,5.054-1.331c0.149,0.149,0.375,0.189,0.565,0.1c1.65-0.77,4.234-0.769,5.881,0
			c0.192,0.089,0.418,0.048,0.565-0.1c0.621-0.625,3.73,0.497,5.054,1.33c0.049,0.031,0.102,0.046,0.155,0.059
			c0.229,1.686,0.241,3.909,0.241,6.832c-0.011,0.019-0.028,0.032-0.037,0.053c-0.109,0.253,0.007,0.548,0.26,0.658
			c0.738,0.32,1.039,0.918,1.039,2.063c0,0.953-1.163,3.283-2.18,3.283c-0.188,0-0.359,0.105-0.445,0.272
			c-0.107,0.21-0.188,0.493-0.289,0.853c-0.272,0.965-0.679,2.372-1.878,3.477c-0.186,0.029-0.336,0.153-0.394,0.328
			c-1.058,0.799-2.626,1.375-5.032,1.375C9.393,25.218,8.246,21.668,7.694,19.963z"/>
		<path d="M13.5,11.5c0-0.276-0.224-0.5-0.5-0.5h-3c-0.276,0-0.5,0.224-0.5,0.5S9.724,12,10,12h3C13.276,12,13.5,11.776,13.5,11.5z"
			/>
		<path d="M17,12h3c0.276,0,0.5-0.224,0.5-0.5S20.276,11,20,11h-3c-0.276,0-0.5,0.224-0.5,0.5S16.724,12,17,12z"/>
		<path d="M18.5,20h-7c-0.276,0-0.5,0.224-0.5,0.5V21c0,0.276,0.224,0.5,0.5,0.5S12,21.276,12,21h6c0,0.276,0.224,0.5,0.5,0.5
			S19,21.276,19,21v-0.5C19,20.224,18.776,20,18.5,20z"/>
		<path d="M12,14c0.276,0,0.5-0.224,0.5-0.5S12.276,13,12,13h-1c-0.276,0-0.5,0.224-0.5,0.5S10.724,14,11,14H12z"/>
		<path d="M19,13h-1c-0.276,0-0.5,0.224-0.5,0.5S17.724,14,18,14h1c0.276,0,0.5-0.224,0.5-0.5S19.276,13,19,13z"/>
	</g>
</g>
<g id="Layer_40">
</g>
<g id="Toilet_Paper">
</g>
<g id="Skull">
</g>
<g id="Skull_Cake">
</g>
<g id="Eyeball">
</g>
<g id="Castle">
</g>
<g id="Witch_x27_s_Hat">
</g>
<g id="Cobweb_1">
</g>
<g id="Cobweb_2">
</g>
<g id="Spider">
</g>
<g id="Full_Moon">
</g>
<g id="Crescent">
</g>
<g id="Crow">
</g>
<g id="Candy_Holder">
</g>
<g id="Bloody_Knife">
</g>
<g id="Bloody_Axe">
</g>
</svg>
