<?xml version="1.0" encoding="iso-8859-1"?>
<!-- Generator: Adobe Illustrator 19.2.1, SVG Export Plug-In . SVG Version: 6.00 Build 0)  -->
<svg version="1.1" xmlns="http://www.w3.org/2000/svg" xmlns:xlink="http://www.w3.org/1999/xlink" x="0px" y="0px"
	 viewBox="0 0 30 30" style="enable-background:new 0 0 30 30;" xml:space="preserve">
<g id="Pompkin">
</g>
<g id="Layer_10">
</g>
<g id="Bat">
</g>
<g id="Ghost">
</g>
<g id="Bone_Hand">
</g>
<g id="Tree_Ghost">
</g>
<g id="Gate">
</g>
<g id="Cemetery_1">
</g>
<g id="Cemetery_2">
</g>
<g id="Devil_x27_s_Fork">
</g>
<g id="Night_Candle">
</g>
<g id="Canlestick">
</g>
<g id="Black_Cat">
</g>
<g id="Witch_Cauldron">
</g>
<g id="Corn_Candy">
</g>
<g id="Layer_29">
</g>
<g id="Bones">
</g>
<g id="Witch_Broom">
</g>
<g id="Owl">
</g>
<g id="Scythe">
</g>
<g id="Grim_Reaper">
</g>
<g id="Coffin">
</g>
<g id="Dracula">
</g>
<g id="Frankenstein">
</g>
<g id="Layer_40">
</g>
<g id="Toilet_Paper">
</g>
<g id="Skull">
</g>
<g id="Skull_Cake">
</g>
<g id="Eyeball">
</g>
<g id="Castle">
</g>
<g id="Witch_x27_s_Hat">
</g>
<g id="Cobweb_1">
</g>
<g id="Cobweb_2">
</g>
<g id="Spider">
</g>
<g id="Full_Moon">
	<g>
		<path d="M24.06,15.936c-0.602-0.23-1.245-0.477-1.931-0.766c-0.215-0.089-0.46-0.022-0.597,0.164
			c-0.137,0.186-0.129,0.441,0.02,0.618c0.452,0.54,0.57,1.03,0.359,1.5c-0.313,0.698-1.238,1.202-1.999,1.386
			c0-0.749,0.001-1.946,0.001-1.946c0-0.231-0.159-0.434-0.385-0.486c-0.227-0.058-0.459,0.056-0.563,0.263l-0.484,0.968
			c-0.211-0.004-0.463-0.003-0.667,0.002l-0.481-0.906c-0.107-0.202-0.341-0.305-0.563-0.251c-0.223,0.056-0.379,0.256-0.379,0.485
			c0,0.001,0.001,1.145,0.001,1.872c-0.761-0.183-1.688-0.688-2-1.386c-0.21-0.471-0.092-0.961,0.36-1.5
			c0.148-0.177,0.157-0.432,0.02-0.618s-0.385-0.251-0.596-0.164c-0.686,0.289-1.33,0.536-1.931,0.766
			c-3.066,1.176-5.281,2.024-5.934,5.916c-0.026,0.154,0.021,0.312,0.128,0.425c0.107,0.114,0.268,0.174,0.416,0.155
			c2.042-0.208,4.005-0.237,4.535,0.966c0.101,0.228,0.355,0.349,0.594,0.279c0.54-0.155,1.667-0.04,2.269,0.494
			c0.373,0.33,0.509,0.776,0.417,1.365c-0.033,0.208,0.069,0.415,0.254,0.516c0.185,0.101,0.413,0.076,0.572-0.064
			c0.338-0.301,1.073-0.453,1.627-0.203c0.442,0.198,0.667,0.601,0.667,1.194c0,0.276,0.224,0.5,0.5,0.5s0.5-0.224,0.5-0.5
			c0-0.604,0.241-1.028,0.696-1.227c0.507-0.219,1.22-0.118,1.588,0.227c0.152,0.144,0.379,0.176,0.562,0.084
			c0.187-0.092,0.298-0.289,0.278-0.496c-0.059-0.621,0.302-1.062,0.614-1.322c0.576-0.479,1.389-0.68,1.793-0.567
			c0.193,0.054,0.4-0.014,0.526-0.169c0.966-1.21,3.066-1.339,4.568-1.08c0.158,0.026,0.323-0.025,0.438-0.139
			c0.115-0.114,0.167-0.277,0.141-0.438C29.34,17.96,27.125,17.111,24.06,15.936z"/>
		<path d="M28.651,17.18c0.057-0.518,0.088-1.036,0.088-1.549c0-7.923-6.446-14.37-14.37-14.37S0,7.707,0,15.63S6.446,30,14.37,30
			c4.809,0,9.211-2.376,11.887-6.337c-0.255,0.121-0.473,0.274-0.629,0.469c-0.382,0.471-0.999,0.664-1.575,0.509
			c-0.126-0.04-0.541,0.084-0.886,0.372c-0.279,0.233-0.264,0.404-0.259,0.46c0.059,0.616-0.276,1.214-0.832,1.487
			c-0.552,0.276-1.233,0.176-1.688-0.254c-0.074-0.06-0.35-0.101-0.506-0.036c-0.021,0.009-0.093,0.04-0.093,0.309
			c0,0.827-0.673,1.5-1.5,1.5s-1.5-0.673-1.5-1.5c0-0.248-0.055-0.272-0.076-0.282c-0.179-0.08-0.474-0.019-0.561,0.044
			c-0.466,0.412-1.154,0.491-1.708,0.189c-0.555-0.302-0.862-0.924-0.764-1.549c0.052-0.334-0.035-0.41-0.092-0.462
			c-0.31-0.273-1.071-0.356-1.329-0.281c-0.714,0.209-1.481-0.151-1.784-0.834c-0.142-0.322-0.866-0.648-3.52-0.377
			c-0.443,0.056-0.918-0.116-1.246-0.466c-0.318-0.337-0.463-0.814-0.386-1.274c0.748-4.455,3.441-5.488,6.561-6.684
			c0.628-0.241,1.246-0.478,1.902-0.754c0.646-0.267,1.38-0.064,1.79,0.492c0.251,0.34,0.34,0.755,0.272,1.147
			c0.185-0.179,0.416-0.311,0.68-0.377c0.612-0.15,1.251,0.097,1.6,0.607c0.337-0.558,1.009-0.843,1.646-0.681
			c0.257,0.06,0.484,0.187,0.668,0.359c-0.04-0.364,0.054-0.741,0.284-1.054c0.41-0.559,1.146-0.762,1.786-0.495
			c0.68,0.286,1.313,0.529,1.904,0.756h0.001l-0.358,0.934l0.36-0.933C26.008,15.612,27.484,16.182,28.651,17.18z M8.065,13.609
			c-1.667,0-3.022-1.355-3.022-3.022c0-1.666,1.355-3.021,3.022-3.021c1.666,0,3.021,1.355,3.021,3.021
			C11.087,12.253,9.731,13.609,8.065,13.609z M14.37,7.304c-0.971,0-1.761-0.79-1.761-1.761s0.79-1.761,1.761-1.761
			s1.76,0.79,1.76,1.761S15.34,7.304,14.37,7.304z"/>
		<path d="M20.998,17.044c0.032-0.07-0.021-0.185-0.091-0.289c0.004,0.045,0.006,0.091,0.006,0.137v0.287
			C20.949,17.133,20.979,17.088,20.998,17.044z"/>
		<path d="M15.41,16.736c-0.075,0.109-0.138,0.233-0.104,0.308c0.02,0.045,0.049,0.09,0.086,0.137v-0.21
			C15.392,16.892,15.398,16.813,15.41,16.736z"/>
	</g>
</g>
<g id="Crescent">
</g>
<g id="Crow">
</g>
<g id="Candy_Holder">
</g>
<g id="Bloody_Knife">
</g>
<g id="Bloody_Axe">
</g>
</svg>
