<?xml version="1.0" encoding="iso-8859-1"?>
<!-- Generator: Adobe Illustrator 19.2.1, SVG Export Plug-In . SVG Version: 6.00 Build 0)  -->
<svg version="1.1" xmlns="http://www.w3.org/2000/svg" xmlns:xlink="http://www.w3.org/1999/xlink" x="0px" y="0px"
	 viewBox="0 0 30 30" style="enable-background:new 0 0 30 30;" xml:space="preserve">
<g id="Pompkin">
</g>
<g id="Layer_10">
</g>
<g id="Bat">
</g>
<g id="Ghost">
</g>
<g id="Bone_Hand">
</g>
<g id="Tree_Ghost">
</g>
<g id="Gate">
	<path d="M29.5,23H28v-6h1.5c0.276,0,0.5-0.224,0.5-0.5S29.776,16,29.5,16H28V9.698l1.457,0.127
		c0.015,0.001,0.029,0.002,0.044,0.002c0.256,0,0.475-0.196,0.497-0.457c0.024-0.275-0.18-0.518-0.455-0.542L28,8.695V7.304h0.761
		c0.202,0,0.385-0.122,0.462-0.309s0.034-0.402-0.108-0.545L27.854,5.19c-0.195-0.195-0.512-0.195-0.707,0l-1.261,1.261
		c-0.143,0.143-0.186,0.358-0.108,0.545s0.26,0.309,0.462,0.309H27v1.304l-5-0.432V4.783h0.761c0.202,0,0.385-0.122,0.462-0.309
		s0.034-0.402-0.108-0.545l-1.261-1.261c-0.195-0.195-0.512-0.195-0.707,0l-1.261,1.261c-0.143,0.143-0.186,0.358-0.108,0.545
		s0.26,0.309,0.462,0.309H21V8.09l-6-0.519v-5.31h0.761c0.202,0,0.385-0.122,0.462-0.309s0.034-0.402-0.108-0.545l-1.261-1.261
		c-0.195-0.195-0.512-0.195-0.707,0l-1.261,1.261C12.743,1.55,12.7,1.765,12.777,1.952c0.077,0.187,0.26,0.309,0.462,0.309H14v5.39
		L9,8.085V4.783h0.761c0.202,0,0.385-0.122,0.462-0.309c0.078-0.187,0.035-0.402-0.108-0.545L8.854,2.668
		c-0.195-0.195-0.512-0.195-0.707,0L6.886,3.929C6.743,4.072,6.7,4.287,6.777,4.474c0.077,0.187,0.26,0.309,0.462,0.309H8v3.39
		L3,8.607V7.304h0.761c0.202,0,0.385-0.122,0.462-0.309C4.3,6.809,4.257,6.594,4.114,6.451L2.854,5.19
		c-0.195-0.195-0.512-0.195-0.707,0L0.886,6.451C0.743,6.594,0.7,6.809,0.777,6.996c0.077,0.187,0.26,0.309,0.462,0.309H2v1.39
		L0.457,8.828C0.182,8.852-0.022,9.094,0.002,9.37c0.023,0.275,0.266,0.482,0.542,0.455L2,9.697V16H0.5C0.224,16,0,16.224,0,16.5
		S0.224,17,0.5,17H2v6H0.5C0.224,23,0,23.224,0,23.5S0.224,24,0.5,24H2v5.5C2,29.776,2.224,30,2.5,30S3,29.776,3,29.5V24h5v5.5
		C8,29.776,8.224,30,8.5,30S9,29.776,9,29.5V24h5v5.5c0,0.276,0.224,0.5,0.5,0.5s0.5-0.224,0.5-0.5V24h6v5.5
		c0,0.276,0.224,0.5,0.5,0.5s0.5-0.224,0.5-0.5V24h5v5.5c0,0.276,0.224,0.5,0.5,0.5s0.5-0.224,0.5-0.5V24h1.5
		c0.276,0,0.5-0.224,0.5-0.5S29.776,23,29.5,23z M27.5,6.25l0.054,0.054h-0.107L27.5,6.25z M21.5,3.729l0.054,0.054h-0.107
		L21.5,3.729z M14.5,1.207l0.054,0.054h-0.107L14.5,1.207z M8.5,3.729l0.054,0.054H8.446L8.5,3.729z M2.5,6.25l0.054,0.054H2.446
		L2.5,6.25z M27,9.611V16h-5V9.176L27,9.611z M21,9.089V16h-6V8.567L21,9.089z M14,8.647V16H9V9.085L14,8.647z M3,9.609l5-0.437V16
		H3V9.609z M3,23v-6h5v6H3z M9,23v-6h5v6H9z M15,23v-6h6v6H15z M22,23v-6h5v6H22z"/>
</g>
<g id="Cemetery_1">
</g>
<g id="Cemetery_2">
</g>
<g id="Devil_x27_s_Fork">
</g>
<g id="Night_Candle">
</g>
<g id="Canlestick">
</g>
<g id="Black_Cat">
</g>
<g id="Witch_Cauldron">
</g>
<g id="Corn_Candy">
</g>
<g id="Layer_29">
</g>
<g id="Bones">
</g>
<g id="Witch_Broom">
</g>
<g id="Owl">
</g>
<g id="Scythe">
</g>
<g id="Grim_Reaper">
</g>
<g id="Coffin">
</g>
<g id="Dracula">
</g>
<g id="Frankenstein">
</g>
<g id="Layer_40">
</g>
<g id="Toilet_Paper">
</g>
<g id="Skull">
</g>
<g id="Skull_Cake">
</g>
<g id="Eyeball">
</g>
<g id="Castle">
</g>
<g id="Witch_x27_s_Hat">
</g>
<g id="Cobweb_1">
</g>
<g id="Cobweb_2">
</g>
<g id="Spider">
</g>
<g id="Full_Moon">
</g>
<g id="Crescent">
</g>
<g id="Crow">
</g>
<g id="Candy_Holder">
</g>
<g id="Bloody_Knife">
</g>
<g id="Bloody_Axe">
</g>
</svg>
