<?xml version="1.0" encoding="iso-8859-1"?>
<!-- Generator: Adobe Illustrator 19.2.1, SVG Export Plug-In . SVG Version: 6.00 Build 0)  -->
<svg version="1.1" xmlns="http://www.w3.org/2000/svg" xmlns:xlink="http://www.w3.org/1999/xlink" x="0px" y="0px"
	 viewBox="0 0 30 30" style="enable-background:new 0 0 30 30;" xml:space="preserve">
<g id="Pompkin">
</g>
<g id="Layer_10">
</g>
<g id="Bat">
</g>
<g id="Ghost">
	<path d="M29.397,11.757c-0.202-1.108-1.277-6.67-2.604-7.297c-0.231-0.109-0.476-0.102-0.688,0.016
		c-0.527,0.293-0.786,1.064-1.112,2.04c-0.533,1.591-1.196,3.571-3.058,3.571c-1.361,0-1.917-0.126-2.021-3.283V4.913
		C19.913,2.204,17.709,0,15,0s-4.913,2.204-4.913,4.913V6.79C10.08,7.049,10.1,7.337,10.122,7.638
		c0.055,0.744,0.111,1.512-0.296,1.951c-0.307,0.331-0.899,0.498-1.76,0.498c-1.702,0-2.387-1.811-3.046-3.999
		C4.679,4.96,4.434,4.145,3.895,3.846C3.659,3.714,3.381,3.722,3.134,3.868C1.711,4.705,0,12.579,0,16.892
		c0,5.333,2.801,10.495,5.314,11.792c1.56,0.803,2.351,0.256,3.116-0.273c0.631-0.437,1.346-0.932,2.787-0.932
		c1.614,0,2.26,0.61,2.944,1.256C14.79,29.328,15.501,30,16.892,30c0.91,0,1.315-1.074,1.783-2.318
		c0.481-1.277,1.027-2.726,1.999-2.726c1.279,0,1.54,0.986,1.791,2.491c0.151,0.904,0.282,1.685,0.9,1.994
		c0.369,0.183,0.8,0.143,1.32-0.128c1.857-0.958,3.736-3.869,4.674-7.244C29.784,20.537,30,19.007,30,17.521
		C30,15.94,29.786,13.893,29.397,11.757z M13.109,6.043c-0.473,0-0.815-0.476-0.815-1.13c0-0.373,0.126-0.717,0.336-0.922
		c0.145-0.14,0.335-0.206,0.514-0.208c0.467,0.015,0.78,0.469,0.78,1.13C13.924,5.568,13.581,6.043,13.109,6.043z M15,10.457
		c-0.655,0-1.13-0.741-1.13-1.761c0-1.021,0.476-1.761,1.13-1.761s1.13,0.741,1.13,1.761C16.13,9.716,15.655,10.457,15,10.457z
		 M16.892,6.043c-0.473,0-0.815-0.476-0.815-1.13c0-0.373,0.126-0.718,0.336-0.922c0.145-0.14,0.35-0.206,0.514-0.208
		c0.467,0.015,0.78,0.469,0.78,1.13C17.706,5.568,17.363,6.043,16.892,6.043z"/>
</g>
<g id="Bone_Hand">
</g>
<g id="Tree_Ghost">
</g>
<g id="Gate">
</g>
<g id="Cemetery_1">
</g>
<g id="Cemetery_2">
</g>
<g id="Devil_x27_s_Fork">
</g>
<g id="Night_Candle">
</g>
<g id="Canlestick">
</g>
<g id="Black_Cat">
</g>
<g id="Witch_Cauldron">
</g>
<g id="Corn_Candy">
</g>
<g id="Layer_29">
</g>
<g id="Bones">
</g>
<g id="Witch_Broom">
</g>
<g id="Owl">
</g>
<g id="Scythe">
</g>
<g id="Grim_Reaper">
</g>
<g id="Coffin">
</g>
<g id="Dracula">
</g>
<g id="Frankenstein">
</g>
<g id="Layer_40">
</g>
<g id="Toilet_Paper">
</g>
<g id="Skull">
</g>
<g id="Skull_Cake">
</g>
<g id="Eyeball">
</g>
<g id="Castle">
</g>
<g id="Witch_x27_s_Hat">
</g>
<g id="Cobweb_1">
</g>
<g id="Cobweb_2">
</g>
<g id="Spider">
</g>
<g id="Full_Moon">
</g>
<g id="Crescent">
</g>
<g id="Crow">
</g>
<g id="Candy_Holder">
</g>
<g id="Bloody_Knife">
</g>
<g id="Bloody_Axe">
</g>
</svg>
