<?xml version="1.0" encoding="iso-8859-1"?>
<!-- Generator: Adobe Illustrator 19.2.1, SVG Export Plug-In . SVG Version: 6.00 Build 0)  -->
<svg version="1.1" xmlns="http://www.w3.org/2000/svg" xmlns:xlink="http://www.w3.org/1999/xlink" x="0px" y="0px"
	 viewBox="0 0 30 30" style="enable-background:new 0 0 30 30;" xml:space="preserve">
<g id="Pompkin">
</g>
<g id="Layer_10">
</g>
<g id="Bat">
</g>
<g id="Ghost">
</g>
<g id="Bone_Hand">
</g>
<g id="Tree_Ghost">
</g>
<g id="Gate">
</g>
<g id="Cemetery_1">
</g>
<g id="Cemetery_2">
</g>
<g id="Devil_x27_s_Fork">
</g>
<g id="Night_Candle">
</g>
<g id="Canlestick">
</g>
<g id="Black_Cat">
</g>
<g id="Witch_Cauldron">
</g>
<g id="Corn_Candy">
</g>
<g id="Layer_29">
</g>
<g id="Bones">
</g>
<g id="Witch_Broom">
</g>
<g id="Owl">
</g>
<g id="Scythe">
</g>
<g id="Grim_Reaper">
	<g>
		<path d="M5.541,13.618c0.084,0,0.169-0.021,0.248-0.066c0.24-0.137,0.323-0.442,0.186-0.682L3.413,8.387
			c0.023-0.029,0.043-0.062,0.06-0.096c2.452-5.181,16.71-6.224,24.739-6.015c0.26-0.008,0.482-0.189,0.51-0.449
			s-0.15-0.497-0.408-0.543C7.917-2.417,0.483,3.655,0.176,3.916c-0.184,0.156-0.23,0.42-0.11,0.629l5.041,8.821
			C5.199,13.527,5.367,13.618,5.541,13.618z"/>
		<path d="M29.296,27.079c-0.674-1.698-1.69-4.265-1.833-7.056c-0.197-3.883-2.564-14.967-10.58-14.967
			c-7.348,0-10.343,10.278-10.582,14.967c-0.142,2.791-1.159,5.357-1.832,7.056c-0.5,1.263-0.803,2.025-0.673,2.542
			C3.852,29.844,4.051,30,4.281,30h25.204c0.229,0,0.43-0.156,0.485-0.379C30.099,29.104,29.797,28.342,29.296,27.079z
			 M21.163,21.194V23.5c0,0.276-0.224,0.5-0.5,0.5h-2.021v-1.76c0-0.276-0.224-0.5-0.5-0.5s-0.5,0.224-0.5,0.5V24h-1.521v-1.76
			c0-0.276-0.224-0.5-0.5-0.5s-0.5,0.224-0.5,0.5V24h-2.02c-0.276,0-0.5-0.224-0.5-0.5v-2.306c-1.605-1.305-2.521-3.206-2.521-5.255
			c0-3.75,3.051-6.801,6.801-6.801s6.801,3.051,6.801,6.801C23.684,17.989,22.769,19.891,21.163,21.194z"/>
		<path d="M19.912,15.138c-0.889,0.023-2.158,0.985-2.265,1.716c-0.068,0.47,0.058,0.918,0.354,1.261
			c0.328,0.38,0.822,0.589,1.39,0.589c0.441,0,0.868-0.224,1.202-0.629c0.438-0.533,0.655-1.291,0.538-1.884
			C20.999,15.516,20.5,15.148,19.912,15.138z"/>
		<path d="M13.838,15.138c-0.633,0.021-1.092,0.378-1.227,1.052c-0.117,0.59,0.098,1.345,0.536,1.878
			c0.336,0.41,0.768,0.636,1.214,0.636c0.574,0,1.073-0.211,1.403-0.593c0.295-0.343,0.42-0.789,0.352-1.257
			C16.01,16.123,14.732,15.161,13.838,15.138z"/>
	</g>
</g>
<g id="Coffin">
</g>
<g id="Dracula">
</g>
<g id="Frankenstein">
</g>
<g id="Layer_40">
</g>
<g id="Toilet_Paper">
</g>
<g id="Skull">
</g>
<g id="Skull_Cake">
</g>
<g id="Eyeball">
</g>
<g id="Castle">
</g>
<g id="Witch_x27_s_Hat">
</g>
<g id="Cobweb_1">
</g>
<g id="Cobweb_2">
</g>
<g id="Spider">
</g>
<g id="Full_Moon">
</g>
<g id="Crescent">
</g>
<g id="Crow">
</g>
<g id="Candy_Holder">
</g>
<g id="Bloody_Knife">
</g>
<g id="Bloody_Axe">
</g>
</svg>
