<?xml version="1.0" encoding="iso-8859-1"?>
<!-- Generator: Adobe Illustrator 19.2.1, SVG Export Plug-In . SVG Version: 6.00 Build 0)  -->
<svg version="1.1" xmlns="http://www.w3.org/2000/svg" xmlns:xlink="http://www.w3.org/1999/xlink" x="0px" y="0px"
	 viewBox="0 0 30 30" style="enable-background:new 0 0 30 30;" xml:space="preserve">
<g id="Pompkin">
</g>
<g id="Layer_10">
</g>
<g id="Bat">
</g>
<g id="Ghost">
</g>
<g id="Bone_Hand">
</g>
<g id="Tree_Ghost">
</g>
<g id="Gate">
</g>
<g id="Cemetery_1">
</g>
<g id="Cemetery_2">
</g>
<g id="Devil_x27_s_Fork">
</g>
<g id="Night_Candle">
</g>
<g id="Canlestick">
</g>
<g id="Black_Cat">
</g>
<g id="Witch_Cauldron">
</g>
<g id="Corn_Candy">
</g>
<g id="Layer_29">
</g>
<g id="Bones">
</g>
<g id="Witch_Broom">
</g>
<g id="Owl">
</g>
<g id="Scythe">
</g>
<g id="Grim_Reaper">
</g>
<g id="Coffin">
</g>
<g id="Dracula">
</g>
<g id="Frankenstein">
</g>
<g id="Layer_40">
	<g>
		<path d="M29.5,15h-1.184l0.277-0.277c0.195-0.195,0.195-0.512,0-0.707s-0.512-0.195-0.707,0L26.902,15H16v-1h2.5
			c0.276,0,0.5-0.224,0.5-0.5v-2.127c1.537-1.4,2.348-2.938,2.348-4.459c0-0.784-0.264-1.298-0.568-1.894
			C20.776,5.013,20.773,5.006,20.77,5H22c0.276,0,0.5-0.224,0.5-0.5S22.276,4,22,4h-1V1.761C21,0.724,20.348,0,19.413,0h-7.565
			C10.846,0,10,0.806,10,1.761V4H9C8.724,4,8.5,4.224,8.5,4.5S8.724,5,9,5h1.5h0.054c-0.223,0.654-0.271,1.153-0.271,1.913
			c0,2.156,0.89,3.649,2.717,4.554V13.5c0,0.276,0.224,0.5,0.5,0.5H15v1H3.099l-0.984-0.984c-0.195-0.195-0.512-0.195-0.707,0
			s-0.195,0.512,0,0.707L1.684,15H0.5C0.224,15,0,15.224,0,15.5S0.224,16,0.5,16h1.445l-0.538,0.538
			c-0.195,0.195-0.195,0.512,0,0.707c0.098,0.098,0.226,0.146,0.354,0.146s0.256-0.049,0.354-0.146L3.359,16h0.454
			c0.074,1.289,0.565,2.18,1.024,2.954c0.518,0.875,0.965,1.631,0.839,2.932c-0.026,0.265,0.16,0.503,0.422,0.543
			c0.264,0.04,0.511-0.132,0.565-0.393c0.127-0.613,0.453-0.959,0.997-1.055c0.787-0.137,1.697,0.304,1.871,0.586
			c0.598,0.969,0.581,2.19,0.562,3.484l-0.006,0.666c0,0.194,0.113,0.372,0.29,0.454c0.176,0.078,0.385,0.053,0.534-0.073
			c0.563-0.477,1.782-0.528,2.713-0.11c0.435,0.195,1.1,0.633,1.376,1.505V29.5c0,0.276,0.224,0.5,0.5,0.5s0.5-0.224,0.5-0.5v-0.942
			c0.015-0.017,0.036-0.025,0.049-0.045c0.926-1.411,2.944-2.445,4.646-2.373c0.676,0.022,1.583,0.229,2.065,1.084
			c0.111,0.197,0.344,0.297,0.563,0.237c0.22-0.058,0.373-0.256,0.373-0.483c0-0.59-0.017-1.238-0.034-1.893
			c-0.037-1.415-0.097-3.728,0.185-4.298c0.053,0.038,0.134,0.105,0.242,0.224c0.106,0.117,0.26,0.179,0.423,0.159
			c0.158-0.018,0.298-0.108,0.378-0.246c0.232-0.402,0.511-0.732,0.805-1.082c0.619-0.734,1.301-1.56,1.631-3.16l0.562,0.562
			c0.098,0.098,0.226,0.146,0.354,0.146s0.256-0.049,0.354-0.146c0.195-0.195,0.195-0.512,0-0.707L28.055,16H29.5
			c0.276,0,0.5-0.224,0.5-0.5S29.776,15,29.5,15z M14,13v-1.852c0-0.199-0.118-0.378-0.3-0.458
			c-1.649-0.721-2.417-1.921-2.417-3.777c0-0.779,0.05-1.198,0.337-1.913h8.032c0.081,0.17,0.161,0.327,0.236,0.475
			c0.276,0.539,0.459,0.896,0.459,1.438c0,1.617-1.184,2.991-2.177,3.859C18.062,10.867,18,11.004,18,11.148V13h-2
			c0-0.276-0.224-0.5-0.5-0.5S15,12.724,15,13H14z M12.348,19.413c0,0.276-0.224,0.5-0.5,0.5h-1.261c-0.276,0-0.5-0.224-0.5-0.5
			v-1.261c0-0.276,0.224-0.5,0.5-0.5h1.261c0.276,0,0.5,0.224,0.5,0.5V19.413z M21,21.5c0,0.276-0.224,0.5-0.5,0.5h-2
			c-0.276,0-0.5-0.224-0.5-0.5v-2c0-0.276,0.224-0.5,0.5-0.5h2c0.276,0,0.5,0.224,0.5,0.5V21.5z"/>
		<path d="M17.521,7.304c0.128,0,0.256-0.049,0.354-0.146l0.631-0.63c0.195-0.195,0.195-0.512,0-0.707s-0.512-0.195-0.707,0
			l-0.631,0.63c-0.195,0.195-0.195,0.512,0,0.707C17.266,7.255,17.394,7.304,17.521,7.304z"/>
		<path d="M13.462,5.82c-0.195-0.195-0.512-0.195-0.707,0s-0.195,0.512,0,0.707l0.63,0.63c0.098,0.098,0.226,0.146,0.354,0.146
			s0.256-0.049,0.354-0.146c0.195-0.195,0.195-0.512,0-0.707L13.462,5.82z"/>
	</g>
</g>
<g id="Toilet_Paper">
</g>
<g id="Skull">
</g>
<g id="Skull_Cake">
</g>
<g id="Eyeball">
</g>
<g id="Castle">
</g>
<g id="Witch_x27_s_Hat">
</g>
<g id="Cobweb_1">
</g>
<g id="Cobweb_2">
</g>
<g id="Spider">
</g>
<g id="Full_Moon">
</g>
<g id="Crescent">
</g>
<g id="Crow">
</g>
<g id="Candy_Holder">
</g>
<g id="Bloody_Knife">
</g>
<g id="Bloody_Axe">
</g>
</svg>
