<?xml version="1.0" encoding="iso-8859-1"?>
<!-- Generator: Adobe Illustrator 19.2.1, SVG Export Plug-In . SVG Version: 6.00 Build 0)  -->
<svg version="1.1" xmlns="http://www.w3.org/2000/svg" xmlns:xlink="http://www.w3.org/1999/xlink" x="0px" y="0px"
	 viewBox="0 0 30 30" style="enable-background:new 0 0 30 30;" xml:space="preserve">
<g id="Pompkin">
</g>
<g id="Layer_10">
	<path d="M23.695,8.533V8.065C23.695,3.618,20.077,0,15.63,0S7.565,3.618,7.565,8.065v0.502C3.304,9.849,0,14.471,0,19.452
		C0,25.269,4.466,30,9.957,30c1.615,0,3.215-0.422,4.645-1.224C16.083,29.578,17.74,30,19.413,30C25.251,30,30,24.968,30,18.782
		C30,14.212,27.404,10.279,23.695,8.533z M23.289,13.124c0.118,0.06,0.209,0.164,0.251,0.289c0.526,1.581-0.331,3.295-1.911,3.822
		c-0.315,0.105-0.638,0.155-0.953,0.155c-1.266,0-2.447-0.802-2.869-2.066c-0.042-0.126-0.032-0.263,0.027-0.382
		s0.163-0.209,0.289-0.25l4.784-1.595C23.034,13.055,23.17,13.065,23.289,13.124z M15.63,10.087c-3.764,0-6.097-0.442-6.86-0.761
		c0.763-0.319,3.096-0.761,6.86-0.761c3.763,0,6.097,0.442,6.86,0.761C21.728,9.645,19.394,10.087,15.63,10.087z M8.565,8.065
		C8.565,4.169,11.735,1,15.63,1c3.896,0,7.065,3.169,7.065,7.065v0.059c-1.035-0.359-2.136-0.559-3.282-0.559
		c-0.351,0-0.72,0.026-1.145,0.076c-1.08-0.063-2.06-0.076-2.638-0.076c-1.377,0-5.015,0.07-6.897,0.737
		C8.722,8.304,8.711,8.299,8.699,8.301C8.654,8.308,8.61,8.322,8.565,8.329V8.065z M7.721,13.413
		c0.042-0.125,0.132-0.229,0.25-0.289c0.12-0.059,0.255-0.07,0.382-0.027l4.785,1.595c0.126,0.042,0.229,0.132,0.289,0.25
		c0.059,0.119,0.069,0.256,0.027,0.382c-0.421,1.264-1.604,2.066-2.869,2.066c-0.316,0-0.638-0.05-0.954-0.155
		C8.051,16.708,7.194,14.994,7.721,13.413z M26.771,20.54c-0.38,0.358-0.775,0.695-1.183,1.011l0.451,0.621
		c0.162,0.224,0.113,0.536-0.11,0.698c-0.089,0.064-0.191,0.096-0.294,0.096c-0.154,0-0.307-0.071-0.404-0.206l-0.46-0.634
		c-0.429,0.293-0.869,0.564-1.322,0.812l0.354,0.695c0.126,0.246,0.027,0.548-0.218,0.673c-0.073,0.037-0.15,0.055-0.228,0.055
		c-0.182,0-0.357-0.1-0.445-0.272l-0.355-0.696c-0.468,0.221-0.946,0.418-1.434,0.593l0.241,0.743
		c0.085,0.263-0.059,0.545-0.321,0.63c-0.051,0.017-0.104,0.024-0.154,0.024c-0.211,0-0.407-0.134-0.476-0.346l-0.237-0.728
		c-0.497,0.144-1.001,0.264-1.512,0.36l0.12,0.758c0.043,0.272-0.144,0.528-0.416,0.572c-0.026,0.004-0.053,0.006-0.079,0.006
		c-0.241,0-0.454-0.176-0.493-0.422l-0.123-0.774c-0.511,0.064-1.026,0.104-1.545,0.12v0.785c0,0.276-0.224,0.5-0.5,0.5
		s-0.5-0.224-0.5-0.5v-0.785c-0.52-0.016-1.035-0.056-1.546-0.12l-0.123,0.774c-0.039,0.246-0.251,0.422-0.493,0.422
		c-0.026,0-0.052-0.002-0.079-0.006c-0.273-0.044-0.459-0.3-0.416-0.572l0.12-0.758c-0.51-0.096-1.015-0.216-1.512-0.36
		l-0.236,0.728c-0.069,0.212-0.265,0.346-0.476,0.346c-0.051,0-0.103-0.008-0.154-0.024c-0.263-0.085-0.407-0.367-0.321-0.63
		l0.241-0.743c-0.488-0.175-0.966-0.372-1.434-0.594l-0.354,0.695c-0.088,0.174-0.264,0.273-0.446,0.273
		c-0.076,0-0.154-0.018-0.227-0.055c-0.246-0.125-0.344-0.426-0.218-0.672l0.354-0.696c-0.453-0.249-0.893-0.52-1.322-0.812
		l-0.46,0.633c-0.098,0.135-0.25,0.206-0.405,0.206c-0.102,0-0.205-0.031-0.293-0.096c-0.223-0.162-0.273-0.475-0.11-0.698
		l0.451-0.621c-0.408-0.317-0.803-0.654-1.183-1.012c-0.201-0.189-0.21-0.506-0.021-0.707c0.19-0.201,0.506-0.21,0.707-0.021
		c0.349,0.329,0.712,0.638,1.087,0.93l0.442-0.609c0.162-0.225,0.474-0.273,0.698-0.11c0.223,0.162,0.273,0.475,0.11,0.698
		l-0.435,0.598c0.386,0.262,0.782,0.505,1.189,0.73l0.336-0.66c0.124-0.247,0.425-0.346,0.672-0.219
		c0.246,0.125,0.344,0.426,0.218,0.672l-0.337,0.661c0.422,0.198,0.851,0.376,1.289,0.534l0.229-0.705
		c0.086-0.264,0.369-0.406,0.63-0.321c0.263,0.085,0.407,0.367,0.321,0.63l-0.233,0.718c0.447,0.129,0.9,0.239,1.358,0.326
		l0.118-0.745c0.043-0.272,0.3-0.456,0.572-0.416c0.273,0.044,0.459,0.3,0.416,0.572l-0.116,0.73c0.46,0.057,0.923,0.092,1.39,0.107
		v-0.737c0-0.276,0.224-0.5,0.5-0.5s0.5,0.224,0.5,0.5v0.737c0.467-0.015,0.93-0.05,1.389-0.107l-0.116-0.73
		c-0.043-0.272,0.144-0.528,0.416-0.572c0.265-0.043,0.529,0.143,0.572,0.416l0.118,0.745c0.459-0.088,0.911-0.198,1.358-0.326
		l-0.233-0.717c-0.085-0.263,0.059-0.545,0.321-0.63c0.262-0.084,0.545,0.059,0.63,0.321l0.229,0.705
		c0.438-0.158,0.867-0.336,1.288-0.534l-0.337-0.66c-0.126-0.246-0.027-0.548,0.218-0.673c0.246-0.124,0.549-0.028,0.673,0.218
		l0.337,0.661c0.406-0.225,0.803-0.467,1.189-0.73l-0.435-0.598c-0.162-0.224-0.113-0.536,0.11-0.698
		c0.223-0.161,0.536-0.114,0.698,0.11L25,20.741c0.374-0.292,0.737-0.601,1.086-0.93c0.201-0.188,0.518-0.18,0.707,0.021
		S26.973,20.351,26.771,20.54z"/>
</g>
<g id="Bat">
</g>
<g id="Ghost">
</g>
<g id="Bone_Hand">
</g>
<g id="Tree_Ghost">
</g>
<g id="Gate">
</g>
<g id="Cemetery_1">
</g>
<g id="Cemetery_2">
</g>
<g id="Devil_x27_s_Fork">
</g>
<g id="Night_Candle">
</g>
<g id="Canlestick">
</g>
<g id="Black_Cat">
</g>
<g id="Witch_Cauldron">
</g>
<g id="Corn_Candy">
</g>
<g id="Layer_29">
</g>
<g id="Bones">
</g>
<g id="Witch_Broom">
</g>
<g id="Owl">
</g>
<g id="Scythe">
</g>
<g id="Grim_Reaper">
</g>
<g id="Coffin">
</g>
<g id="Dracula">
</g>
<g id="Frankenstein">
</g>
<g id="Layer_40">
</g>
<g id="Toilet_Paper">
</g>
<g id="Skull">
</g>
<g id="Skull_Cake">
</g>
<g id="Eyeball">
</g>
<g id="Castle">
</g>
<g id="Witch_x27_s_Hat">
</g>
<g id="Cobweb_1">
</g>
<g id="Cobweb_2">
</g>
<g id="Spider">
</g>
<g id="Full_Moon">
</g>
<g id="Crescent">
</g>
<g id="Crow">
</g>
<g id="Candy_Holder">
</g>
<g id="Bloody_Knife">
</g>
<g id="Bloody_Axe">
</g>
</svg>
