<?xml version="1.0" encoding="iso-8859-1"?>
<!-- Generator: Adobe Illustrator 19.2.1, SVG Export Plug-In . SVG Version: 6.00 Build 0)  -->
<svg version="1.1" xmlns="http://www.w3.org/2000/svg" xmlns:xlink="http://www.w3.org/1999/xlink" x="0px" y="0px"
	 viewBox="0 0 30 30" style="enable-background:new 0 0 30 30;" xml:space="preserve">
<g id="Pompkin">
</g>
<g id="Layer_10">
</g>
<g id="Bat">
</g>
<g id="Ghost">
</g>
<g id="Bone_Hand">
</g>
<g id="Tree_Ghost">
</g>
<g id="Gate">
</g>
<g id="Cemetery_1">
</g>
<g id="Cemetery_2">
</g>
<g id="Devil_x27_s_Fork">
</g>
<g id="Night_Candle">
</g>
<g id="Canlestick">
</g>
<g id="Black_Cat">
</g>
<g id="Witch_Cauldron">
</g>
<g id="Corn_Candy">
</g>
<g id="Layer_29">
	<path d="M28.97,26.408L17.118,14.557c0.951-1.434,1.508-3.15,1.508-4.996c0-4.998-4.066-9.063-9.063-9.063
		C4.566,0.497,0.5,4.563,0.5,9.561s4.066,9.063,9.063,9.063c1.844,0,3.558-0.556,4.991-1.505l11.852,11.853
		c0.342,0.342,0.798,0.531,1.282,0.531c0.484,0,0.94-0.189,1.283-0.531C29.677,28.265,29.677,27.115,28.97,26.408z M17.418,9.561
		c0,0.039-0.005,0.077-0.006,0.116c0.003-0.207-0.006-0.413-0.02-0.619C17.404,9.225,17.418,9.391,17.418,9.561z M9.563,17.416
		c-1.499,0-2.896-0.43-4.089-1.161c-1.542-1.318-2.523-3.274-2.523-5.457c0-3.235,2.632-5.866,5.866-5.866
		c2.654,0,4.813,2.16,4.813,4.814c0,2.19-1.782,3.972-3.972,3.972c-1.819,0-3.298-1.479-3.298-3.298c0-1.522,1.238-2.76,2.759-2.76
		c1.284,0,2.328,1.044,2.328,2.328c0,0.334-0.27,0.604-0.604,0.604s-0.604-0.27-0.604-0.604c0-0.618-0.502-1.12-1.12-1.12
		c-0.855,0-1.551,0.696-1.551,1.551c0,1.152,0.937,2.089,2.089,2.089c1.524,0,2.763-1.24,2.763-2.763
		c0-1.988-1.617-3.605-3.605-3.605C6.25,6.14,4.16,8.23,4.16,10.798c0,3.293,2.679,5.973,5.973,5.973c2.409,0,4.62-1.11,6.077-3.044
		C14.819,15.938,12.363,17.416,9.563,17.416z"/>
</g>
<g id="Bones">
</g>
<g id="Witch_Broom">
</g>
<g id="Owl">
</g>
<g id="Scythe">
</g>
<g id="Grim_Reaper">
</g>
<g id="Coffin">
</g>
<g id="Dracula">
</g>
<g id="Frankenstein">
</g>
<g id="Layer_40">
</g>
<g id="Toilet_Paper">
</g>
<g id="Skull">
</g>
<g id="Skull_Cake">
</g>
<g id="Eyeball">
</g>
<g id="Castle">
</g>
<g id="Witch_x27_s_Hat">
</g>
<g id="Cobweb_1">
</g>
<g id="Cobweb_2">
</g>
<g id="Spider">
</g>
<g id="Full_Moon">
</g>
<g id="Crescent">
</g>
<g id="Crow">
</g>
<g id="Candy_Holder">
</g>
<g id="Bloody_Knife">
</g>
<g id="Bloody_Axe">
</g>
</svg>
