<?xml version="1.0" encoding="iso-8859-1"?>
<!-- Generator: Adobe Illustrator 19.2.1, SVG Export Plug-In . SVG Version: 6.00 Build 0)  -->
<svg version="1.1" xmlns="http://www.w3.org/2000/svg" xmlns:xlink="http://www.w3.org/1999/xlink" x="0px" y="0px"
	 viewBox="0 0 30 30" style="enable-background:new 0 0 30 30;" xml:space="preserve">
<g id="Pompkin">
</g>
<g id="Layer_10">
</g>
<g id="Bat">
</g>
<g id="Ghost">
</g>
<g id="Bone_Hand">
</g>
<g id="Tree_Ghost">
</g>
<g id="Gate">
</g>
<g id="Cemetery_1">
</g>
<g id="Cemetery_2">
</g>
<g id="Devil_x27_s_Fork">
</g>
<g id="Night_Candle">
	<path d="M28.218,21.435c0-1.666-1.355-3.021-3.022-3.021c-1.666,0-3.021,1.355-3.021,3.021c0,1.087,0.582,2.033,1.445,2.565H20V9.5
		C20,9.224,19.776,9,19.5,9h-5V8.473c0.953-0.244,1.821-0.989,2.236-1.989c0.473-1.142,0.239-2.303-0.643-3.185
		c-1.817-1.817-1.767-2.627-1.775-2.629c0.086-0.237-0.019-0.502-0.244-0.617c-0.226-0.113-0.502-0.041-0.642,0.169
		c-0.02,0.03-0.498,0.75-1.907,3.179c-0.783,1.348-0.886,2.723-0.283,3.771c0.456,0.791,1.273,1.259,2.258,1.354V9h-5
		C8.224,9,8,9.224,8,9.5V24H2.5C2.224,24,2,24.224,2,24.5C2,27.636,4.383,30,7.543,30h12.609c3.16,0,5.543-2.364,5.543-5.5
		c0-0.033-0.013-0.062-0.019-0.093C27.114,24.175,28.218,22.936,28.218,21.435z M19,10v1.055c-0.168,0.14-0.323,0.336-0.489,0.551
		c-0.106,0.139-0.293,0.381-0.409,0.48c-0.115-0.059-0.313-0.195-0.464-0.3c-0.575-0.396-1.363-0.938-2.263-0.938
		c-0.933,0-1.376,1.104-1.804,2.172c-0.242,0.602-0.646,1.61-0.946,1.61c-0.316,0-0.659-1.288-0.805-1.837
		c-0.277-1.044-0.517-1.945-1.257-1.945c-0.597,0-0.952,0.404-1.237,0.729C9.204,11.715,9.102,11.822,9,11.908V10H19z
		 M25.195,23.456c-1.114,0-2.021-0.907-2.021-2.021s0.907-2.021,2.021-2.021c1.115,0,2.022,0.907,2.022,2.021
		S26.311,23.456,25.195,23.456z"/>
</g>
<g id="Canlestick">
</g>
<g id="Black_Cat">
</g>
<g id="Witch_Cauldron">
</g>
<g id="Corn_Candy">
</g>
<g id="Layer_29">
</g>
<g id="Bones">
</g>
<g id="Witch_Broom">
</g>
<g id="Owl">
</g>
<g id="Scythe">
</g>
<g id="Grim_Reaper">
</g>
<g id="Coffin">
</g>
<g id="Dracula">
</g>
<g id="Frankenstein">
</g>
<g id="Layer_40">
</g>
<g id="Toilet_Paper">
</g>
<g id="Skull">
</g>
<g id="Skull_Cake">
</g>
<g id="Eyeball">
</g>
<g id="Castle">
</g>
<g id="Witch_x27_s_Hat">
</g>
<g id="Cobweb_1">
</g>
<g id="Cobweb_2">
</g>
<g id="Spider">
</g>
<g id="Full_Moon">
</g>
<g id="Crescent">
</g>
<g id="Crow">
</g>
<g id="Candy_Holder">
</g>
<g id="Bloody_Knife">
</g>
<g id="Bloody_Axe">
</g>
</svg>
