<?xml version="1.0" encoding="iso-8859-1"?>
<!-- Generator: Adobe Illustrator 19.2.1, SVG Export Plug-In . SVG Version: 6.00 Build 0)  -->
<svg version="1.1" xmlns="http://www.w3.org/2000/svg" xmlns:xlink="http://www.w3.org/1999/xlink" x="0px" y="0px"
	 viewBox="0 0 30 30" style="enable-background:new 0 0 30 30;" xml:space="preserve">
<g id="Pompkin">
</g>
<g id="Layer_10">
</g>
<g id="Bat">
</g>
<g id="Ghost">
</g>
<g id="Bone_Hand">
</g>
<g id="Tree_Ghost">
</g>
<g id="Gate">
</g>
<g id="Cemetery_1">
</g>
<g id="Cemetery_2">
</g>
<g id="Devil_x27_s_Fork">
</g>
<g id="Night_Candle">
</g>
<g id="Canlestick">
</g>
<g id="Black_Cat">
</g>
<g id="Witch_Cauldron">
</g>
<g id="Corn_Candy">
</g>
<g id="Layer_29">
</g>
<g id="Bones">
</g>
<g id="Witch_Broom">
</g>
<g id="Owl">
	<g>
		<path d="M11.848,8.565c0.511,0,0.996-0.107,1.438-0.297c0.024,0.054,0.056,0.106,0.1,0.151l1.261,1.261
			C14.744,9.777,14.872,9.826,15,9.826s0.256-0.049,0.354-0.146l1.261-1.261c0.044-0.044,0.076-0.097,0.1-0.151
			c0.442,0.19,0.927,0.297,1.438,0.297c2.014,0,3.652-1.639,3.652-3.652c0-1.095-0.495-2.068-1.261-2.738V0.5
			c0-0.185-0.102-0.354-0.264-0.441c-0.162-0.086-0.359-0.078-0.514,0.025l-1.732,1.155c-1.99-0.37-4.077-0.37-6.069,0l-1.732-1.154
			C10.08-0.019,9.882-0.028,9.721,0.059C9.558,0.146,9.457,0.315,9.457,0.5v1.675C8.69,2.845,8.196,3.818,8.196,4.913
			C8.196,6.927,9.834,8.565,11.848,8.565z M18.152,3.783c0.623,0,1.13,0.507,1.13,1.13s-0.507,1.13-1.13,1.13
			c-0.624,0-1.131-0.507-1.131-1.13S17.528,3.783,18.152,3.783z M15,8.619l-0.874-0.874C14.477,7.461,14.773,7.118,15,6.724
			c0.227,0.393,0.523,0.737,0.874,1.021L15,8.619z M15.974,1.999C15.578,2.296,15.249,2.671,15,3.102
			c-0.249-0.431-0.578-0.806-0.974-1.103C14.675,1.959,15.325,1.959,15.974,1.999z M11.848,3.783c0.623,0,1.13,0.507,1.13,1.13
			s-0.507,1.13-1.13,1.13s-1.13-0.507-1.13-1.13S11.225,3.783,11.848,3.783z"/>
		<path d="M11.943,15.645c-0.008-0.276,0.209-0.506,0.485-0.515c0.282-0.009,0.506,0.209,0.515,0.485
			c0.05,1.75-0.168,6.781-1.733,9.355c1.131,0.794,2.42,1.247,3.79,1.247s2.659-0.453,3.79-1.247
			c-1.564-2.574-1.783-7.605-1.732-9.355c0.008-0.276,0.233-0.492,0.515-0.485c0.275,0.008,0.493,0.238,0.485,0.515
			c-0.066,2.274,0.296,6.55,1.519,8.693c2.105-1.912,3.488-5.1,3.488-8.708c0-2.646-0.749-5.131-2.073-7.059
			c-0.788,0.614-1.766,0.994-2.84,0.994c-0.384,0-0.763-0.047-1.131-0.14l-0.961,0.961C15.777,10.67,15.4,10.826,15,10.826
			s-0.777-0.156-1.061-0.439l-0.961-0.961c-0.368,0.093-0.746,0.14-1.13,0.14c-1.074,0-2.051-0.381-2.84-0.994
			c-1.324,1.928-2.073,4.414-2.073,7.059c0,3.607,1.383,6.794,3.488,8.707C11.647,22.193,12.009,17.919,11.943,15.645z"/>
		<path d="M19.074,25.967c-1.227,0.793-2.608,1.25-4.074,1.25c-1.466,0-2.847-0.457-4.074-1.25l-1.429,3.335
			c-0.066,0.155-0.05,0.332,0.042,0.473C9.632,29.916,9.789,30,9.957,30h10.087c0.168,0,0.325-0.084,0.417-0.225
			c0.093-0.141,0.108-0.318,0.043-0.473L19.074,25.967z"/>
	</g>
</g>
<g id="Scythe">
</g>
<g id="Grim_Reaper">
</g>
<g id="Coffin">
</g>
<g id="Dracula">
</g>
<g id="Frankenstein">
</g>
<g id="Layer_40">
</g>
<g id="Toilet_Paper">
</g>
<g id="Skull">
</g>
<g id="Skull_Cake">
</g>
<g id="Eyeball">
</g>
<g id="Castle">
</g>
<g id="Witch_x27_s_Hat">
</g>
<g id="Cobweb_1">
</g>
<g id="Cobweb_2">
</g>
<g id="Spider">
</g>
<g id="Full_Moon">
</g>
<g id="Crescent">
</g>
<g id="Crow">
</g>
<g id="Candy_Holder">
</g>
<g id="Bloody_Knife">
</g>
<g id="Bloody_Axe">
</g>
</svg>
