<?xml version="1.0" encoding="iso-8859-1"?>
<!-- Generator: Adobe Illustrator 19.2.1, SVG Export Plug-In . SVG Version: 6.00 Build 0)  -->
<svg version="1.1" xmlns="http://www.w3.org/2000/svg" xmlns:xlink="http://www.w3.org/1999/xlink" x="0px" y="0px"
	 viewBox="0 0 30 30" style="enable-background:new 0 0 30 30;" xml:space="preserve">
<g id="Pompkin">
	<path d="M19.413,7.563c-1.175,0-2.323,0.211-3.413,0.608V7.433c0-0.689,1.111-1.729,2.178-2.005L18.5,5.305
		c0.143-0.054,0.252-0.17,0.299-0.315c0.046-0.145,0.024-0.303-0.061-0.43c-0.214-0.32-0.336-0.828-0.336-1.392
		c0-0.379,0.101-0.78,0.299-1.194c0.098-0.204,0.046-0.448-0.125-0.595c-0.173-0.148-0.422-0.161-0.607-0.035l-2.797,1.907
		C13.792,3.942,13,5.338,13,7.083v1.594c-1.142-0.387-3.11-1.56-4.809-2.902c0.104-0.205,0.19-0.429,0.255-0.671
		C8.919,3.336,8.17,0.975,6.903,0.244c-0.756-0.438-1.606-0.273-2.329,0.45c-0.332,0.331-0.675,0.916-0.43,1.82
		C4.43,3.57,5.489,4.794,6.803,5.933c-0.324,0.246-0.745,0.369-1.26,0.369c-4.4,0-4.54-1.952-4.543-2.026
		C0.999,4,0.775,3.81,0.496,3.78C0.22,3.782-0.002,4.008,0,4.284c0.001,0.123,0.086,3.018,5.543,3.018
		c0.827,0,1.523-0.253,2.042-0.724c1.239,0.975,2.602,1.846,3.726,2.434c-0.448-0.068-0.899-0.109-1.354-0.109
		C4.466,8.903,0,13.634,0,19.45c0,5.816,4.466,10.548,9.957,10.548c1.615,0,3.215-0.422,4.645-1.224
		c1.481,0.802,3.139,1.224,4.812,1.224C25.251,29.998,30,24.966,30,18.78C30,12.595,25.251,7.563,19.413,7.563z M7.48,4.844
		C7.455,4.938,7.426,5.028,7.394,5.113C6.238,4.105,5.331,3.068,5.109,2.252C4.981,1.778,5.134,1.548,5.282,1.4
		c0.305-0.305,0.554-0.399,0.754-0.399c0.149,0,0.271,0.052,0.368,0.108C7.196,1.567,7.862,3.417,7.48,4.844z M16.538,16.146
		l3.782-3.783c0.105-0.106,0.263-0.159,0.402-0.144c0.149,0.015,0.284,0.096,0.367,0.22l2.521,3.783
		c0.103,0.153,0.112,0.351,0.024,0.514C23.549,16.898,23.38,17,23.195,17h-6.304c-0.202,0-0.385-0.122-0.462-0.309
		S16.396,16.289,16.538,16.146z M6.987,16.276l1.892-3.783c0.072-0.144,0.208-0.244,0.367-0.27c0.163-0.025,0.32,0.026,0.434,0.14
		l3.783,3.783c0.143,0.143,0.186,0.358,0.108,0.545C13.494,16.878,13.311,17,13.109,17H7.435c-0.173,0-0.334-0.09-0.425-0.237
		S6.91,16.432,6.987,16.276z M26.092,20.93c-0.747,1.24-3.704,5.285-10.396,5.285c-1.231,0-1.696-0.05-1.696-0.583V25h-2v0.212
		c0,0.159-0.076,0.309-0.204,0.403c-0.127,0.094-0.293,0.119-0.445,0.074c-3.143-0.984-5.37-3.179-6.322-4.76
		c-0.101-0.167-0.095-0.377,0.015-0.539c0.11-0.161,0.3-0.244,0.496-0.212l1.294,0.212c1.045,0.169,2.056,0.332,2.767,0.478
		C9.697,20.889,9.782,20.936,9.849,21H11.5c0.196,0,0.365,0.112,0.447,0.276c0.974,0.095,2.389,0.156,3.683,0.156
		c0.774,0,1.703-0.033,2.84-0.101c0.138-0.01,0.272,0.042,0.372,0.135C18.943,21.562,19,21.693,19,21.831V23h1v-1.441
		c0-0.25,0.184-0.461,0.431-0.495c1.372-0.191,2.637-0.425,3.752-0.632c0.5-0.093,0.967-0.179,1.396-0.253
		c0.189-0.034,0.387,0.049,0.498,0.211C26.187,20.552,26.192,20.763,26.092,20.93z"/>
</g>
<g id="Layer_10">
</g>
<g id="Bat">
</g>
<g id="Ghost">
</g>
<g id="Bone_Hand">
</g>
<g id="Tree_Ghost">
</g>
<g id="Gate">
</g>
<g id="Cemetery_1">
</g>
<g id="Cemetery_2">
</g>
<g id="Devil_x27_s_Fork">
</g>
<g id="Night_Candle">
</g>
<g id="Canlestick">
</g>
<g id="Black_Cat">
</g>
<g id="Witch_Cauldron">
</g>
<g id="Corn_Candy">
</g>
<g id="Layer_29">
</g>
<g id="Bones">
</g>
<g id="Witch_Broom">
</g>
<g id="Owl">
</g>
<g id="Scythe">
</g>
<g id="Grim_Reaper">
</g>
<g id="Coffin">
</g>
<g id="Dracula">
</g>
<g id="Frankenstein">
</g>
<g id="Layer_40">
</g>
<g id="Toilet_Paper">
</g>
<g id="Skull">
</g>
<g id="Skull_Cake">
</g>
<g id="Eyeball">
</g>
<g id="Castle">
</g>
<g id="Witch_x27_s_Hat">
</g>
<g id="Cobweb_1">
</g>
<g id="Cobweb_2">
</g>
<g id="Spider">
</g>
<g id="Full_Moon">
</g>
<g id="Crescent">
</g>
<g id="Crow">
</g>
<g id="Candy_Holder">
</g>
<g id="Bloody_Knife">
</g>
<g id="Bloody_Axe">
</g>
</svg>
