<?xml version="1.0" encoding="iso-8859-1"?>
<!-- Generator: Adobe Illustrator 19.2.1, SVG Export Plug-In . SVG Version: 6.00 Build 0)  -->
<svg version="1.1" xmlns="http://www.w3.org/2000/svg" xmlns:xlink="http://www.w3.org/1999/xlink" x="0px" y="0px"
	 viewBox="0 0 30 30" style="enable-background:new 0 0 30 30;" xml:space="preserve">
<g id="Pompkin">
</g>
<g id="Layer_10">
</g>
<g id="Bat">
</g>
<g id="Ghost">
</g>
<g id="Bone_Hand">
</g>
<g id="Tree_Ghost">
</g>
<g id="Gate">
</g>
<g id="Cemetery_1">
</g>
<g id="Cemetery_2">
</g>
<g id="Devil_x27_s_Fork">
</g>
<g id="Night_Candle">
</g>
<g id="Canlestick">
</g>
<g id="Black_Cat">
</g>
<g id="Witch_Cauldron">
</g>
<g id="Corn_Candy">
</g>
<g id="Layer_29">
</g>
<g id="Bones">
</g>
<g id="Witch_Broom">
</g>
<g id="Owl">
</g>
<g id="Scythe">
	<g>
		<path d="M10.396,3.563l3.085,5.141l4.026-2.535l-2.821-4.694c-0.077-0.184-0.184-0.364-0.315-0.536
			c-0.026-0.044-0.06-0.083-0.098-0.116C13.816,0.299,13.166,0,12.478,0c-1.318,0-2.391,1.073-2.391,2.391
			c0,0.371,0.089,0.731,0.264,1.075C10.363,3.5,10.377,3.532,10.396,3.563z"/>
		<path d="M29.59,26.274c-0.003-0.005-0.005-0.009-0.008-0.014L18.023,7.028l-4.027,2.536l11.634,19.389
			C26.078,29.608,26.817,30,27.608,30C28.927,30,30,28.927,30,27.608C30,27.133,29.858,26.673,29.59,26.274z"/>
		<path d="M16,29h-1v-8.956c0-3.057-2.492-5.544-5.565-5.544C6.387,14.5,4,16.936,4,20.044V29H3c-0.276,0-0.5,0.224-0.5,0.5
			S2.724,30,3,30h1.5h10H16c0.276,0,0.5-0.224,0.5-0.5S16.276,29,16,29z M11,24H8c-0.276,0-0.5-0.224-0.5-0.5S7.724,23,8,23h3
			c0.276,0,0.5,0.224,0.5,0.5S11.276,24,11,24z M12,21H7c-0.276,0-0.5-0.224-0.5-0.5S6.724,20,7,20h5c0.276,0,0.5,0.224,0.5,0.5
			S12.276,21,12,21z"/>
		<path d="M12.322,8.716L9.539,4.078C9.501,4.016,9.466,3.945,9.436,3.871C9.405,3.809,9.393,3.743,9.367,3.68
			C2.653,8.256,0,12.033,0,16.892c0,0.202,0.122,0.385,0.309,0.462c0.062,0.025,0.127,0.038,0.191,0.038
			c0.13,0,0.258-0.051,0.354-0.146c0.397-0.397,0.821-0.859,1.282-1.36C4.351,13.471,7.326,10.24,12.322,8.716z"/>
	</g>
</g>
<g id="Grim_Reaper">
</g>
<g id="Coffin">
</g>
<g id="Dracula">
</g>
<g id="Frankenstein">
</g>
<g id="Layer_40">
</g>
<g id="Toilet_Paper">
</g>
<g id="Skull">
</g>
<g id="Skull_Cake">
</g>
<g id="Eyeball">
</g>
<g id="Castle">
</g>
<g id="Witch_x27_s_Hat">
</g>
<g id="Cobweb_1">
</g>
<g id="Cobweb_2">
</g>
<g id="Spider">
</g>
<g id="Full_Moon">
</g>
<g id="Crescent">
</g>
<g id="Crow">
</g>
<g id="Candy_Holder">
</g>
<g id="Bloody_Knife">
</g>
<g id="Bloody_Axe">
</g>
</svg>
