<?xml version="1.0" encoding="iso-8859-1"?>
<!-- Generator: Adobe Illustrator 19.2.1, SVG Export Plug-In . SVG Version: 6.00 Build 0)  -->
<svg version="1.1" xmlns="http://www.w3.org/2000/svg" xmlns:xlink="http://www.w3.org/1999/xlink" x="0px" y="0px"
	 viewBox="0 0 30 30" style="enable-background:new 0 0 30 30;" xml:space="preserve">
<g id="Pompkin">
</g>
<g id="Layer_10">
</g>
<g id="Bat">
</g>
<g id="Ghost">
</g>
<g id="Bone_Hand">
</g>
<g id="Tree_Ghost">
</g>
<g id="Gate">
</g>
<g id="Cemetery_1">
</g>
<g id="Cemetery_2">
</g>
<g id="Devil_x27_s_Fork">
</g>
<g id="Night_Candle">
</g>
<g id="Canlestick">
</g>
<g id="Black_Cat">
</g>
<g id="Witch_Cauldron">
</g>
<g id="Corn_Candy">
</g>
<g id="Layer_29">
</g>
<g id="Bones">
</g>
<g id="Witch_Broom">
</g>
<g id="Owl">
</g>
<g id="Scythe">
</g>
<g id="Grim_Reaper">
</g>
<g id="Coffin">
</g>
<g id="Dracula">
</g>
<g id="Frankenstein">
</g>
<g id="Layer_40">
</g>
<g id="Toilet_Paper">
</g>
<g id="Skull">
</g>
<g id="Skull_Cake">
	<g>
		<path d="M11,12.101V14.5c0,0.276,0.224,0.5,0.5,0.5H13v-1.5c0-0.276,0.224-0.5,0.5-0.5s0.5,0.224,0.5,0.5V15h2v-1.5
			c0-0.276,0.224-0.5,0.5-0.5s0.5,0.224,0.5,0.5V15h1.5c0.276,0,0.5-0.224,0.5-0.5v-2.398c1.791-1.134,2.663-2.87,2.663-5.297
			C21.663,3.052,18.643,0,14.929,0c-3.716,0-6.627,2.989-6.627,6.804C8.302,9.185,9.209,10.965,11,12.101z M15.766,8.022
			c0.106-0.732,1.376-1.694,2.265-1.717c0.645,0.011,1.086,0.378,1.22,1.053c0.117,0.593-0.099,1.35-0.537,1.884
			c-0.334,0.406-0.761,0.63-1.203,0.63c-0.568,0-1.063-0.209-1.391-0.589C15.823,8.94,15.698,8.492,15.766,8.022z M10.727,7.357
			c0.134-0.676,0.611-1.054,1.226-1.052c0.895,0.023,2.174,0.985,2.281,1.716c0.069,0.469-0.057,0.915-0.353,1.258
			c-0.331,0.383-0.829,0.593-1.403,0.593c-0.447,0-0.878-0.226-1.215-0.636C10.825,8.702,10.609,7.947,10.727,7.357z"/>
		<path d="M25,29h-2.792C22.695,28.463,23,27.758,23,26.979v-7.332c0.038-0.071,0.065-0.148,0.065-0.234S23.038,19.25,23,19.18
			v-0.158C23,17.355,21.645,16,19.979,16h-9.957C8.355,16,7,17.355,7,19.021v0.158c-0.038,0.071-0.065,0.148-0.065,0.234
			S6.962,19.576,7,19.647v7.332c0,0.78,0.305,1.485,0.792,2.021H5c-0.276,0-0.5,0.224-0.5,0.5S4.724,30,5,30h5.022h9.957H25
			c0.276,0,0.5-0.224,0.5-0.5S25.276,29,25,29z M8,19.021C8,17.907,8.907,17,10.022,17h9.957C21.093,17,22,17.907,22,19.021v0.02
			c-0.363,0.165-0.6,0.46-0.782,0.702c-0.24,0.319-0.343,0.431-0.549,0.431s-0.309-0.111-0.549-0.431
			c-0.263-0.351-0.623-0.83-1.347-0.83s-1.084,0.479-1.347,0.83c-0.24,0.319-0.342,0.431-0.547,0.431
			c-0.203,0-0.305-0.111-0.544-0.43c-0.262-0.351-0.622-0.831-1.344-0.831s-1.083,0.479-1.346,0.83
			c-0.239,0.319-0.341,0.431-0.546,0.431c-0.204,0-0.306-0.111-0.544-0.43c-0.263-0.351-0.623-0.831-1.345-0.831
			c-0.722,0-1.082,0.48-1.344,0.831c-0.238,0.318-0.339,0.43-0.542,0.43c-0.204,0-0.306-0.111-0.545-0.43
			C8.598,19.502,8.362,19.207,8,19.042V19.021z"/>
	</g>
</g>
<g id="Eyeball">
</g>
<g id="Castle">
</g>
<g id="Witch_x27_s_Hat">
</g>
<g id="Cobweb_1">
</g>
<g id="Cobweb_2">
</g>
<g id="Spider">
</g>
<g id="Full_Moon">
</g>
<g id="Crescent">
</g>
<g id="Crow">
</g>
<g id="Candy_Holder">
</g>
<g id="Bloody_Knife">
</g>
<g id="Bloody_Axe">
</g>
</svg>
