<?xml version="1.0" encoding="iso-8859-1"?>
<!-- Generator: Adobe Illustrator 19.2.1, SVG Export Plug-In . SVG Version: 6.00 Build 0)  -->
<svg version="1.1" xmlns="http://www.w3.org/2000/svg" xmlns:xlink="http://www.w3.org/1999/xlink" x="0px" y="0px"
	 viewBox="0 0 30 30" style="enable-background:new 0 0 30 30;" xml:space="preserve">
<g id="Pompkin">
</g>
<g id="Layer_10">
</g>
<g id="Bat">
</g>
<g id="Ghost">
</g>
<g id="Bone_Hand">
</g>
<g id="Tree_Ghost">
</g>
<g id="Gate">
</g>
<g id="Cemetery_1">
</g>
<g id="Cemetery_2">
</g>
<g id="Devil_x27_s_Fork">
</g>
<g id="Night_Candle">
</g>
<g id="Canlestick">
</g>
<g id="Black_Cat">
</g>
<g id="Witch_Cauldron">
</g>
<g id="Corn_Candy">
</g>
<g id="Layer_29">
</g>
<g id="Bones">
</g>
<g id="Witch_Broom">
</g>
<g id="Owl">
</g>
<g id="Scythe">
</g>
<g id="Grim_Reaper">
</g>
<g id="Coffin">
</g>
<g id="Dracula">
</g>
<g id="Frankenstein">
</g>
<g id="Layer_40">
</g>
<g id="Toilet_Paper">
</g>
<g id="Skull">
	<g>
		<path d="M20.789,23.97c-0.224-0.056-0.458,0.055-0.563,0.262c-1.011,2.015-3.467,2.247-5.227,2.247
			c-1.759,0-4.215-0.233-5.227-2.247c-0.104-0.207-0.336-0.319-0.562-0.262c-0.226,0.054-0.385,0.255-0.385,0.486
			C8.826,27.905,9.242,30,15,30c5.696,0,6.174-2.861,6.174-5.544C21.174,24.225,21.015,24.023,20.789,23.97z"/>
		<path d="M24.393,15.735c0.768-1.533,2.861-6.98,1.202-10.409C23.902,1.829,19.014,0,15.058,0h-0.116
			c-2.223,0-4.741,0.578-6.821,1.705l2.619,0.841c0.251,0.081,0.396,0.342,0.332,0.597l-0.524,2.098l2.747,1.099
			c0.256,0.103,0.381,0.394,0.279,0.65c-0.078,0.196-0.266,0.314-0.464,0.314c-0.062,0-0.125-0.011-0.186-0.036L9.771,6.008
			c-0.232-0.093-0.36-0.343-0.299-0.585l0.517-2.067L7.01,2.398C5.89,3.187,4.968,4.162,4.405,5.326
			C2.747,8.753,4.84,14.201,5.608,15.735l-0.001,0.011c-0.105,1.499-0.225,3.199,1.541,4.112c1.319,0.682,2.754,2.072,2.944,3.408
			c0.015,0.103,0.061,0.198,0.132,0.273c1.142,1.205,3.257,1.419,4.611,1.419c0.42,0,0.768-0.021,0.99-0.039
			c1.545-0.124,3.407-0.569,4.001-1.442c0.043-0.063,0.071-0.135,0.082-0.211c0.19-1.336,1.626-2.727,2.944-3.408
			c1.766-0.913,1.646-2.613,1.54-4.112V15.735z M8.525,16.292c-0.762-0.931-1.152-2.281-0.95-3.282
			c0.221-1.096,0.958-1.699,1.95-1.684c1.657,0.042,3.913,1.86,4.078,2.97c0.115,0.776-0.09,1.515-0.578,2.081
			c-0.564,0.654-1.43,1.015-2.438,1.015C9.838,17.392,9.105,17.001,8.525,16.292z M14.87,20.674c0,1.021-0.476,1.761-1.13,1.761
			s-1.13-0.74-1.13-1.761c0-0.846,1.084-1.939,1.417-2.255c0.146-0.138,0.358-0.175,0.542-0.096
			c0.184,0.078,0.303,0.259,0.303,0.459V20.674z M16.261,22.435c-0.655,0-1.13-0.74-1.13-1.761v-1.892
			c0-0.2,0.119-0.381,0.302-0.459c0.184-0.079,0.396-0.042,0.542,0.096c0.333,0.315,1.417,1.409,1.417,2.255
			C17.392,21.694,16.916,22.435,16.261,22.435z M21.475,16.292c-0.58,0.709-1.313,1.1-2.062,1.1c-0.994,0-1.884-0.37-2.439-1.015
			c-0.487-0.566-0.692-1.306-0.576-2.081c0.165-1.11,2.42-2.927,4.077-2.97c0.021,0,0.041,0,0.063,0
			c0.984,0,1.671,0.611,1.888,1.685C22.627,14.011,22.236,15.361,21.475,16.292z"/>
	</g>
</g>
<g id="Skull_Cake">
</g>
<g id="Eyeball">
</g>
<g id="Castle">
</g>
<g id="Witch_x27_s_Hat">
</g>
<g id="Cobweb_1">
</g>
<g id="Cobweb_2">
</g>
<g id="Spider">
</g>
<g id="Full_Moon">
</g>
<g id="Crescent">
</g>
<g id="Crow">
</g>
<g id="Candy_Holder">
</g>
<g id="Bloody_Knife">
</g>
<g id="Bloody_Axe">
</g>
</svg>
