<?xml version="1.0" encoding="iso-8859-1"?>
<!-- Generator: Adobe Illustrator 19.2.1, SVG Export Plug-In . SVG Version: 6.00 Build 0)  -->
<svg version="1.1" xmlns="http://www.w3.org/2000/svg" xmlns:xlink="http://www.w3.org/1999/xlink" x="0px" y="0px"
	 viewBox="0 0 30 30" style="enable-background:new 0 0 30 30;" xml:space="preserve">
<g id="Pompkin">
</g>
<g id="Layer_10">
</g>
<g id="Bat">
</g>
<g id="Ghost">
</g>
<g id="Bone_Hand">
</g>
<g id="Tree_Ghost">
</g>
<g id="Gate">
</g>
<g id="Cemetery_1">
</g>
<g id="Cemetery_2">
</g>
<g id="Devil_x27_s_Fork">
</g>
<g id="Night_Candle">
</g>
<g id="Canlestick">
</g>
<g id="Black_Cat">
</g>
<g id="Witch_Cauldron">
</g>
<g id="Corn_Candy">
</g>
<g id="Layer_29">
</g>
<g id="Bones">
</g>
<g id="Witch_Broom">
</g>
<g id="Owl">
</g>
<g id="Scythe">
</g>
<g id="Grim_Reaper">
</g>
<g id="Coffin">
</g>
<g id="Dracula">
</g>
<g id="Frankenstein">
</g>
<g id="Layer_40">
</g>
<g id="Toilet_Paper">
</g>
<g id="Skull">
</g>
<g id="Skull_Cake">
</g>
<g id="Eyeball">
</g>
<g id="Castle">
</g>
<g id="Witch_x27_s_Hat">
</g>
<g id="Cobweb_1">
</g>
<g id="Cobweb_2">
</g>
<g id="Spider">
	<path d="M24.81,12.755c-0.111-0.111-0.27-0.165-0.424-0.142l-8.248,1.178l0.077-0.196c0.016,0.002,0.03,0.013,0.046,0.013
		c0.07,0,0.142-0.015,0.21-0.046l8.195-3.783c0.053-0.025,0.102-0.059,0.144-0.101l3.783-3.783c0.195-0.195,0.195-0.512,0-0.707
		s-0.512-0.195-0.707,0l-3.72,3.72l-7.578,3.497l5.3-6.549C21.961,5.769,22,5.658,22,5.543V0.5C22,0.224,21.776,0,21.5,0
		S21,0.224,21,0.5v4.867l-4.704,5.812c-0.037-0.069-0.062-0.142-0.106-0.207c-0.096-0.142-0.21-0.267-0.332-0.381
		c0.295-0.572,0.499-1.502-0.218-2.243c-0.191-0.198-0.508-0.203-0.707-0.012c-0.199,0.192-0.204,0.509-0.012,0.707
		c0.341,0.352,0.196,0.801,0.067,1.057c-0.201-0.06-0.409-0.1-0.626-0.1c-0.316,0-0.62,0.081-0.9,0.211
		c-0.12-0.2-0.391-0.756,0.007-1.167c0.192-0.198,0.187-0.515-0.012-0.707c-0.199-0.191-0.515-0.187-0.707,0.012
		c-0.829,0.857-0.429,1.969-0.077,2.483c-0.039,0.049-0.087,0.089-0.123,0.142c-0.054,0.08-0.087,0.169-0.13,0.253L7,5.348V0.5
		C7,0.224,6.776,0,6.5,0S6,0.224,6,0.5v5.043C6,5.669,6.047,5.79,6.132,5.882l6.015,6.523L4.573,8.91l-3.72-3.72
		c-0.195-0.195-0.512-0.195-0.707,0s-0.195,0.512,0,0.707L3.929,9.68C3.971,9.721,4.02,9.755,4.073,9.78l8.195,3.783
		c0.068,0.031,0.139,0.046,0.209,0.046c0.017,0,0.031-0.012,0.047-0.014l0.077,0.197l-8.248-1.178
		c-0.157-0.022-0.313,0.031-0.424,0.142l-3.783,3.783c-0.195,0.195-0.195,0.512,0,0.707c0.098,0.098,0.226,0.146,0.354,0.146
		s0.256-0.049,0.354-0.146l3.606-3.606l7.597,1.085l-6.895,8.148c-0.055,0.064-0.092,0.143-0.108,0.226l-1.261,6.305
		c-0.054,0.271,0.122,0.534,0.392,0.588C4.218,29.997,4.251,30,4.283,30c0.233,0,0.442-0.164,0.49-0.402l1.235-6.178l4.17-4.928
		c-0.059,0.319-0.091,0.629-0.091,0.921c0,2.361,1.921,4.282,4.283,4.282c2.362,0,4.283-1.921,4.283-4.282
		c0-0.292-0.032-0.602-0.091-0.92l4.169,4.927l1.235,6.178C24.014,29.836,24.222,30,24.455,30c0.033,0,0.066-0.003,0.099-0.01
		c0.271-0.054,0.447-0.317,0.393-0.588l-1.261-6.305c-0.017-0.083-0.054-0.161-0.108-0.226l-6.895-8.148l7.597-1.085l3.606,3.606
		c0.098,0.098,0.226,0.146,0.354,0.146s0.256-0.049,0.354-0.146c0.195-0.195,0.195-0.512,0-0.707L24.81,12.755z M16,19h-1v2
		c0,0.276-0.224,0.5-0.5,0.5S14,21.276,14,21v-2h-1c-0.276,0-0.5-0.224-0.5-0.5S12.724,18,13,18h1v-1c0-0.276,0.224-0.5,0.5-0.5
		S15,16.724,15,17v1h1c0.276,0,0.5,0.224,0.5,0.5S16.276,19,16,19z"/>
</g>
<g id="Full_Moon">
</g>
<g id="Crescent">
</g>
<g id="Crow">
</g>
<g id="Candy_Holder">
</g>
<g id="Bloody_Knife">
</g>
<g id="Bloody_Axe">
</g>
</svg>
