<?xml version="1.0" encoding="iso-8859-1"?>
<!-- Generator: Adobe Illustrator 19.2.1, SVG Export Plug-In . SVG Version: 6.00 Build 0)  -->
<svg version="1.1" xmlns="http://www.w3.org/2000/svg" xmlns:xlink="http://www.w3.org/1999/xlink" x="0px" y="0px"
	 viewBox="0 0 30 30" style="enable-background:new 0 0 30 30;" xml:space="preserve">
<g id="Pompkin">
</g>
<g id="Layer_10">
</g>
<g id="Bat">
</g>
<g id="Ghost">
</g>
<g id="Bone_Hand">
</g>
<g id="Tree_Ghost">
</g>
<g id="Gate">
</g>
<g id="Cemetery_1">
</g>
<g id="Cemetery_2">
</g>
<g id="Devil_x27_s_Fork">
</g>
<g id="Night_Candle">
</g>
<g id="Canlestick">
</g>
<g id="Black_Cat">
</g>
<g id="Witch_Cauldron">
</g>
<g id="Corn_Candy">
</g>
<g id="Layer_29">
</g>
<g id="Bones">
</g>
<g id="Witch_Broom">
</g>
<g id="Owl">
</g>
<g id="Scythe">
</g>
<g id="Grim_Reaper">
</g>
<g id="Coffin">
</g>
<g id="Dracula">
</g>
<g id="Frankenstein">
</g>
<g id="Layer_40">
</g>
<g id="Toilet_Paper">
	<g>
		<path d="M24.456,8.196c-1.21,0-1.761,2.22-1.761,4.282s0.551,4.283,1.761,4.283s1.762-2.22,1.762-4.283S25.666,8.196,24.456,8.196
			z"/>
		<path d="M24.456,0c-0.1,0-0.197,0.021-0.295,0.032C24.11,0.015,24.057,0,24,0H5.543C2.435,0,0,5.481,0,12.478v14.5
			c0,0.239,0.17,0.445,0.405,0.491c0.232,0.043,0.47-0.083,0.559-0.306l1.979-4.946l2.12,7.42C5.125,29.855,5.325,30.004,5.552,30
			c0.227-0.004,0.422-0.159,0.477-0.379l1.45-5.801l1.369,4.563c0.056,0.186,0.213,0.322,0.405,0.351
			c0.192,0.031,0.382-0.056,0.49-0.217l2.105-3.159l2.106,3.159c0.103,0.153,0.283,0.237,0.466,0.22
			c0.184-0.019,0.343-0.137,0.413-0.309l2.059-5.062l2.135,6.294C19.096,29.866,19.289,30,19.5,30c0.026,0,0.054-0.002,0.081-0.007
			C19.823,29.953,20,29.745,20,29.5V25h4.5c0.093,0,0.175-0.032,0.25-0.076C27.716,24.589,30,19.251,30,12.478
			C30,5.481,27.564,0,24.456,0z M20,24v-4.037c0.583,1.772,1.368,3.178,2.291,4.037H20z M24.456,23.956
			c-1.952,0-4.022-3.655-4.456-9.295V12c0-0.09-0.03-0.17-0.072-0.243C20.087,5.295,22.34,1,24.456,1C26.65,1,29,5.612,29,12.478
			S26.65,23.956,24.456,23.956z"/>
	</g>
</g>
<g id="Skull">
</g>
<g id="Skull_Cake">
</g>
<g id="Eyeball">
</g>
<g id="Castle">
</g>
<g id="Witch_x27_s_Hat">
</g>
<g id="Cobweb_1">
</g>
<g id="Cobweb_2">
</g>
<g id="Spider">
</g>
<g id="Full_Moon">
</g>
<g id="Crescent">
</g>
<g id="Crow">
</g>
<g id="Candy_Holder">
</g>
<g id="Bloody_Knife">
</g>
<g id="Bloody_Axe">
</g>
</svg>
