<?xml version="1.0" encoding="iso-8859-1"?>
<!-- Generator: Adobe Illustrator 19.2.1, SVG Export Plug-In . SVG Version: 6.00 Build 0)  -->
<svg version="1.1" xmlns="http://www.w3.org/2000/svg" xmlns:xlink="http://www.w3.org/1999/xlink" x="0px" y="0px"
	 viewBox="0 0 30 30" style="enable-background:new 0 0 30 30;" xml:space="preserve">
<g id="Pompkin">
</g>
<g id="Layer_10">
</g>
<g id="Bat">
</g>
<g id="Ghost">
</g>
<g id="Bone_Hand">
</g>
<g id="Tree_Ghost">
	<path d="M28.857,5.375c0.03-0.274-0.168-0.521-0.442-0.552c-0.274-0.032-0.521,0.167-0.552,0.442
		c-0.106,0.952-0.488,1.92-1.074,2.851L26.31,5.24c-0.046-0.272-0.308-0.461-0.575-0.411c-0.272,0.045-0.457,0.303-0.411,0.575
		l0.637,3.817c0.001,0.006,0.005,0.011,0.006,0.017c-1.569,1.867-3.951,3.471-6.614,4.307C19.147,8.838,19,4.274,19,2.776V1.504
		c0-0.174-0.091-0.335-0.239-0.426c-0.149-0.092-0.335-0.099-0.488-0.019l-2.167,1.107l-0.968-1.011
		C15.039,1.052,14.899,0.987,14.759,1c-0.142,0.005-0.276,0.07-0.367,0.18l-0.681,0.818L13.03,1.18c-0.19-0.229-0.578-0.229-0.769,0
		l-0.684,0.822l-0.695-0.824c-0.135-0.161-0.359-0.219-0.554-0.147C10.131,1.103,10,1.29,10,1.5v1.276
		c0,0.708,0.021,2.312,0.048,4.363c0.032,2.413,0.071,5.454,0.095,8.384c-1.444-0.293-3.415-1.272-5.32-2.762
		c0.329-1.044,0.04-3.057-1.509-5.189C3.153,7.35,2.841,7.3,2.617,7.462c-0.223,0.162-0.273,0.475-0.11,0.698
		c1.242,1.709,1.481,3.123,1.444,3.88c-0.675-0.595-1.33-1.241-1.927-1.952C1.847,9.877,1.53,9.851,1.319,10.027
		c-0.212,0.177-0.239,0.493-0.062,0.704c0.778,0.927,1.63,1.751,2.503,2.475c0.021,0.036,0.039,0.073,0.069,0.104
		c0.063,0.063,0.14,0.098,0.221,0.121c2.193,1.751,4.473,2.83,6.1,3.109c0.026,3.95,0.016,7.529-0.094,8.836
		c-1.883,1.1-3.491,2.502-4.678,3.537l-0.241,0.21c-0.164,0.142-0.217,0.373-0.132,0.573c0.085,0.199,0.291,0.316,0.504,0.302
		c1.888-0.169,3.16-0.578,4.182-0.906c0.863-0.278,1.487-0.477,2.059-0.372c1.431,0.255,4.373,1.244,4.402,1.254
		c0.206,0.069,0.435-0.002,0.563-0.178c0.209-0.285,1.563-1.613,7.77,0.185c0.046,0.013,0.093,0.02,0.139,0.02
		c0.184,0,0.356-0.101,0.444-0.271c0.109-0.212,0.054-0.472-0.133-0.621c-1.258-1.001-2.327-1.266-3.107-1.458
		c-1.05-0.26-1.484-0.367-1.72-2.037c-0.23-1.632-0.496-6.3-0.711-11.037C24.396,13.105,28.432,9.209,28.857,5.375z M14.055,20.334
		c-0.093,0.08-0.21,0.122-0.328,0.122c-0.076,0-0.153-0.018-0.224-0.053l-1.272-0.637c-0.247-0.124-0.347-0.424-0.224-0.671
		l0.636-1.272c0.09-0.181,0.279-0.287,0.483-0.275c0.202,0.015,0.375,0.149,0.438,0.341l0.636,1.909
		C14.266,19.99,14.208,20.201,14.055,20.334z M17.769,19.767l-1.272,0.637c-0.071,0.035-0.147,0.053-0.224,0.053
		c-0.118,0-0.234-0.042-0.328-0.122c-0.153-0.133-0.21-0.344-0.146-0.536l0.636-1.909c0.064-0.191,0.237-0.326,0.439-0.341
		c0.202-0.013,0.392,0.095,0.482,0.275l0.636,1.272C18.115,19.343,18.016,19.643,17.769,19.767z"/>
</g>
<g id="Gate">
</g>
<g id="Cemetery_1">
</g>
<g id="Cemetery_2">
</g>
<g id="Devil_x27_s_Fork">
</g>
<g id="Night_Candle">
</g>
<g id="Canlestick">
</g>
<g id="Black_Cat">
</g>
<g id="Witch_Cauldron">
</g>
<g id="Corn_Candy">
</g>
<g id="Layer_29">
</g>
<g id="Bones">
</g>
<g id="Witch_Broom">
</g>
<g id="Owl">
</g>
<g id="Scythe">
</g>
<g id="Grim_Reaper">
</g>
<g id="Coffin">
</g>
<g id="Dracula">
</g>
<g id="Frankenstein">
</g>
<g id="Layer_40">
</g>
<g id="Toilet_Paper">
</g>
<g id="Skull">
</g>
<g id="Skull_Cake">
</g>
<g id="Eyeball">
</g>
<g id="Castle">
</g>
<g id="Witch_x27_s_Hat">
</g>
<g id="Cobweb_1">
</g>
<g id="Cobweb_2">
</g>
<g id="Spider">
</g>
<g id="Full_Moon">
</g>
<g id="Crescent">
</g>
<g id="Crow">
</g>
<g id="Candy_Holder">
</g>
<g id="Bloody_Knife">
</g>
<g id="Bloody_Axe">
</g>
</svg>
