<?xml version="1.0" encoding="iso-8859-1"?>
<!-- Generator: Adobe Illustrator 19.2.1, SVG Export Plug-In . SVG Version: 6.00 Build 0)  -->
<svg version="1.1" xmlns="http://www.w3.org/2000/svg" xmlns:xlink="http://www.w3.org/1999/xlink" x="0px" y="0px"
	 viewBox="0 0 30 30" style="enable-background:new 0 0 30 30;" xml:space="preserve">
<g id="Pompkin">
</g>
<g id="Layer_10">
</g>
<g id="Bat">
</g>
<g id="Ghost">
</g>
<g id="Bone_Hand">
</g>
<g id="Tree_Ghost">
</g>
<g id="Gate">
</g>
<g id="Cemetery_1">
</g>
<g id="Cemetery_2">
</g>
<g id="Devil_x27_s_Fork">
</g>
<g id="Night_Candle">
</g>
<g id="Canlestick">
</g>
<g id="Black_Cat">
</g>
<g id="Witch_Cauldron">
	<g>
		<circle cx="16.891" cy="6.174" r="1.13"/>
		<circle cx="12.478" cy="5.543" r="1.761"/>
		<circle cx="16.261" cy="1.761" r="1.761"/>
		<path d="M22.57,26.48H21.8v-0.225c2.412-2.021,3.79-4.961,3.79-8.105c0-2.026-0.582-3.974-1.676-5.67
			c0.359-0.342,0.586-0.822,0.586-1.356v-0.249C24.5,9.841,23.659,9,22.625,9H7.375C6.341,9,5.5,9.841,5.5,10.875v0.249
			c0,0.534,0.227,1.014,0.586,1.356c-1.094,1.697-1.676,3.645-1.676,5.67c0,3.145,1.378,6.085,3.79,8.105v0.225H7.43
			c-0.971,0-1.76,0.789-1.76,1.76S6.459,30,7.43,30h2.53c0.19,0,0.363-0.107,0.448-0.277l0.833-1.675c2.417,0.92,5.1,0.92,7.518,0
			l0.834,1.675C19.677,29.893,19.851,30,20.04,30h2.53c0.971,0,1.76-0.789,1.76-1.76S23.541,26.48,22.57,26.48z M8.331,21.762
			c-0.067,0.031-0.138,0.046-0.208,0.046c-0.189,0-0.371-0.108-0.455-0.291c-0.486-1.06-0.733-2.191-0.733-3.364
			c0-0.276,0.224-0.5,0.5-0.5s0.5,0.224,0.5,0.5c0,1.028,0.216,2.02,0.642,2.946C8.692,21.35,8.582,21.646,8.331,21.762z"/>
	</g>
</g>
<g id="Corn_Candy">
</g>
<g id="Layer_29">
</g>
<g id="Bones">
</g>
<g id="Witch_Broom">
</g>
<g id="Owl">
</g>
<g id="Scythe">
</g>
<g id="Grim_Reaper">
</g>
<g id="Coffin">
</g>
<g id="Dracula">
</g>
<g id="Frankenstein">
</g>
<g id="Layer_40">
</g>
<g id="Toilet_Paper">
</g>
<g id="Skull">
</g>
<g id="Skull_Cake">
</g>
<g id="Eyeball">
</g>
<g id="Castle">
</g>
<g id="Witch_x27_s_Hat">
</g>
<g id="Cobweb_1">
</g>
<g id="Cobweb_2">
</g>
<g id="Spider">
</g>
<g id="Full_Moon">
</g>
<g id="Crescent">
</g>
<g id="Crow">
</g>
<g id="Candy_Holder">
</g>
<g id="Bloody_Knife">
</g>
<g id="Bloody_Axe">
</g>
</svg>
