<?xml version="1.0" encoding="iso-8859-1"?>
<!-- Generator: Adobe Illustrator 19.2.1, SVG Export Plug-In . SVG Version: 6.00 Build 0)  -->
<svg version="1.1" xmlns="http://www.w3.org/2000/svg" xmlns:xlink="http://www.w3.org/1999/xlink" x="0px" y="0px"
	 viewBox="0 0 30 30" style="enable-background:new 0 0 30 30;" xml:space="preserve">
<g id="Pompkin">
</g>
<g id="Layer_10">
</g>
<g id="Bat">
</g>
<g id="Ghost">
</g>
<g id="Bone_Hand">
</g>
<g id="Tree_Ghost">
</g>
<g id="Gate">
</g>
<g id="Cemetery_1">
</g>
<g id="Cemetery_2">
</g>
<g id="Devil_x27_s_Fork">
</g>
<g id="Night_Candle">
</g>
<g id="Canlestick">
</g>
<g id="Black_Cat">
</g>
<g id="Witch_Cauldron">
</g>
<g id="Corn_Candy">
</g>
<g id="Layer_29">
</g>
<g id="Bones">
</g>
<g id="Witch_Broom">
</g>
<g id="Owl">
</g>
<g id="Scythe">
</g>
<g id="Grim_Reaper">
</g>
<g id="Coffin">
</g>
<g id="Dracula">
</g>
<g id="Frankenstein">
</g>
<g id="Layer_40">
</g>
<g id="Toilet_Paper">
</g>
<g id="Skull">
</g>
<g id="Skull_Cake">
</g>
<g id="Eyeball">
</g>
<g id="Castle">
</g>
<g id="Witch_x27_s_Hat">
	<g>
		<path d="M13.78,17.41c-0.468,0-0.948-0.02-1.427-0.049v1.417c0,0.031-0.012,0.058-0.018,0.088
			c0.451,0.027,0.932,0.043,1.445,0.043c0.484,0,0.937-0.019,1.374-0.045c-0.005-0.029-0.017-0.055-0.017-0.086v-1.41
			C14.693,17.394,14.241,17.41,13.78,17.41z"/>
		<path d="M16.137,17.29v1.488c0,0.001-0.001,0.002-0.001,0.004c1.731-0.19,2.971-0.567,3.539-0.937
			c-0.113-0.403-0.226-0.813-0.34-1.229C18.504,16.928,17.393,17.16,16.137,17.29z"/>
		<path d="M11.353,18.776v-1.498c-1.461-0.156-2.813-0.461-3.707-0.928c-0.022,0.42-0.041,0.832-0.055,1.233
			C7.734,17.923,9,18.514,11.353,18.776z"/>
		<path d="M20.824,21.87c-0.036-0.125-0.068-0.237-0.107-0.37c-0.221-0.766-0.484-1.677-0.763-2.662
			c-1.242,0.657-3.574,1.071-6.174,1.071c-2.377,0-4.875-0.35-6.222-1.095c-0.024,1.283-0.016,2.406-0.004,3.296l0.012,0.003
			l0.003,1.079c0,1.145,3.507,1.762,6.807,1.762c0.276,0,0.5,0.224,0.5,0.5s-0.224,0.5-0.5,0.5c-1.832,0-7.807-0.199-7.807-2.761
			l-0.003-1.107C3.882,22.58,0,23.65,0,25.716C0,28.498,7.406,30,14.375,30s14.375-1.502,14.375-4.284
			C28.75,23.309,23.524,22.253,20.824,21.87z"/>
		<path d="M19.073,15.647c-0.763-2.853-1.471-5.796-1.678-7.646c-0.258-2.297,0.005-3.732,0.782-4.265
			c0.838-0.572,2.45-0.242,4.796,0.98c0.202,0.105,0.452,0.061,0.605-0.111c0.152-0.171,0.168-0.424,0.039-0.614
			c-2.047-3.001-6.489-5.125-10.097-3.319C9.45,2.707,8.126,9.466,7.716,15.214c0.656,0.603,2.999,1.196,6.064,1.196
			C15.906,16.41,17.868,16.125,19.073,15.647z"/>
	</g>
</g>
<g id="Cobweb_1">
</g>
<g id="Cobweb_2">
</g>
<g id="Spider">
</g>
<g id="Full_Moon">
</g>
<g id="Crescent">
</g>
<g id="Crow">
</g>
<g id="Candy_Holder">
</g>
<g id="Bloody_Knife">
</g>
<g id="Bloody_Axe">
</g>
</svg>
