<?xml version="1.0" encoding="iso-8859-1"?>
<!-- Generator: Adobe Illustrator 19.2.1, SVG Export Plug-In . SVG Version: 6.00 Build 0)  -->
<svg version="1.1" xmlns="http://www.w3.org/2000/svg" xmlns:xlink="http://www.w3.org/1999/xlink" x="0px" y="0px"
	 viewBox="0 0 30 30" style="enable-background:new 0 0 30 30;" xml:space="preserve">
<g id="Pompkin">
</g>
<g id="Layer_10">
</g>
<g id="Bat">
</g>
<g id="Ghost">
</g>
<g id="Bone_Hand">
</g>
<g id="Tree_Ghost">
</g>
<g id="Gate">
</g>
<g id="Cemetery_1">
</g>
<g id="Cemetery_2">
</g>
<g id="Devil_x27_s_Fork">
</g>
<g id="Night_Candle">
</g>
<g id="Canlestick">
</g>
<g id="Black_Cat">
</g>
<g id="Witch_Cauldron">
</g>
<g id="Corn_Candy">
</g>
<g id="Layer_29">
</g>
<g id="Bones">
</g>
<g id="Witch_Broom">
	<g>
		<path d="M15.706,16.598l0.892-0.892c0.687-0.686,0.687-1.803,0-2.49c-0.686-0.687-1.803-0.687-2.49,0l-0.892,0.892
			c-0.687,0.687-0.687,1.804,0,2.49c0.344,0.344,0.794,0.515,1.245,0.515C14.912,17.112,15.363,16.94,15.706,16.598z"/>
		<path d="M14.033,12.05c-0.656-0.929-1.579-2.151-2.356-2.861C11.145,8.7,10.6,8.268,10.073,7.85
			c-0.801-0.636-1.558-1.237-2.27-2.014C6.679,4.609,4.907,1.051,4.772,0.398c-0.029-0.14-0.117-0.26-0.24-0.332
			C4.408-0.005,4.261-0.02,4.125,0.026L0.342,1.287c-0.228,0.076-0.369,0.302-0.337,0.54c0.189,1.426,3.205,5.846,3.235,5.89
			c0.716,1.047,1.839,1.638,3.14,2.323c0.864,0.455,1.843,0.971,2.89,1.709c1.305,0.921,2.168,1.795,2.703,2.429
			c0.134-0.284,0.308-0.549,0.536-0.777l0.892-0.892C13.589,12.32,13.806,12.174,14.033,12.05z"/>
		<path d="M24.893,17.296L24.893,17.296c-1.65-1.207-4.449-2.523-6.799-3.023c0.004,0.063,0.018,0.125,0.018,0.189
			c0,0.738-0.287,1.431-0.808,1.952l-0.892,0.892c-0.521,0.521-1.215,0.808-1.952,0.808c-0.064,0-0.125-0.014-0.189-0.018
			c0.5,2.35,1.816,5.149,3.023,6.799c1.811,2.472,4.976,5.01,7.965,5.107c0.006,0,0.012,0,0.017,0c0.22,0,0.414-0.144,0.479-0.355
			c0.065-0.217-0.023-0.451-0.216-0.57c-0.353-0.218-1.096-0.825-1.145-1.311c-0.01-0.1,0.002-0.255,0.216-0.456
			c0.385-0.362,1.126,0.139,1.982,0.781c0.736,0.554,1.499,1.123,2.051,0.534c0.566-0.602,0.011-1.631-0.631-2.823
			c-0.146-0.271-0.336-0.622-0.467-0.907c0.188,0.115,0.394,0.257,0.536,0.354c0.621,0.427,1.068,0.73,1.49,0.595
			c0.188-0.063,0.334-0.209,0.4-0.403c0.02-0.057,0.028-0.117,0.026-0.178C29.902,22.271,27.364,19.106,24.893,17.296z"/>
	</g>
</g>
<g id="Owl">
</g>
<g id="Scythe">
</g>
<g id="Grim_Reaper">
</g>
<g id="Coffin">
</g>
<g id="Dracula">
</g>
<g id="Frankenstein">
</g>
<g id="Layer_40">
</g>
<g id="Toilet_Paper">
</g>
<g id="Skull">
</g>
<g id="Skull_Cake">
</g>
<g id="Eyeball">
</g>
<g id="Castle">
</g>
<g id="Witch_x27_s_Hat">
</g>
<g id="Cobweb_1">
</g>
<g id="Cobweb_2">
</g>
<g id="Spider">
</g>
<g id="Full_Moon">
</g>
<g id="Crescent">
</g>
<g id="Crow">
</g>
<g id="Candy_Holder">
</g>
<g id="Bloody_Knife">
</g>
<g id="Bloody_Axe">
</g>
</svg>
